<svg width="129" height="31" viewBox="0 0 129 31" fill="none" xmlns="http://www.w3.org/2000/svg">
<path d="M11 30.4C9.08 30.4 7.37333 30.16 5.88 29.68C4.38667 29.2 2.98667 28.3867 1.68 27.24C0.96 26.6 0.6 25.8933 0.6 25.12C0.6 24.5067 0.826667 23.9733 1.28 23.52C1.73333 23.04 2.28 22.8 2.92 22.8C3.42667 22.8 3.88 22.96 4.28 23.28C5.34667 24.16 6.38667 24.8 7.4 25.2C8.41333 25.6 9.61333 25.8 11 25.8C12.4933 25.8 13.7733 25.4667 14.84 24.8C15.9333 24.1333 16.48 23.3067 16.48 22.32C16.48 21.12 15.9467 20.1867 14.88 19.52C13.8133 18.8267 12.12 18.3067 9.8 17.96C3.96 17.1067 1.04 14.3867 1.04 9.8C1.04 8.12 1.48 6.66667 2.36 5.44C3.24 4.18667 4.44 3.24 5.96 2.6C7.48 1.93333 9.17333 1.6 11.04 1.6C12.72 1.6 14.2933 1.85333 15.76 2.36C17.2533 2.86666 18.4933 3.53333 19.48 4.36C20.2533 4.97333 20.64 5.68 20.64 6.48C20.64 7.09333 20.4133 7.64 19.96 8.12C19.5067 8.57333 18.9733 8.8 18.36 8.8C17.96 8.8 17.6 8.68 17.28 8.44C16.5867 7.88 15.6133 7.37333 14.36 6.92C13.1333 6.44 12.0267 6.2 11.04 6.2C9.36 6.2 8.05333 6.52 7.12 7.16C6.21333 7.77333 5.76 8.58666 5.76 9.6C5.76 10.7467 6.22667 11.6133 7.16 12.2C8.12 12.7867 9.61333 13.2667 11.64 13.64C13.9333 14.04 15.76 14.56 17.12 15.2C18.5067 15.8133 19.5467 16.6667 20.24 17.76C20.9333 18.8267 21.28 20.2533 21.28 22.04C21.28 23.72 20.8 25.2 19.84 26.48C18.9067 27.7333 17.6533 28.7067 16.08 29.4C14.5067 30.0667 12.8133 30.4 11 30.4ZM42.7872 8.2C43.4805 8.2 44.0539 8.42667 44.5072 8.88C44.9605 9.33333 45.1872 9.92 45.1872 10.64V27.56C45.1872 28.2533 44.9605 28.84 44.5072 29.32C44.0539 29.7733 43.4805 30 42.7872 30C42.0939 30 41.5205 29.7733 41.0672 29.32C40.6405 28.8667 40.4139 28.2933 40.3872 27.6C39.7205 28.3733 38.8139 29.04 37.6672 29.6C36.5472 30.1333 35.3605 30.4 34.1072 30.4C32.2672 30.4 30.6005 29.9333 29.1072 29C27.6139 28.04 26.4272 26.72 25.5472 25.04C24.6939 23.36 24.2672 21.4533 24.2672 19.32C24.2672 17.1867 24.6939 15.28 25.5472 13.6C26.4005 11.8933 27.5605 10.5733 29.0272 9.64C30.5205 8.68 32.1605 8.2 33.9472 8.2C35.2272 8.2 36.4272 8.44 37.5472 8.92C38.6672 9.37333 39.6139 9.96 40.3872 10.68V10.64C40.3872 9.94666 40.6139 9.37333 41.0672 8.92C41.5205 8.44 42.0939 8.2 42.7872 8.2ZM34.7072 26C36.4405 26 37.8539 25.3733 38.9472 24.12C40.0405 22.84 40.5872 21.24 40.5872 19.32C40.5872 17.4 40.0405 15.8 38.9472 14.52C37.8539 13.24 36.4405 12.6 34.7072 12.6C33.0005 12.6 31.6005 13.24 30.5072 14.52C29.4139 15.8 28.8672 17.4 28.8672 19.32C28.8672 21.24 29.4005 22.84 30.4672 24.12C31.5605 25.3733 32.9739 26 34.7072 26ZM61.8291 8.2C64.5491 8.2 66.4291 9.01333 67.4691 10.64C68.5091 12.24 69.0291 14.4667 69.0291 17.32V27.56C69.0291 28.2533 68.8024 28.84 68.3491 29.32C67.8957 29.7733 67.3224 30 66.6291 30C65.9357 30 65.3624 29.7733 64.9091 29.32C64.4557 28.84 64.2291 28.2533 64.2291 27.56V17.32C64.2291 15.8533 63.9224 14.7067 63.3091 13.88C62.6957 13.0267 61.6424 12.6 60.1491 12.6C58.6024 12.6 57.3891 13.0533 56.5091 13.96C55.6291 14.84 55.1891 15.96 55.1891 17.32V27.56C55.1891 28.2533 54.9624 28.84 54.5091 29.32C54.0557 29.7733 53.4824 30 52.7891 30C52.0957 30 51.5224 29.7733 51.0691 29.32C50.6157 28.84 50.3891 28.2533 50.3891 27.56V11.04C50.3891 10.3467 50.6157 9.77333 51.0691 9.32C51.5224 8.84 52.0957 8.6 52.7891 8.6C53.4824 8.6 54.0557 8.84 54.5091 9.32C54.9624 9.77333 55.1891 10.3467 55.1891 11.04V11.72C55.9091 10.76 56.8424 9.93333 57.9891 9.24C59.1624 8.54667 60.4424 8.2 61.8291 8.2ZM85.2972 8.2C87.1372 8.2 88.8039 8.68 90.2972 9.64C91.7905 10.5733 92.9639 11.88 93.8172 13.56C94.6972 15.24 95.1372 17.1467 95.1372 19.28C95.1372 21.4133 94.7105 23.3333 93.8572 25.04C93.0039 26.72 91.8305 28.04 90.3372 29C88.8705 29.9333 87.2439 30.4 85.4572 30.4C84.1772 30.4 82.9639 30.1467 81.8172 29.64C80.6972 29.1067 79.7639 28.4667 79.0172 27.72V27.96C79.0172 28.6533 78.7905 29.24 78.3372 29.72C77.8839 30.1733 77.3105 30.4 76.6172 30.4C75.9239 30.4 75.3505 30.1733 74.8972 29.72C74.4439 29.2667 74.2172 28.68 74.2172 27.96V2.84C74.2172 2.14667 74.4439 1.57333 74.8972 1.12C75.3505 0.639999 75.9239 0.4 76.6172 0.4C77.3105 0.4 77.8839 0.639999 78.3372 1.12C78.7905 1.57333 79.0172 2.14667 79.0172 2.84V11.2C79.6572 10.4 80.5505 9.70667 81.6972 9.12C82.8439 8.50667 84.0439 8.2 85.2972 8.2ZM84.6972 26C86.4039 26 87.8039 25.36 88.8972 24.08C89.9905 22.8 90.5372 21.2 90.5372 19.28C90.5372 17.36 89.9905 15.7733 88.8972 14.52C87.8305 13.24 86.4305 12.6 84.6972 12.6C82.9639 12.6 81.5505 13.24 80.4572 14.52C79.3639 15.7733 78.8172 17.36 78.8172 19.28C78.8172 21.2 79.3639 22.8 80.4572 24.08C81.5505 25.36 82.9639 26 84.6972 26ZM104.339 27.56C104.339 28.2533 104.099 28.84 103.619 29.32C103.166 29.7733 102.592 30 101.899 30C101.232 30 100.672 29.7733 100.219 29.32C99.7657 28.84 99.5391 28.2533 99.5391 27.56V2.84C99.5391 2.14667 99.7657 1.57333 100.219 1.12C100.699 0.639999 101.286 0.4 101.979 0.4C102.646 0.4 103.206 0.639999 103.659 1.12C104.112 1.57333 104.339 2.14667 104.339 2.84V27.56ZM128.73 18.8C128.703 19.44 128.45 19.96 127.97 20.36C127.49 20.76 126.93 20.96 126.29 20.96H113.09C113.41 22.5333 114.143 23.7733 115.29 24.68C116.436 25.56 117.73 26 119.17 26C120.263 26 121.116 25.9067 121.73 25.72C122.343 25.5067 122.823 25.2933 123.17 25.08C123.543 24.84 123.796 24.68 123.93 24.6C124.41 24.36 124.863 24.24 125.29 24.24C125.85 24.24 126.33 24.44 126.73 24.84C127.13 25.24 127.33 25.7067 127.33 26.24C127.33 26.96 126.956 27.6133 126.21 28.2C125.463 28.8133 124.463 29.3333 123.21 29.76C121.956 30.1867 120.69 30.4 119.41 30.4C117.17 30.4 115.21 29.9333 113.53 29C111.876 28.0667 110.596 26.7867 109.69 25.16C108.783 23.5067 108.33 21.6533 108.33 19.6C108.33 17.3067 108.81 15.2933 109.77 13.56C110.73 11.8267 111.996 10.5067 113.57 9.6C115.143 8.66667 116.823 8.2 118.61 8.2C120.37 8.2 122.023 8.68 123.57 9.64C125.143 10.6 126.396 11.8933 127.33 13.52C128.263 15.1467 128.73 16.9067 128.73 18.8ZM118.61 12.6C115.516 12.6 113.69 14.0533 113.13 16.96H123.61V16.68C123.503 15.56 122.956 14.6 121.97 13.8C120.983 13 119.863 12.6 118.61 12.6Z" fill="#FF8634"/>
</svg>
