<svg width="390" height="570" viewBox="0 0 390 570" fill="none" xmlns="http://www.w3.org/2000/svg">
<path d="M434.193 572.605C428.516 573.732 422.537 574.39 416.3 574.575C339.766 576.661 241.159 531.074 164.126 464.104C83.2917 393.809 -3.77876 294.906 -30.3684 211.418C-49.3584 151.861 -49.964 100.329 -26.6057 59.8659C-3.24735 19.4024 34.3857 -17.2963 122.327 8.96191C146.855 16.2757 193.093 41.5813 213.118 62.085C245.066 94.8187 250.44 133.79 253.043 167.292C255.646 200.794 260.911 239.719 292.755 272.516C317.232 297.733 350.17 311.532 379.575 330.49C429.595 362.759 471.447 413.416 486.917 460.422C492.083 476.2 494.373 491.384 493.687 505.318C492.022 541.15 469.677 565.527 434.105 572.532L434.193 572.605Z" fill="url(#paint0_linear_33_3190)" fill-opacity="0.09"/>
<defs>
<linearGradient id="paint0_linear_33_3190" x1="338.874" y1="166.986" x2="120.319" y2="427.449" gradientUnits="userSpaceOnUse">
<stop stop-color="#FF7315"/>
<stop offset="1" stop-color="#FF7315" stop-opacity="0"/>
</linearGradient>
</defs>
</svg>
