<svg width="390" height="175" viewBox="0 0 390 175" fill="none" xmlns="http://www.w3.org/2000/svg">
<path d="M469.894 68.6076C467.838 72.6544 465.285 76.7622 462.253 80.8991C424.928 131.617 341.466 182.801 253.289 213.589C160.746 245.89 44.0766 273.883 -30.5938 266.801C-83.8718 261.763 -121.936 247.044 -139.725 219.883C-157.514 192.721 -165.298 157.319 -101.413 107.447C-83.6023 93.5348 -41.5871 70.6863 -16.3975 63.5903C23.8052 52.2767 55.0883 60.1895 80.9565 68.3126C106.825 76.4357 138.018 84.4066 178.215 73.1792C209.117 64.5514 235.95 47.0353 264.769 33.345C313.806 10.0636 372.17 -2.47729 414.465 1.18321C428.648 2.42885 440.936 5.38385 450.797 9.92019C476.206 21.5211 482.723 43.3001 469.796 68.6434L469.894 68.6076Z" fill="url(#paint0_linear_33_3189)"/>
<defs>
<linearGradient id="paint0_linear_33_3189" x1="147.749" y1="13.7801" x2="240.749" y2="214.78" gradientUnits="userSpaceOnUse">
<stop stop-color="#FF7315" stop-opacity="0.38"/>
<stop offset="1" stop-color="#FFE0C9" stop-opacity="0"/>
</linearGradient>
</defs>
</svg>
