<svg width="390" height="534" viewBox="0 0 390 534" fill="none" xmlns="http://www.w3.org/2000/svg">
<path d="M549.15 73.1827C550.992 79.4591 552.339 86.0171 553.182 92.8056C563.32 176.096 522.245 278.489 454.992 355.285C384.397 435.868 282.356 520.305 191.439 540.661C126.584 555.206 68.8568 550.612 21.0993 521.133C-26.6582 491.655 -71.6482 447.064 -51.1624 354.279C-45.4597 328.4 -21.7927 280.787 -0.839573 261.139C32.6138 229.795 75.7703 227.932 113.075 228.52C150.381 229.109 193.496 227.36 227.031 196.135C252.816 172.135 264.935 137.787 283.198 107.799C314.289 56.7907 366.833 16.5218 417.971 4.51907C435.138 0.518682 451.933 -0.419656 467.63 1.74473C507.983 7.20366 537.597 33.9426 549.077 73.2702L549.15 73.1827Z" fill="url(#paint0_linear_56_3787)" fill-opacity="0.09"/>
<defs>
<linearGradient id="paint0_linear_56_3787" x1="103.986" y1="135.319" x2="418.35" y2="399.102" gradientUnits="userSpaceOnUse">
<stop stop-color="#FF7315"/>
<stop offset="1" stop-color="#FF7315" stop-opacity="0"/>
</linearGradient>
</defs>
</svg>
