<svg width="390" height="626" viewBox="0 0 390 626" fill="none" xmlns="http://www.w3.org/2000/svg">
<path d="M510.79 486.032C506.986 488.509 502.721 490.79 498.027 492.857C440.343 518.116 342.471 520.713 250.714 503.287C154.419 484.99 39.3837 450.897 -21.7419 407.429C-65.3634 376.427 -90.9685 344.648 -92.7936 312.231C-94.6186 279.813 -83.6583 245.262 -3.39649 234.015C18.9844 230.872 66.7949 232.092 92.1577 238.541C132.631 248.845 155.767 271.339 174.108 291.308C192.449 311.277 215.477 333.776 255.902 344.152C286.979 352.131 318.975 350.378 350.777 352.931C404.886 357.288 461.701 375.609 496.499 399.926C508.159 408.096 517.323 416.8 523.595 425.659C539.799 448.41 534.554 470.53 510.687 486.014L510.79 486.032Z" fill="url(#paint0_linear_115_717)"/>
<path d="M447.611 544.86C441.934 545.987 435.955 546.645 429.718 546.829C353.184 548.916 254.577 503.329 177.544 436.359C96.7096 366.064 9.63917 267.161 -16.9505 183.673C-35.9405 124.116 -36.5461 72.5844 -13.1878 32.1209C10.1706 -8.34261 47.8036 -45.0413 135.745 -18.7831C160.272 -11.4693 206.511 13.8363 226.536 34.34C258.483 67.0737 263.858 106.045 266.461 139.547C269.064 173.049 274.329 211.974 306.173 244.771C330.65 269.988 363.588 283.787 392.993 302.745C443.013 335.014 484.865 385.671 500.335 432.677C505.501 448.455 507.791 463.639 507.105 477.573C505.44 513.405 483.095 537.782 447.523 544.787L447.611 544.86Z" fill="url(#paint1_linear_115_717)" fill-opacity="0.09"/>
<defs>
<linearGradient id="paint0_linear_115_717" x1="259.218" y1="277.478" x2="207.5" y2="520" gradientUnits="userSpaceOnUse">
<stop stop-color="#FF7315" stop-opacity="0.26"/>
<stop offset="1" stop-color="white" stop-opacity="0"/>
</linearGradient>
<linearGradient id="paint1_linear_115_717" x1="352.292" y1="139.241" x2="2.69691" y2="227.083" gradientUnits="userSpaceOnUse">
<stop stop-color="#FF7315"/>
<stop offset="1" stop-color="#FF7315" stop-opacity="0"/>
</linearGradient>
</defs>
</svg>
