<svg width="390" height="236" viewBox="0 0 390 236" fill="none" xmlns="http://www.w3.org/2000/svg">
<path d="M432.561 338.511C428.385 340.289 423.789 341.794 418.807 343.015C357.613 357.874 260.777 343.436 173.44 310.342C81.7854 275.601 -25.582 222.05 -78.2308 168.628C-115.806 130.523 -135.504 94.7798 -131.672 62.5382C-127.84 30.2967 -111.047 -1.82656 -30.051 1.03418C-7.4644 1.82525 39.4079 11.3292 63.2654 22.0849C101.335 39.26 120.213 65.4299 134.808 88.2803C149.402 111.131 168.174 137.287 206.183 154.525C235.402 167.779 267.216 171.609 298.093 179.646C350.622 193.332 403.393 221.24 433.44 251.231C443.504 261.302 451.017 271.464 455.656 281.278C467.663 306.497 458.656 327.37 432.463 338.475L432.561 338.511Z" fill="url(#paint0_linear_36_316)"/>
<defs>
<linearGradient id="paint0_linear_36_316" x1="221.027" y1="89.4397" x2="163.069" y2="303.194" gradientUnits="userSpaceOnUse">
<stop stop-color="#FF7315" stop-opacity="0.38"/>
<stop offset="1" stop-color="#FFE0C9" stop-opacity="0"/>
</linearGradient>
</defs>
</svg>
