<svg width="390" height="534" viewBox="0 0 390 534" fill="none" xmlns="http://www.w3.org/2000/svg">
<path d="M552.226 73.2986C554.068 79.5751 555.415 86.1331 556.257 92.9215C566.395 176.212 525.32 278.605 458.067 355.401C387.473 435.984 285.431 520.421 194.514 540.777C129.66 555.322 71.9322 550.728 24.1747 521.249C-23.5828 491.771 -68.5728 447.18 -48.0869 354.395C-42.3842 328.516 -18.7173 280.903 2.23587 261.255C35.6892 229.911 78.8458 228.048 116.151 228.636C153.456 229.225 196.571 227.476 230.106 196.251C255.891 172.251 268.01 137.903 286.274 107.915C317.365 56.9067 369.909 16.6377 421.047 4.63504C438.214 0.634649 455.009 -0.303689 470.705 1.8607C511.058 7.31963 540.672 34.0586 552.152 73.3862L552.226 73.2986Z" fill="url(#paint0_linear_36_317)" fill-opacity="0.09"/>
<defs>
<linearGradient id="paint0_linear_36_317" x1="107.061" y1="135.435" x2="421.425" y2="399.218" gradientUnits="userSpaceOnUse">
<stop stop-color="#FF7315"/>
<stop offset="1" stop-color="#FF7315" stop-opacity="0"/>
</linearGradient>
</defs>
</svg>
