<svg width="390" height="322" viewBox="0 0 390 322" fill="none" xmlns="http://www.w3.org/2000/svg">
<g clip-path="url(#clip0_1150_1281)">
<rect width="390" height="322" fill="#FF8634"/>
<rect x="1" y="4" width="390" height="322" fill="#FF8634"/>
<g clip-path="url(#clip1_1150_1281)">
<path d="M28.5308 10.8889L33.0911 23.4181L13.0443 30.7145L8.48402 18.1853" stroke="#FFA061" stroke-width="2" stroke-linecap="round" stroke-linejoin="round"/>
<path d="M28.7565 3.71223L3.69803 12.8328L5.97816 19.0974L31.0366 9.97684L28.7565 3.71223Z" stroke="#FFA061" stroke-width="2" stroke-linecap="round" stroke-linejoin="round"/>
<path d="M23.0677 27.0663L16.2273 8.27246" stroke="#FFA061" stroke-width="2" stroke-linecap="round" stroke-linejoin="round"/>
<path d="M16.2273 8.27262L10.5891 10.3247C9.75837 10.6271 8.84154 10.5871 8.04031 10.2135C7.23909 9.83984 6.6191 9.16324 6.31673 8.3325C6.01437 7.50176 6.0544 6.58494 6.42802 5.78371C6.80163 4.98248 7.47823 4.36249 8.30897 4.06013C12.6942 2.46403 16.2273 8.27262 16.2273 8.27262Z" stroke="#FFA061" stroke-width="2" stroke-linecap="round" stroke-linejoin="round"/>
<path d="M16.2273 8.27243L21.8654 6.22031C22.6962 5.91794 23.3728 5.29795 23.7464 4.49673C24.12 3.6955 24.16 2.77867 23.8577 1.94793C23.5553 1.11719 22.9353 0.440592 22.1341 0.0669744C21.3329 -0.306643 20.416 -0.346673 19.5853 -0.0443083C15.2001 1.55179 16.2273 8.27243 16.2273 8.27243Z" stroke="#FFA061" stroke-width="2" stroke-linecap="round" stroke-linejoin="round"/>
</g>
<g clip-path="url(#clip2_1150_1281)">
<path d="M23.1736 73.0832L5.63269 79.4676C4.24875 79.9713 3.53519 81.5015 4.0389 82.8855L10.4233 100.426C10.927 101.81 12.4572 102.524 13.8412 102.02L31.3821 95.6358C32.766 95.1321 33.4796 93.6019 32.9759 92.2179L26.5915 74.677C26.0878 73.2931 24.5576 72.5795 23.1736 73.0832Z" stroke="#FFA061" stroke-width="2" stroke-linecap="round" stroke-linejoin="round"/>
<path d="M13.2101 86.6421C14.2481 86.2643 14.7832 85.1166 14.4055 84.0787C14.0277 83.0407 12.88 82.5056 11.842 82.8833C10.8041 83.2611 10.2689 84.4088 10.6467 85.4468C11.0245 86.4847 12.1722 87.0199 13.2101 86.6421Z" stroke="#FFA061" stroke-width="2" stroke-linecap="round" stroke-linejoin="round"/>
<path d="M31.1518 87.2062L22.607 83.2217L13.8412 102.02" stroke="#FFA061" stroke-width="2" stroke-linecap="round" stroke-linejoin="round"/>
</g>
<g clip-path="url(#clip3_1150_1281)">
<path d="M9.8521 167.974C9.8521 167.974 10.649 166.265 14.4078 164.897C18.1665 163.528 21.5844 165.122 25.3432 163.754C29.102 162.386 29.8989 160.677 29.8989 160.677L24.4266 145.642C24.4266 145.642 23.6297 147.351 19.8709 148.719C16.1121 150.087 12.6942 148.493 8.93545 149.861C5.17668 151.23 4.37978 152.938 4.37978 152.938L9.8521 167.974Z" stroke="#FFA061" stroke-width="2" stroke-linecap="round" stroke-linejoin="round"/>
<path d="M13.0443 176.744L9.8521 167.974" stroke="#FFA061" stroke-width="2" stroke-linecap="round" stroke-linejoin="round"/>
</g>
<g clip-path="url(#clip4_1150_1281)">
<path d="M35.4817 237.335C35.7236 238 35.6916 238.734 35.3927 239.375C35.0938 240.015 34.5525 240.511 33.888 240.753L11.3353 248.962C10.6707 249.204 9.93728 249.172 9.2963 248.873C8.65532 248.574 8.15932 248.033 7.91743 247.368L2.90114 233.586C2.65924 232.921 2.69127 232.188 2.99016 231.547C3.28906 230.906 3.83034 230.41 4.49493 230.168L9.50662 228.344L10.6444 223.673L18.1619 220.937L22.0359 223.784L27.0476 221.96C27.7121 221.718 28.4456 221.75 29.0866 222.049C29.7276 222.347 30.2236 222.889 30.4655 223.553L35.4817 237.335Z" stroke="#FFA061" stroke-width="2" stroke-linecap="round" stroke-linejoin="round"/>
<path d="M20.7875 239.846C23.5554 238.839 24.9825 235.778 23.9751 233.01C22.9677 230.242 19.9072 228.815 17.1393 229.823C14.3714 230.83 12.9443 233.891 13.9517 236.658C14.9592 239.426 18.0197 240.853 20.7875 239.846Z" stroke="#FFA061" stroke-width="2" stroke-linecap="round" stroke-linejoin="round"/>
</g>
<g clip-path="url(#clip5_1150_1281)">
<path d="M28.8717 299.986C32.0639 308.757 23.5237 320.378 23.5237 320.378C23.5237 320.378 9.51123 316.965 6.31904 308.195C5.23053 305.204 5.37463 301.903 6.71966 299.019C8.06468 296.134 10.5004 293.902 13.4911 292.814C16.4818 291.725 19.7824 291.87 22.6668 293.215C25.5512 294.56 27.7832 296.995 28.8717 299.986Z" stroke="#FFA061" stroke-width="2" stroke-linecap="round" stroke-linejoin="round"/>
<path d="M18.9634 307.849C21.0393 307.094 22.1097 304.798 21.3541 302.722C20.5986 300.646 18.3032 299.576 16.2273 300.332C14.1514 301.087 13.081 303.383 13.8366 305.458C14.5922 307.534 16.8875 308.605 18.9634 307.849Z" stroke="#FFA061" stroke-width="2" stroke-linecap="round" stroke-linejoin="round"/>
</g>
<g clip-path="url(#clip6_1150_1281)">
<path d="M123.497 54.3355C123.739 55.0001 123.707 55.7335 123.408 56.3745C123.109 57.0155 122.567 57.5115 121.903 57.7534L99.3502 65.9619C98.6856 66.2038 97.9522 66.1717 97.3112 65.8728C96.6702 65.5739 96.1742 65.0327 95.9323 64.3681L90.916 50.5859C90.6741 49.9213 90.7062 49.1879 91.0051 48.5469C91.3039 47.9059 91.8452 47.4099 92.5098 47.168L97.5215 45.3439L98.6593 40.6731L106.177 37.9369L110.051 40.7836L115.062 38.9595C115.727 38.7176 116.461 38.7497 117.101 39.0485C117.742 39.3474 118.238 39.8887 118.48 40.5533L123.497 54.3355Z" stroke="#FFA061" stroke-width="2" stroke-linecap="round" stroke-linejoin="round"/>
<path d="M108.802 56.846C111.57 55.8386 112.997 52.7781 111.99 50.0102C110.983 47.2423 107.922 45.8152 105.154 46.8226C102.386 47.83 100.959 50.8905 101.967 53.6584C102.974 56.4263 106.035 57.8534 108.802 56.846Z" stroke="#FFA061" stroke-width="2" stroke-linecap="round" stroke-linejoin="round"/>
</g>
<g clip-path="url(#clip7_1150_1281)">
<path d="M116.887 116.986C120.079 125.757 111.539 137.378 111.539 137.378C111.539 137.378 97.5261 133.965 94.3339 125.195C93.2454 122.204 93.3895 118.903 94.7345 116.019C96.0796 113.134 98.5153 110.902 101.506 109.814C104.497 108.725 107.797 108.87 110.682 110.215C113.566 111.56 115.798 113.995 116.887 116.986Z" stroke="#FFA061" stroke-width="2" stroke-linecap="round" stroke-linejoin="round"/>
<path d="M106.978 124.849C109.054 124.094 110.125 121.798 109.369 119.722C108.613 117.646 106.318 116.576 104.242 117.332C102.166 118.087 101.096 120.383 101.851 122.458C102.607 124.534 104.902 125.605 106.978 124.849Z" stroke="#FFA061" stroke-width="2" stroke-linecap="round" stroke-linejoin="round"/>
</g>
<g clip-path="url(#clip8_1150_1281)">
<path d="M107.324 210.508C108.016 210.256 108.373 209.491 108.121 208.799C107.869 208.107 107.104 207.751 106.412 208.002C105.72 208.254 105.363 209.019 105.615 209.711C105.867 210.403 106.632 210.76 107.324 210.508Z" stroke="#FFA061" stroke-width="2" stroke-linecap="round" stroke-linejoin="round"/>
<path d="M121.106 205.492C121.798 205.24 122.155 204.475 121.903 203.783C121.651 203.091 120.886 202.734 120.194 202.986C119.502 203.238 119.145 204.003 119.397 204.695C119.649 205.387 120.414 205.744 121.106 205.492Z" stroke="#FFA061" stroke-width="2" stroke-linecap="round" stroke-linejoin="round"/>
<path d="M87.7238 187.845L92.7355 186.021L102.2 201.576C102.524 202.111 103.027 202.515 103.619 202.717C104.211 202.919 104.856 202.906 105.44 202.681L117.618 198.248C118.21 198.045 118.712 197.641 119.036 197.105C119.36 196.57 119.485 195.937 119.39 195.319L117.568 184.077L96.2686 191.83" stroke="#FFA061" stroke-width="2" stroke-linecap="round" stroke-linejoin="round"/>
</g>
<g clip-path="url(#clip9_1150_1281)">
<path d="M112.216 261.878L113.469 261.422C114.798 260.938 116.265 261.002 117.547 261.6C118.829 262.198 119.821 263.28 120.304 264.609C120.788 265.939 120.724 267.406 120.126 268.688C119.529 269.97 118.446 270.962 117.117 271.445L115.864 271.901" stroke="#FFA061" stroke-width="2" stroke-linecap="round" stroke-linejoin="round"/>
<path d="M92.1689 269.174L112.216 261.878L116.32 273.154C116.804 274.483 116.74 275.95 116.142 277.232C115.544 278.514 114.462 279.506 113.132 279.99L103.109 283.638C101.78 284.122 100.313 284.058 99.0309 283.46C97.749 282.862 96.757 281.78 96.2732 280.451L92.1689 269.174Z" stroke="#FFA061" stroke-width="2" stroke-linecap="round" stroke-linejoin="round"/>
<path d="M93.9885 258.58L95.3565 262.339" stroke="#FFA061" stroke-width="2" stroke-linecap="round" stroke-linejoin="round"/>
<path d="M99.0002 256.756L100.368 260.514" stroke="#FFA061" stroke-width="2" stroke-linecap="round" stroke-linejoin="round"/>
<path d="M104.012 254.932L105.38 258.69" stroke="#FFA061" stroke-width="2" stroke-linecap="round" stroke-linejoin="round"/>
</g>
<g clip-path="url(#clip10_1150_1281)">
<path d="M204.561 10.8889L209.121 23.4181L189.074 30.7145L184.514 18.1853" stroke="#FFA061" stroke-width="2" stroke-linecap="round" stroke-linejoin="round"/>
<path d="M204.786 3.71223L179.728 12.8328L182.008 19.0974L207.066 9.97684L204.786 3.71223Z" stroke="#FFA061" stroke-width="2" stroke-linecap="round" stroke-linejoin="round"/>
<path d="M199.097 27.0663L192.257 8.27246" stroke="#FFA061" stroke-width="2" stroke-linecap="round" stroke-linejoin="round"/>
<path d="M192.257 8.27262L186.619 10.3247C185.788 10.6271 184.871 10.5871 184.07 10.2135C183.269 9.83984 182.649 9.16324 182.347 8.3325C182.044 7.50176 182.084 6.58494 182.458 5.78371C182.831 4.98248 183.508 4.36249 184.339 4.06013C188.724 2.46403 192.257 8.27262 192.257 8.27262Z" stroke="#FFA061" stroke-width="2" stroke-linecap="round" stroke-linejoin="round"/>
<path d="M192.257 8.27243L197.895 6.22031C198.726 5.91794 199.403 5.29795 199.776 4.49673C200.15 3.6955 200.19 2.77867 199.887 1.94793C199.585 1.11719 198.965 0.440592 198.164 0.0669744C197.363 -0.306643 196.446 -0.346673 195.615 -0.0443083C191.23 1.55179 192.257 8.27243 192.257 8.27243Z" stroke="#FFA061" stroke-width="2" stroke-linecap="round" stroke-linejoin="round"/>
</g>
<g clip-path="url(#clip11_1150_1281)">
<path d="M199.203 73.0832L181.662 79.4676C180.279 79.9713 179.565 81.5015 180.069 82.8855L186.453 100.426C186.957 101.81 188.487 102.524 189.871 102.02L207.412 95.6358C208.796 95.1321 209.509 93.6019 209.006 92.2179L202.621 74.677C202.118 73.2931 200.587 72.5795 199.203 73.0832Z" stroke="#FFA061" stroke-width="2" stroke-linecap="round" stroke-linejoin="round"/>
<path d="M189.24 86.6421C190.278 86.2643 190.813 85.1166 190.435 84.0787C190.057 83.0407 188.91 82.5056 187.872 82.8833C186.834 83.2611 186.299 84.4088 186.676 85.4468C187.054 86.4847 188.202 87.0199 189.24 86.6421Z" stroke="#FFA061" stroke-width="2" stroke-linecap="round" stroke-linejoin="round"/>
<path d="M207.182 87.2062L198.637 83.2217L189.871 102.02" stroke="#FFA061" stroke-width="2" stroke-linecap="round" stroke-linejoin="round"/>
</g>
<g clip-path="url(#clip12_1150_1281)">
<path d="M185.882 167.974C185.882 167.974 186.679 166.265 190.438 164.897C194.196 163.528 197.614 165.122 201.373 163.754C205.132 162.386 205.929 160.677 205.929 160.677L200.456 145.642C200.456 145.642 199.659 147.351 195.901 148.719C192.142 150.087 188.724 148.493 184.965 149.861C181.206 151.23 180.41 152.938 180.41 152.938L185.882 167.974Z" stroke="#FFA061" stroke-width="2" stroke-linecap="round" stroke-linejoin="round"/>
<path d="M189.074 176.744L185.882 167.974" stroke="#FFA061" stroke-width="2" stroke-linecap="round" stroke-linejoin="round"/>
</g>
<g clip-path="url(#clip13_1150_1281)">
<path d="M211.512 237.335C211.753 238 211.721 238.734 211.423 239.375C211.124 240.015 210.582 240.511 209.918 240.753L187.365 248.962C186.701 249.204 185.967 249.172 185.326 248.873C184.685 248.574 184.189 248.033 183.947 247.368L178.931 233.586C178.689 232.921 178.721 232.188 179.02 231.547C179.319 230.906 179.86 230.41 180.525 230.168L185.536 228.344L186.674 223.673L194.192 220.937L198.066 223.784L203.077 221.96C203.742 221.718 204.475 221.75 205.116 222.049C205.757 222.347 206.253 222.889 206.495 223.553L211.512 237.335Z" stroke="#FFA061" stroke-width="2" stroke-linecap="round" stroke-linejoin="round"/>
<path d="M196.817 239.846C199.585 238.839 201.012 235.778 200.005 233.01C198.997 230.242 195.937 228.815 193.169 229.823C190.401 230.83 188.974 233.891 189.982 236.658C190.989 239.426 194.049 240.853 196.817 239.846Z" stroke="#FFA061" stroke-width="2" stroke-linecap="round" stroke-linejoin="round"/>
</g>
<g clip-path="url(#clip14_1150_1281)">
<path d="M204.901 299.986C208.094 308.757 199.553 320.378 199.553 320.378C199.553 320.378 185.541 316.965 182.349 308.195C181.26 305.204 181.404 301.903 182.749 299.019C184.094 296.134 186.53 293.902 189.521 292.814C192.512 291.725 195.812 291.87 198.697 293.215C201.581 294.56 203.813 296.995 204.901 299.986Z" stroke="#FFA061" stroke-width="2" stroke-linecap="round" stroke-linejoin="round"/>
<path d="M194.993 307.849C197.069 307.094 198.139 304.798 197.384 302.722C196.628 300.646 194.333 299.576 192.257 300.332C190.181 301.087 189.111 303.383 189.866 305.458C190.622 307.534 192.917 308.605 194.993 307.849Z" stroke="#FFA061" stroke-width="2" stroke-linecap="round" stroke-linejoin="round"/>
</g>
<g clip-path="url(#clip15_1150_1281)">
<path d="M287.112 64.0514C294.032 61.5329 297.6 53.8816 295.081 46.9619C292.563 40.0422 284.912 36.4744 277.992 38.993C271.072 41.5115 267.504 49.1628 270.023 56.0825C272.541 63.0022 280.193 66.57 287.112 64.0514Z" stroke="#FFA061" stroke-width="2" stroke-linecap="round" stroke-linejoin="round"/>
<path d="M285.931 44.2762L286.175 53.2116L279.173 58.7681L278.929 49.8327L285.931 44.2762Z" stroke="#FFA061" stroke-width="2" stroke-linecap="round" stroke-linejoin="round"/>
</g>
<g clip-path="url(#clip16_1150_1281)">
<path d="M292.575 120.889L297.136 133.418L277.089 140.715L272.529 128.185" stroke="#FFA061" stroke-width="2" stroke-linecap="round" stroke-linejoin="round"/>
<path d="M292.801 113.712L267.743 122.833L270.023 129.097L295.081 119.977L292.801 113.712Z" stroke="#FFA061" stroke-width="2" stroke-linecap="round" stroke-linejoin="round"/>
<path d="M287.112 137.066L280.272 118.272" stroke="#FFA061" stroke-width="2" stroke-linecap="round" stroke-linejoin="round"/>
<path d="M280.272 118.273L274.634 120.325C273.803 120.627 272.886 120.587 272.085 120.213C271.284 119.84 270.664 119.163 270.361 118.333C270.059 117.502 270.099 116.585 270.473 115.784C270.846 114.982 271.523 114.362 272.354 114.06C276.739 112.464 280.272 118.273 280.272 118.273Z" stroke="#FFA061" stroke-width="2" stroke-linecap="round" stroke-linejoin="round"/>
<path d="M280.272 118.272L285.91 116.22C286.741 115.918 287.417 115.298 287.791 114.497C288.165 113.696 288.205 112.779 287.902 111.948C287.6 111.117 286.98 110.441 286.179 110.067C285.378 109.693 284.461 109.653 283.63 109.956C279.245 111.552 280.272 118.272 280.272 118.272Z" stroke="#FFA061" stroke-width="2" stroke-linecap="round" stroke-linejoin="round"/>
</g>
<g clip-path="url(#clip17_1150_1281)">
<path d="M287.218 183.083L269.677 189.468C268.293 189.971 267.58 191.502 268.084 192.885L274.468 210.426C274.972 211.81 276.502 212.524 277.886 212.02L295.427 205.636C296.811 205.132 297.524 203.602 297.021 202.218L290.636 184.677C290.133 183.293 288.602 182.579 287.218 183.083Z" stroke="#FFA061" stroke-width="2" stroke-linecap="round" stroke-linejoin="round"/>
<path d="M277.255 196.642C278.293 196.264 278.828 195.117 278.45 194.079C278.072 193.041 276.925 192.506 275.887 192.883C274.849 193.261 274.314 194.409 274.691 195.447C275.069 196.485 276.217 197.02 277.255 196.642Z" stroke="#FFA061" stroke-width="2" stroke-linecap="round" stroke-linejoin="round"/>
<path d="M295.196 197.206L286.652 193.222L277.886 212.02" stroke="#FFA061" stroke-width="2" stroke-linecap="round" stroke-linejoin="round"/>
</g>
<g clip-path="url(#clip18_1150_1281)">
<path d="M273.897 277.974C273.897 277.974 274.694 276.265 278.452 274.897C282.211 273.528 285.629 275.122 289.388 273.754C293.147 272.386 293.944 270.677 293.944 270.677L288.471 255.642C288.471 255.642 287.674 257.351 283.916 258.719C280.157 260.087 276.739 258.493 272.98 259.861C269.221 261.23 268.424 262.938 268.424 262.938L273.897 277.974Z" stroke="#FFA061" stroke-width="2" stroke-linecap="round" stroke-linejoin="round"/>
<path d="M277.089 286.744L273.897 277.974" stroke="#FFA061" stroke-width="2" stroke-linecap="round" stroke-linejoin="round"/>
</g>
<g clip-path="url(#clip19_1150_1281)">
<path d="M361.912 24.9736C361.912 24.9736 362.709 23.2646 366.467 21.8965C370.226 20.5284 373.644 22.1222 377.403 20.7542C381.162 19.3861 381.958 17.6771 381.958 17.6771L376.486 2.64204C376.486 2.64204 375.689 4.35099 371.93 5.71907C368.172 7.08715 364.754 5.49336 360.995 6.86144C357.236 8.22952 356.439 9.93847 356.439 9.93847L361.912 24.9736Z" stroke="#FFA061" stroke-width="2" stroke-linecap="round" stroke-linejoin="round"/>
<path d="M365.104 33.7441L361.912 24.9736" stroke="#FFA061" stroke-width="2" stroke-linecap="round" stroke-linejoin="round"/>
</g>
<g clip-path="url(#clip20_1150_1281)">
<path d="M387.541 94.3355C387.783 95.0001 387.751 95.7335 387.452 96.3745C387.153 97.0155 386.612 97.5115 385.948 97.7534L363.395 105.962C362.73 106.204 361.997 106.172 361.356 105.873C360.715 105.574 360.219 105.033 359.977 104.368L354.961 90.5859C354.719 89.9213 354.751 89.1879 355.05 88.5469C355.349 87.9059 355.89 87.4099 356.555 87.168L361.566 85.3439L362.704 80.6731L370.222 77.9369L374.095 80.7836L379.107 78.9595C379.772 78.7176 380.505 78.7497 381.146 79.0485C381.787 79.3474 382.283 79.8887 382.525 80.5533L387.541 94.3355Z" stroke="#FFA061" stroke-width="2" stroke-linecap="round" stroke-linejoin="round"/>
<path d="M372.847 96.846C375.615 95.8386 377.042 92.7781 376.035 90.0102C375.027 87.2423 371.967 85.8152 369.199 86.8226C366.431 87.83 365.004 90.8905 366.011 93.6584C367.019 96.4263 370.079 97.8534 372.847 96.846Z" stroke="#FFA061" stroke-width="2" stroke-linecap="round" stroke-linejoin="round"/>
</g>
<g clip-path="url(#clip21_1150_1281)">
<path d="M380.931 156.986C384.123 165.757 375.583 177.378 375.583 177.378C375.583 177.378 361.571 173.965 358.379 165.195C357.29 162.204 357.434 158.903 358.779 156.019C360.124 153.134 362.56 150.902 365.551 149.814C368.541 148.725 371.842 148.87 374.726 150.215C377.611 151.56 379.843 153.995 380.931 156.986Z" stroke="#FFA061" stroke-width="2" stroke-linecap="round" stroke-linejoin="round"/>
<path d="M371.023 164.849C373.099 164.094 374.169 161.798 373.414 159.722C372.658 157.646 370.363 156.576 368.287 157.332C366.211 158.087 365.141 160.383 365.896 162.458C366.652 164.534 368.947 165.605 371.023 164.849Z" stroke="#FFA061" stroke-width="2" stroke-linecap="round" stroke-linejoin="round"/>
</g>
<g clip-path="url(#clip22_1150_1281)">
<path d="M371.368 250.508C372.06 250.256 372.417 249.491 372.165 248.799C371.914 248.107 371.148 247.751 370.456 248.002C369.764 248.254 369.408 249.019 369.66 249.711C369.911 250.403 370.676 250.76 371.368 250.508Z" stroke="#FFA061" stroke-width="2" stroke-linecap="round" stroke-linejoin="round"/>
<path d="M385.151 245.492C385.843 245.24 386.199 244.475 385.948 243.783C385.696 243.091 384.931 242.734 384.239 242.986C383.547 243.238 383.19 244.003 383.442 244.695C383.694 245.387 384.459 245.744 385.151 245.492Z" stroke="#FFA061" stroke-width="2" stroke-linecap="round" stroke-linejoin="round"/>
<path d="M351.768 227.845L356.78 226.021L366.244 241.576C366.569 242.111 367.071 242.515 367.663 242.717C368.256 242.919 368.9 242.906 369.484 242.681L381.663 238.248C382.255 238.045 382.757 237.641 383.081 237.105C383.404 236.57 383.53 235.937 383.434 235.319L381.613 224.077L360.313 231.83" stroke="#FFA061" stroke-width="2" stroke-linecap="round" stroke-linejoin="round"/>
</g>
<g clip-path="url(#clip23_1150_1281)">
<path d="M376.26 301.878L377.513 301.422C378.843 300.938 380.309 301.002 381.591 301.6C382.873 302.198 383.865 303.28 384.349 304.609C384.833 305.939 384.769 307.406 384.171 308.688C383.573 309.97 382.491 310.962 381.162 311.445L379.909 311.901" stroke="#FFA061" stroke-width="2" stroke-linecap="round" stroke-linejoin="round"/>
<path d="M356.214 309.174L376.26 301.878L380.365 313.154C380.848 314.483 380.784 315.95 380.187 317.232C379.589 318.514 378.506 319.506 377.177 319.99L367.154 323.638C365.824 324.122 364.358 324.058 363.076 323.46C361.794 322.862 360.802 321.78 360.318 320.451L356.214 309.174Z" stroke="#FFA061" stroke-width="2" stroke-linecap="round" stroke-linejoin="round"/>
<path d="M358.033 298.58L359.401 302.339" stroke="#FFA061" stroke-width="2" stroke-linecap="round" stroke-linejoin="round"/>
<path d="M363.045 296.756L364.413 300.514" stroke="#FFA061" stroke-width="2" stroke-linecap="round" stroke-linejoin="round"/>
<path d="M368.057 294.932L369.425 298.69" stroke="#FFA061" stroke-width="2" stroke-linecap="round" stroke-linejoin="round"/>
</g>
</g>
<defs>
<clipPath id="clip0_1150_1281">
<rect width="390" height="322" fill="white"/>
</clipPath>
<clipPath id="clip1_1150_1281">
<rect width="32" height="32" fill="white" transform="translate(-2 4.97437) rotate(-20)"/>
</clipPath>
<clipPath id="clip2_1150_1281">
<rect width="32" height="32" fill="white" transform="translate(-2 77.989) rotate(-20)"/>
</clipPath>
<clipPath id="clip3_1150_1281">
<rect width="32" height="32" fill="white" transform="translate(-2 151.004) rotate(-20)"/>
</clipPath>
<clipPath id="clip4_1150_1281">
<rect width="32" height="32" fill="white" transform="translate(-2 224.019) rotate(-20)"/>
</clipPath>
<clipPath id="clip5_1150_1281">
<rect width="32" height="32" fill="white" transform="translate(-2 297.033) rotate(-20)"/>
</clipPath>
<clipPath id="clip6_1150_1281">
<rect width="32" height="32" fill="white" transform="translate(86.0149 41.0186) rotate(-20)"/>
</clipPath>
<clipPath id="clip7_1150_1281">
<rect width="32" height="32" fill="white" transform="translate(86.0149 114.033) rotate(-20)"/>
</clipPath>
<clipPath id="clip8_1150_1281">
<rect width="32" height="32" fill="white" transform="translate(86.0149 187.048) rotate(-20)"/>
</clipPath>
<clipPath id="clip9_1150_1281">
<rect width="32" height="32" fill="white" transform="translate(86.0149 260.063) rotate(-20)"/>
</clipPath>
<clipPath id="clip10_1150_1281">
<rect width="32" height="32" fill="white" transform="translate(174.03 4.97437) rotate(-20)"/>
</clipPath>
<clipPath id="clip11_1150_1281">
<rect width="32" height="32" fill="white" transform="translate(174.03 77.989) rotate(-20)"/>
</clipPath>
<clipPath id="clip12_1150_1281">
<rect width="32" height="32" fill="white" transform="translate(174.03 151.004) rotate(-20)"/>
</clipPath>
<clipPath id="clip13_1150_1281">
<rect width="32" height="32" fill="white" transform="translate(174.03 224.019) rotate(-20)"/>
</clipPath>
<clipPath id="clip14_1150_1281">
<rect width="32" height="32" fill="white" transform="translate(174.03 297.033) rotate(-20)"/>
</clipPath>
<clipPath id="clip15_1150_1281">
<rect width="32" height="32" fill="white" transform="translate(262.045 41.9595) rotate(-20)"/>
</clipPath>
<clipPath id="clip16_1150_1281">
<rect width="32" height="32" fill="white" transform="translate(262.045 114.974) rotate(-20)"/>
</clipPath>
<clipPath id="clip17_1150_1281">
<rect width="32" height="32" fill="white" transform="translate(262.045 187.989) rotate(-20)"/>
</clipPath>
<clipPath id="clip18_1150_1281">
<rect width="32" height="32" fill="white" transform="translate(262.045 261.004) rotate(-20)"/>
</clipPath>
<clipPath id="clip19_1150_1281">
<rect width="32" height="32" fill="white" transform="translate(350.06 8.00391) rotate(-20)"/>
</clipPath>
<clipPath id="clip20_1150_1281">
<rect width="32" height="32" fill="white" transform="translate(350.06 81.0186) rotate(-20)"/>
</clipPath>
<clipPath id="clip21_1150_1281">
<rect width="32" height="32" fill="white" transform="translate(350.06 154.033) rotate(-20)"/>
</clipPath>
<clipPath id="clip22_1150_1281">
<rect width="32" height="32" fill="white" transform="translate(350.06 227.048) rotate(-20)"/>
</clipPath>
<clipPath id="clip23_1150_1281">
<rect width="32" height="32" fill="white" transform="translate(350.06 300.063) rotate(-20)"/>
</clipPath>
</defs>
</svg>
