<svg width="390" height="551" viewBox="0 0 390 551" fill="none" xmlns="http://www.w3.org/2000/svg">
<path d="M510.79 486.032C506.986 488.509 502.721 490.79 498.027 492.857C440.343 518.116 342.471 520.713 250.714 503.287C154.419 484.99 39.3838 450.897 -21.7418 407.429C-65.3632 376.427 -90.9684 344.648 -92.7935 312.231C-94.6185 279.813 -83.6581 245.262 -3.39637 234.015C18.9845 230.872 66.795 232.092 92.1578 238.541C132.631 248.845 155.767 271.339 174.108 291.308C192.449 311.277 215.477 333.776 255.903 344.152C286.979 352.131 318.975 350.378 350.778 352.931C404.886 357.288 461.701 375.609 496.499 399.926C508.159 408.096 517.323 416.8 523.595 425.659C539.799 448.41 534.554 470.53 510.687 486.014L510.79 486.032Z" fill="url(#paint0_linear_115_715)"/>
<path d="M583.806 229.981C581.943 235.46 579.523 240.968 576.565 246.461C540.104 313.785 451.321 376.387 354.807 409.615C253.513 444.472 124.325 470.426 38.7273 451.709C-22.3454 438.376 -67.2757 413.135 -90.639 372.674C-114.002 332.214 -126.968 281.273 -60.2567 218.243C-41.659 200.658 3.37524 173.268 31.1448 166.177C75.4666 154.877 111.904 169.708 142.219 184.205C172.534 198.701 208.876 213.604 253.202 202.425C287.279 193.836 315.698 172.21 346.819 156.224C399.775 129.04 464.571 118.123 513.014 128.229C529.261 131.643 543.556 137.253 555.281 144.814C585.48 164.172 595.418 195.711 583.698 230.02L583.806 229.981Z" fill="url(#paint1_linear_115_715)" fill-opacity="0.09"/>
<defs>
<linearGradient id="paint0_linear_115_715" x1="259.218" y1="277.478" x2="207.5" y2="520" gradientUnits="userSpaceOnUse">
<stop stop-color="#FF7315" stop-opacity="0.26"/>
<stop offset="1" stop-color="white" stop-opacity="0"/>
</linearGradient>
<linearGradient id="paint1_linear_115_715" x1="184.869" y1="109.72" x2="86.1455" y2="456.399" gradientUnits="userSpaceOnUse">
<stop stop-color="#FF7315"/>
<stop offset="1" stop-color="#FF7315" stop-opacity="0"/>
</linearGradient>
</defs>
</svg>
