<svg width="390" height="558" viewBox="0 0 390 558" fill="none" xmlns="http://www.w3.org/2000/svg">
<path d="M524.907 433.83C521.591 436.929 517.786 439.916 513.523 442.767C461.102 477.66 365.167 497.212 271.778 495.985C173.769 494.687 54.5612 481.087 -13.184 448.894C-61.526 425.938 -92.2606 399.088 -99.6871 367.48C-107.114 335.872 -102.32 299.942 -25.2302 274.929C-3.7352 267.947 43.5609 260.846 69.6583 262.794C111.306 265.913 137.996 284.048 159.526 300.528C181.056 317.009 207.642 335.168 249.254 338.366C281.244 340.827 312.45 333.545 344.213 330.537C398.255 325.431 457.388 333.608 495.881 351.514C508.782 357.535 519.319 364.515 527.034 372.15C546.942 391.742 545.618 414.436 524.802 433.83H524.907Z" fill="url(#paint0_linear_115_716)"/>
<path d="M624.529 469.22C618.885 471.726 612.679 473.862 605.96 475.61C523.412 496.905 393.294 478.315 276.21 433.894C153.339 387.263 9.57535 314.927 -60.5553 242.034C-110.608 190.04 -136.634 141.06 -131.044 96.5885C-125.454 52.1167 -102.423 7.63357 6.53292 10.486C36.9169 11.2722 99.8646 23.7359 131.825 38.2337C182.824 61.3846 207.876 97.186 227.208 128.472C246.541 159.757 271.45 195.542 322.368 218.779C361.509 236.648 404.269 241.496 445.711 252.154C516.216 270.303 586.853 308.044 626.884 348.96C640.291 362.699 650.266 376.599 656.376 390.058C672.195 424.642 659.794 453.52 624.397 469.172L624.529 469.22Z" fill="url(#paint1_linear_115_716)" fill-opacity="0.09"/>
<defs>
<linearGradient id="paint0_linear_115_716" x1="240.942" y1="272.129" x2="232.123" y2="519.947" gradientUnits="userSpaceOnUse">
<stop stop-color="#3A3535" stop-opacity="0.44"/>
<stop offset="1" stop-color="white" stop-opacity="0"/>
</linearGradient>
<linearGradient id="paint1_linear_115_716" x1="320.784" y1="106.529" x2="41.4201" y2="347.145" gradientUnits="userSpaceOnUse">
<stop stop-color="#3A3535"/>
<stop offset="1" stop-color="#FF7315" stop-opacity="0"/>
</linearGradient>
</defs>
</svg>
