<svg width="198" height="182" viewBox="0 0 198 182" fill="none" xmlns="http://www.w3.org/2000/svg">
<path d="M128.305 12.48L128.544 31.824C128.586 35.1156 127.978 39.9568 122.772 39.7852C118.269 39.2912 117.052 35.0272 117.052 31.9592C117.052 30.5032 117.021 29.2916 117.011 29.1408C117.011 29.1408 112.081 28.7404 111.665 23.868C111.462 21.5176 111.442 16.6348 111.478 12.22C111.497 9.93326 112.375 7.73727 113.939 6.06858C115.503 4.39989 117.637 3.3807 119.918 3.2136L120.391 3.18241C125.466 3.12001 128.373 7.39961 128.305 12.48Z" fill="#FFBE9D"/>
<path d="M116.995 29.1512C119.245 28.9792 121.4 28.1673 123.204 26.8112C123.204 26.8112 121.914 30.4824 117.021 30.3992L116.995 29.1512Z" fill="#EB996E"/>
<path d="M119.787 14.2272C119.881 14.326 120.443 13.8736 121.259 13.8476C122.075 13.8216 122.684 14.2272 122.772 14.1232C122.861 14.0192 122.71 13.8944 122.445 13.7072C122.086 13.4704 121.663 13.3505 121.233 13.364C120.807 13.377 120.397 13.5265 120.063 13.7904C119.819 13.9932 119.72 14.1804 119.787 14.2272Z" fill="#263238"/>
<path d="M120.126 16.1512C120.138 16.3231 120.216 16.4837 120.344 16.5991C120.472 16.7146 120.64 16.7758 120.812 16.77C120.896 16.77 120.98 16.7533 121.057 16.7207C121.135 16.6882 121.205 16.6405 121.264 16.5805C121.323 16.5205 121.37 16.4493 121.401 16.3712C121.432 16.293 121.448 16.2094 121.446 16.1252C121.436 15.9537 121.359 15.7931 121.231 15.6776C121.104 15.5621 120.937 15.5006 120.765 15.5064C120.681 15.5057 120.597 15.5219 120.518 15.5541C120.44 15.5864 120.369 15.6339 120.309 15.694C120.25 15.7541 120.203 15.8255 120.171 15.904C120.14 15.9825 120.124 16.0666 120.126 16.1512Z" fill="#263238"/>
<path d="M117.744 19.9004C117.34 19.8072 116.926 19.7635 116.512 19.7704C116.314 19.7704 116.132 19.7392 116.09 19.6092C116.061 19.414 116.092 19.2146 116.179 19.0372C116.324 18.5588 116.475 18.0596 116.636 17.5396C117.271 15.4076 117.713 13.6604 117.63 13.6344C117.546 13.6084 116.959 15.3192 116.324 17.446C116.174 17.966 116.028 18.486 115.888 18.954C115.787 19.1947 115.772 19.4629 115.846 19.7132C115.881 19.7764 115.928 19.8318 115.986 19.8756C116.043 19.9195 116.109 19.9509 116.179 19.968C116.288 19.98 116.398 19.98 116.506 19.968C116.92 19.9963 117.336 19.9736 117.744 19.9004Z" fill="#263238"/>
<path d="M120.131 11.1592C120.209 11.3412 120.864 11.2008 121.644 11.2424C122.424 11.284 123.069 11.4556 123.162 11.284C123.204 11.2008 123.079 11.0344 122.814 10.868C122.464 10.6698 122.072 10.5592 121.67 10.5456C121.269 10.5291 120.87 10.6075 120.505 10.7744C120.24 10.92 120.1 11.0708 120.131 11.1592Z" fill="#263238"/>
<path d="M112.383 12.6724C112.471 12.818 113.106 12.6724 113.88 12.6308C114.655 12.5892 115.29 12.7036 115.373 12.5528C115.456 12.402 115.279 12.3448 115.009 12.2252C114.643 12.0858 114.254 12.0222 113.863 12.0383C113.472 12.0543 113.089 12.1498 112.736 12.3188C112.471 12.48 112.346 12.5996 112.383 12.6724Z" fill="#263238"/>
<path d="M128.17 16.12C128.253 16.0784 131.446 14.8876 131.586 18.2C131.727 21.5124 128.342 20.9872 128.331 20.8936C128.321 20.8 128.17 16.12 128.17 16.12Z" fill="#FFBE9D"/>
<path d="M129.298 19.6196C129.298 19.6196 129.361 19.6612 129.46 19.7028C129.6 19.7574 129.756 19.7574 129.896 19.7028C130.106 19.5563 130.273 19.3569 130.381 19.125C130.489 18.893 130.533 18.6367 130.51 18.382C130.504 18.0955 130.436 17.8136 130.312 17.5552C130.275 17.4529 130.215 17.361 130.135 17.2868C130.055 17.2127 129.959 17.1585 129.855 17.1288C129.787 17.1134 129.716 17.1221 129.655 17.1535C129.593 17.1848 129.544 17.2368 129.517 17.3004C129.475 17.3992 129.517 17.4616 129.486 17.4668C129.454 17.472 129.408 17.4148 129.434 17.2796C129.448 17.1955 129.49 17.1187 129.553 17.0612C129.643 16.9897 129.756 16.9544 129.87 16.9624C130.011 16.9867 130.144 17.0475 130.254 17.1387C130.364 17.2299 130.449 17.3484 130.5 17.4824C130.656 17.7657 130.739 18.0842 130.739 18.408C130.768 18.7041 130.708 19.0021 130.569 19.2647C130.429 19.5274 130.215 19.7431 129.954 19.8848C129.867 19.9109 129.776 19.9184 129.686 19.9067C129.597 19.8951 129.511 19.8646 129.434 19.8172C129.309 19.7028 129.288 19.63 129.298 19.6196Z" fill="#EB996E"/>
<path d="M118.529 22.2144C118.493 22.126 119.148 21.9336 119.606 21.32C119.799 21.0515 119.955 20.7575 120.068 20.4464C120.167 20.202 120.24 20.0512 120.276 20.0616C120.313 20.072 120.302 20.2384 120.25 20.5036C120.178 20.8551 120.031 21.1868 119.819 21.476C119.601 21.7694 119.306 21.9963 118.966 22.1312C118.711 22.2352 118.54 22.2404 118.529 22.2144Z" fill="#263238"/>
<path d="M104.994 7.8572C105.054 7.66337 105.186 7.4998 105.363 7.3996C105.753 7.22104 106.184 7.15098 106.611 7.1968C107.903 7.16682 109.162 6.78184 110.251 6.084C110.761 5.34458 111.331 4.64884 111.956 4.004C113.428 2.48039 114.645 1.44559 115.903 0.941194C117.835 0.236663 119.922 0.0712845 121.94 0.462794C123.63 0.909994 125.154 2.28279 125.388 4.0196C126.34 3.21359 127.764 3.22399 128.924 3.6868H128.95C130.24 4.1444 130.973 5.5068 131.352 6.8068C131.732 8.1068 131.872 9.5264 132.59 10.7016C132.736 10.9512 132.912 11.2216 132.782 11.5024C132.726 11.5983 132.641 11.6738 132.539 11.7178C132.437 11.7618 132.324 11.7719 132.216 11.7468C131.997 11.7008 131.792 11.6086 131.612 11.4764C131.758 11.8196 131.904 12.1628 132.044 12.5164C131.577 12.5917 131.098 12.5597 130.645 12.4228C130.408 13.5945 130.1 14.7509 129.725 15.886C129.245 15.8286 128.76 15.9488 128.362 16.224C127.91 16.6296 127.707 17.394 126.958 17.1028C126.579 16.952 126.23 16.1512 126.1 15.7664C125.253 13.1749 124.972 10.4314 125.279 7.722C124.743 7.151 124.102 6.68845 123.391 6.3596L123.448 6.4116C122.091 5.9384 120.552 5.4756 119.257 6.11C118.259 6.63 117.666 7.67 116.917 8.476C116.227 9.24162 115.388 9.85937 114.453 10.2919C113.517 10.7245 112.503 10.9629 111.473 10.9928C111.4 12.3656 111.514 14.3 111.442 15.6728L110.308 13.52C110.214 13.3588 110.136 13.1976 110.058 13.0364L110.032 12.9844C109.918 12.7179 109.789 12.4575 109.648 12.2044C109.488 12.3338 109.287 12.4016 109.082 12.3956C108.877 12.3896 108.68 12.3101 108.529 12.1716C108.377 12.0332 108.28 11.8449 108.255 11.6409C108.231 11.437 108.28 11.231 108.394 11.0604C108.509 10.8994 108.649 10.7587 108.81 10.6444C108.641 10.8056 108.433 10.9208 108.206 10.9791C107.98 11.0373 107.742 11.0367 107.516 10.9772C107.293 10.9124 107.098 10.7747 106.962 10.5862C106.826 10.3978 106.758 10.1693 106.767 9.9372C106.783 9.78135 106.84 9.63243 106.931 9.50489C107.022 9.37734 107.145 9.27549 107.287 9.20921C106.683 9.25686 106.079 9.12477 105.55 8.8296C105.212 8.6112 104.879 8.2888 104.994 7.8572Z" fill="#263238"/>
<path d="M123.88 4.5916C124.055 4.72645 124.219 4.87607 124.369 5.0388C124.755 5.50357 125.013 6.06099 125.117 6.656C125.201 7.06318 125.243 7.47788 125.242 7.89359C125.242 8.34599 125.211 8.8244 125.175 9.3288C125.131 9.86147 125.119 10.3963 125.138 10.9304C125.155 11.2134 125.191 11.4949 125.247 11.7728C125.292 12.0694 125.41 12.3501 125.591 12.5892C125.676 12.6834 125.783 12.7541 125.904 12.7942C126.024 12.8343 126.153 12.8425 126.277 12.818C126.517 12.7756 126.735 12.6527 126.896 12.4696C127.163 12.1076 127.326 11.6798 127.369 11.232H127.265C127.41 11.606 127.61 11.9565 127.858 12.272C128.094 12.5615 128.433 12.748 128.804 12.792C128.982 12.811 129.162 12.7804 129.324 12.7036C129.469 12.6288 129.587 12.5107 129.662 12.3656C129.737 12.2343 129.773 12.0848 129.766 11.934C129.762 11.7927 129.707 11.6578 129.61 11.5544L129.558 11.6012C129.846 11.9325 130.201 12.2 130.598 12.3864C130.704 12.4359 130.814 12.4776 130.926 12.5112C130.962 12.5285 131.001 12.539 131.04 12.5424L130.931 12.4956C130.858 12.4644 130.749 12.4228 130.619 12.3552C130.232 12.1598 129.887 11.8893 129.605 11.5596L129.553 11.6012C129.634 11.7038 129.681 11.8289 129.687 11.9594C129.694 12.0898 129.66 12.2191 129.589 12.3292C129.517 12.4564 129.408 12.5595 129.277 12.6256C129.136 12.6894 128.98 12.7146 128.825 12.6984C128.481 12.6535 128.166 12.4786 127.946 12.2096C127.709 11.9058 127.516 11.5696 127.374 11.2112L127.301 11.0552L127.27 11.2216C127.228 11.6492 127.074 12.0581 126.823 12.4072C126.679 12.5692 126.485 12.6789 126.272 12.7192C126.165 12.7398 126.055 12.7324 125.952 12.6978C125.849 12.6632 125.757 12.6025 125.684 12.5216C125.517 12.2968 125.408 12.0342 125.367 11.7572C125.313 11.4843 125.276 11.2081 125.258 10.9304C125.237 10.4102 125.248 9.88933 125.289 9.3704C125.32 8.8504 125.351 8.3824 125.346 7.9248C125.345 7.50323 125.298 7.08305 125.206 6.6716C125.092 6.06821 124.82 5.5062 124.415 5.044C124.265 4.86263 124.084 4.70945 123.88 4.5916Z" fill="#455A64"/>
<path d="M108.8 9.36001L108.836 9.39121L108.961 9.47961C109.025 9.53004 109.093 9.57525 109.164 9.61481C109.247 9.66161 109.346 9.71881 109.46 9.77081C110.113 10.064 110.827 10.1926 111.54 10.1452C112.606 10.0736 113.627 9.69629 114.484 9.05841C115.514 8.26994 116.372 7.27895 117.006 6.14641C117.359 5.55881 117.65 4.95561 117.968 4.39401C118.259 3.85209 118.625 3.35334 119.054 2.91201C119.445 2.51593 119.927 2.2229 120.458 2.05921C120.7 1.99371 120.951 1.96565 121.202 1.97601C121.432 1.98862 121.659 2.03236 121.878 2.10601C122.544 2.33949 123.1 2.81201 123.438 3.43201C123.552 3.66313 123.635 3.90775 123.688 4.16001C123.688 4.16001 123.688 4.16 123.688 4.108L123.662 3.9624C123.625 3.7715 123.564 3.58618 123.48 3.4112C123.348 3.13825 123.172 2.88879 122.96 2.67281C122.663 2.38536 122.309 2.16539 121.92 2.028C121.694 1.95086 121.46 1.90366 121.223 1.88761C120.962 1.87204 120.7 1.90015 120.448 1.9708C119.899 2.13393 119.4 2.43258 118.997 2.83921C118.557 3.28478 118.182 3.79079 117.884 4.34201C117.562 4.90361 117.276 5.50681 116.922 6.08921C116.295 7.20791 115.45 8.1893 114.437 8.97521C113.598 9.60571 112.597 9.98286 111.551 10.062C110.841 10.1257 110.126 10.0113 109.471 9.72922C109.24 9.61944 109.016 9.49615 108.8 9.36001Z" fill="#455A64"/>
<path d="M108.363 7.1916C108.417 7.24067 108.476 7.28263 108.54 7.3164C108.706 7.41714 108.88 7.5041 109.06 7.57641C109.326 7.689 109.601 7.77944 109.882 7.84681C110.223 7.92509 110.571 7.97209 110.922 7.98721C111.27 7.99509 111.618 7.97072 111.962 7.91441C112.247 7.86727 112.527 7.79417 112.799 7.69601C112.978 7.63291 113.152 7.55642 113.319 7.4672C113.384 7.43944 113.446 7.40268 113.501 7.358C113.501 7.358 113.225 7.4776 112.762 7.62321C112.491 7.7039 112.215 7.76644 111.936 7.81041C111.592 7.86156 111.244 7.88244 110.896 7.87281C110.546 7.85932 110.198 7.81582 109.856 7.74281C109.58 7.6834 109.309 7.60344 109.044 7.5036C108.634 7.332 108.374 7.176 108.363 7.1916Z" fill="#455A64"/>
<path d="M112.346 14.56C112.445 14.6588 113.007 14.2064 113.823 14.1804C114.64 14.1544 115.248 14.56 115.331 14.456C115.414 14.352 115.274 14.2272 115.009 14.04C114.65 13.8032 114.227 13.6833 113.797 13.6968C113.372 13.7099 112.961 13.8593 112.627 14.1232C112.383 14.3052 112.3 14.4872 112.346 14.56Z" fill="#263238"/>
<path d="M112.866 16.1512C112.878 16.3231 112.957 16.4837 113.085 16.5991C113.213 16.7146 113.381 16.7758 113.553 16.77C113.637 16.77 113.72 16.7533 113.798 16.7207C113.876 16.6882 113.946 16.6405 114.005 16.5805C114.064 16.5205 114.111 16.4493 114.142 16.3712C114.173 16.293 114.189 16.2094 114.187 16.1252C114.176 15.9537 114.099 15.7931 113.972 15.6776C113.845 15.5621 113.678 15.5006 113.506 15.5064C113.421 15.5057 113.337 15.5219 113.259 15.5541C113.181 15.5864 113.11 15.6339 113.05 15.694C112.991 15.7541 112.944 15.8255 112.912 15.904C112.881 15.9825 112.865 16.0666 112.866 16.1512Z" fill="#263238"/>
<path d="M101 126.625C99.9964 127.988 102.503 142.293 104.338 140.728L102.461 143.733L95.4932 144.316L90.7456 129.834L101 126.625Z" fill="#FFBE9D"/>
<path d="M108.956 79.8512C108.956 79.8512 83.3199 94.5464 81.9887 101.234C81.3407 103.481 81.3878 105.872 82.1239 108.092C83.3303 112.039 93.1063 140.28 93.1063 140.28L103.356 136.88L101.588 125.96L97.5784 109.84L96.3719 108.191C97.2169 108.168 98.0442 107.944 98.7847 107.536C99.8819 106.876 116.465 96.7512 116.465 96.7512L120.625 83.8604L108.956 79.8512Z" fill="#263238"/>
<path d="M95.1396 143.556L95.3112 144.134C95.3112 144.134 86.6636 151.034 87.116 152.927L106.611 146.978L104.364 140.572C103.13 141.701 101.668 142.552 100.077 143.067C98.485 143.582 96.8013 143.749 95.1396 143.556Z" fill="#455A64"/>
<g opacity="0.6">
<path opacity="0.6" d="M106.611 146.978L106.091 145.418L87.584 151.705C87.584 151.705 86.8352 152.35 87.116 152.927L106.611 146.978Z" fill="white"/>
</g>
<path d="M95.28 144.212C95.3112 144.305 95.8 144.212 96.3616 144.368C96.9232 144.524 97.2976 144.851 97.3756 144.789C97.4536 144.726 97.1416 144.217 96.4552 144.035C95.7688 143.853 95.2124 144.128 95.28 144.212Z" fill="#263238"/>
<path d="M93.4755 145.683C93.4755 145.782 93.9435 145.818 94.3855 146.12C94.8275 146.422 95.0563 146.822 95.1499 146.786C95.2435 146.749 95.1499 146.198 94.5779 145.829C94.0059 145.46 93.4495 145.6 93.4755 145.683Z" fill="#263238"/>
<path d="M93.0596 148.481C93.1532 148.481 93.1376 147.961 92.7372 147.514C92.3368 147.066 91.822 146.994 91.8064 147.087C91.7908 147.181 92.1548 147.373 92.4772 147.748C92.7996 148.122 92.9608 148.502 93.0596 148.481Z" fill="#263238"/>
<path d="M90.6 104C90.9633 104.067 91.3141 104.19 91.64 104.364C92.4659 104.74 93.243 105.215 93.954 105.778C94.6649 106.341 95.3056 106.987 95.8624 107.702C96.1074 107.99 96.3104 108.31 96.4656 108.654C95.6532 107.688 94.7608 106.792 93.798 105.976C92.7908 105.227 91.7208 104.566 90.6 104Z" fill="#455A64"/>
<path d="M92.2432 101.234C92.5799 101.483 92.8808 101.776 93.1376 102.107C93.8011 102.871 94.3832 103.703 94.8744 104.588C95.3654 105.472 95.7611 106.407 96.0548 107.375C96.2003 107.768 96.2896 108.179 96.32 108.597C96.1501 108.217 96.0059 107.826 95.8884 107.427C95.2131 105.549 94.2385 103.793 93.0024 102.227C92.7272 101.913 92.4736 101.581 92.2432 101.234Z" fill="#455A64"/>
<g opacity="0.3">
<path opacity="0.3" d="M116.361 95.7268C116.215 95.2952 115.966 94.9 115.841 94.4632C115.776 94.0336 115.646 93.6163 115.456 93.2256C115.164 92.8681 114.77 92.6071 114.328 92.4768C112.081 91.572 109.788 90.766 107.469 90.064L105.8 91.052C105.863 91.6223 106.044 92.1732 106.332 92.6693C106.621 93.1654 107.01 93.5958 107.474 93.9328C108.404 94.602 109.439 95.1116 110.537 95.4408C111.633 95.7682 112.697 96.1964 113.714 96.72C114.101 96.9759 114.518 97.182 114.957 97.3336C115.177 97.4049 115.413 97.4145 115.638 97.3613C115.864 97.3082 116.071 97.1943 116.236 97.032C116.364 96.8419 116.442 96.6231 116.464 96.3952C116.485 96.1673 116.45 95.9376 116.361 95.7268Z" fill="black"/>
</g>
<path d="M121.436 104.286L124.951 92.5132H121.868L118.841 103.574L121.436 104.286Z" fill="#E0E0E0"/>
<path d="M157.638 144.508C157.571 144.508 159.609 137.452 162.183 128.799C164.757 120.146 166.905 113.147 166.972 113.162C167.04 113.178 165.002 120.214 162.422 128.872C159.843 137.53 157.706 144.524 157.638 144.508Z" fill="#263238"/>
<path d="M157.638 144.508C157.571 144.508 158.424 137.228 159.547 128.268C160.67 119.309 161.627 112.05 161.71 112.06C161.793 112.07 160.92 119.34 159.796 128.3C158.673 137.259 157.706 144.513 157.638 144.508Z" fill="#263238"/>
<path d="M157.638 144.508C157.571 144.508 157.118 137.228 156.645 128.185C156.172 119.142 155.829 111.852 155.896 111.852C155.964 111.852 156.416 119.132 156.89 128.17C157.363 137.207 157.706 144.503 157.638 144.508Z" fill="#263238"/>
<path d="M157.638 144.508C157.571 144.508 155.907 137.389 153.926 128.58C151.944 119.772 150.39 112.616 150.457 112.601C150.525 112.585 152.189 119.714 154.17 128.528C156.151 137.342 157.706 144.492 157.638 144.508Z" fill="#263238"/>
<path d="M157.638 144.508C157.576 144.534 154.742 137.779 151.315 129.428C147.888 121.077 145.158 114.28 145.2 114.254C145.242 114.228 148.096 120.978 151.523 129.334C154.95 137.691 157.68 144.482 157.638 144.508Z" fill="#263238"/>
<path d="M157.638 144.508C157.581 144.544 153.66 138.362 148.882 130.697C144.103 123.032 140.281 116.792 140.338 116.756C140.395 116.719 144.316 122.902 149.095 130.567C153.874 138.232 157.68 144.472 157.638 144.508Z" fill="#263238"/>
<path d="M157.638 144.508C157.586 144.55 152.688 139.11 146.718 132.356C140.749 125.601 135.908 120.084 135.96 120.042C136.012 120 140.91 125.434 146.906 132.189C152.901 138.944 157.68 144.461 157.638 144.508Z" fill="#263238"/>
<path d="M157.638 144.508C157.597 144.56 151.856 140.015 144.815 134.358C137.774 128.7 132.106 124.067 132.153 124.015C132.2 123.963 137.92 128.502 144.976 134.16C152.033 139.818 157.68 144.451 157.638 144.508Z" fill="#263238"/>
<path d="M157.638 144.508C157.607 144.565 151.185 141.045 143.302 136.646C135.419 132.246 129.049 128.627 129.08 128.565C129.111 128.502 135.528 132.023 143.416 136.427C151.305 140.832 157.68 144.446 157.638 144.508Z" fill="#263238"/>
<path d="M157.638 144.508C157.638 144.57 150.696 142.173 142.189 139.152C133.682 136.131 126.797 133.63 126.818 133.567C126.839 133.505 133.76 135.897 142.272 138.918C150.785 141.939 157.68 144.44 157.638 144.508Z" fill="#263238"/>
<path d="M157.638 144.508C157.638 144.576 150.405 143.369 141.518 141.814C132.632 140.26 125.398 138.944 125.43 138.876C125.461 138.809 132.663 140.015 141.55 141.57C150.436 143.125 157.649 144.44 157.638 144.508Z" fill="#263238"/>
<path d="M157.638 144.508C157.638 144.576 150.317 144.596 141.29 144.55C132.262 144.503 124.936 144.414 124.936 144.347C124.936 144.279 132.257 144.258 141.29 144.3C150.322 144.342 157.638 144.435 157.638 144.508Z" fill="#263238"/>
<path d="M157.638 144.508C157.638 144.576 150.436 145.818 141.518 147.285C132.6 148.751 125.398 149.885 125.367 149.817C125.336 149.75 132.569 148.507 141.487 147.04C150.405 145.574 157.628 144.44 157.638 144.508Z" fill="#263238"/>
<path d="M157.638 144.508C157.638 144.57 150.753 147.004 142.215 149.942C133.677 152.88 126.735 155.204 126.714 155.142C126.693 155.08 133.593 152.641 142.137 149.703C150.681 146.765 157.617 144.44 157.638 144.508Z" fill="#263238"/>
<path d="M157.638 144.508C157.67 144.565 151.268 148.148 143.344 152.443C135.419 156.738 128.96 160.243 128.929 160.165C128.898 160.087 135.294 156.551 143.224 152.225C151.154 147.898 157.607 144.446 157.638 144.508Z" fill="#263238"/>
<path d="M157.638 144.508C157.68 144.56 151.965 149.136 144.872 154.721C137.78 160.306 131.992 164.798 131.95 164.746C131.909 164.694 137.624 160.118 144.716 154.528C151.809 148.938 157.597 144.451 157.638 144.508Z" fill="#263238"/>
<path d="M157.638 144.508C157.69 144.55 152.818 150.02 146.76 156.712C140.702 163.405 135.752 168.802 135.7 168.756C135.648 168.709 140.515 163.244 146.578 156.546C152.641 149.848 157.586 144.461 157.638 144.508Z" fill="#263238"/>
<path d="M157.638 144.508C157.696 144.544 153.811 150.748 148.954 158.361C144.098 165.974 140.114 172.12 140.062 172.084C140.01 172.047 143.89 165.844 148.746 158.226C153.603 150.608 157.581 144.466 157.638 144.508Z" fill="#263238"/>
<path d="M157.638 144.508C157.701 144.534 154.908 151.299 151.398 159.619C147.888 167.939 144.987 174.663 144.924 174.637C144.862 174.611 147.654 167.846 151.164 159.52C154.674 151.195 157.576 144.477 157.638 144.508Z" fill="#263238"/>
<path d="M157.638 144.508C157.706 144.508 156.078 151.663 153.998 160.451C151.918 169.239 150.197 176.353 150.13 176.337C150.062 176.322 151.69 169.182 153.77 160.394C155.85 151.606 157.571 144.492 157.638 144.508Z" fill="#263238"/>
<path d="M157.638 144.508C157.706 144.508 157.3 151.819 156.728 160.831C156.156 169.842 155.642 177.148 155.574 177.143C155.506 177.138 155.912 169.832 156.484 160.815C157.056 151.798 157.571 144.503 157.638 144.508Z" fill="#263238"/>
<path d="M157.638 144.508C157.706 144.508 158.528 151.788 159.474 160.753C160.42 169.718 161.133 177.024 161.06 177.029C160.987 177.034 160.171 169.749 159.224 160.779C158.278 151.809 157.571 144.513 157.638 144.508Z" fill="#263238"/>
<path d="M157.638 144.508C157.706 144.508 159.718 151.523 162.168 160.217C164.617 168.912 166.52 175.978 166.452 175.999C166.385 176.02 164.372 168.984 161.928 160.285C159.484 151.585 157.571 144.524 157.638 144.508Z" fill="#263238"/>
<path d="M157.638 144.508C157.701 144.477 160.878 151.076 164.731 159.24C168.584 167.404 171.658 174.049 171.595 174.08C171.533 174.112 168.361 167.513 164.502 159.344C160.644 151.174 157.576 144.56 157.638 144.508Z" fill="#263238"/>
<path d="M157.638 144.508C157.696 144.466 161.928 150.441 167.097 157.846C172.266 165.251 176.4 171.288 176.348 171.33C176.296 171.371 172.058 165.396 166.889 157.986C161.72 150.576 157.581 144.56 157.638 144.508Z" fill="#263238"/>
<path d="M157.638 144.508C157.685 144.456 162.838 149.64 169.193 156.073C175.547 162.505 180.633 167.773 180.57 167.82C180.508 167.866 175.37 162.687 169.016 156.25C162.662 149.812 157.592 144.56 157.638 144.508Z" fill="#263238"/>
<path d="M157.638 144.508C157.68 144.451 163.644 148.694 170.966 153.977C178.288 159.26 184.2 163.602 184.148 163.654C184.096 163.706 178.142 159.468 170.82 154.18C163.499 148.892 157.597 144.56 157.638 144.508Z" fill="#263238"/>
<path d="M157.638 144.508C157.669 144.446 164.263 147.628 172.365 151.616C180.466 155.605 187.008 158.896 186.977 158.954C186.946 159.011 180.357 155.834 172.25 151.84C164.143 147.846 157.607 144.56 157.638 144.508Z" fill="#263238"/>
<path d="M157.638 144.508C157.638 144.44 164.69 146.474 173.342 149.053C181.995 151.632 189 153.774 188.979 153.842C188.958 153.91 181.928 151.871 173.275 149.292C164.622 146.713 157.618 144.56 157.638 144.508Z" fill="#263238"/>
<path d="M157.638 144.508C157.638 144.435 164.918 145.267 173.883 146.364C182.848 147.462 190.107 148.398 190.102 148.444C190.097 148.491 182.822 147.685 173.852 146.588C164.882 145.491 157.628 144.56 157.638 144.508Z" fill="#263238"/>
<path d="M157.638 144.508C157.638 144.435 164.944 144.04 173.966 143.619C182.988 143.198 190.3 142.912 190.305 142.979C190.31 143.047 182.999 143.447 173.977 143.868C164.955 144.29 157.644 144.56 157.638 144.508Z" fill="#263238"/>
<path d="M157.638 144.508C157.638 144.44 164.768 142.823 173.587 140.899C182.406 138.975 189.577 137.472 189.587 137.54C189.598 137.608 182.463 139.22 173.639 141.144C164.814 143.068 157.68 144.56 157.638 144.508Z" fill="#263238"/>
<path d="M157.638 144.508C157.612 144.44 164.398 141.653 172.76 138.268C181.122 134.883 187.949 132.21 187.975 132.278C188.001 132.345 181.215 135.127 172.854 138.518C164.492 141.908 157.68 144.56 157.638 144.508Z" fill="#263238"/>
<path d="M157.638 144.508C157.602 144.446 163.811 140.566 171.507 135.84C179.203 131.113 185.469 127.332 185.505 127.39C185.542 127.447 179.333 131.326 171.637 136.053C163.941 140.78 157.68 144.56 157.638 144.508Z" fill="#263238"/>
<path d="M157.638 144.508C157.592 144.456 163.067 139.589 169.858 133.645C176.65 127.702 182.203 122.918 182.25 122.97C182.297 123.022 176.821 127.884 170.025 133.832C163.228 139.781 157.68 144.56 157.638 144.508Z" fill="#263238"/>
<path d="M157.638 144.508C157.586 144.461 162.168 138.752 167.872 131.752C173.576 124.753 178.246 119.111 178.272 119.158C178.298 119.205 173.743 124.909 168.038 131.908C162.334 138.908 157.68 144.56 157.638 144.508Z" fill="#263238"/>
<path d="M157.638 144.508C157.581 144.472 161.143 138.076 165.594 130.224C170.046 122.372 173.706 116.022 173.769 116.059C173.831 116.095 170.264 122.486 165.813 130.343C161.362 138.2 157.68 144.56 157.638 144.508Z" fill="#263238"/>
<path d="M113.789 153.636C115.794 148.734 113.445 143.136 108.543 141.131C103.641 139.127 98.0427 141.476 96.0383 146.377C94.0339 151.279 96.3827 156.878 101.285 158.882C106.186 160.886 111.785 158.538 113.789 153.636Z" fill="#263238"/>
<path d="M37.3727 144.508C37.3103 144.508 39.3435 137.452 41.9227 128.799C44.5019 120.146 46.6443 113.147 46.7067 113.162C46.7691 113.178 44.7411 120.214 42.1619 128.872C39.5827 137.53 37.4403 144.524 37.3727 144.508Z" fill="#263238"/>
<path d="M37.3728 144.508C37.3052 144.508 38.1632 137.228 39.2864 128.268C40.4096 119.309 41.3664 112.05 41.4444 112.06C41.5224 112.07 40.654 119.34 39.5308 128.3C38.4076 137.259 37.4404 144.513 37.3728 144.508Z" fill="#263238"/>
<path d="M37.3728 144.508C37.3052 144.508 36.8528 137.228 36.3796 128.185C35.9064 119.142 35.5632 111.852 35.6308 111.852C35.6984 111.852 36.1508 119.132 36.6292 128.17C37.1076 137.207 37.4456 144.503 37.3728 144.508Z" fill="#263238"/>
<path d="M37.3727 144.508C37.3051 144.508 35.6463 137.389 33.6651 128.58C31.6839 119.772 30.1291 112.616 30.1967 112.601C30.2643 112.585 31.9231 119.714 33.9043 128.528C35.8855 137.342 37.4403 144.492 37.3727 144.508Z" fill="#263238"/>
<path d="M37.3727 144.508C37.3103 144.534 34.4815 137.779 31.0495 129.428C27.6175 121.077 24.8927 114.28 24.9603 114.254C25.0279 114.228 27.8515 120.978 31.2835 129.334C34.7155 137.691 37.4403 144.482 37.3727 144.508Z" fill="#263238"/>
<path d="M37.3728 144.508C37.3156 144.544 33.3948 138.362 28.616 130.697C23.8372 123.032 20.0152 116.792 20.0724 116.756C20.1296 116.719 24.0504 122.902 28.8292 130.567C33.608 138.232 37.4352 144.472 37.3728 144.508Z" fill="#263238"/>
<path d="M37.3727 144.508C37.3207 144.55 32.4223 139.11 26.4527 132.356C20.4831 125.601 15.6419 120.084 15.6939 120.042C15.7459 120 20.6443 125.434 26.6399 132.189C32.6355 138.944 37.4247 144.461 37.3727 144.508Z" fill="#263238"/>
<path d="M37.3728 144.508C37.3312 144.56 31.5904 140.015 24.5548 134.358C17.5192 128.7 11.846 124.067 11.8876 124.015C11.9292 123.963 17.6699 128.502 24.7107 134.165C31.7515 139.828 37.4195 144.451 37.3728 144.508Z" fill="#263238"/>
<path d="M37.3728 144.508C37.3416 144.565 30.9196 141.045 23.0364 136.646C15.1532 132.246 8.78837 128.627 8.81957 128.565C8.85077 128.502 15.2728 132.023 23.1612 136.427C31.0496 140.832 37.4092 144.446 37.3728 144.508Z" fill="#263238"/>
<path d="M37.3728 144.508C37.3728 144.57 30.4308 142.173 21.9236 139.152C13.4164 136.131 6.53157 133.63 6.55757 133.567C6.58357 133.505 13.4944 135.897 22.0068 138.918C30.5192 141.939 37.3988 144.44 37.3728 144.508Z" fill="#263238"/>
<path d="M37.3728 144.508C37.3728 144.576 30.1396 143.369 21.2528 141.814C12.366 140.26 5.13284 138.944 5.16404 138.876C5.19524 138.809 12.3972 140.015 21.284 141.57C30.1708 143.125 37.3884 144.44 37.3728 144.508Z" fill="#263238"/>
<path d="M37.3728 144.508C37.3728 144.576 30.0512 144.596 21.024 144.55C11.9968 144.503 4.67517 144.414 4.67517 144.347C4.67517 144.279 11.9916 144.258 21.024 144.3C30.0564 144.342 37.3728 144.435 37.3728 144.508Z" fill="#263238"/>
<path d="M37.3727 144.508C37.3727 144.576 30.1707 145.818 21.2527 147.285C12.3347 148.751 5.13273 149.885 5.09633 149.817C5.05993 149.75 12.2983 148.507 21.2163 147.04C30.1343 145.574 37.3623 144.44 37.3727 144.508Z" fill="#263238"/>
<path d="M37.3728 144.508C37.3988 144.57 30.4932 147.004 21.9548 149.942C13.4164 152.88 6.47444 155.204 6.44844 155.142C6.42244 155.08 13.3332 152.641 21.8716 149.703C30.41 146.765 37.352 144.44 37.3728 144.508Z" fill="#263238"/>
<path d="M37.3728 144.508C37.4092 144.565 31.008 148.148 23.078 152.443C15.148 156.738 8.69477 160.243 8.66357 160.165C8.63237 160.087 15.0284 156.551 22.9584 152.225C30.8884 147.898 37.3416 144.446 37.3728 144.508Z" fill="#263238"/>
<path d="M37.3729 144.508C37.4197 144.56 31.6997 149.136 24.6069 154.721C17.5141 160.306 11.7317 164.798 11.6849 164.746C11.6381 164.694 17.3581 160.118 24.4561 154.528C31.5541 148.938 37.3313 144.451 37.3729 144.508Z" fill="#263238"/>
<path d="M37.3728 144.508C37.4248 144.55 32.5576 150.02 26.4996 156.712C20.4416 163.405 15.486 168.802 15.434 168.756C15.382 168.709 20.2544 163.244 26.3124 156.546C32.3704 149.848 37.326 144.461 37.3728 144.508Z" fill="#263238"/>
<path d="M37.3728 144.508C37.4352 144.544 33.5456 150.748 28.694 158.361C23.8424 165.974 19.854 172.12 19.802 172.084C19.75 172.047 23.6292 165.844 28.4808 158.226C33.3324 150.608 37.3156 144.466 37.3728 144.508Z" fill="#263238"/>
<path d="M37.3728 144.508C37.4404 144.534 34.6428 151.299 31.1328 159.619C27.6228 167.939 24.7264 174.663 24.6588 174.637C24.5912 174.611 27.3888 167.846 30.8988 159.52C34.4088 151.195 37.3104 144.477 37.3728 144.508Z" fill="#263238"/>
<path d="M37.3728 144.508C37.4404 144.508 35.8128 151.663 33.7328 160.451C31.6528 169.239 29.9316 176.353 29.864 176.337C29.7964 176.322 31.424 169.182 33.504 160.394C35.584 151.606 37.3052 144.492 37.3728 144.508Z" fill="#263238"/>
<path d="M37.3728 144.508C37.4456 144.508 37.0348 151.819 36.468 160.831C35.9012 169.842 35.376 177.148 35.3084 177.143C35.2408 177.138 35.6464 169.832 36.2184 160.815C36.7904 151.798 37.3052 144.503 37.3728 144.508Z" fill="#263238"/>
<path d="M37.3727 144.508C37.4455 144.508 38.2671 151.788 39.2083 160.753C40.1495 169.718 40.8671 177.024 40.7995 177.029C40.7319 177.034 39.9103 169.749 38.9639 160.779C38.0175 151.809 37.3051 144.513 37.3727 144.508Z" fill="#263238"/>
<path d="M37.3728 144.508C37.4404 144.508 39.4528 151.523 41.902 160.217C44.3512 168.912 46.2544 175.978 46.192 175.999C46.1296 176.02 44.112 168.984 41.6628 160.285C39.2136 151.585 37.3104 144.524 37.3728 144.508Z" fill="#263238"/>
<path d="M37.3728 144.508C37.4352 144.477 40.6124 151.076 44.4656 159.24C48.3188 167.404 51.3972 174.049 51.3348 174.08C51.2724 174.112 48.0952 167.513 44.242 159.344C40.3888 151.174 37.3104 144.56 37.3728 144.508Z" fill="#263238"/>
<path d="M37.3728 144.508C37.43 144.466 41.6628 150.441 46.8316 157.846C52.0004 165.251 56.1396 171.288 56.0824 171.33C56.0252 171.371 51.7924 165.396 46.6236 157.986C41.4548 150.576 37.3156 144.56 37.3728 144.508Z" fill="#263238"/>
<path d="M37.3728 144.508C37.4248 144.456 42.5988 149.64 48.9272 156.073C55.2556 162.505 60.3672 167.773 60.3048 167.82C60.2424 167.866 55.1048 162.687 48.7504 156.25C42.396 149.812 37.326 144.56 37.3728 144.508Z" fill="#263238"/>
<path d="M37.3727 144.508C37.4143 144.451 43.3839 148.694 50.7003 153.977C58.0167 159.26 63.9239 163.602 63.8823 163.654C63.8407 163.706 57.8763 159.468 50.5599 154.18C43.2435 148.892 37.3363 144.56 37.3727 144.508Z" fill="#263238"/>
<path d="M37.3728 144.508C37.404 144.446 43.9976 147.628 52.0992 151.616C60.2008 155.605 66.7424 158.896 66.7112 158.954C66.68 159.011 60.0916 155.834 51.99 151.84C43.8884 147.846 37.3416 144.56 37.3728 144.508Z" fill="#263238"/>
<path d="M37.3728 144.508C37.3728 144.44 44.4292 146.474 53.082 149.053C61.7348 151.632 68.734 153.774 68.7184 153.842C68.7028 153.91 61.6672 151.871 53.0092 149.292C44.3512 146.713 37.3572 144.56 37.3728 144.508Z" fill="#263238"/>
<path d="M37.3728 144.508C37.3728 144.435 44.6528 145.267 53.6176 146.364C62.5824 147.462 69.8468 148.398 69.8364 148.444C69.826 148.491 62.5564 147.685 53.5916 146.588C44.6268 145.491 37.3676 144.56 37.3728 144.508Z" fill="#263238"/>
<path d="M37.3728 144.508C37.3728 144.435 44.684 144.04 53.7008 143.619C62.7176 143.198 70.0392 142.912 70.0392 142.979C70.0392 143.047 62.7592 143.447 53.7112 143.868C44.6632 144.29 37.378 144.56 37.3728 144.508Z" fill="#263238"/>
<path d="M37.3728 144.508C37.3728 144.44 44.502 142.823 53.3212 140.899C62.1404 138.975 69.3112 137.472 69.3268 137.54C69.3424 137.608 62.2028 139.22 53.3784 141.144C44.554 143.068 37.3884 144.56 37.3728 144.508Z" fill="#263238"/>
<path d="M37.3728 144.508C37.3728 144.44 44.1328 141.653 52.4944 138.268C60.856 134.883 67.6836 132.21 67.7096 132.278C67.7356 132.345 60.9496 135.127 52.588 138.518C44.2264 141.908 37.3988 144.56 37.3728 144.508Z" fill="#263238"/>
<path d="M37.3728 144.508C37.3364 144.446 43.5452 140.566 51.2412 135.84C58.9372 131.113 65.2033 127.332 65.2397 127.39C65.2761 127.447 59.0672 131.326 51.3712 136.053C43.6752 140.78 37.4092 144.56 37.3728 144.508Z" fill="#263238"/>
<path d="M37.3728 144.508C37.3312 144.456 42.8016 139.589 49.598 133.645C56.3944 127.702 61.9376 122.918 61.9844 122.97C62.0312 123.022 56.5556 127.884 49.7592 133.832C42.9628 139.781 37.4196 144.56 37.3728 144.508Z" fill="#263238"/>
<path d="M37.3728 144.508C37.3208 144.461 41.902 138.752 47.6064 131.752C53.3108 124.753 57.9804 119.111 58.0376 119.158C58.0948 119.205 53.5084 124.909 47.7988 131.908C42.0892 138.908 37.43 144.56 37.3728 144.508Z" fill="#263238"/>
<path d="M37.3727 144.508C37.3155 144.472 40.8776 138.076 45.3288 130.224C49.78 122.372 53.4408 116.022 53.5032 116.059C53.5656 116.095 50.0036 122.486 45.5472 130.343C41.0908 138.2 37.4351 144.56 37.3727 144.508Z" fill="#263238"/>
<path d="M0.234375 144.508C0.234375 151.853 2.4125 159.034 6.49332 165.141C10.5741 171.248 16.3744 176.008 23.1605 178.819C29.9467 181.63 37.414 182.366 44.6181 180.933C51.8223 179.5 58.4397 175.963 63.6336 170.769C68.8275 165.575 72.3646 158.957 73.7976 151.753C75.2306 144.549 74.4951 137.082 71.6842 130.296C68.8733 123.51 64.1131 117.709 58.0058 113.629C51.8984 109.548 44.7181 107.37 37.3728 107.37C27.5235 107.371 18.078 111.284 11.1135 118.249C4.14898 125.213 0.235754 134.659 0.234375 144.508ZM3.35437 144.508C3.35437 137.783 5.3486 131.209 9.08488 125.617C12.8212 120.025 18.1317 115.667 24.3449 113.094C30.5581 110.52 37.3949 109.847 43.9908 111.159C50.5867 112.471 56.6454 115.709 61.4008 120.464C66.1562 125.22 69.3946 131.278 70.7066 137.874C72.0186 144.47 71.3453 151.307 68.7717 157.52C66.1981 163.734 61.8399 169.044 56.2481 172.78C50.6564 176.517 44.0823 178.511 37.3572 178.511C28.3418 178.507 19.697 174.922 13.3236 168.546C6.95026 162.17 3.36997 153.523 3.36997 144.508H3.35437Z" fill="#263238"/>
<path d="M3.37 144.508C3.37 151.233 5.36423 157.807 9.1005 163.399C12.8368 168.991 18.1473 173.349 24.3605 175.922C30.5737 178.496 37.4105 179.169 44.0064 177.857C50.6023 176.545 56.661 173.307 61.4164 168.552C66.1718 163.796 69.4103 157.738 70.7223 151.142C72.0343 144.546 71.3609 137.709 68.7873 131.496C66.2137 125.282 61.8555 119.972 56.2638 116.236C50.672 112.499 44.0979 110.505 37.3728 110.505C28.3547 110.505 19.7059 114.088 13.3292 120.464C6.95242 126.841 3.37 135.49 3.37 144.508ZM4.67519 144.508C4.67416 138.041 6.59097 131.719 10.1832 126.341C13.7754 120.963 18.8817 116.771 24.8564 114.296C30.831 111.82 37.4055 111.172 43.7486 112.433C50.0917 113.694 55.9183 116.808 60.4917 121.38C65.065 125.953 68.1797 131.779 69.4418 138.122C70.7038 144.465 70.0566 151.039 67.582 157.014C65.1073 162.989 60.9164 168.096 55.5392 171.69C50.162 175.283 43.84 177.2 37.3728 177.2C28.7018 177.2 20.3858 173.756 14.2539 167.625C8.1221 161.494 4.67657 153.179 4.67519 144.508Z" fill="#E0E0E0"/>
<path d="M120.5 144.508C120.5 151.853 122.678 159.034 126.759 165.141C130.84 171.248 136.64 176.008 143.426 178.819C150.212 181.63 157.68 182.366 164.884 180.933C172.088 179.5 178.705 175.963 183.899 170.769C189.093 165.575 192.63 158.957 194.063 151.753C195.496 144.549 194.761 137.082 191.95 130.296C189.139 123.51 184.379 117.709 178.271 113.629C172.164 109.548 164.984 107.37 157.638 107.37C147.789 107.371 138.344 111.284 131.379 118.249C124.415 125.213 120.501 134.659 120.5 144.508ZM123.62 144.508C123.62 137.783 125.614 131.209 129.351 125.617C133.087 120.025 138.397 115.667 144.611 113.094C150.824 110.52 157.661 109.847 164.256 111.159C170.852 112.471 176.911 115.709 181.666 120.464C186.422 125.22 189.66 131.278 190.972 137.874C192.284 144.47 191.611 151.307 189.037 157.52C186.464 163.734 182.106 169.044 176.514 172.78C170.922 176.517 164.348 178.511 157.623 178.511C148.607 178.507 139.963 174.922 133.589 168.546C127.216 162.17 123.636 153.523 123.636 144.508H123.62Z" fill="#263238"/>
<path d="M123.635 144.508C123.635 151.233 125.63 157.807 129.366 163.399C133.102 168.991 138.413 173.349 144.626 175.922C150.839 178.496 157.676 179.169 164.272 177.857C170.868 176.545 176.927 173.307 181.682 168.552C186.437 163.796 189.676 157.738 190.988 151.142C192.3 144.546 191.626 137.709 189.053 131.496C186.479 125.282 182.121 119.972 176.529 116.236C170.937 112.499 164.363 110.505 157.638 110.505C148.62 110.505 139.971 114.088 133.595 120.464C127.218 126.841 123.635 135.49 123.635 144.508ZM124.941 144.508C124.94 138.041 126.856 131.719 130.449 126.341C134.041 120.963 139.147 116.771 145.122 114.296C151.096 111.82 157.671 111.172 164.014 112.433C170.357 113.694 176.184 116.808 180.757 121.38C185.33 125.953 188.445 131.779 189.707 138.122C190.969 144.465 190.322 151.039 187.847 157.014C185.373 162.989 181.182 168.096 175.805 171.69C170.427 175.283 164.105 177.2 157.638 177.2C153.343 177.203 149.089 176.36 145.12 174.718C141.151 173.076 137.544 170.669 134.506 167.633C131.468 164.597 129.057 160.992 127.412 157.024C125.768 153.056 124.921 148.803 124.92 144.508H124.941Z" fill="#E0E0E0"/>
<path d="M142.174 141.69H140.062V147.748H142.174V141.69Z" fill="#455A64"/>
<path d="M107.64 152.448L98.53 163.732L96.8816 163.322L105.982 150.987L107.64 152.448Z" fill="#263238"/>
<path d="M92.7402 165.599L102.147 165.611L102.15 162.959L92.7434 162.947L92.7402 165.599Z" fill="#263238"/>
<path d="M119.442 106.849L118.436 107.887L156.562 144.821L157.568 143.782L119.442 106.849Z" fill="#455A64"/>
<path d="M197.72 135.247C197.72 135.247 189.483 104.224 158.72 104.224C127.957 104.224 116.922 128.528 116.922 147.748L119.637 147.16C119.637 147.16 118.155 106.85 158.84 106.85C186.55 106.85 195.359 136.287 195.359 136.287L197.72 135.247Z" fill="#455A64"/>
<path d="M94.526 149.172C94.526 149.172 96.32 140.218 103.652 139.038C110.984 137.857 140.338 139.038 140.338 139.038C140.338 139.038 143.359 139.157 143.359 142.979L122.164 143.744L113.537 147.16C113.537 147.16 111.457 141.024 103.657 143C97.802 144.477 97.776 149.193 97.776 149.193L94.526 149.172Z" fill="#263238"/>
<path d="M111.878 129.912V126.443C104.952 126.443 100.183 124.738 97.4015 123.323C95.7666 122.539 94.2758 121.484 92.9919 120.203L92.9607 120.167L64.3607 89.076L61.8075 91.4212L90.3763 122.496C90.9067 123.048 97.2663 129.912 111.878 129.912Z" fill="#455A64"/>
<path d="M118.829 102.497L104.903 151.253L108.238 152.206L122.164 103.45L118.829 102.497Z" fill="#455A64"/>
<path d="M105.909 153.572L157.883 146.224L157.394 142.792L107.235 149.885L60.8247 99.1172L58.2664 101.457L105.909 153.572Z" fill="#455A64"/>
<path d="M70.4656 71.3388H80.382C80.98 71.3388 81.4688 72.3788 81.4688 73.6892C81.4688 74.9996 80.98 76.0344 80.382 76.0344L70.4656 75.3168C68.3752 72.878 70.4656 71.3388 70.4656 71.3388Z" fill="#263238"/>
<path d="M76.4664 157.919C76.4664 157.919 82.8 138.403 71.36 122.148C59.9199 105.893 44.4343 104.588 38.2879 103.766L38.1267 106.366C38.1267 106.366 54.4131 107.442 63.8667 116.766C68.9973 121.792 72.7183 128.077 74.6574 134.992C76.5966 141.908 76.686 149.211 74.9168 156.172L76.4664 157.919Z" fill="#455A64"/>
<path d="M38.4492 145.98C45.6876 140.26 51.938 126.968 52.198 126.407L52.2656 126.251L65.1096 89.8508L62.2444 88.2908L49.026 125.008C48.506 126.048 42.6352 138.263 36.3016 143.255L38.4492 145.98Z" fill="#455A64"/>
<path d="M125.508 112.72L134.868 101.02H175.402C175.593 101.02 175.777 100.944 175.913 100.809C176.048 100.673 176.124 100.489 176.124 100.298C176.123 100.106 176.046 99.9233 175.911 99.788C175.776 99.6528 175.593 99.5762 175.402 99.5748H134.176L124.468 111.712L125.508 112.72Z" fill="#455A64"/>
<path d="M165.02 100.181L157.218 144.379L158.642 144.63L166.443 100.432L165.02 100.181Z" fill="#455A64"/>
<path d="M150.145 144.82C150.145 143.55 150.522 142.308 151.228 141.252C151.934 140.195 152.937 139.372 154.111 138.886C155.285 138.4 156.576 138.274 157.822 138.522C159.068 138.77 160.212 139.382 161.11 140.281C162.008 141.179 162.619 142.324 162.866 143.57C163.114 144.816 162.986 146.108 162.499 147.281C162.012 148.455 161.188 149.457 160.131 150.162C159.074 150.867 157.832 151.243 156.562 151.242C155.719 151.242 154.884 151.076 154.105 150.753C153.326 150.43 152.619 149.957 152.023 149.361C151.427 148.764 150.954 148.056 150.632 147.277C150.31 146.498 150.144 145.663 150.145 144.82Z" fill="#263238"/>
<path d="M30.9561 144.82C30.9561 143.55 31.3328 142.308 32.0387 141.252C32.7446 140.195 33.7479 139.372 34.9217 138.886C36.0954 138.4 37.387 138.274 38.6328 138.522C39.8787 138.77 41.023 139.382 41.9209 140.281C42.8189 141.179 43.4301 142.324 43.6773 143.57C43.9245 144.816 43.7966 146.108 43.3097 147.281C42.8229 148.455 41.9989 149.457 40.9421 150.162C39.8854 150.867 38.6432 151.243 37.3729 151.242C35.6705 151.241 34.0384 150.563 32.8352 149.359C31.6319 148.155 30.9561 146.522 30.9561 144.82Z" fill="#263238"/>
<path d="M96.8816 155.225C98.1991 156.896 99.9783 158.144 101.998 158.813C103.427 159.311 104.903 159.659 106.403 159.853C108.214 160.145 110.044 160.31 111.878 160.347C113.984 160.339 116.087 160.204 118.176 159.942C122.601 159.422 127.442 158.688 132.496 157.747C137.551 156.806 142.345 155.797 146.703 154.851L152.88 153.504C154.677 153.148 156.423 152.573 158.08 151.793C158.791 151.436 159.459 151 160.072 150.493C160.612 150.039 161.09 149.514 161.492 148.933C162.145 148.007 162.566 146.937 162.719 145.813C162.815 145.099 162.758 144.372 162.552 143.681C162.407 143.208 162.277 142.979 162.298 142.974C162.333 143.026 162.363 143.082 162.386 143.14C162.469 143.309 162.54 143.482 162.599 143.66C162.828 144.355 162.902 145.092 162.818 145.818C162.681 146.971 162.266 148.072 161.606 149.027C161.205 149.627 160.724 150.169 160.176 150.639C159.556 151.16 158.879 151.61 158.158 151.98C156.491 152.776 154.733 153.365 152.922 153.733L146.76 155.059C142.408 156.01 137.613 157.04 132.554 157.971C127.494 158.902 122.632 159.64 118.202 160.16C116.104 160.416 113.992 160.545 111.878 160.545C110.036 160.501 108.2 160.327 106.382 160.025C104.874 159.83 103.389 159.481 101.952 158.985C100.864 158.6 99.8398 158.053 98.9148 157.362C98.3402 156.925 97.8168 156.425 97.3548 155.87C97.2092 155.678 97.0948 155.532 97.0064 155.423C96.9575 155.362 96.9156 155.296 96.8816 155.225Z" fill="#263238"/>
<path d="M131.602 89.9132C131.212 91.0988 129.522 96.096 126.984 96.278C124.447 96.46 107.089 93.7612 104.484 93.0956C102.825 92.6744 101.884 89.9132 105.815 89.9132C111.483 89.9132 132.465 87.2612 131.602 89.9132Z" fill="#FF8634"/>
<path d="M67.1583 61.1416C67.1583 61.1416 61.7139 62.2856 61.0743 62.7016C60.4347 63.1176 60.1487 64.5788 60.5543 65.4004C60.9599 66.222 61.9739 66.3832 62.5459 66.508C63.1179 66.6328 68.4843 63.8196 68.4843 63.8196C68.4843 63.8196 69.1967 61.36 67.1583 61.1416Z" fill="#263238"/>
<path d="M74.48 78.3744C73.5544 78.2652 71.0272 78.1612 70.2628 77.6308C69.9496 77.3868 69.691 77.0797 69.5038 76.7295C69.3166 76.3793 69.2049 75.9937 69.176 75.5976C69.1169 74.9125 69.1572 74.2224 69.2956 73.5488C70.0132 73.632 70.4812 73.6996 70.4812 73.6996V71.3492C68.2235 71.1515 65.9529 71.1515 63.6952 71.3492C62.866 70.6698 62.0954 69.9219 61.3916 69.1132C60.8716 68.5516 60.3256 67.8288 60.5804 67.1164C60.7426 66.7914 60.9629 66.4988 61.2304 66.2532C61.3645 66.1321 61.4694 65.9821 61.5369 65.8146C61.6045 65.647 61.633 65.4662 61.6204 65.286C61.5528 64.9376 60.9652 64.5164 60.7052 64.766C60.1771 65.224 59.7104 65.7483 59.3168 66.326C58.9232 66.8964 58.7701 67.5988 58.8904 68.2812C59.1362 69.0094 59.5855 69.6518 60.1852 70.1324L61.8076 71.6924C60.7676 71.9836 59.9408 72.4308 59.6808 73.0964C58.672 75.6964 61.5112 80.0696 64.5324 81.6088L62.5824 88.5456L64.9692 89.6584L67.4704 81.3384C67.5005 81.246 67.4935 81.1454 67.4508 81.0581C67.4081 80.9707 67.3331 80.9034 67.2416 80.8704L65.3176 80.158C65.3176 80.158 60.726 76.1176 61.3032 74.2612C61.5944 73.3408 63.846 73.19 66.0456 73.268C65.8534 73.9766 65.7555 74.7074 65.7544 75.4416C65.8633 76.5776 66.4029 77.6289 67.2624 78.3796C67.7848 78.8359 68.398 79.1762 69.0616 79.378C70.9783 79.8737 72.966 80.0355 74.9376 79.8564C75.1194 79.841 75.2888 79.7579 75.4122 79.6236C75.5357 79.4892 75.6042 79.3134 75.6042 79.131C75.6042 78.9486 75.5357 78.7728 75.4122 78.6384C75.2888 78.5041 75.1194 78.421 74.9376 78.4056L74.48 78.3744Z" fill="#E0E0E0"/>
<path d="M74.48 78.3744C74.48 78.3744 74.5788 78.3744 74.766 78.3744C74.9095 78.3658 75.0529 78.3942 75.1822 78.4571C75.3115 78.5199 75.4225 78.615 75.5044 78.7332C75.5602 78.825 75.5967 78.9272 75.6119 79.0336C75.6271 79.1399 75.6206 79.2482 75.5928 79.352C75.5611 79.4775 75.496 79.5921 75.4045 79.6837C75.3129 79.7752 75.1983 79.8403 75.0728 79.872C74.4566 79.9618 73.8339 80.0001 73.2112 79.9864C72.4313 79.9823 71.6527 79.9215 70.8816 79.8044C70.4604 79.742 70.0184 79.664 69.566 79.5652C69.0838 79.49 68.6179 79.3335 68.188 79.1024C67.7316 78.8521 67.3102 78.5426 66.9348 78.182C66.5498 77.7761 66.2384 77.3062 66.0144 76.7936C65.7578 76.2558 65.6398 75.6623 65.6712 75.0672C65.7084 74.4528 65.8041 73.8434 65.9572 73.2472L66.0508 73.3668C65.1139 73.3244 64.1752 73.3539 63.2428 73.4552C62.7633 73.5007 62.2952 73.6291 61.8596 73.8348C61.7567 73.8808 61.6644 73.9474 61.5883 74.0306C61.5123 74.1138 61.4542 74.2118 61.4176 74.3184C61.358 74.5504 61.358 74.7936 61.4176 75.0256C61.7757 76.0142 62.3332 76.9187 63.0556 77.6828C63.782 78.5292 64.5637 79.3266 65.3956 80.0696H65.354L66.602 80.5272L67.2312 80.7612C67.3018 80.7807 67.3674 80.8148 67.4239 80.8614C67.4803 80.908 67.5263 80.966 67.5588 81.0316C67.5882 81.0979 67.6034 81.1697 67.6034 81.2422C67.6034 81.3147 67.5882 81.3865 67.5588 81.4528C67.2988 82.3299 67.0319 83.2208 66.758 84.1256C66.238 85.9404 65.6556 87.8124 65.0784 89.726L65.0368 89.8716L64.8964 89.8092L62.52 88.686L62.416 88.6392L62.4472 88.53L64.392 81.6036L64.4596 81.7648C62.4737 80.644 60.895 78.9215 59.9512 76.8456C59.4507 75.8478 59.257 74.7241 59.3948 73.6164C59.4503 73.3385 59.5467 73.0704 59.6808 72.8208C59.8377 72.5845 60.0412 72.3828 60.2788 72.228C60.7361 71.9407 61.2365 71.7283 61.7608 71.5988L61.7036 71.8172L59.9824 70.1324C59.345 69.6178 58.8998 68.9033 58.7188 68.1044C58.6687 67.298 58.9377 66.5043 59.4676 65.8944C59.7054 65.5955 59.9644 65.3139 60.2424 65.052C60.388 64.922 60.492 64.8076 60.674 64.662C60.7788 64.6142 60.8951 64.5971 61.0092 64.6127C61.1234 64.6284 61.2307 64.6761 61.3188 64.7504C61.4967 64.8663 61.6332 65.0356 61.7088 65.234C61.7613 65.439 61.741 65.6558 61.6516 65.8476C61.4786 66.1744 61.2518 66.4697 60.9808 66.7212C60.864 66.8339 60.7722 66.97 60.7113 67.1205C60.6504 67.2709 60.6217 67.4325 60.6272 67.5948C60.6673 67.9208 60.7949 68.2298 60.9964 68.4892C61.4106 69.014 61.8532 69.5157 62.3224 69.992C62.7696 70.4583 63.2473 70.8943 63.7524 71.2972H63.6744C65.9368 71.0888 68.2136 71.0888 70.476 71.2972H70.5592V71.3752C70.5592 72.2332 70.5592 72.9976 70.5592 73.7256V73.8192H70.4656L69.2852 73.6632L69.3684 73.6008C69.2405 74.2371 69.195 74.8873 69.2332 75.5352C69.2717 76.1045 69.464 76.6527 69.7896 77.1212C69.9318 77.3231 70.1077 77.499 70.3096 77.6412C70.5095 77.7613 70.7271 77.8491 70.9544 77.9012C71.3563 78.0065 71.7645 78.0864 72.1764 78.1404C72.9148 78.2444 73.4868 78.2912 73.8716 78.3328L74.3136 78.3848C74.3631 78.3865 74.4122 78.3952 74.4592 78.4108C74.4592 78.4108 73.6532 78.3848 72.166 78.2184C71.7493 78.1719 71.3359 78.0989 70.9284 78C70.6894 77.946 70.4598 77.8566 70.2472 77.7348C70.0244 77.5878 69.8291 77.4031 69.67 77.1888C69.3301 76.7014 69.1255 76.1326 69.0772 75.5404C69.0334 74.881 69.0736 74.2188 69.1968 73.5696V73.4968H69.2696L70.4604 73.6424L70.3668 73.7256C70.3668 72.9976 70.3668 72.2332 70.3668 71.3752L70.4448 71.4636C68.195 71.2713 65.9324 71.2835 63.6848 71.5H63.6432H63.6068C63.0936 71.0934 62.6089 70.652 62.156 70.1792C61.6715 69.6993 61.2165 69.1905 60.7936 68.6556C60.5714 68.3612 60.4314 68.0131 60.388 67.6468C60.3783 67.4546 60.4095 67.2626 60.4794 67.0833C60.5493 66.9041 60.6564 66.7417 60.7936 66.6068C61.0455 66.3699 61.2579 66.0943 61.4228 65.7904C61.489 65.651 61.5055 65.4932 61.4696 65.3432C61.4108 65.1969 61.307 65.0731 61.1732 64.9896C61.0484 64.896 60.8716 64.844 60.7884 64.9064C60.7052 64.9688 60.5284 65.1456 60.4036 65.2652C60.1352 65.5195 59.885 65.7923 59.6548 66.0816C59.1663 66.6402 58.9178 67.3689 58.9632 68.1096C59.1342 68.8516 59.5523 69.5135 60.1488 69.9868L61.8752 71.6664L62.0416 71.8276L61.818 71.89C61.333 71.9991 60.8681 72.1833 60.44 72.436C60.2337 72.5729 60.0569 72.7497 59.92 72.956C59.8069 73.1778 59.7247 73.4139 59.6756 73.658C59.5442 74.7112 59.725 75.7798 60.1956 76.7312C61.1179 78.7485 62.6539 80.4229 64.5844 81.5152L64.6832 81.5672L64.652 81.6712C63.9812 84.0424 63.326 86.3772 62.702 88.5976L62.6292 88.4364L65.0108 89.5544L64.8288 89.6376L66.5188 84.0424C66.7944 83.1376 67.0388 82.2432 67.3248 81.3748C67.3431 81.3378 67.3529 81.2971 67.3534 81.2557C67.3538 81.2144 67.345 81.1735 67.3275 81.1361C67.31 81.0986 67.2844 81.0656 67.2524 81.0394C67.2204 81.0132 67.183 80.9945 67.1428 80.9848L66.5084 80.7508L65.2656 80.288C64.4267 79.5363 63.6381 78.7303 62.9048 77.8752C62.1632 77.0794 61.5933 76.1395 61.2304 75.114C61.1601 74.8464 61.1601 74.5652 61.2304 74.2976C61.275 74.1636 61.3464 74.0401 61.4403 73.9346C61.5341 73.8291 61.6485 73.7439 61.7764 73.684C62.2379 73.4656 62.7343 73.33 63.2428 73.2836C64.1857 73.1833 65.135 73.1572 66.082 73.2056H66.16V73.32C65.8688 74.516 65.6764 75.738 66.1912 76.7468C66.405 77.2399 66.7003 77.6935 67.0648 78.0884C67.4171 78.4365 67.812 78.7388 68.24 78.988C68.6563 79.211 69.1058 79.3655 69.5712 79.4456C70.0236 79.5444 70.4552 79.6276 70.8764 79.6952C71.6407 79.8135 72.412 79.8812 73.1852 79.898C73.8 79.9159 74.4153 79.8881 75.026 79.8148C75.1412 79.7873 75.2468 79.7294 75.3319 79.647C75.417 79.5647 75.4784 79.461 75.5096 79.3468C75.5631 79.1547 75.5388 78.9492 75.442 78.7748C75.365 78.662 75.2608 78.5704 75.139 78.5086C75.0172 78.4468 74.8817 78.4167 74.7452 78.4212L74.48 78.3744Z" fill="#263238"/>
<path d="M127.296 160.831C127.296 160.831 126.288 174.06 126.308 174.699L123.708 176.909L117.162 175.448L116.964 160.831H127.296Z" fill="#FFBE9D"/>
<path d="M117.063 174.647V175.23C117.063 175.23 107.183 179.062 107.042 180.95L126.594 181.085L126.371 174.58C124.915 175.259 123.33 175.617 121.724 175.628C120.118 175.64 118.528 175.305 117.063 174.647Z" fill="#455A64"/>
<g opacity="0.6">
<path opacity="0.6" d="M126.584 181.064L126.532 179.504L107.812 179.951C107.812 179.951 106.938 180.32 107.032 180.934L126.584 181.064Z" fill="white"/>
</g>
<path d="M116.985 175.282C116.985 175.38 117.463 175.427 117.931 175.734C118.399 176.041 118.644 176.446 118.732 176.41C118.82 176.374 118.685 175.822 118.113 175.458C117.541 175.094 116.964 175.193 116.985 175.282Z" fill="#263238"/>
<path d="M114.926 176.119C114.926 176.207 115.316 176.374 115.638 176.779C115.96 177.185 116.049 177.616 116.158 177.611C116.267 177.606 116.314 177.065 115.908 176.571C115.503 176.077 114.931 176.025 114.926 176.119Z" fill="#263238"/>
<path d="M113.745 178.563C113.834 178.563 113.969 178.105 113.745 177.585C113.522 177.065 113.054 176.847 113.017 176.925C112.981 177.003 113.251 177.289 113.438 177.72C113.626 178.152 113.652 178.552 113.745 178.563Z" fill="#263238"/>
<path d="M110.974 88.1348L113.111 95.3836L114.255 106.501L115.409 138.086L116.486 139.235L116.772 173.035H126.818C126.818 173.035 130.739 145.699 130.338 138.84C130.105 134.22 130.113 129.591 130.364 124.972L135.445 102.534C135.445 102.534 137.982 92.3624 138.045 86.9024C138.103 84.0884 137.967 81.2738 137.639 78.4784C137.639 78.4784 120.656 82.2172 116.756 81.12C114.272 80.4097 111.872 79.4297 109.601 78.1976C109.601 78.1976 108.072 77.0328 107.495 78.7592C107.276 79.3936 107.744 80.7144 107.744 80.7144L110.974 88.1348Z" fill="#263238"/>
<path d="M122.32 133.64C122.077 134 121.793 134.33 121.472 134.623C120.734 135.365 119.941 136.052 119.101 136.677C118.259 137.3 117.371 137.858 116.444 138.346C116.07 138.564 115.672 138.738 115.258 138.866C115.607 138.61 115.976 138.382 116.361 138.185C117.256 137.657 118.124 137.084 118.961 136.469C119.794 135.851 120.594 135.19 121.358 134.488C121.655 134.18 121.977 133.896 122.32 133.64Z" fill="#455A64"/>
<path d="M61.7244 62.582C61.7244 62.582 63.7108 58.422 64.2828 58.0996C64.8548 57.7772 67.5588 57.3612 67.5588 57.3612C67.5588 57.3612 71.8176 59.1084 72.556 58.9732C73.2944 58.838 77.0592 58.9732 77.0592 58.9732L77.8756 63.83H74.0692C74.0692 63.83 72.4728 64.766 71.3288 64.8336C70.3158 64.9734 69.3249 65.2425 68.3804 65.6344C68.3804 65.6344 65.6192 68.4372 65.2916 68.5152C64.964 68.5932 64.3088 68.5152 64.2256 67.5324C64.1424 66.5496 66.1704 64.8336 66.1704 64.8336C66.1704 64.8336 67.148 64.428 66.576 63.31C66.004 62.192 65.9416 61.6668 65.2032 61.75C64.4648 61.8332 61.7244 62.582 61.7244 62.582Z" fill="#FFBE9D"/>
<path d="M143.333 40.1908C142.813 37.5908 139.75 33.1604 138.653 32.3544C137.556 31.5484 129.413 29.5568 129.413 29.5568L128.56 27.872L128.18 29.0368C128.134 29.2448 125.84 33.9872 119.283 33.5348C117.349 33.4048 117.052 32.1984 117.052 32.1984L116.772 33.9404C116.772 33.9404 109.46 37.0604 108.28 37.6532C106.72 38.4488 94.76 56.2276 94.76 56.2276L75.8112 58.7028L75.338 66.5028L95.4152 67.2776C96.744 67.3692 98.0776 67.1911 99.3358 66.7541C100.594 66.3171 101.751 65.6303 102.737 64.7348L109.497 57.5796V58.1516C109.497 61.2716 108.457 76.0604 108.457 76.0604C106.824 81.432 112.996 82.3316 117.692 84.5208C120.312 85.61 123.033 86.4407 125.814 87.0012C133.994 88.6704 138.69 83.8812 138.69 83.8812L139.142 81.2136C139.142 81.2136 143.869 42.7908 143.333 40.1908Z" fill="#FF8634"/>
<g opacity="0.3">
<path opacity="0.3" d="M111.447 66.4924L113.579 69.1704C113.579 69.1704 133.682 77.4904 139.787 76.0344V73.1016L114.608 65.1768L111.447 65.52V66.4924Z" fill="black"/>
</g>
<path d="M133.807 35.724C133.807 35.724 131.8 42.0056 131.8 45.0216C131.8 48.0376 132.538 56.706 133.261 58.2868C133.657 59.1816 134.147 60.0322 134.722 60.8244L133.609 61.906L115.175 59.6596L114.608 67.7456C114.608 67.7456 135.117 73.84 137.078 73.84C139.038 73.84 143.11 73.6112 144.612 72.6336C146.115 71.656 147.176 67.5792 147.176 64.038C147.176 60.4968 145.803 36.3688 138.82 32.318C135.398 30.3004 133.807 35.724 133.807 35.724Z" fill="#FF8634"/>
<path d="M141.851 63.2996C141.815 63.3256 141.544 62.9044 140.962 62.374C140.205 61.6845 139.291 61.1901 138.3 60.9336C137.306 60.6835 136.267 60.6835 135.273 60.9336C134.509 61.1208 134.072 61.36 134.051 61.3236C134.03 61.2872 134.145 61.2352 134.342 61.126C134.624 60.9748 134.92 60.8528 135.226 60.762C136.244 60.4471 137.328 60.4184 138.361 60.6788C139.394 60.9393 140.335 61.479 141.082 62.2388C141.31 62.4617 141.512 62.7094 141.685 62.9772C141.761 63.0725 141.818 63.1821 141.851 63.2996Z" fill="#263238"/>
<path d="M139.168 58.1412C137.364 58.5677 135.767 59.6128 134.654 61.0948C134.737 60.8293 134.875 60.5846 135.06 60.3772C135.464 59.8429 135.956 59.382 136.516 59.0148C137.077 58.65 137.696 58.3827 138.346 58.2244C138.611 58.1372 138.891 58.1088 139.168 58.1412Z" fill="#263238"/>
<path d="M104.12 58.3024L106.366 56.9244H110.36L113.927 60.1744L114.993 60.6944L114.598 66.3052L112.274 66.0192C112.274 66.0192 107.323 66.2324 106.845 65.9152C106.394 65.527 105.999 65.0791 105.67 64.584C105.67 64.584 102.846 63.7832 102.69 63.466C102.644 63.3657 102.62 63.2566 102.62 63.1462C102.62 63.0358 102.644 62.9267 102.69 62.8264L101.624 62.1348C101.354 61.6566 101.123 61.1576 100.932 60.6424L100.875 60.32C100.649 60.2368 100.451 60.0936 100.3 59.9057C100.15 59.7179 100.054 59.4925 100.022 59.254C99.9756 58.9264 101.317 58.9992 101.317 58.9992L104.671 59.046L104.12 58.3024Z" fill="#FFBE9D"/>
<path d="M104.723 59.1448L102.404 55.9884H97.5887V56.3992L100.017 59.2124L104.723 59.1448Z" fill="#455A64"/>
<path d="M110.173 86.0704C109.601 85.2741 109.149 84.398 108.831 83.4704C108.238 81.9676 107.687 80.7872 107.744 80.7508C108.313 81.5481 108.764 82.424 109.081 83.3508C109.679 84.8588 110.23 86.0392 110.173 86.0704Z" fill="#455A64"/>
<path d="M113.147 95.8048C113.065 95.6303 113.002 95.4472 112.96 95.2588C112.856 94.9 112.716 94.3852 112.56 93.7404C112.242 92.4508 111.852 90.662 111.52 88.6652C111.187 86.6684 110.963 84.8484 110.838 83.5276C110.776 82.8672 110.734 82.3316 110.719 81.9676C110.692 81.7761 110.692 81.5818 110.719 81.3904C110.774 81.575 110.809 81.765 110.823 81.9572C110.88 82.3836 110.948 82.8984 111.031 83.5172C111.202 84.8276 111.452 86.6372 111.785 88.6288C112.118 90.6204 112.482 92.4144 112.752 93.7092C112.877 94.3124 112.981 94.822 113.069 95.2432C113.117 95.4267 113.143 95.6152 113.147 95.8048Z" fill="#455A64"/>
<path d="M134.056 89.5856C133.913 89.6853 133.758 89.7657 133.593 89.8248C133.408 89.9167 133.215 89.9932 133.016 90.0536C132.762 90.1518 132.501 90.2334 132.236 90.298C131.547 90.4768 130.841 90.5865 130.13 90.6256C129.261 90.6656 128.389 90.6133 127.53 90.4696C126.672 90.3112 125.833 90.0602 125.029 89.7208C124.373 89.4392 123.747 89.0906 123.162 88.6808C122.936 88.5293 122.719 88.3643 122.512 88.1868C122.349 88.0624 122.196 87.925 122.055 87.776C121.81 87.5368 121.686 87.4016 121.701 87.386C121.717 87.3704 122.268 87.8748 123.261 88.5248C123.849 88.899 124.468 89.2209 125.112 89.4868C125.906 89.8029 126.728 90.0415 127.567 90.1992C128.41 90.3407 129.265 90.3982 130.12 90.3708C130.82 90.3452 131.516 90.2565 132.2 90.1056C133.354 89.8508 134.036 89.5336 134.056 89.5856Z" fill="#455A64"/>
<path d="M137.613 32.3804C137.613 32.4272 137.093 32.4844 136.277 32.7912C135.228 33.1775 134.292 33.8176 133.552 34.6542C132.811 35.4909 132.289 36.498 132.033 37.5856C131.831 38.4228 131.831 38.9636 131.784 38.9636C131.747 38.8407 131.735 38.7117 131.748 38.584C131.744 38.2349 131.777 37.8863 131.846 37.544C132.06 36.4028 132.579 35.3409 133.348 34.4711C134.118 33.6013 135.108 32.9561 136.214 32.604C136.545 32.498 136.884 32.4231 137.228 32.3804C137.473 32.3596 137.608 32.3596 137.613 32.3804Z" fill="#263238"/>
<path d="M108.483 40.664C108.483 40.69 108.483 40.7316 108.509 40.7888C108.535 40.846 108.545 41.054 108.566 41.262C108.608 41.6728 108.665 42.2656 108.722 43.004C108.842 44.4808 108.977 46.514 109.112 48.7656C109.247 51.0172 109.356 53.0556 109.419 54.5324C109.419 55.2292 109.466 55.8168 109.481 56.2848C109.508 56.4989 109.508 56.7155 109.481 56.9296C109.432 56.7195 109.403 56.5055 109.393 56.29C109.351 55.822 109.304 55.25 109.247 54.548C109.133 53.0712 108.998 51.0328 108.862 48.7812C108.727 46.5296 108.613 44.4912 108.545 43.0144C108.545 42.3228 108.493 41.7352 108.478 41.2672C108.478 41.0904 108.478 40.9344 108.478 40.794V40.6536C108.514 40.6536 108.478 40.6536 108.478 40.6536L108.483 40.664Z" fill="#263238"/>
<path d="M129.434 29.5568C129.426 29.7735 129.391 29.9885 129.33 30.1964C129.189 30.7717 128.981 31.3285 128.711 31.8552C128.31 32.6415 127.783 33.3565 127.151 33.9716C126.372 34.7234 125.465 35.3293 124.473 35.7604C123.571 36.1538 122.597 36.3568 121.613 36.3568C120.629 36.3568 119.655 36.1538 118.753 35.7604C118.211 35.5174 117.711 35.1911 117.271 34.7932C117.103 34.6535 116.956 34.4906 116.834 34.3096C117.434 34.8287 118.107 35.2579 118.831 35.5836C119.713 35.9428 120.658 36.1232 121.61 36.1142C122.563 36.1053 123.504 35.9073 124.379 35.5316C125.337 35.1091 126.216 34.5271 126.979 33.8104C127.599 33.2178 128.125 32.5339 128.539 31.7824C128.9 31.0671 129.199 30.3226 129.434 29.5568Z" fill="#263238"/>
<path d="M131.68 43.0092C131.702 43.0962 131.716 43.185 131.722 43.2744L131.81 44.0492C131.883 44.746 131.982 45.7392 132.112 47.0028C132.361 49.6028 132.715 53.2428 133.152 57.6992V57.6472C133.588 58.344 134.056 59.098 134.545 59.8728L134.587 59.9404L134.54 60.008L133.5 61.3964L133.458 61.4536H133.391L118.087 59.6024L114.967 59.2176L115.118 59.0928C114.92 61.9164 114.728 64.636 114.546 67.1788L114.452 67.0488L130.572 71.4584L135.216 72.7532L136.448 73.1068L136.766 73.2004L136.87 73.242C136.87 73.242 136.833 73.242 136.76 73.242L136.438 73.1692L135.19 72.852L130.51 71.63L114.348 67.314L114.25 67.288V67.184C114.426 64.636 114.614 61.9216 114.811 59.0928V58.9524H114.952L118.072 59.332L133.37 61.2092L133.261 61.256L134.301 59.8676V60.0028L132.918 57.772V57.746C132.528 53.2896 132.205 49.6184 131.982 47.0444L131.737 44.0856C131.737 43.758 131.696 43.498 131.685 43.3108C131.672 43.2108 131.67 43.1096 131.68 43.0092Z" fill="#263238"/>
</svg>
