<svg width="390" height="676" viewBox="0 0 390 676" fill="none" xmlns="http://www.w3.org/2000/svg">
<path d="M488.539 224.757C487.991 229.263 486.997 233.996 485.563 238.92C467.835 299.345 406.912 375.989 334.583 435.078C258.67 497.083 158.61 563.29 86.0205 582.174C34.2326 595.663 -6.57052 594.85 -32.5766 575.411C-58.5827 555.972 -78.0054 525.366 -35.0302 456.653C-23.0518 437.487 8.61502 401.647 29.8585 386.363C63.7672 361.982 95.8701 358.718 122.956 357.504C150.043 356.29 182.081 353.111 216.014 328.813C242.102 310.136 261.325 284.499 283.724 261.778C321.841 223.129 372.396 191.382 413.392 180.356C427.146 176.676 439.703 175.25 450.521 176.14C478.366 178.351 491.939 196.588 488.459 224.824L488.539 224.757Z" fill="url(#paint0_linear_115_714)"/>
<path d="M478.691 20.164C480.787 25.5584 482.473 31.333 483.737 37.4427C499.082 112.452 471.31 217.477 418.734 304.969C363.544 396.782 281.263 499.704 203.661 540.387C148.306 569.43 97.663 578.975 53.7581 562.998C9.85322 547.021 -32.8228 516.332 -22.2344 425.167C-19.2908 399.743 -2.39894 349.813 14.3159 326.531C41.0047 289.385 78.4509 277.324 110.992 268.943C143.533 260.563 180.952 248.618 207.721 211.563C228.305 183.079 236.175 148.245 249.738 115.995C272.832 61.1315 315.451 11.1185 359.057 -12.2788C373.697 -20.1064 388.254 -24.9982 402.095 -26.7424C437.672 -31.3246 465.559 -13.5525 478.634 20.263L478.691 20.164Z" fill="url(#paint1_linear_115_714)" fill-opacity="0.09"/>
<defs>
<linearGradient id="paint0_linear_115_714" x1="167.07" y1="283.416" x2="299.5" y2="539" gradientUnits="userSpaceOnUse">
<stop stop-color="#3A3535" stop-opacity="0.26"/>
<stop offset="1" stop-color="white" stop-opacity="0"/>
</linearGradient>
<linearGradient id="paint1_linear_115_714" x1="95.7857" y1="184.47" x2="243" y2="513.5" gradientUnits="userSpaceOnUse">
<stop stop-color="#3A3535"/>
<stop offset="1" stop-color="#FF7315" stop-opacity="0"/>
</linearGradient>
</defs>
</svg>
