<svg width="306" height="306" viewBox="0 0 306 306" fill="none" xmlns="http://www.w3.org/2000/svg">
<path d="M231.116 44.419L215.969 24.9941L212.26 49.419L192.278 48.7458L204.781 65.1658L192.199 81.6775L213.037 77.571L216.048 98.5381L232.903 82.1365L254.139 96.898L249.488 75.4351L273.588 71.6407L254.843 60.5819L265.773 41.7323L247.04 49.0579L244.763 25.808L231.116 44.419Z" fill="#FAFAFA"/>
<path d="M231.116 44.419L244.696 25.7652L244.818 25.6V25.8019C245.43 32.2157 246.238 40.0738 247.126 49.0579L246.979 48.9722L265.706 41.6282L266.036 41.4997L265.859 41.8057C262.468 47.6626 258.803 54.0029 254.941 60.6614L254.892 60.4717L273.644 71.5305L273.999 71.7386L273.595 71.7998L249.494 75.6003L249.616 75.4167C251.104 82.2467 252.676 89.4927 254.274 96.8735L254.359 97.2713L254.029 97.0387L235.118 83.8991L232.793 82.2834H232.995L216.158 98.6483L215.938 98.8625L215.895 98.5565C214.867 91.4083 213.863 84.4213 212.884 77.5955L213.068 77.724L192.26 81.8244L191.88 81.8978L192.113 81.5918L204.702 65.0678V65.2331L192.168 48.8192L192.009 48.6112H192.272L212.254 49.3088L212.144 49.4006C213.592 39.8983 214.836 31.7567 215.877 24.9757L215.907 24.7921L216.018 24.939L231.103 44.4128C230.744 43.96 225.675 37.5013 215.895 25.0369L216.036 25.0002C215.016 31.7689 213.792 39.9126 212.364 49.4312V49.5292H212.266L192.278 48.8682L192.382 48.6724L204.898 65.0801L204.965 65.1657L204.898 65.2514L192.321 81.7754L192.18 81.5429L212.988 77.4241H213.147V77.5832C214.127 84.4091 215.132 91.3981 216.165 98.5503L215.895 98.4585L232.786 82.008L232.884 81.9162L232.988 81.9957L235.32 83.6114L254.225 96.7572L253.98 96.9163C252.383 89.5295 250.816 82.2895 249.335 75.4596L249.304 75.3005H249.463L273.564 71.5L273.515 71.7692L254.776 60.6982L254.653 60.6308L254.727 60.5145L265.663 41.6711L265.816 41.8486L247.077 49.1558L246.948 49.2109V49.0702C246.085 40.0921 245.32 32.234 244.702 25.8142L244.843 25.8509L231.116 44.419Z" fill="#263238"/>
<path d="M242.511 59.9148C242.31 58.3948 241.645 56.9738 240.608 55.845C239.639 54.6967 238.332 53.883 236.875 53.5194C235.632 53.2401 234.331 53.3776 233.174 53.9108C232.018 54.4439 231.068 55.343 230.473 56.4692C229.864 55.4009 228.931 54.5544 227.808 54.0525C226.686 53.5507 225.433 53.4197 224.231 53.6785C222.769 54.0294 221.455 54.8299 220.473 55.9674C219.423 57.0849 218.745 58.5003 218.533 60.0188C218.289 61.9573 218.675 63.9227 219.635 65.6248C220.753 67.3484 222.265 68.7812 224.047 69.8047C226.936 71.5612 230.742 73.7705 230.742 73.7705C230.742 73.7705 233.98 71.3714 236.893 69.6456C238.685 68.6395 240.212 67.2214 241.348 65.5085C242.325 63.8165 242.732 61.8558 242.511 59.9148Z" fill="#FF8634"/>
<path d="M186.427 70.6738C188.888 70.6738 190.883 68.679 190.883 66.2184C190.883 63.7578 188.888 61.763 186.427 61.763C183.967 61.763 181.972 63.7578 181.972 66.2184C181.972 68.679 183.967 70.6738 186.427 70.6738Z" fill="#FAFAFA"/>
<path d="M190.883 66.2184C190.846 66.2184 190.883 65.8206 190.681 65.1474C190.419 64.1943 189.846 63.3562 189.053 62.7667C188.476 62.3302 187.799 62.0454 187.084 61.9385C186.368 61.8315 185.638 61.9059 184.959 62.1547C184.16 62.4462 183.467 62.9706 182.97 63.6602C182.571 64.197 182.304 64.8195 182.189 65.4781C182.074 66.1367 182.115 66.813 182.308 67.453C182.501 68.093 182.842 68.6789 183.302 69.1637C183.762 69.6486 184.33 70.019 184.959 70.2453C185.638 70.4903 186.368 70.5626 187.083 70.4558C187.798 70.349 188.474 70.0664 189.053 69.6333C189.845 69.0426 190.418 68.205 190.681 67.2527C190.864 66.5795 190.846 66.1756 190.883 66.1817C190.895 66.2751 190.895 66.3697 190.883 66.4632C190.881 66.7393 190.848 67.0144 190.785 67.2833C190.558 68.287 189.989 69.1805 189.175 69.8108C188.612 70.2489 187.954 70.5487 187.254 70.686C186.448 70.8396 185.616 70.7763 184.842 70.5024C183.983 70.1989 183.236 69.6419 182.7 68.9051C182.112 68.1189 181.795 67.1635 181.795 66.1817C181.795 65.1999 182.112 64.2445 182.7 63.4583C183.235 62.7198 183.982 62.1624 184.842 61.861C185.615 61.5841 186.448 61.5207 187.254 61.6774C188.107 61.8442 188.895 62.2541 189.521 62.8577C190.148 63.4614 190.586 64.2331 190.785 65.0801C190.848 65.3469 190.881 65.6199 190.883 65.894C190.898 66.0016 190.898 66.1108 190.883 66.2184Z" fill="#263238"/>
<path d="M154.224 66.8549C156.195 62.0262 153.881 56.151 149.695 53.0298C145.509 49.9086 139.903 49.2048 134.744 49.9698C129.585 50.7348 124.707 52.8952 119.952 54.9943C117.791 52.7945 115.062 51.2375 112.069 50.4968C109.076 49.7561 105.936 49.8607 102.998 50.799C100.061 51.7373 97.4418 53.4724 95.4322 55.8112C93.4227 58.15 92.1017 61.0007 91.6164 64.0458C89.7498 63.5503 87.7832 63.575 85.9297 64.1173C84.0762 64.6597 82.4064 65.6989 81.1014 67.1225C79.7963 68.5461 78.9057 70.2997 78.5262 72.1933C78.1466 74.0868 78.2925 76.0482 78.948 77.8648L102.247 86.2247L127.461 131.256C134.879 137.663 147.076 137.571 154.389 131.048C161.703 124.524 163.19 112.418 157.663 104.322C159.1 103.058 160.319 101.567 161.274 99.909C165.338 97.461 168.52 93.5626 169.604 88.893C171.892 79.0643 164.23 68.0972 154.224 66.8549Z" fill="#263238"/>
<path d="M138.128 160.301C136.727 152.957 135.748 147.982 135.76 148.031C135.772 148.08 149.567 142.761 148.74 123.551C148.33 113.979 144.781 98.8747 141.476 86.6102C138.502 75.5942 128.306 63.3542 117.406 66.7998L84.4009 82.62C81.09 83.6604 80.4902 86.7632 81.2491 90.1537L81.2858 91.8L93.7461 144.854L99.0032 168.563C100.129 173.427 103.034 177.693 107.146 180.524C111.258 183.355 116.28 184.546 121.225 183.863C123.911 183.49 126.494 182.575 128.816 181.174C131.138 179.772 133.151 177.912 134.732 175.709C136.313 173.505 137.429 171.003 138.013 168.354C138.597 165.705 138.636 162.965 138.128 160.301Z" fill="#B5836D"/>
<path d="M138.496 105.264C138.626 105.889 138.507 106.54 138.164 107.079C137.821 107.617 137.281 108 136.66 108.147C136.361 108.233 136.047 108.258 135.739 108.221C135.43 108.184 135.131 108.086 134.861 107.932C134.591 107.778 134.354 107.571 134.164 107.324C133.975 107.077 133.837 106.795 133.759 106.494C133.628 105.869 133.747 105.218 134.09 104.679C134.433 104.141 134.973 103.758 135.595 103.612C135.894 103.527 136.206 103.503 136.515 103.541C136.823 103.579 137.121 103.677 137.391 103.831C137.661 103.985 137.897 104.191 138.087 104.437C138.277 104.683 138.416 104.964 138.496 105.264Z" fill="#263238"/>
<path d="M139.567 97.1244C139.334 97.4916 137.247 96.5124 134.671 97.051C132.094 97.5895 130.478 99.2481 130.136 98.991C129.97 98.8809 130.136 98.2566 130.858 97.4916C131.813 96.4911 133.055 95.8129 134.414 95.5516C135.749 95.2745 137.139 95.4311 138.379 95.9983C139.303 96.4451 139.683 96.9531 139.567 97.1244Z" fill="#263238"/>
<path d="M116.047 109.107C116.178 109.732 116.059 110.384 115.716 110.922C115.373 111.461 114.833 111.844 114.211 111.99C113.912 112.075 113.599 112.099 113.29 112.062C112.981 112.024 112.682 111.925 112.412 111.771C112.142 111.616 111.905 111.409 111.716 111.162C111.527 110.915 111.389 110.633 111.311 110.331C111.18 109.706 111.299 109.055 111.642 108.517C111.985 107.978 112.525 107.595 113.147 107.449C113.446 107.364 113.759 107.339 114.068 107.377C114.377 107.415 114.676 107.514 114.946 107.668C115.216 107.823 115.453 108.029 115.642 108.277C115.831 108.524 115.969 108.806 116.047 109.107Z" fill="#263238"/>
<path d="M114.903 101.592C114.67 101.965 112.584 100.98 110.007 101.519C107.43 102.057 105.815 103.722 105.472 103.459C105.307 103.348 105.472 102.724 106.194 101.959C107.148 100.961 108.389 100.283 109.744 100.019C111.082 99.7446 112.472 99.9011 113.716 100.466C114.634 100.937 115.019 101.445 114.903 101.592Z" fill="#263238"/>
<path d="M127.804 117.951C127.761 117.81 129.309 117.21 131.831 116.347C132.474 116.145 133.055 115.894 133.092 115.423C133.128 114.952 132.731 114.26 132.253 113.587L129.297 108.936C125.154 102.363 122.014 96.9041 122.278 96.7389C122.541 96.5736 126.121 101.769 130.234 108.367C131.237 109.999 132.198 111.551 133.116 113.024C133.514 113.716 134.114 114.481 133.979 115.533C133.93 115.784 133.825 116.02 133.671 116.223C133.517 116.427 133.319 116.593 133.092 116.708C132.749 116.883 132.385 117.013 132.008 117.094C129.462 117.755 127.847 118.116 127.804 117.951Z" fill="#263238"/>
<path d="M135.76 148.031C127.01 149.948 117.899 149.397 109.444 146.439C109.444 146.439 118.41 158.318 136.709 152.786L135.76 148.031Z" fill="#7F594B"/>
<path d="M113.502 94.6336C113.33 95.3741 110.686 95.3374 107.669 96.0595C104.652 96.7817 102.277 97.8955 101.794 97.2835C101.58 97.002 101.935 96.286 102.853 95.4842C104.086 94.4877 105.53 93.786 107.075 93.4328C108.621 93.0796 110.226 93.0842 111.77 93.4463C112.945 93.7951 113.575 94.2847 113.502 94.6336Z" fill="#263238"/>
<path d="M138.116 89.5968C137.7 90.2945 135.485 90.1109 132.957 90.5944C130.429 91.0779 128.379 91.9347 127.767 91.4206C127.492 91.1697 127.706 90.5148 128.526 89.7743C129.667 88.8117 131.049 88.1771 132.522 87.9383C133.975 87.6541 135.478 87.7727 136.868 88.281C137.884 88.74 138.312 89.2663 138.116 89.5968Z" fill="#263238"/>
<path d="M92.5711 70.3004C92.9395 7r.1768 93.7171 73.949 94.8483 75.4907C95.9796 77.0324 97.4367 78.3058 99.1161 79.2203C100.795 80.1348 102.656 80.6678 104.565 80.7816C106.473 80.8953 108.384 80.5869 110.16 79.8783C112.902 78.7828 115.735 76.7203 118.508 77.7424C121.421 78.8195 122.314 82.7057 125.013 84.2418C128.875 86.4328 133.581 82.7057 137.988 83.1096C141.403 83.4156 144.034 86.0901 146.696 88.2565C149.359 90.423 153.055 92.2345 156.091 90.6311C155.301 87.7792 154.506 84.8905 153.086 82.2895C151.666 79.6885 149.548 77.3629 146.794 76.2674C145.289 75.6554 143.63 75.4474 142.192 74.6946C139.083 73.0728 137.712 69.4375 135.46 66.7386C133.981 65.0226 132.114 63.6836 130.014 62.8322C127.914 61.9809 125.642 61.6416 123.385 61.8426C119.646 62.2037 116.084 64.0642 112.326 63.8806C109.554 63.7459 106.898 62.4913 104.12 62.5219C98.7033 62.577 94.6091 67.2894 91.5735 71.7754" fill="#263238"/>
<path d="M110.772 74.3702C108.324 74.1744 103.214 73.6175 101.549 71.8427C97.9445 67.9871 92.5406 65.943 87.6874 67.1915C85.1893 67.9021 82.9883 69.4019 81.4131 71.4669C79.8379 73.5319 78.9731 76.0511 78.948 78.6481C73.0178 79.8721 67.9749 84.7681 66.2552 90.9555C65.4279 94.0984 65.3778 97.3955 66.1092 100.562C66.8406 103.729 68.3316 106.67 70.4535 109.132C71.4833 110.441 72.4218 111.819 73.2626 113.257C72.0819 114.703 71.041 116.259 70.1536 117.902C66.1511 126.617 76.8489 130.032 76.8489 130.032C76.8489 135.907 82.2528 135.919 85.729 135.919C89.0705 135.919 91.0656 145.203 93.7707 144.86L91.188 116.231C91.5906 116.385 92.0179 116.464 92.4488 116.464C99.0033 116.623 97.3448 104.224 95.2701 101.004C97.1061 98.5565 99.0155 96.035 100.233 93.1342C101.451 90.2333 101.574 82.9505 100.57 79.8905C102.859 79.56 111.837 74.462 110.772 74.3702Z" fill="#263238"/>
<path d="M92.155 117.749C91.1574 113.826 86.3043 112.045 83.2688 114.689C81.598 116.158 80.5943 118.642 81.6102 122.822C84.3275 133.961 94.9518 128.942 94.8968 128.612C94.86 128.44 93.3178 122.351 92.155 117.749Z" fill="#B5836D"/>
<path d="M90.4597 125.252C90.4047 125.252 90.3006 125.436 90.0069 125.668C89.5949 125.976 89.0791 126.112 88.5687 126.048C87.2835 125.907 85.8391 124.279 85.2944 122.284C85.0328 121.335 84.9868 120.34 85.1598 119.371C85.1787 118.998 85.2884 118.636 85.4793 118.316C85.6703 117.996 85.9367 117.728 86.2553 117.535C86.4631 117.42 86.7046 117.383 86.9374 117.429C87.1702 117.474 87.3794 117.601 87.5283 117.786C87.7547 118.061 87.7425 118.3 87.8037 118.306C87.8649 118.312 87.9995 118.061 87.8037 117.62C87.6757 117.352 87.4597 117.136 87.1917 117.008C87.0112 116.934 86.8178 116.895 86.6225 116.895C86.4272 116.895 86.2338 116.934 86.0533 117.008C85.2088 117.278 84.6274 118.232 84.4438 119.23C84.2034 120.31 84.2328 121.432 84.5294 122.498C85.1414 124.726 86.8122 126.549 88.5319 126.617C88.8516 126.632 89.1707 126.575 89.4653 126.45C89.7599 126.325 90.0225 126.135 90.2333 125.895C90.5087 125.527 90.5087 125.264 90.4597 125.252Z" fill="#7F594B"/>
<path d="M72.4853 96.4818C72.2907 96.4051 72.1074 96.3022 71.9406 96.1758C71.4428 95.8365 70.9665 95.4666 70.5147 95.0681C68.8219 93.6066 67.5252 91.7416 66.7448 89.6458C66.2202 88.1783 66.0319 86.6118 66.194 85.0619C66.3606 83.2648 67.0428 81.554 68.1585 80.1353C68.779 79.3478 69.5497 78.6913 70.4259 78.2038C71.302 77.7164 72.2662 77.4077 73.2626 77.2956C74.337 77.1447 75.4318 77.2441 76.4615 77.5859C77.4912 77.9277 78.4281 78.5028 79.199 79.2662L78.7094 79.6028L78.6543 79.4866C76.7632 75.6126 76.2063 71.1878 77.516 67.5954C78.8256 64.003 81.6286 61.4754 84.4316 60.8634C85.5273 60.5877 86.6673 60.5351 87.7838 60.7085C88.9003 60.882 89.9705 61.2781 90.931 61.8732C91.4458 62.1969 91.9115 62.5926 92.3141 63.0482C92.4584 63.2051 92.5818 63.38 92.6813 63.5684C92.1195 62.9953 91.4907 62.4919 90.8086 62.069C88.9024 60.9928 86.6501 60.7071 84.5356 61.2734C81.8979 61.9528 79.199 64.364 78.0423 67.8096C76.8856 71.2552 77.3568 75.4902 79.199 79.254L79.254 79.3703L80.0435 81.0533L78.7644 79.7069C78.0557 79.0127 77.1974 78.4902 76.2554 78.1793C75.3133 77.8685 74.3125 77.7776 73.3299 77.9137C72.4072 78.0119 71.5131 78.2918 70.699 78.7371C69.885 79.1825 69.1672 79.7845 68.5869 80.5086C67.5297 81.8457 66.8701 83.4533 66.6836 85.1476C66.5122 86.6266 66.671 88.1253 67.1487 89.5356C67.8747 91.5893 69.0837 93.4385 70.6738 94.9273C71.7876 95.9677 72.522 96.439 72.4853 96.4818Z" fill="#263238"/>
<path d="M120.894 122.755C120.565 124.12 120.509 125.536 120.729 126.923C120.844 127.615 121.097 128.277 121.475 128.868C121.853 129.459 122.346 129.967 122.926 130.362C124.15 131.046 125.59 131.232 126.947 130.882H126.99C127.813 130.685 128.55 130.224 129.087 129.57C129.625 128.916 129.935 128.105 129.97 127.259L130.142 123.673C127.645 123.459 123.385 122.963 120.894 122.755Z" fill="#7F594B"/>
<path d="M129.866 129.365C129.866 129.407 129.591 129.597 129.095 129.977C128.787 130.22 128.464 130.445 128.128 130.65C127.658 130.902 127.149 131.078 126.623 131.17C125.988 131.295 125.338 131.319 124.695 131.243C123.939 131.164 123.215 130.901 122.584 130.478C121.893 129.957 121.329 129.287 120.933 128.517C120.537 127.748 120.319 126.9 120.295 126.035C120.235 124.911 120.336 123.784 120.595 122.688L120.65 122.418H120.919C123.587 122.7 125.895 122.969 127.535 123.183C128.417 123.244 129.291 123.396 130.142 123.636C129.263 123.705 128.379 123.684 127.504 123.575C125.852 123.465 123.538 123.275 120.87 123.036L121.194 122.792C120.967 123.834 120.876 124.902 120.925 125.968C120.947 126.74 121.136 127.498 121.481 128.189C121.825 128.881 122.317 129.488 122.92 129.97C123.995 130.662 125.291 130.922 126.549 130.699C127.038 130.644 127.516 130.512 127.963 130.307C128.355 130.123 128.679 129.903 128.955 129.744C129.228 129.554 129.539 129.424 129.866 129.365Z" fill="#263238"/>
<path d="M120.564 118.116C119.915 117.352 119.187 116.658 118.391 116.047C117.512 115.412 116.537 114.921 115.503 114.591C114.245 114.175 112.912 114.031 111.595 114.169C110.277 114.307 109.003 114.724 107.859 115.393C106.917 115.928 106.067 116.612 105.344 117.418C104.694 118.174 104.124 118.994 103.642 119.866C103.712 119.603 103.813 119.348 103.942 119.107C104.271 118.446 104.682 117.829 105.166 117.271C106.396 115.781 108.049 114.7 109.907 114.171C111.765 113.642 113.74 113.69 115.57 114.309C116.627 114.661 117.617 115.187 118.502 115.864C119.092 116.319 119.625 116.845 120.087 117.431C120.275 117.637 120.436 117.867 120.564 118.116Z" fill="#7F594B"/>
<path d="M120.894 122.755C120.565 124.12 120.509 125.536 120.729 126.923C120.844 127.615 121.097 128.277 121.475 128.868C121.853 129.459 122.346 129.967 122.926 130.362C124.15 131.046 125.59 131.232 126.947 130.882H126.99C127.813 130.685 128.55 130.224 129.087 129.57C129.625 128.916 129.935 128.105 129.97 127.259L130.142 123.673C127.645 123.459 123.385 122.963 120.894 122.755Z" fill="#7F594B"/>
<path d="M129.866 129.365C129.866 129.407 129.591 129.597 129.095 129.977C128.787 130.22 128.464 130.445 128.128 130.65C127.658 130.902 127.149 131.078 126.623 131.17C125.988 131.295 125.338 131.319 124.695 131.243C123.939 131.164 123.215 130.901 122.584 130.478C121.893 129.957 121.329 129.287 120.933 128.517C120.537 127.748 120.319 126.9 120.295 126.035C120.235 124.911 120.336 123.784 120.595 122.688L120.65 122.418H120.919C123.587 122.7 125.895 122.969 127.535 123.183C128.417 123.244 129.291 123.396 130.142 123.636C129.263 123.705 128.379 123.684 127.504 123.575C125.852 123.465 123.538 123.275 120.87 123.036L121.194 122.792C120.967 123.834 120.876 124.902 120.925 125.968C120.947 126.74 121.136 127.498 121.481 128.189C121.825 128.881 122.317 129.488 122.92 129.97C123.995 130.662 125.291 130.922 126.549 130.699C127.038 130.644 127.516 130.512 127.963 130.307C128.355 130.123 128.679 129.903 128.955 129.744C129.228 129.554 129.539 129.424 129.866 129.365Z" fill="#263238"/>
<path d="M120.564 118.116C119.915 117.352 119.187 116.658 118.391 116.047C117.512 115.412 116.537 114.921 115.503 114.591C114.245 114.175 112.912 114.031 111.595 114.169C110.277 114.307 109.003 114.724 107.859 115.393C106.917 115.928 106.067 116.612 105.344 117.418C104.694 118.174 104.124 118.994 103.642 119.866C103.712 119.603 103.813 119.348 103.942 119.107C104.271 118.446 104.682 117.829 105.166 117.271C106.396 115.781 108.049 114.7 109.907 114.171C111.765 113.642 113.74 113.69 115.57 114.309C116.627 114.661 117.617 115.187 118.502 115.864C119.092 116.319 119.625 116.845 120.087 117.431C120.275 117.637 120.436 117.867 120.564 118.116Z" fill="#7F594B"/>
<path d="M84.866 128.557C84.4232 128.82 84.0124 129.135 83.642 129.493C82.7022 130.571 82.113 131.909 81.9529 133.33C81.8 134.299 81.8207 135.288 82.0141 136.25C82.2461 137.347 82.756 138.367 83.4951 139.212C84.3289 140.143 85.3801 140.854 86.5551 141.28C87.7921 141.773 89.1496 141.877 90.4475 141.58C91.746 141.29 92.9323 140.628 93.8624 139.677C94.7281 138.789 95.3317 137.679 95.6066 136.47C95.8618 135.45 95.8984 134.388 95.7138 133.353C95.5292 132.319 95.1277 131.335 94.5356 130.466C93.7051 129.301 92.4701 128.487 91.0717 128.183C90.5561 128.098 90.0324 128.073 89.5111 128.11C89.6403 128.069 89.7738 128.042 89.9089 128.03C90.3022 127.987 90.6995 127.998 91.0901 128.061C92.5452 128.327 93.8436 129.139 94.7192 130.332C95.3471 131.222 95.7764 132.237 95.978 133.307C96.1797 134.378 96.149 135.479 95.8881 136.537C95.6099 137.8 94.9871 138.961 94.0889 139.891C93.1163 140.89 91.8747 141.585 90.5148 141.892C89.1569 142.203 87.7364 142.09 86.445 141.568C85.2332 141.121 84.1535 140.376 83.3054 139.401C82.5406 138.518 82.0177 137.451 81.7877 136.305C81.6044 135.311 81.6044 134.293 81.7877 133.3C81.9693 131.84 82.6125 130.476 83.6237 129.407C83.911 129.134 84.2343 128.902 84.5845 128.716C84.6735 128.655 84.7677 128.601 84.866 128.557Z" fill="#455A64"/>
<path d="M96.5308 157.419L79.3091 163.832L67.5036 198.747L84.4193 257.285L74.462 289.476H177.327L167.914 261.324C169.414 250.92 176.054 226.838 175.148 215.65C173.178 191.427 163.6 157.192 163.6 157.192L137.161 155.889C131.066 171.446 103.869 172.633 96.5308 157.419Z" fill="#455A64"/>
<g opacity="0.3">
<path opacity="0.3" d="M131.58 165.387C131.58 165.387 131.715 165.668 131.959 166.152C133.141 168.484 136.825 175.503 139.591 177.694C142.933 180.344 146.972 183.814 146.972 183.814C150.907 209.328 158.667 231.397 169.383 250.81L162.517 215.271L151.005 172.945L131.715 165.668" fill="black"/>
</g>
<g opacity="0.3">
<path opacity="0.3" d="M98.6238 255.902L76.7938 286.538C88.9052 283.478 100.319 276.092 106.078 265.002C106.757 263.692 107.4 262.309 108.526 261.33C110.588 259.494 113.575 258.601 116.188 257.762C124.316 255.155 128.024 252.346 131.023 246.422C123.465 256.055 109.848 259.488 98.6238 255.902Z" fill="black"/>
</g>
<path d="M163.178 157.284C163.178 157.284 170.087 155.791 179.181 167.345C187.137 177.449 197.101 193.447 197.101 193.447L173.135 203.686L163.288 160.846L163.178 157.284Z" fill="#455A64"/>
<path d="M42.6013 218.147C42.6013 218.147 50.845 178.624 58.9662 172.388C67.2466 166.029 84.4193 162.18 84.4193 162.18L83.6114 228.056L42.6013 218.147Z" fill="#455A64"/>
<path d="M76.4265 190.461C76.4838 190.573 76.527 190.692 76.555 190.815C76.6285 191.048 76.7203 191.397 76.8427 191.85C77.0752 192.756 77.3874 194.065 77.7117 195.705C78.5466 199.97 79.1311 204.28 79.462 208.612C79.8082 212.947 79.89 217.298 79.7068 221.642C79.664 223.307 79.5355 224.653 79.462 225.583C79.4253 226.018 79.3947 226.373 79.3641 226.648C79.3611 226.774 79.3426 226.9 79.309 227.021C79.2983 226.897 79.2983 226.772 79.309 226.648C79.309 226.367 79.309 226.036 79.3458 225.571C79.3825 224.641 79.4743 223.3 79.4926 221.636C79.6056 217.3 79.4912 212.961 79.1499 208.637C78.8202 204.315 78.2687 200.013 77.4975 195.748C77.2038 194.108 76.9222 192.792 76.7264 191.88C76.6346 191.452 76.555 191.103 76.4938 190.834C76.4573 190.712 76.4348 190.587 76.4265 190.461Z" fill="#263238"/>
<path d="M136.953 229.359C136.968 229.483 136.968 229.609 136.953 229.733C136.953 229.977 136.953 230.345 136.953 230.81C136.912 232.129 136.762 233.443 136.507 234.739C135.695 239.049 133.843 243.095 131.111 246.526C128.38 249.957 124.852 252.67 120.833 254.427C119.627 254.964 118.381 255.406 117.106 255.749C116.653 255.877 116.298 255.938 116.06 255.993C115.938 256.027 115.813 256.048 115.686 256.055C115.799 256 115.918 255.958 116.041 255.932C116.274 255.853 116.653 255.773 117.069 255.626C118.324 255.244 119.551 254.776 120.741 254.225C124.689 252.426 128.155 249.719 130.857 246.325C133.558 242.931 135.419 238.946 136.286 234.696C136.556 233.412 136.738 232.112 136.831 230.804C136.874 230.338 136.874 229.977 136.898 229.733C136.901 229.606 136.919 229.481 136.953 229.359Z" fill="#263238"/>
<path d="M98.4647 216.513L77.6567 241.844L78.0361 226.544L48.1889 219.494C48.1889 219.494 48.0604 228.062 48.1216 246.11C48.1216 250.92 49.5353 266.795 51.5059 274.17C54.0457 283.705 71.2735 292.291 80.9554 284.029C89.3214 276.887 116.635 223.209 116.635 223.209L98.4647 216.513Z" fill="#B5836D"/>
<path d="M98.4647 216.513C98.3972 216.648 98.3152 216.776 98.2199 216.893C98.0547 217.138 97.7976 217.505 97.4549 217.933C96.7695 218.827 95.7536 220.087 94.4867 221.648C91.9592 224.757 88.4157 228.992 84.4928 233.717L74.4743 245.767L71.4694 249.439L70.6677 250.449C70.5765 250.569 70.4763 250.681 70.3678 250.785C70.4383 250.652 70.5202 250.525 70.6126 250.406C70.8084 250.143 71.0594 249.794 71.3715 249.359C72.0508 248.466 73.0484 247.187 74.303 245.62C76.806 242.487 80.3312 238.209 84.248 233.509L98.4647 216.513Z" fill="#7F594B"/>
<path d="M140.478 184.891C140.478 184.891 136.476 186.905 136.09 191.556C135.705 196.207 136.09 208.129 136.09 208.129L142.994 207.248L140.478 184.891Z" fill="#7F594B"/>
<path d="M139.891 196.452C139.738 193.876 139.279 191.244 138.012 189.01C136.934 187.27 135.514 185.767 133.838 184.591C131.965 183.164 129.871 182.052 127.639 181.299C124.56 180.288 121.27 180.104 118.098 180.765C114.926 181.427 111.983 182.911 109.566 185.068C107.148 187.225 105.34 189.98 104.323 193.057C103.306 196.133 103.115 199.423 103.771 202.597L103.728 202.419C103.728 202.554 103.783 202.682 103.807 202.817C103.832 202.951 103.838 202.964 103.856 203.037C104.787 207.376 106.17 210.907 109.591 213.839C111.843 215.767 114.787 216.666 117.694 217.236C122.155 218.117 126.996 218.282 131.048 216.213C134.439 214.365 137.048 211.352 138.392 207.731C139.702 204.124 140.214 200.276 139.891 196.452Z" fill="#FFBE8D"/>
<path d="M139.536 193.741C139.83 196.128 138.428 198.41 137.553 200.656C136.99 202.107 136.329 203.667 134.977 204.439C133.985 205.002 132.737 205.051 131.825 205.742C131.066 206.299 130.637 207.217 129.866 207.762C128.03 209.053 125.338 207.688 123.336 208.686C122.752 209.046 122.199 209.456 121.684 209.91C121.422 210.13 121.116 210.29 120.786 210.38C120.457 210.47 120.111 210.487 119.775 210.43C118.991 210.222 118.55 209.414 117.834 208.998C116.959 208.472 115.864 208.612 114.848 208.588C113.214 208.521 111.633 207.99 110.29 207.057C108.947 206.123 107.898 204.827 107.265 203.319C107.265 203.319 105.631 205.338 104.817 204.543C104.273 203.96 103.891 203.244 103.71 202.468L103.752 202.645C103.097 199.472 103.287 196.182 104.305 193.106C105.322 190.029 107.13 187.274 109.547 185.117C111.965 182.959 114.908 181.476 118.08 180.814C121.252 180.153 124.542 180.337 127.62 181.348C129.852 182.101 131.946 183.213 133.82 184.64C135.496 185.816 136.916 187.319 137.994 189.059C138.805 190.506 139.329 192.095 139.536 193.741Z" fill="#FF8634"/>
<g opacity="0.3">
<path opacity="0.3" d="M116.751 198.129C118.159 197.269 119.756 196.768 121.403 196.671C123.05 196.573 124.695 196.883 126.194 197.572C127.387 196.337 128.933 195.501 130.619 195.179C129.918 193.839 128.917 192.68 127.693 191.792C126.47 190.904 125.057 190.312 123.566 190.061C122.075 189.81 120.547 189.908 119.1 190.347C117.653 190.786 116.328 191.554 115.227 192.59C114.285 193.49 113.483 194.818 113.942 196.036C114.334 197.082 115.484 197.603 116.525 198.013" fill="black"/>
</g>
<path d="M133.373 195.338C132.627 195.218 131.87 195.175 131.115 195.21C130.291 195.294 129.49 195.537 128.759 195.926C127.844 196.426 126.97 196.997 126.145 197.633L126.072 197.676L125.986 197.645C125.559 197.488 125.124 197.353 124.683 197.241C123.52 196.947 122.316 196.852 121.121 196.96C120.144 197.056 119.184 197.276 118.263 197.615C116.684 198.227 115.815 198.796 115.778 198.741C115.967 198.577 116.172 198.433 116.39 198.312C116.977 197.961 117.591 197.656 118.226 197.401C119.158 197.026 120.136 196.779 121.133 196.666C122.363 196.538 123.606 196.627 124.805 196.929C125.261 197.047 125.71 197.188 126.152 197.352H125.999C126.842 196.71 127.739 196.14 128.679 195.65C129.442 195.265 130.274 195.036 131.127 194.977C131.694 194.949 132.262 194.998 132.816 195.124C133.01 195.172 133.197 195.244 133.373 195.338Z" fill="#263238"/>
<path d="M130.576 194.885C129.976 194.002 129.271 193.195 128.477 192.48C127.6 191.729 126.6 191.135 125.521 190.724C124.205 190.225 122.792 190.032 121.39 190.161C119.986 190.294 118.626 190.724 117.4 191.421C116.401 191.994 115.513 192.742 114.781 193.631C114.279 194.225 113.906 194.917 113.685 195.663C113.538 196.195 113.544 196.507 113.514 196.507C113.5 196.432 113.5 196.356 113.514 196.281C113.521 196.063 113.546 195.846 113.587 195.632C113.771 194.851 114.126 194.122 114.628 193.496C115.353 192.558 116.253 191.768 117.278 191.17C118.532 190.431 119.934 189.977 121.384 189.842C122.84 189.708 124.308 189.918 125.668 190.454C126.769 190.88 127.783 191.502 128.661 192.29C129.252 192.822 129.77 193.429 130.203 194.096C130.321 194.277 130.427 194.465 130.521 194.659C130.551 194.731 130.57 194.807 130.576 194.885Z" fill="#263238"/>
<path d="M144.738 199.163L142.394 193.294C142.394 193.294 140.136 194.426 140.258 198.441C140.381 202.456 139.646 203.71 139.646 203.71C139.646 203.71 137.259 203.208 136.635 207.352C136.011 211.495 131.868 215.761 131.868 215.761L119.438 216.648C119.438 216.648 112.271 214.102 109.383 211.721C106.494 209.341 107.375 206.213 106.751 200.424C106.127 194.634 102.467 197.413 102.467 197.413C102.467 197.413 103.079 202.56 101.457 207.205C99.8355 211.85 98.4463 215.987 98.4463 216.489L110.497 228.037C111.141 226.65 112.168 225.476 113.457 224.653C114.746 223.83 116.244 223.392 117.773 223.392C117.773 223.392 135.093 223.521 136.978 222.138C138.863 220.755 139.616 217.621 139.616 217.621C139.616 217.621 143.747 211.611 144.873 209.775C146.335 207.425 144.738 199.163 144.738 199.163Z" fill="#B5836D"/>
<path d="M139.022 204.059C139.022 204.059 139.059 204.016 139.15 203.955C139.295 203.883 139.454 203.841 139.616 203.833C139.914 203.833 140.209 203.904 140.475 204.04C140.741 204.176 140.971 204.374 141.146 204.616C141.594 205.373 141.761 206.264 141.617 207.131C141.537 208.08 141.433 209.114 141.311 210.191C141.116 212.047 140.795 213.887 140.35 215.699C140.172 216.397 139.995 216.954 139.86 217.333C139.802 217.534 139.72 217.727 139.616 217.909C139.567 217.909 139.83 217.046 140.13 215.644C140.51 213.824 140.798 211.986 140.993 210.136C141.109 209.053 141.225 208.019 141.323 207.076C141.471 206.273 141.344 205.442 140.962 204.72C140.812 204.494 140.613 204.306 140.38 204.168C140.147 204.03 139.885 203.947 139.616 203.925C139.413 203.944 139.213 203.989 139.022 204.059Z" fill="#7F594B"/>
<path d="M108.899 229.677C109.095 229.167 109.365 228.689 109.701 228.258C110.459 227.179 111.363 226.211 112.388 225.381C112.959 224.915 113.573 224.505 114.224 224.157C114.753 223.89 115.312 223.685 115.888 223.545C116.109 223.486 116.334 223.443 116.562 223.417C116.731 223.388 116.903 223.376 117.076 223.38C117.363 223.38 117.516 223.38 117.516 223.417C117.516 223.453 116.904 223.472 115.95 223.766C115.398 223.935 114.864 224.161 114.358 224.439C113.743 224.788 113.155 225.185 112.602 225.626C111.596 226.441 110.689 227.369 109.897 228.392C109.266 229.176 108.936 229.702 108.899 229.677Z" fill="#7F594B"/>
<path d="M159.273 127.021C160.389 127.506 161.374 128.248 162.147 129.188C162.921 130.127 163.46 131.236 163.722 132.425C164.708 136.549 162.963 139.352 160.993 141.201C159.157 142.939 150.589 151.133 143.893 151.917C137.198 152.7 133 153.343 128.593 150.13C124.671 147.266 125.025 141.243 128.593 138.092C132.161 134.94 140.417 130.136 144.622 127.773C148.826 125.411 155.448 124.334 159.273 127.021Z" fill="#FFBE8D"/>
<path d="M160.344 129.744C160.203 130.453 159.885 131.115 159.42 131.668C158.954 132.222 158.356 132.648 157.682 132.908C156.268 133.422 154.622 133.808 153.869 135.123C153.404 135.956 153.318 137.149 152.437 137.523C151.721 137.829 150.84 137.388 150.13 137.706C148.587 138.41 149.885 141.311 148.471 142.247C147.676 142.767 146.635 142.247 145.858 141.69C145.081 141.133 144.175 140.466 143.275 140.791C141.862 141.274 141.978 143.551 140.68 144.297C139.928 144.738 138.961 144.481 138.183 144.083C137.455 143.599 136.653 143.235 135.809 143.006C134.773 142.939 133.741 143.191 132.853 143.728C131.969 144.27 130.972 144.6 129.94 144.695C128.906 144.695 126.813 144.083 126.77 143.073C126.77 143.073 125.234 141.329 128.538 138.067C131.066 135.576 139.634 130.423 139.634 130.423C139.634 130.423 147.804 124.511 155.038 125.417C155.062 125.46 161.293 125.98 160.344 129.744Z" fill="#FF8634"/>
<path d="M151.586 131.347C151.586 131.396 150.736 131.757 149.45 132.571C148.165 133.385 146.488 134.634 144.554 135.956C142.931 137.128 141.111 138.001 139.181 138.532C138.592 138.676 137.988 138.756 137.382 138.771C137.158 138.79 136.934 138.776 136.715 138.728C137.525 138.646 138.329 138.507 139.12 138.312C141.003 137.73 142.778 136.845 144.377 135.693C146.286 134.383 147.982 133.116 149.322 132.376C149.846 132.075 150.387 131.808 150.944 131.574C151.145 131.466 151.362 131.39 151.586 131.347Z" fill="#263238"/>
<g opacity="0.3">
<path opacity="0.3" d="M151.574 129.016C151.166 128.924 150.739 128.958 150.35 129.114C147.419 129.989 145.075 132.137 142.718 134.089C140.362 136.041 137.706 137.939 134.658 138.135C135.948 138.75 137.415 138.884 138.796 138.514C144.132 136.917 147.235 133.006 151.562 131.347C151.798 131.226 151.998 131.045 152.142 130.823C152.287 130.601 152.372 130.345 152.388 130.081C152.355 129.848 152.263 129.628 152.121 129.441C151.978 129.255 151.79 129.108 151.574 129.016Z" fill="black"/>
</g>
<path d="M163.061 135.252C162.994 135.093 162.885 134.955 162.746 134.853C162.607 134.751 162.443 134.688 162.272 134.671C161.611 134.818 161.727 135.595 161.905 135.937C161.948 136.011 162.006 136.074 162.074 136.125C162.142 136.176 162.22 136.213 162.302 136.233C162.385 136.253 162.471 136.257 162.555 136.244C162.639 136.232 162.719 136.202 162.792 136.158C162.932 136.059 163.034 135.916 163.083 135.751C163.132 135.587 163.124 135.411 163.061 135.252Z" fill="#EB996E"/>
<path d="M154.554 142.388C154.517 142.297 154.454 142.217 154.374 142.159C154.295 142.101 154.2 142.066 154.102 142.057C153.722 142.137 153.789 142.584 153.887 142.786C153.913 142.828 153.947 142.864 153.987 142.893C154.026 142.921 154.071 142.942 154.119 142.954C154.167 142.965 154.216 142.967 154.265 142.959C154.313 142.951 154.36 142.934 154.401 142.908C154.482 142.852 154.541 142.769 154.569 142.675C154.597 142.58 154.592 142.479 154.554 142.388Z" fill="#EB996E"/>
<path d="M160.197 134.695C160.153 134.607 160.088 134.531 160.008 134.474C159.928 134.416 159.836 134.379 159.738 134.365C159.359 134.45 159.426 134.897 159.53 135.093C159.555 135.135 159.587 135.172 159.626 135.201C159.665 135.23 159.71 135.252 159.757 135.264C159.804 135.276 159.854 135.278 159.902 135.271C159.95 135.264 159.996 135.247 160.038 135.221C160.118 135.163 160.176 135.08 160.205 134.985C160.234 134.89 160.231 134.788 160.197 134.695Z" fill="#EB996E"/>
<path d="M147.712 179.836C147.712 179.836 166.336 241.312 167.492 244.8C168.649 248.288 176.06 268.876 191.55 264.17C209.047 258.864 195.975 223.625 195.975 223.625L188.631 196.935L176.868 200.779L167.382 171.446L147.712 179.836Z" fill="#B5836D"/>
<path d="M127.908 150.326C127.908 150.326 130.478 163.643 131.959 165.656C133.44 167.67 141.507 175.748 141.507 175.748L150.252 181.531L167.468 171.709L164.377 157.994L160.534 141.782L156.103 145.209L156.574 150.191C156.574 150.191 150.105 139.426 147.688 141.782C145.27 144.138 149.579 148.979 150.925 153.012C152.272 157.045 151.195 159.2 151.195 159.2C151.195 159.2 150.117 159.469 148.636 156.917C147.565 155.081 143.606 146.641 140.221 143.722C139.927 143.461 139.561 143.294 139.171 143.241C138.781 143.189 138.384 143.254 138.031 143.428C137.678 143.602 137.384 143.877 137.188 144.218C136.992 144.559 136.902 144.951 136.929 145.344L137.07 147.363L142.314 160.546L144.199 163.765L139.169 160.007C139.169 160.007 136.886 153.19 134.499 149.401C134.033 148.647 133.289 148.107 132.428 147.897C131.567 147.688 130.657 147.826 129.897 148.281L131.017 152.743C131.017 152.743 131.017 150.191 127.908 150.326Z" fill="#B5836D"/>
<path d="M141.482 170.919C141.197 170.812 140.928 170.668 140.68 170.491C140.185 170.185 139.493 169.695 138.661 169.065C137.829 168.435 136.825 167.688 135.729 166.868C135.144 166.408 134.664 165.828 134.322 165.167C134.142 164.817 134.001 164.45 133.899 164.071L133.587 162.939C132.767 159.879 132.174 157.039 131.653 155.026C131.396 154.016 131.176 153.19 131.041 152.645C130.94 152.359 130.866 152.064 130.821 151.764C130.958 152.035 131.071 152.317 131.158 152.608C131.354 153.159 131.611 153.961 131.898 154.965C132.474 156.972 133.122 159.787 133.918 162.853C134.083 163.599 134.321 164.326 134.628 165.026C134.945 165.651 135.391 166.202 135.937 166.641C137.033 167.455 138.012 168.245 138.82 168.888C139.628 169.53 140.301 170.05 140.772 170.387C141.243 170.724 141.494 170.901 141.482 170.919Z" fill="#7F594B"/>
<path d="M149.199 167.198C149.199 167.235 148.906 167.296 148.422 167.26C147.781 167.207 147.156 167.026 146.586 166.727C146.022 166.434 145.521 166.033 145.111 165.546C144.805 165.167 144.689 164.885 144.72 164.867C145.867 166.169 147.457 166.999 149.181 167.198H149.199Z" fill="#7F594B"/>
<path d="M157.284 160.007C155.934 159.855 154.617 159.491 153.379 158.93C154.06 158.96 154.732 159.09 155.375 159.316C156.043 159.447 156.687 159.68 157.284 160.007Z" fill="#7F594B"/>
<path d="M160.46 159.469C160.139 159.091 159.88 158.663 159.695 158.202C159.191 157.124 158.752 156.016 158.38 154.885C157.927 153.569 157.517 152.382 157.156 151.55C156.942 151.108 156.754 150.654 156.592 150.191C156.915 150.57 157.175 150.997 157.364 151.458C157.865 152.537 158.303 153.644 158.673 154.775C159.126 156.091 159.542 157.278 159.897 158.11C160.111 158.552 160.299 159.006 160.46 159.469Z" fill="#7F594B"/>
<path d="M196.984 250.308C196.979 250.261 196.979 250.214 196.984 250.167C196.984 250.057 197.052 249.929 197.095 249.763C197.174 249.408 197.364 248.9 197.474 248.215C197.869 246.297 197.923 244.325 197.633 242.389C197.321 239.941 196.348 237.113 195.142 234.066C194.53 232.536 193.918 230.932 193.27 229.249C192.976 228.398 192.658 227.56 192.303 226.709C191.948 225.859 191.519 225.032 191.042 224.218C189.228 221.152 187.259 218.18 185.142 215.314C183.233 212.633 181.538 210.198 180.246 208.062C179.206 206.388 178.301 204.635 177.541 202.817C177.266 202.205 177.137 201.648 177.009 201.305C176.96 201.146 176.923 201.011 176.886 200.907C176.87 200.862 176.859 200.815 176.856 200.767C176.884 200.805 176.905 200.849 176.917 200.895L177.07 201.281C177.217 201.623 177.364 202.144 177.682 202.768C178.481 204.559 179.41 206.289 180.461 207.945C181.77 210.057 183.478 212.474 185.399 215.142C186.354 216.483 187.364 217.884 188.38 219.365C189.396 220.846 190.418 222.389 191.336 224.059C191.819 224.886 192.217 225.742 192.609 226.581C193 227.419 193.294 228.3 193.582 229.145C194.194 230.822 194.836 232.425 195.418 233.955C196.611 237.015 197.572 239.861 197.866 242.358C198.138 244.318 198.049 246.312 197.603 248.239C197.487 248.762 197.34 249.277 197.162 249.782L197.027 250.179C197.018 250.224 197.004 250.267 196.984 250.308Z" fill="#7F594B"/>
<path d="M141.531 175.748C141.531 175.748 141.396 175.632 141.152 175.387L140.056 174.31C139.101 173.355 137.688 171.941 135.901 170.087C135.007 169.163 134.022 168.129 132.969 166.966C132.384 166.384 131.897 165.713 131.525 164.977C131.182 164.159 130.887 163.321 130.644 162.468C129.628 158.943 128.728 154.873 127.816 150.344V150.215H127.957C128.7 150.154 129.444 150.33 130.081 150.717C130.408 150.95 130.679 151.255 130.871 151.608C131.062 151.961 131.171 152.354 131.188 152.755H130.944C130.595 151.372 130.209 149.854 129.817 148.294V148.196L129.903 148.147C130.181 147.961 130.479 147.807 130.791 147.688C131.117 147.572 131.46 147.512 131.806 147.51C132.518 147.498 133.211 147.732 133.771 148.171C134.046 148.398 134.282 148.669 134.469 148.973C134.658 149.267 134.854 149.585 135.026 149.867C135.381 150.479 135.711 151.091 136.029 151.733C137.313 154.4 138.433 157.143 139.383 159.946L139.328 159.873L144.365 163.624L144.138 163.82L142.253 160.607C140.882 157.174 139.463 153.606 138.006 149.946C137.6 149.032 137.289 148.078 137.076 147.1C136.976 146.603 136.906 146.1 136.868 145.595C136.811 145.051 136.959 144.505 137.284 144.065C137.612 143.625 138.088 143.319 138.624 143.202C139.166 143.087 139.73 143.183 140.203 143.471C140.319 143.545 140.423 143.636 140.534 143.716L140.809 143.985C140.993 144.169 141.182 144.346 141.348 144.542C141.696 144.928 142.021 145.326 142.339 145.766C143.978 148.024 145.447 150.401 146.733 152.878L148.643 156.488C148.947 157.076 149.312 157.629 149.732 158.141C149.939 158.387 150.175 158.607 150.436 158.796C150.666 158.975 150.946 159.078 151.237 159.089L151.133 159.169C151.574 157.836 151.65 156.41 151.354 155.038C151.1 153.674 150.653 152.353 150.026 151.115C149.414 149.891 148.734 148.667 148.128 147.443C147.82 146.847 147.546 146.234 147.308 145.607C147.057 144.969 146.92 144.291 146.904 143.606C146.896 143.257 146.96 142.91 147.092 142.587C147.223 142.264 147.42 141.971 147.669 141.727C147.801 141.6 147.958 141.502 148.13 141.439C148.301 141.375 148.484 141.349 148.667 141.36C149.011 141.383 149.346 141.484 149.646 141.654C150.744 142.338 151.717 143.206 152.523 144.218C154.086 146.091 155.506 148.079 156.77 150.166L156.519 150.252C156.36 148.539 156.201 146.88 156.054 145.27V145.203L156.109 145.16L160.546 141.733L160.693 141.623L160.736 141.8C162.896 151.017 164.689 158.484 165.803 163.686C166.372 166.274 166.813 168.288 167.119 169.665C167.266 170.344 167.376 170.889 167.455 171.225C167.535 171.562 167.553 171.758 167.553 171.758C167.553 171.758 167.504 171.58 167.419 171.231C167.333 170.883 167.211 170.356 167.052 169.683C166.733 168.306 166.268 166.299 165.675 163.716C164.518 158.526 162.694 151.066 160.503 141.855L160.693 141.923L156.262 145.362L156.311 145.252C156.47 146.856 156.631 148.514 156.794 150.228L156.849 150.797L156.543 150.307C155.285 148.235 153.871 146.26 152.315 144.401C151.529 143.42 150.583 142.578 149.518 141.911C149.281 141.733 148.993 141.637 148.698 141.637C148.402 141.637 148.114 141.733 147.878 141.911C147.657 142.13 147.484 142.391 147.368 142.68C147.253 142.968 147.197 143.277 147.204 143.587C147.224 144.238 147.357 144.88 147.596 145.485C147.829 146.112 148.099 146.725 148.404 147.321C149.016 148.545 149.695 149.72 150.307 150.993C150.95 152.257 151.408 153.607 151.666 155.001C151.979 156.437 151.894 157.931 151.421 159.322V159.395H151.348C150.967 159.418 150.592 159.298 150.295 159.059C150.012 158.856 149.757 158.618 149.536 158.349C149.096 157.824 148.715 157.254 148.398 156.648L146.397 153C145.118 150.541 143.66 148.181 142.033 145.938C141.441 145.126 140.753 144.391 139.983 143.747C139.577 143.507 139.097 143.427 138.635 143.522C138.174 143.617 137.764 143.88 137.486 144.261C136.874 145.02 137.186 146.097 137.333 147.039C137.538 148.001 137.844 148.938 138.245 149.836C139.695 153.508 141.115 157.064 142.48 160.503L144.359 163.722L144.738 164.371L144.126 163.924L139.101 160.167H139.065V160.124C138.125 157.333 137.015 154.602 135.742 151.947C135.429 151.335 135.099 150.687 134.75 150.111C134.445 149.512 134.044 148.966 133.563 148.496C133.185 148.197 132.737 147.999 132.262 147.921C131.787 147.843 131.299 147.887 130.846 148.049C130.548 148.161 130.265 148.306 130.001 148.483L130.062 148.337C130.448 149.897 130.827 151.397 131.176 152.804L130.925 152.841C130.909 152.48 130.811 152.127 130.64 151.809C130.468 151.492 130.227 151.217 129.934 151.005C129.338 150.645 128.644 150.483 127.951 150.54L128.061 150.399C128.955 154.922 129.836 158.967 130.839 162.51C131.074 163.357 131.36 164.189 131.696 165.001C132.056 165.724 132.532 166.384 133.104 166.954C134.144 168.123 135.123 169.163 136.011 170.099L140.117 174.383L141.188 175.485C141.415 175.644 141.531 175.748 141.531 175.748Z" fill="#7F594B"/>
<path d="M155.632 289.623L154.799 265.565L244.5 265.327V289.305L155.632 289.623Z" fill="#FF8634"/>
<path d="M192.413 265.565L172.339 219.537H222.064L244.5 265.326L192.413 265.565Z" fill="#FF8634"/>
<path d="M172.339 219.537L165.583 230.124L179.775 262.732L192.413 265.565L172.339 219.537Z" fill="#FF8634"/>
<path d="M244.5 265.326H244.231H243.46L240.479 265.369L229.518 265.467L193.355 265.681H192.309L192.266 265.584L178.092 233.025C176.305 228.87 174.855 225.51 173.845 223.166L172.706 220.479C172.584 220.185 172.492 219.953 172.419 219.781C172.383 219.702 172.355 219.621 172.333 219.537C172.333 219.537 172.376 219.61 172.449 219.769L172.768 220.455C173.043 221.067 173.447 221.972 173.961 223.117L178.3 232.939C181.941 241.263 186.978 252.756 192.554 265.498L192.407 265.406H193.343L229.512 265.284H240.473H243.454H244.225C244.318 265.29 244.41 265.304 244.5 265.326Z" fill="#263238"/>
<path d="M192.413 289.666C192.327 289.666 192.254 284.268 192.254 277.615C192.254 270.963 192.327 265.565 192.413 265.565C192.498 265.565 192.572 270.957 192.572 277.615C192.572 284.274 192.505 289.666 192.413 289.666Z" fill="#263238"/>
<g opacity="0.3">
<path opacity="0.3" d="M192.413 265.565V289.666L244.5 289.305V265.327L192.413 265.565Z" fill="black"/>
</g>
</svg>
