<svg width="340" height="340" viewBox="0 0 340 340" fill="none" xmlns="http://www.w3.org/2000/svg">
<path d="M266.982 279.514C267.594 277.413 268.892 275.38 270.898 274.516C272.904 273.652 275.414 274.128 277.549 274.904C279.684 275.679 281.792 276.719 284.063 276.862C286.334 277.005 288.898 275.924 289.578 273.754C290.217 271.714 288.986 269.532 287.443 268.049C285.814 266.482 283.817 265.351 281.636 264.759C279.454 264.167 277.159 264.134 274.962 264.664C272.764 265.193 270.736 266.267 269.063 267.787C267.39 269.307 266.127 271.223 265.39 273.36" fill="#FF8634"/>
<g opacity="0.5">
<path opacity="0.5" d="M266.982 279.514C267.594 277.413 268.892 275.38 270.898 274.516C272.904 273.652 275.414 274.128 277.549 274.904C279.684 275.679 281.792 276.719 284.063 276.862C286.334 277.005 288.898 275.924 289.578 273.754C290.217 271.714 288.986 269.532 287.443 268.049C285.814 266.482 283.817 265.351 281.636 264.759C279.454 264.167 277.159 264.134 274.962 264.664C272.764 265.193 270.736 266.267 269.063 267.787C267.39 269.307 266.127 271.223 265.39 273.36" fill="black"/>
</g>
<path d="M248.989 288.64C245.65 285.478 245.82 279.963 247.479 275.679C249.138 271.395 252.776 268.097 256.829 265.928C260.785 263.85 265.16 262.696 269.626 262.552C274.093 262.408 278.533 263.279 282.615 265.098C280.616 265.184 278.67 265.758 276.945 266.771C275.22 267.783 273.77 269.203 272.721 270.905C270.891 273.938 270.49 277.624 268.981 280.826C267.274 284.433 264.253 287.251 260.536 288.704C256.82 290.156 252.689 290.133 248.989 288.64Z" fill="#FF8634"/>
<path d="M247.384 269.62C243.692 265.261 243.202 258.271 243.746 252.586C244.29 246.901 245.609 241.182 244.712 235.545C244.181 232.206 242.882 229.017 242.447 225.665C242.012 222.312 242.631 218.518 245.228 216.356C248.214 213.867 252.919 214.452 256.027 216.791C259.134 219.13 260.93 222.795 262.249 226.454C265.139 234.491 266.2 243.399 263.82 251.614C261.44 259.828 255.877 267.152 247.704 269.627" fill="#FF8634"/>
<path d="M245.616 305.354C245.597 305.189 245.597 305.023 245.616 304.858C245.616 304.524 245.616 304.042 245.616 303.416C245.657 302.165 245.779 300.356 246.058 298.139C246.402 295.539 246.89 292.96 247.52 290.414C248.285 287.288 249.47 284.28 251.042 281.472C252.625 278.668 254.56 276.079 256.802 273.768C258.632 271.882 260.658 270.197 262.847 268.743C263.765 268.11 264.656 267.628 265.424 267.179C266.193 266.73 266.9 266.424 267.464 266.152L268.79 265.594C268.943 265.526 269.1 265.467 269.26 265.418C269.118 265.509 268.968 265.587 268.811 265.649L267.512 266.261C266.961 266.546 266.281 266.9 265.506 267.328C264.731 267.757 263.874 268.28 262.963 268.926C258.156 272.209 254.168 276.553 251.308 281.622C247.908 287.552 246.99 293.794 246.316 298.166C246.01 300.376 245.854 302.178 245.772 303.423L245.691 304.858C245.636 305.184 245.623 305.354 245.616 305.354Z" fill="#263238"/>
<path d="M213.785 252.436C206.985 256.557 206.985 260.304 208.121 263.84C209.256 267.376 213.452 269.838 216.92 268.512C218.885 267.764 220.32 266.057 221.523 264.343C222.727 262.63 223.883 260.794 225.603 259.583C227.324 258.373 229.772 257.876 231.486 259.1" fill="#FF8634"/>
<g opacity="0.5">
<path opacity="0.5" d="M213.785 252.436C206.985 256.557 206.985 260.304 208.121 263.84C209.256 267.376 213.452 269.838 216.92 268.512C218.885 267.764 220.32 266.057 221.523 264.343C222.727 262.63 223.883 260.794 225.603 259.583C227.324 258.373 229.772 257.876 231.486 259.1" fill="black"/>
</g>
<path d="M208.672 256.952C210.46 254.483 214.866 253.769 217.654 255C220.442 256.231 222.476 258.672 224.305 261.12C226.134 263.568 227.909 266.132 230.425 267.825C232.941 269.518 236.484 270.137 239.006 268.43C239.809 267.829 240.482 267.071 240.983 266.203C241.484 265.334 241.804 264.373 241.924 263.378C242.143 261.386 242.007 259.372 241.522 257.428C240.917 254.565 239.931 251.573 237.64 249.757C235.09 247.717 231.52 247.629 228.283 247.717C224.543 247.84 220.748 248.118 217.24 249.417C213.731 250.716 210.147 253.497 208.658 256.945" fill="#FF8634"/>
<path d="M239.938 299.88C239.938 299.88 239.938 299.832 239.938 299.73C239.938 299.628 239.938 299.472 239.938 299.295C239.938 298.88 239.904 298.316 239.877 297.595C239.836 296.099 239.775 293.978 239.7 291.366C239.625 288.755 239.51 285.6 239.319 282.132C239.129 278.664 238.87 274.836 238.34 270.864C238.12 268.931 237.742 267.018 237.211 265.146C236.666 263.415 235.965 261.738 235.117 260.134C234.356 258.682 233.473 257.296 232.478 255.993C231.604 254.863 230.64 253.805 229.595 252.831C228.073 251.424 226.352 250.249 224.488 249.342C224.155 249.193 223.863 249.043 223.598 248.934L222.918 248.676L222.51 248.513L222.374 248.445C222.425 248.449 222.476 248.463 222.523 248.486L222.938 248.622L223.618 248.853C223.89 248.948 224.182 249.091 224.522 249.24C226.421 250.1 228.175 251.247 229.724 252.64C230.789 253.614 231.771 254.674 232.662 255.809C233.69 257.115 234.601 258.51 235.382 259.978C236.247 261.592 236.959 263.283 237.51 265.03C238.05 266.918 238.434 268.846 238.66 270.796C239.183 274.788 239.435 278.61 239.612 282.084C239.788 285.559 239.877 288.701 239.931 291.332C239.986 293.964 240.006 296.092 240.013 297.568V299.261C240.013 299.445 240.013 299.588 240.013 299.703C239.997 299.766 239.972 299.825 239.938 299.88Z" fill="#263238"/>
<path d="M242.393 302.974C242.069 302.018 241.819 301.038 241.645 300.043C241.175 297.324 241.07 294.555 241.332 291.808C241.75 287.739 242.624 283.729 243.936 279.854C245.337 275.461 247.241 270.762 248.866 265.717C250.431 260.98 251.413 256.071 251.79 251.097C252.106 247.036 252.178 242.96 252.008 238.891C251.892 235.416 251.709 232.601 251.593 230.663L251.464 228.419C251.464 228.181 251.464 227.984 251.464 227.841C251.455 227.773 251.455 227.704 251.464 227.637C251.464 227.637 251.464 227.705 251.464 227.834C251.464 227.963 251.498 228.174 251.525 228.419C251.566 228.949 251.627 229.697 251.709 230.649C251.865 232.594 252.083 235.409 252.226 238.884C252.425 242.963 252.375 247.051 252.076 251.124C251.889 253.531 251.569 255.926 251.117 258.298C250.614 260.84 249.958 263.349 249.152 265.812C247.527 270.878 245.616 275.57 244.202 279.949C242.887 283.801 241.998 287.784 241.55 291.829C241.268 294.56 241.341 297.317 241.767 300.03C241.93 300.982 242.087 301.723 242.223 302.219C242.277 302.457 242.325 302.641 242.359 302.784C242.377 302.846 242.389 302.909 242.393 302.974Z" fill="#263238"/>
<path d="M259.325 306.061H227.263L226.535 299.887H259.325V306.061Z" fill="#455A64"/>
<path d="M230.703 305.354L234.715 323.864H252.13L255.884 305.354H230.703Z" fill="#455A64"/>
<path d="M259.318 306.061C259.318 306.143 252.273 306.19 243.583 306.17C234.892 306.15 227.841 306.054 227.841 305.973C227.841 305.891 234.885 305.837 243.583 305.864C252.28 305.891 259.318 306 259.318 306.061Z" fill="#455A64"/>
<path d="M253.817 315.194C252.946 314.54 251.998 313.996 250.995 313.575C249.899 313.148 248.736 312.918 247.561 312.895C246.12 312.9 244.692 313.162 243.345 313.67C241.883 314.167 240.516 314.738 239.19 315.03C238.009 315.283 236.793 315.32 235.599 315.139C234.794 315.023 234.013 314.774 233.287 314.405C233.095 314.298 232.909 314.18 232.73 314.051C232.614 313.963 232.553 313.908 232.56 313.902C232.567 313.895 232.832 314.058 233.342 314.296C234.068 314.618 234.838 314.829 235.627 314.922C236.793 315.073 237.976 315.015 239.122 314.752C240.407 314.432 241.774 313.854 243.243 313.351C244.625 312.834 246.091 312.576 247.567 312.589C248.774 312.629 249.963 312.889 251.076 313.358C251.824 313.668 252.526 314.077 253.164 314.575C253.339 314.709 253.507 314.852 253.667 315.003C253.776 315.132 253.823 315.187 253.817 315.194Z" fill="#263238"/>
<path d="M259.603 306.088C259.603 306.17 252.395 306.238 243.501 306.238C234.607 306.238 227.392 306.17 227.392 306.088C227.392 306.007 234.6 305.932 243.501 305.932C252.402 305.932 259.603 306 259.603 306.088Z" fill="#263238"/>
<path d="M119.374 179.846L115.111 177.806C112.737 178.038 110.276 178.296 108.215 179.5C106.155 180.703 104.598 183.124 105.176 185.436C105.665 187.367 107.515 188.972 107.216 190.944C106.964 192.732 105.121 193.759 103.517 194.582C101.912 195.405 100.117 196.622 100.151 198.438C100.185 198.958 100.347 199.463 100.622 199.906C100.897 200.35 101.277 200.719 101.728 200.981C102.639 201.497 103.666 201.776 104.713 201.79C109.779 202.062 114.682 198.954 117.273 194.596C119.864 190.237 120.36 184.824 119.374 179.846Z" fill="#FF8634"/>
<path d="M107.773 176.372L122.053 186.762C122.053 186.762 125.841 182.002 124.495 176.433L117.287 171.36C117.287 171.36 112.914 170.68 107.773 176.372Z" fill="#263238"/>
<path d="M113.723 169.708L126.188 178.412L172.258 116.334C172.258 116.334 175.406 110.473 170.707 102.986C170.707 102.986 161.187 102.122 155.938 108.385C150.688 114.648 113.723 169.708 113.723 169.708Z" fill="#E0E0E0"/>
<path d="M113.73 169.708C113.73 169.708 113.798 169.578 113.968 169.32L114.709 168.184L117.592 163.839L128.343 147.839C132.913 141.073 138.38 132.994 144.561 124.039C147.662 119.558 150.912 114.845 154.442 110.038L155.802 108.256C157.328 106.507 159.249 105.146 161.405 104.285C162.863 103.704 164.382 103.291 165.934 103.054C167.507 102.805 169.103 102.725 170.694 102.816H170.775L170.823 102.891C172.27 105.14 173.152 107.707 173.393 110.371C173.57 112.448 173.221 114.536 172.38 116.443L126.242 178.466L126.188 178.541L126.113 178.486L116.96 171.992L114.56 170.286L113.954 169.85L113.764 169.708L113.982 169.85L114.614 170.279L117.048 171.952L126.276 178.337H126.147L172.149 116.212C172.958 114.365 173.292 112.346 173.121 110.337C172.879 107.736 172.016 105.232 170.605 103.034L170.741 103.115C167.63 102.935 164.518 103.429 161.616 104.564C160.207 105.121 158.897 105.899 157.733 106.869C157.161 107.348 156.626 107.871 156.135 108.433C155.679 109.024 155.217 109.609 154.775 110.194C151.252 114.954 147.975 119.714 144.888 124.168C138.686 133.124 133.198 141.168 128.602 147.968L117.762 163.907L114.825 168.212L114.002 169.32L113.73 169.708Z" fill="#263238"/>
<path d="M114.335 168.803L106.957 168.926L113.744 160.12L120.394 159.807L114.335 168.803Z" fill="#455A64"/>
<path d="M170.68 102.986L170.483 103.054C170.282 103.102 170.088 103.175 169.905 103.272C169.184 103.624 168.501 104.048 167.865 104.536C165.518 106.335 163.293 108.288 161.208 110.384V110.296C161.167 110.434 161.109 110.566 161.038 110.69L160.847 111.03L160.453 111.71L159.603 113.07L157.76 115.96C156.454 117.953 155.04 120.095 153.585 122.359C150.606 126.874 147.288 131.879 143.759 137.074C140.359 142.113 137.054 146.866 134.076 151.205L126.126 162.717L120.741 170.456L119.265 172.55L118.871 173.094C118.828 173.157 118.78 173.216 118.728 173.271C118.756 173.2 118.795 173.133 118.844 173.074L119.204 172.509L120.632 170.381C121.89 168.518 123.692 165.852 125.922 162.574C130.417 155.978 136.619 146.934 143.466 136.877C146.989 131.662 150.321 126.677 153.313 122.182C156.305 117.688 159.052 113.614 161.16 110.296L161.119 110.208C163.229 108.125 165.483 106.193 167.865 104.428C168.499 103.95 169.183 103.542 169.905 103.21C170.094 103.119 170.296 103.055 170.503 103.02L170.68 102.986Z" fill="#263238"/>
<path d="M149.172 130.281C149.172 130.24 149.308 130.111 149.546 130.281C149.618 130.328 149.675 130.394 149.71 130.473C149.745 130.551 149.757 130.638 149.743 130.723C149.725 130.829 149.674 130.926 149.597 131C149.519 131.074 149.42 131.121 149.314 131.134C149.207 131.147 149.1 131.126 149.007 131.072C148.914 131.019 148.84 130.937 148.798 130.839C148.763 130.762 148.752 130.677 148.764 130.594C148.776 130.511 148.811 130.433 148.866 130.37C149.056 130.166 149.247 130.234 149.233 130.281C149.219 130.329 149.124 130.376 149.077 130.506C149.06 130.535 149.051 130.567 149.051 130.601C149.051 130.634 149.06 130.667 149.077 130.696C149.095 130.726 149.122 130.751 149.154 130.767C149.185 130.782 149.221 130.788 149.257 130.784C149.292 130.78 149.325 130.765 149.352 130.742C149.379 130.719 149.399 130.689 149.41 130.655C149.419 130.625 149.421 130.593 149.415 130.563C149.409 130.532 149.396 130.503 149.376 130.478C149.308 130.336 149.185 130.329 149.172 130.281Z" fill="#263238"/>
<path d="M142.848 139.223C142.848 139.189 142.984 139.06 143.229 139.223C143.301 139.269 143.358 139.336 143.392 139.415C143.426 139.494 143.435 139.581 143.419 139.665C143.4 139.77 143.348 139.867 143.27 139.94C143.193 140.013 143.093 140.06 142.987 140.072C142.881 140.084 142.773 140.062 142.681 140.008C142.588 139.954 142.516 139.872 142.474 139.774C142.44 139.697 142.43 139.612 142.443 139.528C142.456 139.445 142.493 139.368 142.549 139.305C142.732 139.101 142.923 139.176 142.916 139.216C142.909 139.257 142.8 139.312 142.753 139.448C142.738 139.476 142.73 139.507 142.73 139.539C142.73 139.571 142.738 139.603 142.753 139.631C142.773 139.661 142.8 139.685 142.832 139.702C142.864 139.719 142.9 139.727 142.936 139.726C142.971 139.718 143.002 139.701 143.028 139.678C143.054 139.654 143.074 139.624 143.086 139.59C143.095 139.56 143.097 139.529 143.091 139.498C143.085 139.467 143.072 139.438 143.052 139.414C142.984 139.284 142.861 139.271 142.848 139.223Z" fill="#263238"/>
<path d="M135.626 149.804C135.626 149.77 135.762 149.641 136 149.804C136.073 149.85 136.131 149.916 136.166 149.995C136.201 150.074 136.212 150.161 136.197 150.246C136.179 150.351 136.127 150.448 136.049 150.521C135.971 150.594 135.871 150.64 135.765 150.653C135.659 150.665 135.552 150.643 135.459 150.589C135.367 150.535 135.294 150.453 135.252 150.355C135.219 150.278 135.208 150.193 135.22 150.111C135.232 150.028 135.267 149.95 135.32 149.886C135.511 149.682 135.701 149.756 135.687 149.797C135.674 149.838 135.579 149.892 135.531 150.028C135.514 150.056 135.505 150.088 135.505 150.12C135.505 150.153 135.514 150.184 135.531 150.212C135.551 150.242 135.578 150.267 135.61 150.284C135.642 150.3 135.678 150.308 135.715 150.307C135.749 150.299 135.781 150.282 135.807 150.258C135.833 150.235 135.853 150.205 135.864 150.171C135.878 150.144 135.886 150.114 135.886 150.083C135.886 150.052 135.878 150.022 135.864 149.994C135.762 149.865 135.64 149.852 135.626 149.804Z" fill="#263238"/>
<path d="M128.35 160.636C128.35 160.636 128.486 160.473 128.724 160.636C128.797 160.682 128.855 160.749 128.89 160.827C128.925 160.906 128.936 160.993 128.921 161.078C128.904 161.184 128.852 161.281 128.775 161.355C128.698 161.429 128.598 161.477 128.492 161.49C128.386 161.503 128.278 161.481 128.185 161.428C128.092 161.374 128.019 161.292 127.976 161.194C127.942 161.116 127.93 161.03 127.942 160.946C127.954 160.862 127.99 160.783 128.044 160.718C128.235 160.514 128.425 160.589 128.411 160.63C128.398 160.67 128.303 160.725 128.255 160.861C128.238 160.888 128.229 160.92 128.229 160.953C128.229 160.985 128.238 161.017 128.255 161.044C128.275 161.075 128.302 161.099 128.334 161.116C128.367 161.133 128.402 161.141 128.439 161.14C128.473 161.131 128.505 161.114 128.531 161.091C128.557 161.067 128.577 161.037 128.588 161.004C128.598 160.974 128.599 160.942 128.593 160.911C128.588 160.88 128.574 160.851 128.554 160.827C128.52 160.698 128.364 160.684 128.35 160.636Z" fill="#263238"/>
<path d="M121.604 170.816C121.604 170.816 121.74 170.653 121.978 170.816C122.051 170.862 122.109 170.928 122.144 171.007C122.179 171.086 122.19 171.173 122.176 171.258C122.155 171.363 122.103 171.458 122.026 171.532C121.95 171.606 121.852 171.655 121.747 171.673C121.64 171.683 121.532 171.659 121.439 171.604C121.346 171.549 121.273 171.466 121.23 171.367C121.194 171.291 121.182 171.205 121.194 171.122C121.206 171.038 121.242 170.96 121.298 170.898C121.489 170.694 121.679 170.768 121.666 170.809C121.652 170.85 121.557 170.904 121.509 171.04C121.492 171.068 121.484 171.1 121.484 171.132C121.484 171.165 121.492 171.196 121.509 171.224C121.529 171.254 121.556 171.279 121.589 171.296C121.621 171.312 121.657 171.32 121.693 171.319C121.727 171.311 121.759 171.294 121.785 171.27C121.811 171.247 121.831 171.217 121.842 171.183C121.857 171.156 121.864 171.126 121.864 171.095C121.864 171.064 121.857 171.034 121.842 171.006C121.72 170.877 121.618 170.864 121.604 170.816Z" fill="#263238"/>
<path d="M155.203 121.468C155.203 121.428 155.339 121.298 155.584 121.468C155.656 121.515 155.712 121.582 155.746 121.661C155.78 121.739 155.79 121.826 155.774 121.91C155.757 122.016 155.705 122.113 155.628 122.188C155.551 122.263 155.452 122.311 155.346 122.325C155.24 122.335 155.133 122.311 155.04 122.258C154.947 122.204 154.874 122.123 154.829 122.026C154.796 121.949 154.785 121.864 154.798 121.78C154.811 121.697 154.848 121.62 154.904 121.557C155.088 121.353 155.285 121.421 155.271 121.468C155.258 121.516 155.156 121.564 155.108 121.693C155.095 121.723 155.088 121.755 155.088 121.788C155.088 121.821 155.095 121.853 155.108 121.883C155.129 121.912 155.156 121.936 155.188 121.951C155.221 121.967 155.256 121.974 155.292 121.972C155.325 121.964 155.357 121.949 155.383 121.926C155.409 121.904 155.429 121.875 155.441 121.842C155.453 121.813 155.456 121.78 155.45 121.749C155.444 121.718 155.429 121.689 155.407 121.666C155.339 121.523 155.217 121.516 155.203 121.468Z" fill="#263238"/>
<path d="M161.65 111.921C161.616 111.887 161.786 111.758 162.024 111.921C162.096 111.967 162.153 112.034 162.187 112.113C162.221 112.192 162.23 112.279 162.214 112.363C162.196 112.469 162.145 112.566 162.068 112.641C161.991 112.716 161.892 112.764 161.786 112.778C161.68 112.787 161.574 112.763 161.483 112.71C161.392 112.656 161.319 112.575 161.276 112.479C161.24 112.401 161.227 112.315 161.239 112.231C161.251 112.146 161.288 112.067 161.344 112.003C161.534 111.799 161.724 111.874 161.711 111.914C161.697 111.955 161.602 112.01 161.554 112.146C161.538 112.173 161.529 112.205 161.529 112.237C161.529 112.27 161.538 112.302 161.554 112.329C161.573 112.359 161.599 112.383 161.63 112.4C161.661 112.417 161.696 112.425 161.731 112.424C161.767 112.417 161.8 112.401 161.827 112.377C161.855 112.353 161.876 112.323 161.888 112.288C161.897 112.258 161.899 112.227 161.893 112.196C161.887 112.165 161.874 112.136 161.854 112.112C161.779 111.982 161.663 111.969 161.65 111.921Z" fill="#263238"/>
<path d="M101.742 188.258C101.514 187.984 101.233 187.758 100.916 187.594C100.599 187.431 100.252 187.332 99.8962 187.305C99.5404 187.278 99.1828 187.322 98.8445 187.436C98.5063 187.549 98.1942 187.729 97.9269 187.966L98.0153 187.918C97.6125 188.281 97.3335 188.76 97.2176 189.29C97.1018 189.819 97.1548 190.372 97.3693 190.869C97.5176 191.199 97.734 191.494 98.0043 191.734C98.2746 191.975 98.5927 192.155 98.9377 192.264C99.2827 192.372 99.6468 192.407 100.006 192.364C100.365 192.322 100.712 192.205 101.022 192.019C101.333 191.834 101.6 191.585 101.808 191.288C102.015 190.992 102.158 190.655 102.226 190.3C102.294 189.945 102.286 189.579 102.202 189.227C102.119 188.875 101.962 188.545 101.742 188.258Z" fill="#FF8634"/>
<path d="M171.197 117.674C171.149 117.674 170.517 116.94 169.232 115.906C167.587 114.557 165.858 113.312 164.057 112.18C162.27 111.025 160.394 110.016 158.447 109.16C158.073 109.004 157.726 108.882 157.427 108.766L156.631 108.535C156.399 108.513 156.171 108.463 155.951 108.385C156.191 108.355 156.433 108.355 156.672 108.385L157.495 108.562C157.808 108.664 158.175 108.766 158.556 108.909C160.547 109.707 162.455 110.698 164.254 111.867C166.075 113.002 167.799 114.284 169.409 115.702C169.888 116.128 170.343 116.582 170.769 117.062C170.943 117.242 171.088 117.449 171.197 117.674Z" fill="#263238"/>
<path d="M152.422 235.049L131.07 238.204L134.864 264.785C137.38 264.268 140.515 249.791 140.515 249.791L154.278 248.329L152.422 235.049Z" fill="#455A64"/>
<path d="M140.713 250.24C140.583 250.24 140.434 249.608 139.924 249.03C139.414 248.452 138.822 248.193 138.856 248.064C138.89 247.935 139.665 248.023 140.271 248.744C140.876 249.465 140.835 250.24 140.713 250.24Z" fill="#263238"/>
<path d="M139.958 253.157C139.835 253.205 139.536 252.674 138.924 252.307C138.312 251.94 137.714 251.906 137.7 251.77C137.687 251.634 138.38 251.457 139.162 251.92C139.944 252.382 140.08 253.137 139.958 253.157Z" fill="#263238"/>
<path d="M136.843 255.218C136.802 255.102 137.421 254.83 138.203 255.061C138.985 255.292 139.332 255.857 139.23 255.932C139.128 256.006 138.7 255.68 138.074 255.496C137.448 255.313 136.877 255.34 136.843 255.218Z" fill="#263238"/>
<path d="M143.813 249.519C143.684 249.485 143.779 248.839 143.623 248.159C143.467 247.479 143.161 246.894 143.263 246.799C143.365 246.704 143.902 247.2 144.072 248.057C144.242 248.914 143.922 249.56 143.813 249.519Z" fill="#263238"/>
<path d="M146.88 248.438C146.694 248.01 146.631 247.54 146.697 247.078C146.716 246.586 146.794 246.097 146.928 245.623C147.007 245.344 147.107 245.071 147.227 244.807C147.286 244.645 147.371 244.493 147.479 244.358C147.559 244.261 147.67 244.194 147.792 244.166C147.915 244.137 148.044 244.15 148.159 244.202C148.259 244.251 148.346 244.325 148.411 244.416C148.477 244.508 148.518 244.614 148.533 244.725C148.556 244.894 148.556 245.066 148.533 245.235C148.502 245.53 148.445 245.821 148.363 246.106C148.225 246.59 148.011 247.049 147.73 247.466C147.247 248.146 146.792 248.445 146.765 248.404C146.737 248.363 147.077 247.989 147.445 247.296C147.664 246.893 147.831 246.463 147.941 246.017C148.006 245.754 148.049 245.485 148.07 245.215C148.104 244.922 148.07 244.684 147.934 244.63C147.798 244.576 147.866 244.63 147.791 244.678C147.715 244.78 147.653 244.892 147.608 245.011C147.488 245.257 147.386 245.512 147.302 245.772C147.155 246.215 147.053 246.67 146.996 247.132C146.99 247.57 146.951 248.006 146.88 248.438Z" fill="#263238"/>
<path d="M146.663 248.295C147.007 247.99 147.441 247.804 147.9 247.765C148.391 247.678 148.892 247.678 149.383 247.765C149.675 247.808 149.963 247.884 150.239 247.989C150.425 248.035 150.596 248.127 150.736 248.258C150.875 248.39 150.978 248.554 151.035 248.737C151.049 248.856 151.03 248.977 150.978 249.086C150.926 249.194 150.844 249.286 150.743 249.349C150.598 249.442 150.44 249.511 150.273 249.553C149.983 249.645 149.68 249.689 149.376 249.682C148.868 249.683 148.368 249.557 147.921 249.315C147.159 248.894 146.928 248.37 146.969 248.356C147.009 248.343 147.343 248.717 148.063 249.036C148.476 249.21 148.922 249.291 149.369 249.274C149.63 249.267 149.889 249.224 150.137 249.145C150.416 249.064 150.627 248.921 150.586 248.819C150.545 248.717 150.321 248.492 150.083 248.418C149.834 248.319 149.577 248.244 149.315 248.193C148.867 248.103 148.409 248.08 147.955 248.125C147.159 248.159 146.697 248.363 146.663 248.295Z" fill="#263238"/>
<path d="M90.4401 262.371L74.3513 276.76L92.1809 296.834C93.9965 295.018 88.6177 281.194 88.6177 281.194L99.2869 272.354L90.4401 262.371Z" fill="#455A64"/>
<path d="M89.012 281.472C88.91 281.554 88.434 281.105 87.652 280.901C86.87 280.697 86.292 280.813 86.2308 280.684C86.1696 280.554 86.9108 280.201 87.7812 280.466C88.6516 280.731 89.1208 281.411 89.012 281.472Z" fill="#263238"/>
<path d="M90.0117 284.349C89.9369 284.458 89.3929 284.179 88.6517 284.22C87.9105 284.26 87.4209 284.546 87.3393 284.444C87.2577 284.342 87.7541 283.764 88.6381 283.764C89.5221 283.764 90.1001 284.24 90.0117 284.349Z" fill="#263238"/>
<path d="M88.5565 287.783C88.4545 287.715 88.8217 287.144 89.5833 286.919C90.3449 286.695 90.9433 286.96 90.9433 287.076C90.9433 287.191 90.3653 287.164 89.7397 287.354C89.1141 287.545 88.6517 287.871 88.5565 287.783Z" fill="#263238"/>
<path d="M91.2221 279.194C91.0929 279.235 90.8277 278.664 90.3041 278.14C89.7805 277.617 89.2093 277.345 89.2501 277.216C89.2909 277.086 90.0049 277.216 90.6101 277.821C91.2153 278.426 91.3377 279.174 91.2221 279.194Z" fill="#263238"/>
<path d="M93.1602 276.597C93.1194 276.638 92.7114 276.304 92.2694 275.59C91.8593 274.92 91.5822 274.176 91.4534 273.401C91.4129 273.234 91.4014 273.062 91.4194 272.891C91.4316 272.764 91.4857 272.645 91.5731 272.553C91.6606 272.46 91.7764 272.4 91.9022 272.381C92.0141 272.369 92.1271 272.384 92.2322 272.425C92.3373 272.465 92.4315 272.529 92.5074 272.612C92.6219 272.737 92.716 272.879 92.7862 273.034C92.9282 273.293 93.0421 273.566 93.1262 273.85C93.2768 274.324 93.3503 274.82 93.3438 275.318C93.3832 275.775 93.2811 276.234 93.0514 276.631C92.9834 276.631 93.0514 276.121 93.0514 275.325C93.0119 274.861 92.9137 274.404 92.759 273.965C92.6679 273.71 92.5565 273.462 92.4258 273.224C92.2898 272.966 92.1334 272.782 91.9906 272.809C91.8478 272.836 91.9158 272.809 91.8954 272.932C91.873 273.058 91.873 273.186 91.8954 273.312C91.934 273.581 91.9885 273.846 92.0586 274.108C92.1838 274.557 92.35 274.994 92.555 275.414C92.7806 275.795 92.9827 276.19 93.1602 276.597Z" fill="#263238"/>
<path d="M92.9222 276.597C92.8746 276.597 93.0582 276.066 93.6566 275.468C94.0165 275.125 94.4299 274.842 94.8806 274.632C95.1491 274.507 95.4292 274.409 95.717 274.339C95.8985 274.276 96.0931 274.261 96.2823 274.294C96.4715 274.327 96.6491 274.408 96.7982 274.53C96.8776 274.622 96.9282 274.736 96.9439 274.856C96.9596 274.977 96.9397 275.1 96.8866 275.21C96.816 275.364 96.7245 275.508 96.6146 275.638C96.4203 275.873 96.191 276.078 95.9346 276.243C95.5129 276.529 95.027 276.707 94.5202 276.76C93.6566 276.835 93.1602 276.529 93.201 276.488C93.6277 276.497 94.0546 276.481 94.4794 276.44C94.9211 276.362 95.3394 276.186 95.7034 275.924C95.9156 275.772 96.1056 275.591 96.2678 275.386C96.4582 275.162 96.5602 274.931 96.465 274.87C96.3692 274.814 96.2621 274.78 96.1515 274.77C96.041 274.761 95.9297 274.776 95.8258 274.815C95.5632 274.869 95.306 274.946 95.0574 275.046C94.6343 275.215 94.238 275.444 93.881 275.726C93.2622 276.209 92.9834 276.638 92.9222 276.597Z" fill="#263238"/>
<path d="M159.861 170.775C159.331 170.986 154.353 171.884 150.008 180.751C145.663 189.618 146.357 194.97 146.357 194.97L124.923 225.522L81.2874 266.254L95.105 279.854L140.556 240.122C140.556 240.122 164.356 218.722 166.859 215.873C171.734 210.378 188.149 186.803 188.149 186.803L159.861 170.775Z" fill="#263238"/>
<path d="M167.695 205.652L176.46 227.079L144.453 235.239L146.663 250.879C146.663 250.879 196.636 244.079 199.363 241.611C202.089 239.142 203.871 236.912 203.939 234.389C204.007 231.866 188.081 181.642 188.081 181.642L170.055 195.663L167.695 205.652Z" fill="#263238"/>
<path d="M185.824 188.027C185.803 188.141 185.764 188.251 185.708 188.353C185.599 188.605 185.463 188.904 185.307 189.271C184.967 190.08 184.375 191.189 183.634 192.556C181.621 196.072 179.419 199.477 177.038 202.756C174.284 206.618 171.653 210.011 169.701 212.425C168.729 213.636 167.919 214.608 167.355 215.268L166.675 216.022C166.599 216.112 166.515 216.194 166.423 216.267C166.478 216.163 166.544 216.065 166.621 215.975L167.226 215.179L169.477 212.276C171.374 209.821 173.978 206.407 176.725 202.552C179.473 198.696 181.832 195.119 183.389 192.44C184.151 191.08 184.749 190.006 185.157 189.217L185.64 188.36C185.749 188.122 185.81 188.02 185.824 188.027Z" fill="#455A64"/>
<path d="M186.599 231.275C186.544 231.309 186.198 230.71 185.45 229.915C185.008 229.457 184.523 229.042 184.001 228.677C183.361 228.24 182.678 227.871 181.961 227.576C181.234 227.298 180.48 227.1 179.71 226.984C179.08 226.894 178.442 226.864 177.806 226.896C176.718 226.964 176.059 227.161 176.045 227.1C176.032 227.038 176.195 227.011 176.494 226.916C176.913 226.778 177.347 226.689 177.786 226.651C178.439 226.573 179.098 226.573 179.751 226.651C180.552 226.753 181.337 226.952 182.09 227.242C182.836 227.547 183.543 227.937 184.198 228.405C184.729 228.802 185.213 229.259 185.64 229.765C185.933 230.094 186.188 230.455 186.402 230.84C186.544 231.105 186.619 231.261 186.599 231.275Z" fill="#455A64"/>
<path d="M186.232 225.216C184.704 225.636 183.147 225.938 181.574 226.12C180.019 226.421 178.444 226.607 176.861 226.678C178.389 226.258 179.946 225.956 181.519 225.774C183.075 225.474 184.649 225.287 186.232 225.216Z" fill="#455A64"/>
<path d="M166.45 216.24C166.401 216.305 166.346 216.367 166.287 216.424L165.777 216.934L163.785 218.885C162.058 220.578 159.528 222.999 156.38 225.957C150.076 231.887 141.229 239.918 131.301 248.615C121.373 257.312 112.302 265.084 105.747 270.722L97.9812 277.44L95.88 279.222C95.642 279.412 95.4584 279.568 95.3224 279.684L95.1252 279.834C95.1252 279.834 95.1796 279.766 95.2952 279.657L95.8324 279.167L97.8724 277.311C99.7084 275.699 102.333 273.401 105.57 270.552L131.056 248.363C140.978 239.673 149.852 231.676 156.216 225.794C159.385 222.856 161.942 220.47 163.696 218.81L165.736 216.906L166.274 216.417C166.382 216.308 166.444 216.24 166.45 216.24Z" fill="#455A64"/>
<path d="M249.648 70.04L253.225 63.92C253.225 63.92 255.041 57.8 255.544 57.3172C256.047 56.8344 256.612 56.6372 256.986 56.9296C257.36 57.222 262.82 58.7384 263.201 58.9696C263.582 59.2008 263.201 62.6008 263.201 62.6008L263.16 63.4168C263.16 63.4168 265.275 62.7368 266.104 63.4168C266.506 63.75 265.853 65.2936 264.54 65.8784C262.7 66.741 261.029 67.9246 259.604 69.3736C259.148 69.8129 258.549 70.0715 257.917 70.1012C257.564 70.1012 257.278 70.1012 257.387 70.0196C257.795 69.6932 253.987 74.7796 253.987 74.7796L249.648 70.04Z" fill="#B78876"/>
<path d="M266.084 63.4168C265.768 63.2738 265.424 63.204 265.078 63.2128C264.23 63.2838 263.397 63.4738 262.602 63.7772C261.778 64.102 260.904 64.2837 260.019 64.3144C259.642 64.3463 259.265 64.2556 258.944 64.056C258.944 64.0016 259.359 64.1172 260.012 64.056C260.857 63.9575 261.687 63.7518 262.48 63.444C263.309 63.1239 264.189 62.9602 265.078 62.9612C265.359 62.9673 265.633 63.047 265.873 63.1924C266.05 63.3012 266.098 63.41 266.084 63.4168Z" fill="#AA6550"/>
<path d="M258.801 60.146C258.842 60.146 258.951 60.384 259.332 60.5608C259.6 60.6552 259.885 60.6902 260.168 60.6632C260.451 60.6362 260.725 60.5479 260.97 60.4044L261.27 60.2548L261.188 60.588C261.052 61.1578 261.02 61.7475 261.093 62.3288V62.4512V62.6416H260.909C260.598 62.6348 260.292 62.5605 260.012 62.424C259.915 62.3732 259.81 62.3421 259.701 62.3328C259.592 62.3235 259.483 62.336 259.379 62.3696C259.297 62.4143 259.227 62.4788 259.176 62.5571C259.125 62.6354 259.095 62.7252 259.087 62.8184C259.081 62.9972 259.126 63.1739 259.216 63.3284C259.374 63.5676 259.58 63.7713 259.821 63.9268C259.991 64.0492 260.086 64.124 260.073 64.1444C260.059 64.1648 259.944 64.1444 259.746 64.0424C259.456 63.9153 259.204 63.7163 259.012 63.4644C258.864 63.2696 258.789 63.0288 258.801 62.7844C258.806 62.6378 258.847 62.4946 258.922 62.3685C258.997 62.2424 259.103 62.1375 259.23 62.0636C259.371 62.001 259.524 61.9687 259.678 61.9687C259.833 61.9687 259.986 62.001 260.127 62.0636C260.362 62.1742 260.616 62.2367 260.875 62.2472L260.719 62.4512V62.322C260.636 61.6955 260.684 61.0586 260.862 60.452L261.079 60.6424C260.75 60.7848 260.397 60.8677 260.039 60.8872C259.75 60.8949 259.465 60.8219 259.216 60.6764C258.822 60.4656 258.774 60.146 258.801 60.146Z" fill="#AA6550"/>
<path d="M258.121 63.6888C258.033 63.6276 258.509 62.9 258.801 61.9004C258.954 61.4994 258.994 61.0644 258.917 60.6424C258.842 60.3364 258.679 60.1868 258.706 60.146C258.733 60.1052 258.985 60.2004 259.155 60.5608C259.326 61.0238 259.326 61.5326 259.155 61.9956C259.023 62.6649 258.656 63.2652 258.121 63.6888Z" fill="#AA6550"/>
<path d="M199.723 73.6236C201.564 72.504 203.646 71.8396 205.795 71.6856C206.869 71.6198 207.943 71.812 208.927 72.2462C209.912 72.6803 210.778 73.3438 211.453 74.1812C212.432 75.5412 212.813 77.3364 214.078 78.3904C215.846 79.8456 218.464 79.2064 220.714 79.6144C221.177 79.7028 221.7 79.8932 221.83 80.342C221.855 80.5434 221.836 80.7479 221.775 80.9415C221.714 81.1351 221.612 81.3133 221.476 81.464L219.205 84.864C219.651 85.1503 220.157 85.3314 220.683 85.3939C221.21 85.4563 221.744 85.3984 222.244 85.2244C221.794 87.6291 220.508 89.797 218.613 91.3444C218.73 91.3052 218.854 91.2909 218.977 91.3024C219.099 91.3139 219.218 91.3509 219.326 91.4111C219.434 91.4713 219.527 91.5533 219.601 91.6519C219.675 91.7505 219.728 91.8635 219.756 91.9836C219.845 92.4764 219.763 92.9849 219.524 93.4252C218.917 94.831 218.015 96.0902 216.88 97.1176C215.745 98.1451 214.402 98.9169 212.942 99.381C211.483 99.8451 209.941 99.9906 208.421 99.8078C206.9 99.625 205.437 99.118 204.129 98.3212" fill="#263238"/>
<path d="M201.022 73.3244C199.898 72.3984 198.501 71.8674 197.047 71.8133C195.592 71.7593 194.159 72.1851 192.97 73.0252C191.359 74.2152 190.407 76.0784 189.312 77.7852C188.217 79.492 186.762 81.1308 184.79 81.5048C183.192 81.8108 181.478 81.2192 179.942 81.7428C178.276 82.3072 177.262 84.0888 177.079 85.8228C177 87.5872 177.259 89.3504 177.84 91.018C177.362 91.3861 176.815 91.655 176.231 91.8092C175.647 91.9633 175.038 91.9995 174.44 91.9156C174.857 93.1749 175.677 94.2621 176.773 95.0096C177.514 95.3906 178.189 95.8889 178.772 96.4852C179.225 97.1805 179.462 97.9946 179.452 98.8244C179.483 99.301 179.622 99.7644 179.856 100.18C180.091 100.596 180.417 100.954 180.808 101.227C181.2 101.5 181.649 101.681 182.12 101.757C182.592 101.833 183.074 101.803 183.532 101.667C184.514 101.375 185.464 100.985 186.368 100.504C186.368 100.504 185.402 101.81 186.898 103.224C187.501 103.157 188.078 102.945 188.583 102.608C189.087 102.271 189.502 101.817 189.795 101.286" fill="#263238"/>
<path d="M213.017 87.3052C213.332 84.2754 212.497 81.2377 210.677 78.7952C208.857 76.3527 206.184 74.6839 203.191 74.12L202.572 73.9976C195.84 73.134 191.345 78.37 190.665 85.1292L186.143 116.083L201.416 118.918L203.143 108.895C203.143 108.895 209.733 109.106 211.018 102.714C211.636 99.6132 212.398 93.16 213.017 87.3052Z" fill="#B78876"/>
<path d="M209.631 91.5144C209.589 91.7533 209.455 91.9662 209.258 92.1074C209.061 92.2486 208.816 92.3067 208.577 92.2692C208.459 92.2558 208.346 92.2191 208.243 92.1614C208.14 92.1037 208.049 92.0261 207.976 91.9331C207.904 91.8401 207.85 91.7335 207.819 91.6196C207.788 91.5057 207.779 91.3867 207.795 91.2696C207.835 91.0295 207.968 90.8148 208.165 90.6723C208.362 90.5297 208.608 90.4707 208.849 90.508C208.967 90.5214 209.081 90.5582 209.184 90.6164C209.288 90.6745 209.379 90.7528 209.451 90.8465C209.524 90.9403 209.578 91.0477 209.608 91.1624C209.639 91.2771 209.647 91.3968 209.631 91.5144Z" fill="#263238"/>
<path d="M211.052 90.1748C210.916 90.2768 210.317 89.6308 209.338 89.4472C208.359 89.2636 207.536 89.624 207.455 89.4812C207.373 89.3384 207.57 89.2296 207.924 89.0596C208.406 88.8447 208.942 88.783 209.461 88.8828C209.98 88.9734 210.457 89.2284 210.821 89.6104C211.059 89.9028 211.12 90.134 211.052 90.1748Z" fill="#263238"/>
<path d="M200.777 90.9092C200.641 91.0044 200.049 90.3652 199.063 90.1816C198.077 89.998 197.268 90.3516 197.18 90.1816C197.091 90.0116 197.295 89.9232 197.656 89.7532C198.135 89.5376 198.67 89.4758 199.186 89.5764C199.705 89.6684 200.181 89.9232 200.546 90.304C200.784 90.6304 200.845 90.8616 200.777 90.9092Z" fill="#263238"/>
<path d="M203.544 96.5124C204.093 96.442 204.648 96.442 205.197 96.5124C205.455 96.5124 205.7 96.5124 205.775 96.3696C205.856 96.1175 205.856 95.8465 205.775 95.5944C205.652 94.9144 205.523 94.2344 205.394 93.5544C204.87 90.6372 204.544 88.2572 204.666 88.2368C204.789 88.2164 205.299 90.5624 205.816 93.4796C205.938 94.2004 206.054 94.8872 206.169 95.5196C206.271 95.8538 206.249 96.2132 206.108 96.5328C206.053 96.6112 205.983 96.6772 205.901 96.7264C205.819 96.7756 205.727 96.8069 205.632 96.8184C205.485 96.8363 205.337 96.8363 205.19 96.8184C204.631 96.7838 204.078 96.681 203.544 96.5124Z" fill="#263238"/>
<path d="M200.518 96.6484C200.682 96.6484 200.484 97.7364 201.253 98.6884C202.021 99.6404 203.184 99.7152 203.164 99.8716C203.143 100.028 202.871 100.028 202.388 99.9532C201.762 99.8422 201.194 99.5149 200.784 99.0284C200.391 98.5604 200.196 97.9581 200.24 97.3488C200.28 96.866 200.45 96.628 200.518 96.6484Z" fill="#263238"/>
<path d="M201.919 86.0472C201.804 86.3124 200.811 86.1084 199.635 86.1628C198.458 86.2172 197.479 86.462 197.343 86.2104C197.282 86.088 197.465 85.8432 197.867 85.612C198.396 85.3186 198.989 85.1576 199.594 85.1428C200.199 85.1171 200.803 85.2336 201.355 85.4828C201.77 85.68 201.96 85.918 201.919 86.0472Z" fill="#263238"/>
<path d="M211.684 86.36C211.426 86.5436 210.637 86.1628 209.644 85.9724C208.651 85.782 207.767 85.7956 207.604 85.5304C207.536 85.4012 207.706 85.1972 208.114 85.0544C208.674 84.8792 209.269 84.8534 209.841 84.9796C210.415 85.0853 210.95 85.3411 211.392 85.7208C211.718 86.0404 211.793 86.292 211.684 86.36Z" fill="#263238"/>
<path d="M190.74 90.032C190.638 89.964 186.585 87.9036 185.905 92.3032C185.225 96.7028 189.781 96.4852 189.809 96.3832C189.836 96.2812 190.74 90.032 190.74 90.032Z" fill="#B78876"/>
<path d="M189.108 94.554C189.108 94.554 189.02 94.5948 188.884 94.6356C188.689 94.6883 188.481 94.6614 188.306 94.5608C188.051 94.3346 187.86 94.0451 187.752 93.7216C187.645 93.398 187.625 93.0519 187.694 92.718C187.744 92.3403 187.876 91.9782 188.081 91.6572C188.145 91.5239 188.24 91.4082 188.358 91.3205C188.477 91.2327 188.615 91.1755 188.761 91.154C188.853 91.1463 188.944 91.1697 189.02 91.2203C189.097 91.2708 189.154 91.3457 189.183 91.4328C189.224 91.5688 189.183 91.6504 189.183 91.664C189.183 91.6776 189.285 91.6028 189.278 91.4192C189.273 91.305 189.227 91.1964 189.149 91.1132C189.096 91.058 189.033 91.0138 188.963 90.9835C188.893 90.9531 188.817 90.9371 188.741 90.9364C188.555 90.9456 188.375 91.0015 188.217 91.099C188.059 91.1965 187.928 91.3323 187.837 91.494C187.588 91.8442 187.432 92.2509 187.381 92.6772C187.3 93.0665 187.335 93.4708 187.482 93.8405C187.628 94.2102 187.879 94.5291 188.204 94.758C188.316 94.8117 188.439 94.8396 188.564 94.8396C188.689 94.8396 188.812 94.8117 188.924 94.758C189.081 94.6628 189.122 94.5676 189.108 94.554Z" fill="#AA6550"/>
<path d="M197.234 77.52C198.574 77.4667 199.888 77.8936 200.94 78.7236L201.62 79.2608L212.827 82.6608C215.744 81.7428 214.397 78.982 212.113 77.758C209.44 76.3232 206.584 73.746 203.613 73.1408C200.641 72.5356 195.194 73.44 192.515 76.3912C191.592 77.376 190.869 78.5307 190.387 79.7912C189.525 82.8936 189.057 86.092 188.993 89.3112C189.135 90.3252 189.467 91.3033 189.972 92.1944C190.978 92.378 191.502 91.6436 191.529 90.6236L192.073 86.6864C193.229 86.0784 194.155 85.1101 194.711 83.9284C195.267 82.7467 195.422 81.416 195.153 80.138C195.153 80.138 195.153 80.1788 195.153 80.138C195.06 79.8234 195.044 79.4908 195.106 79.1685C195.168 78.8463 195.307 78.5438 195.512 78.2868C195.716 78.0299 195.979 77.826 196.279 77.6925C196.579 77.559 196.907 77.4998 197.234 77.52Z" fill="#263238"/>
<path d="M195.255 78.6896C195.745 77.3296 198.179 76.8264 199.471 77.486C200.763 78.1456 201.593 79.4308 202.47 80.58C203.347 81.7292 204.476 82.8784 205.918 83.0348C207.359 83.1912 209.039 82.2596 210.372 82.96C210.91 83.3499 211.427 83.7676 211.922 84.2112C212.368 84.4696 212.866 84.6235 213.38 84.6612C213.893 84.6989 214.409 84.6194 214.887 84.4288C215.837 84.0449 216.725 83.52 217.519 82.8716C214.676 82.4296 212.255 80.648 209.984 78.88C207.713 77.112 205.374 75.2624 202.565 74.6436C199.757 74.0248 196.35 75.0652 195.255 77.7172" fill="#263238"/>
<path d="M179.84 96.492C179.84 96.492 179.976 96.5668 180.241 96.628C180.635 96.7022 181.043 96.6245 181.383 96.4104C181.646 96.2414 181.864 96.0104 182.017 95.7377C182.17 95.465 182.253 95.159 182.26 94.8464C182.28 94.0014 182.064 93.1676 181.635 92.4392C181.104 91.5284 180.689 90.5554 180.397 89.5424C180.228 88.9433 180.189 88.3151 180.281 87.6996C180.374 87.0841 180.597 86.4953 180.934 85.9724C181.34 85.4197 181.908 85.0082 182.56 84.796C183.219 84.5908 183.909 84.4989 184.6 84.524C185.96 84.524 187.422 84.7756 188.775 84.3812C189.433 84.1868 190.008 83.7774 190.407 83.2184C190.779 82.6512 191.027 82.0115 191.134 81.3416C191.393 80.0224 191.284 78.676 191.508 77.4044C191.602 76.7774 191.795 76.1692 192.08 75.6024C192.359 75.0585 192.782 74.6021 193.304 74.2832C193.776 74.0212 194.296 73.8556 194.833 73.7961C195.37 73.7365 195.913 73.7842 196.432 73.9364C197.28 74.1746 198.064 74.6024 198.723 75.1876C199.215 75.6175 199.67 76.0884 200.083 76.5952C200.423 77.01 200.668 77.35 200.831 77.5744C200.92 77.6878 201 77.8083 201.069 77.9348C200.96 77.8417 200.862 77.7368 200.777 77.622C200.573 77.3772 200.308 77.0712 199.974 76.6904C199.56 76.1997 199.105 75.7447 198.614 75.3304C197.967 74.7862 197.208 74.3914 196.391 74.1744C195.906 74.0377 195.398 73.9979 194.898 74.0574C194.397 74.1169 193.913 74.2745 193.474 74.5212C193.007 74.862 192.62 75.2999 192.34 75.8047C192.059 76.3096 191.892 76.8693 191.848 77.4452C191.644 78.6692 191.76 80.0156 191.495 81.4028C191.387 82.1308 191.122 82.8268 190.72 83.4428C190.278 84.0677 189.638 84.5254 188.904 84.7416C187.422 85.17 185.966 84.898 184.613 84.898C183.958 84.8706 183.303 84.9534 182.675 85.1428C182.089 85.3308 181.575 85.6969 181.206 86.19C180.893 86.675 180.685 87.2204 180.596 87.7909C180.507 88.3614 180.539 88.9442 180.69 89.5016C180.963 90.4982 181.358 91.4574 181.866 92.3576C182.298 93.131 182.505 94.0093 182.464 94.894C182.446 95.2329 182.344 95.5619 182.169 95.8524C181.993 96.1429 181.749 96.3858 181.458 96.56C181.274 96.6669 181.07 96.7363 180.859 96.7643C180.648 96.7923 180.433 96.7784 180.227 96.7232C180.081 96.6783 179.948 96.599 179.84 96.492Z" fill="#455A64"/>
<path d="M217.906 80.3284C217.906 80.3284 217.859 80.3896 217.736 80.4712C217.559 80.5941 217.37 80.6989 217.172 80.784C216.435 81.0992 215.63 81.2231 214.833 81.1444C213.635 81.0524 212.507 80.5449 211.643 79.7096C211.146 79.2055 210.759 78.6034 210.508 77.9416C210.265 77.2567 209.976 76.5888 209.644 75.9424C209.288 75.3565 208.789 74.87 208.195 74.5277C207.601 74.1854 206.93 73.9984 206.244 73.984C205.685 73.9699 205.129 74.0789 204.617 74.3034C204.105 74.5278 203.648 74.8622 203.279 75.2828C202.765 75.8615 202.411 76.5648 202.253 77.3228C202.151 77.86 202.171 78.166 202.137 78.166C202.103 78.166 202.137 78.0912 202.096 77.9484C202.071 77.7224 202.071 77.4944 202.096 77.2684C202.21 76.4725 202.547 75.7251 203.069 75.1128C203.452 74.6475 203.936 74.2745 204.483 74.0214C205.03 73.7683 205.628 73.6416 206.231 73.6508C206.973 73.6594 207.7 73.8575 208.344 74.2265C208.988 74.5955 209.527 75.1229 209.909 75.7588C210.251 76.4166 210.544 77.0984 210.787 77.7988C211.018 78.4221 211.374 78.9915 211.834 79.4716C212.653 80.2891 213.729 80.8005 214.88 80.92C215.641 81.0152 216.414 80.9314 217.138 80.6752C217.634 80.478 217.886 80.2944 217.906 80.3284Z" fill="#455A64"/>
<path d="M185.368 79.56C185.368 79.56 185.422 79.4852 185.484 79.3288C185.571 79.1106 185.571 78.867 185.484 78.6488C185.422 78.4775 185.308 78.3299 185.158 78.2263C185.008 78.1227 184.829 78.0684 184.647 78.0708C184.407 78.0899 184.179 78.1814 183.992 78.3331C183.805 78.4849 183.668 78.6898 183.6 78.9208C183.539 79.2084 183.564 79.5074 183.67 79.7815C183.776 80.0555 183.96 80.2928 184.198 80.4644C184.485 80.6592 184.809 80.792 185.15 80.854C185.49 80.9161 185.841 80.9062 186.177 80.8248C186.943 80.6752 187.641 80.2844 188.17 79.7096C188.707 79.0534 189.088 78.2838 189.285 77.4588C189.503 76.5994 189.852 75.7784 190.318 75.0244C190.775 74.3284 191.35 73.7184 192.018 73.2224C192.964 72.5221 194.077 72.081 195.246 71.9426C196.414 71.8043 197.599 71.9735 198.682 72.4336C198.917 72.535 199.145 72.6532 199.362 72.7872C199.505 72.8756 199.58 72.93 199.573 72.9436C199.566 72.9572 199.24 72.7872 198.635 72.5628C197.775 72.2527 196.863 72.1118 195.949 72.148C194.593 72.2029 193.289 72.6782 192.216 73.508C191.583 73.9851 191.04 74.5697 190.611 75.2352C190.166 75.9665 189.832 76.7593 189.618 77.588C189.407 78.4615 189 79.2755 188.428 79.968C187.845 80.5907 187.077 81.0101 186.238 81.1648C185.858 81.2508 185.464 81.2552 185.082 81.1778C184.7 81.1005 184.339 80.9431 184.022 80.716C183.741 80.5087 183.527 80.2238 183.406 79.8963C183.285 79.5689 183.263 79.2132 183.342 78.8732C183.429 78.5978 183.6 78.356 183.83 78.1808C184.06 78.0057 184.338 77.9055 184.627 77.894C184.876 77.8866 185.119 77.9741 185.307 78.1388C185.45 78.2708 185.558 78.4369 185.62 78.6216C185.667 78.7465 185.688 78.88 185.681 79.0135C185.674 79.147 185.639 79.2776 185.579 79.3968C185.456 79.56 185.375 79.594 185.368 79.56Z" fill="#263238"/>
<path d="M199.723 73.6236C201.564 72.504 203.646 71.8396 205.795 71.6856C206.869 71.6198 207.943 71.812 208.927 72.2462C209.912 72.6803 210.778 73.3438 211.453 74.1812C212.432 75.5412 212.813 77.3364 214.078 78.3904C215.846 79.8456 218.464 79.2064 220.714 79.6144C221.177 79.7028 221.7 79.8932 221.83 80.342C221.855 80.5434 221.836 80.7479 221.775 80.9415C221.714 81.1351 221.612 81.3133 221.476 81.464L219.205 84.864C219.651 85.1503 220.157 85.3314 220.683 85.3939C221.21 85.4563 221.744 85.3984 222.244 85.2244C221.794 87.6291 220.508 89.797 218.613 91.3444C218.73 91.3052 218.854 91.2909 218.977 91.3024C219.099 91.3139 219.218 91.3509 219.326 91.4111C219.434 91.4713 219.527 91.5533 219.601 91.6519C219.675 91.7505 219.728 91.8635 219.756 91.9836C219.845 92.4764 219.763 92.9849 219.524 93.4252C218.917 94.831 218.015 96.0902 216.88 97.1176C215.745 98.1451 214.402 98.9169 212.942 99.381C211.483 99.8451 209.941 99.9906 208.421 99.8078C206.9 99.625 205.437 99.118 204.129 98.3212" fill="#263238"/>
<path d="M201.022 73.3244C199.898 72.3984 198.501 71.8674 197.047 71.8133C195.592 71.7593 194.159 72.1851 192.97 73.0252C191.359 74.2152 190.407 76.0784 189.312 77.7852C188.217 79.492 186.762 81.1308 184.79 81.5048C183.192 81.8108 181.478 81.2192 179.942 81.7428C178.276 82.3072 177.262 84.0888 177.079 85.8228C177 87.5872 177.259 89.3504 177.84 91.018C177.362 91.3861 176.815 91.655 176.231 91.8092C175.647 91.9633 175.038 91.9995 174.44 91.9156C174.857 93.1749 175.677 94.2621 176.773 95.0096C177.514 95.3906 178.189 95.8889 178.772 96.4852C179.225 97.1805 179.462 97.9946 179.452 98.8244C179.483 99.301 179.622 99.7644 179.856 100.18C180.091 100.596 180.417 100.954 180.808 101.227C181.2 101.5 181.649 101.681 182.12 101.757C182.592 101.833 183.074 101.803 183.532 101.667C184.514 101.375 185.464 100.985 186.368 100.504C186.368 100.504 185.402 101.81 186.898 103.224C187.501 103.157 188.078 102.945 188.583 102.608C189.087 102.271 189.502 101.817 189.795 101.286" fill="#263238"/>
<path d="M213.017 87.3052C213.332 84.2754 212.497 81.2377 210.677 78.7952C208.857 76.3527 206.184 74.6839 203.191 74.12L202.572 73.9976C195.84 73.134 191.345 78.37 190.665 85.1292L186.143 116.083L201.416 118.918L203.143 108.895C203.143 108.895 209.733 109.106 211.018 102.714C211.636 99.6132 212.398 93.16 213.017 87.3052Z" fill="#B78876"/>
<path d="M203.198 108.875C200.224 108.317 197.472 106.917 195.269 104.842C195.269 104.842 196.377 109.82 202.871 110.446L203.198 108.875Z" fill="#AA6550"/>
<path d="M209.631 91.5144C209.589 91.7533 209.455 91.9662 209.258 92.1074C209.061 92.2486 208.816 92.3067 208.577 92.2692C208.459 92.2558 208.346 92.2191 208.243 92.1614C208.14 92.1037 208.049 92.0261 207.976 91.9331C207.904 91.8401 207.85 91.7335 207.819 91.6196C207.788 91.5057 207.779 91.3867 207.795 91.2696C207.835 91.0295 207.968 90.8148 208.165 90.6723C208.362 90.5297 208.608 90.4707 208.849 90.508C208.967 90.5214 209.081 90.5582 209.184 90.6164C209.288 90.6745 209.379 90.7528 209.451 90.8465C209.524 90.9403 209.578 91.0477 209.608 91.1624C209.639 91.2771 209.647 91.3968 209.631 91.5144Z" fill="#263238"/>
<path d="M211.052 90.1748C210.916 90.2768 210.317 89.6308 209.338 89.4472C208.359 89.2636 207.536 89.624 207.455 89.4812C207.373 89.3384 207.57 89.2296 207.924 89.0596C208.406 88.8447 208.942 88.783 209.461 88.8828C209.98 88.9734 210.457 89.2284 210.821 89.6104C211.059 89.9028 211.12 90.134 211.052 90.1748Z" fill="#263238"/>
<path d="M200.777 90.9092C200.641 91.0044 200.049 90.3652 199.063 90.1816C198.077 89.998 197.268 90.3516 197.18 90.1816C197.091 90.0116 197.295 89.9232 197.656 89.7532C198.135 89.5376 198.67 89.4758 199.186 89.5764C199.705 89.6684 200.181 89.9232 200.546 90.304C200.784 90.6304 200.845 90.8616 200.777 90.9092Z" fill="#263238"/>
<path d="M203.544 96.5124C204.093 96.442 204.648 96.442 205.197 96.5124C205.455 96.5124 205.7 96.5124 205.775 96.3696C205.856 96.1175 205.856 95.8465 205.775 95.5944C205.652 94.9144 205.523 94.2344 205.394 93.5544C204.87 90.6372 204.544 88.2572 204.666 88.2368C204.789 88.2164 205.299 90.5624 205.816 93.4796C205.938 94.2004 206.054 94.8872 206.169 95.5196C206.271 95.8538 206.249 96.2132 206.108 96.5328C206.053 96.6112 205.983 96.6772 205.901 96.7264C205.819 96.7756 205.727 96.8069 205.632 96.8184C205.485 96.8363 205.337 96.8363 205.19 96.8184C204.631 96.7838 204.078 96.681 203.544 96.5124Z" fill="#263238"/>
<path d="M200.518 96.6484C200.682 96.6484 200.484 97.7364 201.253 98.6884C202.021 99.6404 203.184 99.7152 203.164 99.8716C203.143 100.028 202.871 100.028 202.388 99.9532C201.762 99.8422 201.194 99.5149 200.784 99.0284C200.391 98.5604 200.196 97.9581 200.24 97.3488C200.28 96.866 200.45 96.628 200.518 96.6484Z" fill="#263238"/>
<path d="M201.919 86.0472C201.804 86.3124 200.811 86.1084 199.635 86.1628C198.458 86.2172 197.479 86.462 197.343 86.2104C197.282 86.088 197.465 85.8432 197.867 85.612C198.396 85.3186 198.989 85.1576 199.594 85.1428C200.199 85.1171 200.803 85.2336 201.355 85.4828C201.77 85.68 201.96 85.918 201.919 86.0472Z" fill="#263238"/>
<path d="M211.684 86.36C211.426 86.5436 210.637 86.1628 209.644 85.9724C208.651 85.782 207.767 85.7956 207.604 85.5304C207.536 85.4012 207.706 85.1972 208.114 85.0544C208.674 84.8792 209.269 84.8534 209.841 84.9796C210.415 85.0853 210.95 85.3411 211.392 85.7208C211.718 86.0404 211.793 86.292 211.684 86.36Z" fill="#263238"/>
<path d="M190.74 90.032C190.638 89.964 186.585 87.9036 185.905 92.3032C185.225 96.7028 189.781 96.4852 189.809 96.3832C189.836 96.2812 190.74 90.032 190.74 90.032Z" fill="#B78876"/>
<path d="M189.108 94.554C189.108 94.554 189.02 94.5948 188.884 94.6356C188.689 94.6883 188.481 94.6614 188.306 94.5608C188.051 94.3346 187.86 94.0451 187.752 93.7216C187.645 93.398 187.625 93.0519 187.694 92.718C187.744 92.3403 187.876 91.9782 188.081 91.6572C188.145 91.5239 188.24 91.4082 188.358 91.3205C188.477 91.2327 188.615 91.1755 188.761 91.154C188.853 91.1463 188.944 91.1697 189.02 91.2203C189.097 91.2708 189.154 91.3457 189.183 91.4328C189.224 91.5688 189.183 91.6504 189.183 91.664C189.183 91.6776 189.285 91.6028 189.278 91.4192C189.273 91.305 189.227 91.1964 189.149 91.1132C189.096 91.058 189.033 91.0138 188.963 90.9835C188.893 90.9531 188.817 90.9371 188.741 90.9364C188.555 90.9456 188.375 91.0015 188.217 91.099C188.059 91.1965 187.928 91.3323 187.837 91.494C187.588 91.8442 187.432 92.2509 187.381 92.6772C187.3 93.0665 187.335 93.4708 187.482 93.8405C187.628 94.2102 187.879 94.5291 188.204 94.758C188.316 94.8117 188.439 94.8396 188.564 94.8396C188.689 94.8396 188.812 94.8117 188.924 94.758C189.081 94.6628 189.122 94.5676 189.108 94.554Z" fill="#AA6550"/>
<path d="M197.234 77.52C198.574 77.4667 199.888 77.8936 200.94 78.7236L201.62 79.2608L212.827 82.6608C215.744 81.7428 214.397 78.982 212.113 77.758C209.44 76.3232 206.584 73.746 203.613 73.1408C200.641 72.5356 195.194 73.44 192.515 76.3912C191.592 77.376 190.869 78.5307 190.387 79.7912C189.525 82.8936 189.057 86.092 188.993 89.3112C189.135 90.3252 189.467 91.3033 189.972 92.1944C190.978 92.378 191.502 91.6436 191.529 90.6236L192.073 86.6864C193.229 86.0784 194.155 85.1101 194.711 83.9284C195.267 82.7467 195.422 81.416 195.153 80.138C195.153 80.138 195.153 80.1788 195.153 80.138C195.06 79.8234 195.044 79.4908 195.106 79.1685C195.168 78.8463 195.307 78.5438 195.512 78.2868C195.716 78.0299 195.979 77.826 196.279 77.6925C196.579 77.559 196.907 77.4998 197.234 77.52Z" fill="#263238"/>
<path d="M195.255 78.6896C195.745 77.3296 198.179 76.8264 199.471 77.486C200.763 78.1456 201.593 79.4308 202.47 80.58C203.347 81.7292 204.476 82.8784 205.918 83.0348C207.359 83.1912 209.039 82.2596 210.372 82.96C210.91 83.3499 211.427 83.7676 211.922 84.2112C212.368 84.4696 212.866 84.6235 213.38 84.6612C213.893 84.6989 214.409 84.6194 214.887 84.4288C215.837 84.0449 216.725 83.52 217.519 82.8716C214.676 82.4296 212.255 80.648 209.984 78.88C207.713 77.112 205.374 75.2624 202.565 74.6436C199.757 74.0248 196.35 75.0652 195.255 77.7172" fill="#263238"/>
<path d="M179.84 96.492C179.84 96.492 179.976 96.5668 180.241 96.628C180.635 96.7022 181.043 96.6245 181.383 96.4104C181.646 96.2414 181.864 96.0104 182.017 95.7377C182.17 95.465 182.253 95.159 182.26 94.8464C182.28 94.0014 182.064 93.1676 181.635 92.4392C181.104 91.5284 180.689 90.5554 180.397 89.5424C180.228 88.9433 180.189 88.3151 180.281 87.6996C180.374 87.0841 180.597 86.4953 180.934 85.9724C181.34 85.4197 181.908 85.0082 182.56 84.796C183.219 84.5908 183.909 84.4989 184.6 84.524C185.96 84.524 187.422 84.7756 188.775 84.3812C189.433 84.1868 190.008 83.7774 190.407 83.2184C190.779 82.6512 191.027 82.0115 191.134 81.3416C191.393 80.0224 191.284 78.676 191.508 77.4044C191.602 76.7774 191.795 76.1692 192.08 75.6024C192.359 75.0585 192.782 74.6021 193.304 74.2832C193.776 74.0212 194.296 73.8556 194.833 73.7961C195.37 73.7365 195.913 73.7842 196.432 73.9364C197.28 74.1746 198.064 74.6024 198.723 75.1876C199.215 75.6175 199.67 76.0884 200.083 76.5952C200.423 77.01 200.668 77.35 200.831 77.5744C200.92 77.6878 201 77.8083 201.069 77.9348C200.96 77.8417 200.862 77.7368 200.777 77.622C200.573 77.3772 200.308 77.0712 199.974 76.6904C199.56 76.1997 199.105 75.7447 198.614 75.3304C197.967 74.7862 197.208 74.3914 196.391 74.1744C195.906 74.0377 195.398 73.9979 194.898 74.0574C194.397 74.1169 193.913 74.2745 193.474 74.5212C193.007 74.862 192.62 75.2999 192.34 75.8047C192.059 76.3096 191.892 76.8693 191.848 77.4452C191.644 78.6692 191.76 80.0156 191.495 81.4028C191.387 82.1308 191.122 82.8268 190.72 83.4428C190.278 84.0677 189.638 84.5254 188.904 84.7416C187.422 85.17 185.966 84.898 184.613 84.898C183.958 84.8706 183.303 84.9534 182.675 85.1428C182.089 85.3308 181.575 85.6969 181.206 86.19C180.893 86.675 180.685 87.2204 180.596 87.7909C180.507 88.3614 180.539 88.9442 180.69 89.5016C180.963 90.4982 181.358 91.4574 181.866 92.3576C182.298 93.131 182.505 94.0093 182.464 94.894C182.446 95.2329 182.344 95.5619 182.169 95.8524C181.993 96.1429 181.749 96.3858 181.458 96.56C181.274 96.6669 181.07 96.7363 180.859 96.7643C180.648 96.7923 180.433 96.7784 180.227 96.7232C180.081 96.6783 179.948 96.599 179.84 96.492Z" fill="#455A64"/>
<path d="M217.906 80.3284C217.906 80.3284 217.859 80.3896 217.736 80.4712C217.559 80.5941 217.37 80.6989 217.172 80.784C216.435 81.0992 215.63 81.2231 214.833 81.1444C213.635 81.0524 212.507 80.5449 211.643 79.7096C211.146 79.2055 210.759 78.6034 210.508 77.9416C210.265 77.2567 209.976 76.5888 209.644 75.9424C209.288 75.3565 208.789 74.87 208.195 74.5277C207.601 74.1854 206.93 73.9984 206.244 73.984C205.685 73.9699 205.129 74.0789 204.617 74.3034C204.105 74.5278 203.648 74.8622 203.279 75.2828C202.765 75.8615 202.411 76.5648 202.253 77.3228C202.151 77.86 202.171 78.166 202.137 78.166C202.103 78.166 202.137 78.0912 202.096 77.9484C202.071 77.7224 202.071 77.4944 202.096 77.2684C202.21 76.4725 202.547 75.7251 203.069 75.1128C203.452 74.6475 203.936 74.2745 204.483 74.0214C205.03 73.7683 205.628 73.6416 206.231 73.6508C206.973 73.6594 207.7 73.8575 208.344 74.2265C208.988 74.5955 209.527 75.1229 209.909 75.7588C210.251 76.4166 210.544 77.0984 210.787 77.7988C211.018 78.4221 211.374 78.9915 211.834 79.4716C212.653 80.2891 213.729 80.8005 214.88 80.92C215.641 81.0152 216.414 80.9314 217.138 80.6752C217.634 80.478 217.886 80.2944 217.906 80.3284Z" fill="#455A64"/>
<path d="M185.368 79.56C185.368 79.56 185.422 79.4852 185.484 79.3288C185.571 79.1106 185.571 78.867 185.484 78.6488C185.422 78.4775 185.308 78.3299 185.158 78.2263C185.008 78.1227 184.829 78.0684 184.647 78.0708C184.407 78.0899 184.179 78.1814 183.992 78.3331C183.805 78.4849 183.668 78.6898 183.6 78.9208C183.539 79.2084 183.564 79.5074 183.67 79.7815C183.776 80.0555 183.96 80.2928 184.198 80.4644C184.485 80.6592 184.809 80.792 185.15 80.854C185.49 80.9161 185.841 80.9062 186.177 80.8248C186.943 80.6752 187.641 80.2844 188.17 79.7096C188.707 79.0534 189.088 78.2838 189.285 77.4588C189.503 76.5994 189.852 75.7784 190.318 75.0244C190.775 74.3284 191.35 73.7184 192.018 73.2224C192.964 72.5221 194.077 72.081 195.246 71.9426C196.414 71.8043 197.599 71.9735 198.682 72.4336C198.917 72.535 199.145 72.6532 199.362 72.7872C199.505 72.8756 199.58 72.93 199.573 72.9436C199.566 72.9572 199.24 72.7872 198.635 72.5628C197.775 72.2527 196.863 72.1118 195.949 72.148C194.593 72.2029 193.289 72.6782 192.216 73.508C191.583 73.9851 191.04 74.5697 190.611 75.2352C190.166 75.9665 189.832 76.7593 189.618 77.588C189.407 78.4615 189 79.2755 188.428 79.968C187.845 80.5907 187.077 81.0101 186.238 81.1648C185.858 81.2508 185.464 81.2552 185.082 81.1778C184.7 81.1005 184.339 80.9431 184.022 80.716C183.741 80.5087 183.527 80.2238 183.406 79.8963C183.285 79.5689 183.263 79.2132 183.342 78.8732C183.429 78.5978 183.6 78.356 183.83 78.1808C184.06 78.0057 184.338 77.9055 184.627 77.894C184.876 77.8866 185.119 77.9741 185.307 78.1388C185.45 78.2708 185.558 78.4369 185.62 78.6216C185.667 78.7465 185.688 78.88 185.681 79.0135C185.674 79.147 185.639 79.2776 185.579 79.3968C185.456 79.56 185.375 79.594 185.368 79.56Z" fill="#263238"/>
<path d="M203.198 108.875C200.224 108.317 197.472 106.917 195.269 104.842C195.269 104.842 196.377 109.82 202.871 110.446L203.198 108.875Z" fill="#AA6550"/>
<path d="M132.852 203.204C132.852 203.204 133.844 196.003 127.86 195.561C121.876 195.119 120.659 200.321 120.659 200.321L118.225 199.369C118.225 199.369 120.659 192.127 128.86 194.011C137.061 195.894 135.177 204.211 135.177 204.211L132.852 203.204Z" fill="#FF8634"/>
<g opacity="0.3">
<path opacity="0.3" d="M132.852 203.204C132.852 203.204 133.844 196.003 127.86 195.561C121.876 195.119 120.659 200.321 120.659 200.321L118.225 199.369C118.225 199.369 120.659 192.127 128.86 194.011C137.061 195.894 135.177 204.211 135.177 204.211L132.852 203.204Z" fill="black"/>
</g>
<path d="M105.856 195.582L97.7705 228.908L142.025 238.741L149.519 205.7L105.856 195.582Z" fill="#FF8634"/>
<path d="M149.518 205.7C149.487 205.745 149.451 205.786 149.41 205.822L149.063 206.142L147.703 207.352C146.526 208.393 144.84 209.916 142.684 211.711C140.19 213.868 137.471 215.749 134.572 217.321C132.836 218.225 130.995 218.91 129.091 219.361C127.038 219.855 124.909 219.948 122.822 219.633C120.736 219.277 118.752 218.472 117.008 217.274C115.389 216.169 113.947 214.826 112.73 213.289C110.714 210.664 109.172 207.707 108.174 204.551C107.284 201.885 106.767 199.668 106.413 198.138C106.257 197.39 106.128 196.778 106.032 196.37L105.944 195.908C105.935 195.856 105.935 195.803 105.944 195.752C105.972 195.797 105.99 195.848 105.998 195.901L106.121 196.357C106.23 196.785 106.379 197.37 106.57 198.104C106.964 199.621 107.515 201.824 108.433 204.469C109.456 207.581 111.004 210.495 113.009 213.085C114.211 214.59 115.632 215.906 117.225 216.988C118.93 218.154 120.867 218.938 122.903 219.286C124.941 219.594 127.019 219.504 129.023 219.021C130.911 218.583 132.738 217.913 134.463 217.029C137.349 215.478 140.064 213.627 142.562 211.507C144.738 209.746 146.452 208.25 147.648 207.237L149.008 206.081L149.376 205.788L149.518 205.7Z" fill="#263238"/>
<path d="M136 237.395C135.912 237.354 138.72 230.398 142.29 221.85C145.86 213.302 148.811 206.407 148.9 206.441C148.988 206.475 146.18 213.438 142.616 221.986C139.053 230.534 136.054 237.429 136 237.395Z" fill="#263238"/>
<path d="M149.267 205.918C149.265 206.033 149.247 206.148 149.213 206.258C149.151 206.509 149.077 206.829 148.981 207.21C148.777 208.039 148.458 209.25 148.05 210.698C147.234 213.636 146.01 217.675 144.65 222.115C143.29 226.556 142.052 230.54 141.134 233.498C140.706 234.92 140.352 236.089 140.094 236.96C139.978 237.334 139.876 237.64 139.801 237.891C139.773 238.005 139.729 238.115 139.672 238.218C139.682 238.103 139.703 237.989 139.733 237.878L139.958 236.919C140.162 236.089 140.481 234.879 140.896 233.43C141.712 230.493 142.936 226.454 144.296 222.013C145.656 217.573 146.894 213.588 147.812 210.63C148.24 209.209 148.587 208.039 148.852 207.176C148.968 206.795 149.063 206.496 149.145 206.237C149.171 206.126 149.212 206.018 149.267 205.918Z" fill="#263238"/>
<path d="M122.547 218.293L121.217 218.047L120.758 220.528L122.088 220.774L122.547 218.293Z" fill="#263238"/>
<path d="M149.518 205.7C149.364 205.698 149.211 205.675 149.063 205.632L147.791 205.374L143.113 204.354L127.711 200.852L112.329 197.254L107.678 196.126L106.42 195.799C106.272 195.765 106.126 195.72 105.985 195.663C106.137 195.666 106.288 195.689 106.434 195.731L107.712 195.99L112.384 197.01L127.792 200.512L143.174 204.109L147.825 205.244L149.083 205.564C149.231 205.601 149.376 205.646 149.518 205.7Z" fill="#263238"/>
<path d="M128.955 182.097C128.955 182.097 124.406 189.577 124.046 190.828C123.685 192.08 122.006 193.875 123.366 194.643C123.366 194.643 122.917 195.595 124.426 196.275C124.426 196.275 124.08 197.962 126.174 198.2C126.174 198.2 127.296 199.866 128.595 199.39C128.595 199.39 130.206 200.641 131.199 199.485C131.988 198.51 132.71 197.483 133.362 196.411L134.341 197.56C134.946 196.712 135.278 195.699 135.293 194.657C135.293 193.018 133.681 190.631 134.524 188.754C134.781 188.071 135.121 187.422 135.538 186.823L128.955 182.097Z" fill="#B78876"/>
<g opacity="0.3">
<path opacity="0.3" d="M138.271 214.928C135.84 218.479 132.539 221.347 128.683 223.258C125.963 224.679 122.733 225.597 119.796 224.672C117.232 223.87 115.274 221.782 113.73 219.579C110.615 215.098 108.738 209.874 108.29 204.435C108.29 204.435 113.315 218.246 122.012 219.13C130.71 220.014 138.271 214.928 138.271 214.928Z" fill="black"/>
</g>
<path d="M127.269 177.453L129.717 184.634L135.647 175.229L133.321 168.103L127.269 177.453Z" fill="#455A64"/>
<path d="M249.648 68.17L252.028 65.1576L257.414 71.2776L255.095 75.7044L249.648 68.17Z" fill="#FAFAFA"/>
<path d="M249.648 68.17C249.816 68.3465 249.971 68.5351 250.111 68.7344L251.294 70.2848C252.287 71.604 253.66 73.4536 255.238 75.6092H254.946L256.72 72.2092C256.906 71.8692 257.083 71.5292 257.251 71.1892V71.3932C255.156 68.9996 253.293 66.8508 251.913 65.2324H252.103L250.328 67.3676C250.115 67.6441 249.888 67.9097 249.648 68.1632C249.816 67.8757 250.007 67.6028 250.22 67.3472C250.614 66.81 251.192 66.0348 251.933 65.076L252.022 64.9604L252.124 65.0692C253.552 66.6468 255.442 68.7752 257.564 71.1892L257.645 71.2844L257.584 71.3864C257.414 71.7264 257.237 72.0664 257.054 72.4132L255.272 75.8132L255.143 76.058L254.98 75.8336C253.388 73.6168 252.042 71.6992 251.104 70.346L250.016 68.7616C249.872 68.5783 249.749 68.3799 249.648 68.17Z" fill="#263238"/>
<path d="M126.541 180.363C126.541 180.363 124.501 184.178 124.46 184.212L134.395 189.332L135.524 186.823L126.541 180.363Z" fill="#FAFAFA"/>
<path d="M126.541 180.363C126.777 180.492 127.004 180.635 127.221 180.792L129.112 182.09C130.723 183.212 133.022 184.81 135.64 186.68L135.755 186.762L135.694 186.891C135.334 187.7 134.953 188.544 134.572 189.407L134.491 189.577L134.327 189.489L133.559 189.094C129.982 187.252 126.759 185.565 124.42 184.334L124.311 184.28L124.399 184.124L125.943 181.404C126.12 181.053 126.325 180.716 126.555 180.397C126.419 180.765 126.256 181.122 126.065 181.465C125.882 181.818 125.678 182.233 125.44 182.696C125.317 182.94 125.181 183.192 125.045 183.457L124.821 183.879L124.705 184.09L124.651 184.205V184.26C124.633 184.292 124.61 184.322 124.583 184.348V184.137C126.949 185.32 130.193 186.973 133.77 188.816L134.538 189.21L134.293 189.298C134.688 188.435 135.062 187.592 135.429 186.782L135.49 186.993C132.94 185.15 130.73 183.525 129.159 182.342L127.228 180.88C126.793 180.574 126.548 180.384 126.541 180.363Z" fill="#263238"/>
<path d="M183.824 179.812C193.038 179.765 203.123 183.212 209.698 189.611C212.337 184.912 211.249 179.316 209.644 174.277C208.039 169.238 205.061 164.825 202.069 160.534C201.415 159.409 200.495 158.461 199.39 157.774C197.193 156.652 194.439 157.774 192.501 159.453C189.577 161.962 187.68 165.573 186.572 169.272C185.463 172.972 185.082 176.868 184.708 180.717" fill="#455A64"/>
<path d="M202.157 114.07C202.157 114.07 202.266 110.446 204 110.446C204.997 110.459 205.986 110.629 206.931 110.949L249.159 67.32L256.401 75.8676L236.409 101.483L211.745 126.643C211.745 126.643 209.576 130.689 209.175 132.811C208.774 134.932 208.087 155.183 208.311 158.964C208.536 162.744 211.99 177.609 211.942 184.661C211.895 191.712 209.698 189.625 209.698 189.625L202.327 169.034L198.873 159.861L197.438 157.855L198.628 152.415C198.628 152.415 203.218 136.877 203.198 133.831C203.177 130.784 203.878 127.439 203.878 125.059C203.878 122.781 201.695 118.436 201.695 118.436L202.157 114.07Z" fill="#263238"/>
<path d="M187 105.978L186.075 109.052L185.572 109.276L181.907 118.028L181.288 184.668L186.81 186.17C186.81 186.17 192.025 180.05 193.746 175.678C195.466 171.306 199.016 158.27 199.016 158.27L203.844 129.424L204.524 122.237C204.624 121.208 204.471 120.17 204.079 119.214C203.687 118.257 203.067 117.411 202.273 116.749L202.518 113.914L201.158 114.594L187 105.978Z" fill="#FAFAFA"/>
<path d="M186.198 109.065C186.216 108.78 186.264 108.497 186.341 108.222C186.477 107.61 186.647 106.862 186.851 105.951L186.891 105.781L187.041 105.869C188.693 106.835 190.951 108.188 193.44 109.698C196.758 111.738 199.648 113.506 201.178 114.498H201.09C201.546 114.265 202.019 114.065 202.504 113.9C202.073 114.192 201.618 114.447 201.144 114.662H201.103H201.056C199.471 113.757 196.547 112.023 193.229 110.004C190.74 108.501 188.503 107.114 186.885 106.094L187.068 106.019C186.823 106.91 186.613 107.658 186.449 108.263C186.397 108.539 186.313 108.809 186.198 109.065Z" fill="#263238"/>
<path d="M199.92 119.748C200.016 120.114 200.081 120.487 200.117 120.863C200.226 121.584 200.355 122.631 200.478 123.937C201.106 130.732 200.951 137.577 200.015 144.337C199.832 145.629 199.662 146.676 199.519 147.39C199.468 147.766 199.384 148.137 199.267 148.498C199.279 148.12 199.317 147.743 199.383 147.37C199.485 146.649 199.614 145.602 199.764 144.303C200.07 141.719 200.383 138.128 200.478 134.157C200.573 130.186 200.41 126.589 200.226 123.957C200.138 122.658 200.049 121.604 199.981 120.877C199.929 120.503 199.909 120.125 199.92 119.748Z" fill="#263238"/>
<path d="M199.587 148.702C199.587 148.702 203.429 136.966 203.429 137.36C203.429 137.754 201.205 166.049 201.205 166.049L197.73 156.495L199.587 148.702Z" fill="#263238"/>
<path d="M193.637 169.082C193.682 168.799 193.762 168.523 193.875 168.259L194.637 166.076C195.276 164.234 196.139 161.677 197.017 158.828C197.894 155.978 198.608 153.388 199.111 151.49C199.349 150.6 199.546 149.852 199.709 149.253C199.765 148.972 199.851 148.699 199.968 148.437C199.956 148.722 199.915 149.004 199.845 149.28C199.743 149.824 199.573 150.593 199.356 151.552C198.914 153.456 198.227 156.074 197.357 158.93C196.486 161.786 195.575 164.336 194.868 166.165C194.521 167.076 194.222 167.81 194.004 168.314C193.907 168.581 193.784 168.838 193.637 169.082Z" fill="#455A64"/>
<path d="M205.659 134.076C205.732 134.295 205.771 134.524 205.775 134.756C205.819 135.374 205.819 135.994 205.775 136.612C205.649 138.662 205.096 140.664 204.15 142.487C203.211 144.35 202.171 145.942 201.484 147.247C201.018 148.112 200.6 149.002 200.233 149.913H200.165C200.213 149.804 200.24 149.743 200.253 149.75C200.267 149.756 200.253 149.818 200.253 149.94H200.185C200.439 148.98 200.799 148.052 201.26 147.172C201.94 145.812 202.926 144.214 203.857 142.412C204.779 140.623 205.353 138.676 205.551 136.673C205.693 135.041 205.598 134.082 205.659 134.076Z" fill="#455A64"/>
<path d="M202.389 115.212C202.651 115.352 202.896 115.523 203.116 115.722C203.745 116.22 204.342 116.756 204.905 117.327C205.767 118.159 206.519 119.098 207.142 120.122C207.537 120.742 207.801 121.436 207.917 122.162C207.989 122.926 207.966 123.695 207.849 124.454C207.513 126.529 206.998 128.572 206.312 130.56C205.748 132.274 205.238 133.593 204.911 134.354L204.85 134.266C205.129 134.256 205.407 134.279 205.68 134.334C205.406 134.38 205.128 134.401 204.85 134.395H204.755L204.789 134.3C205.047 133.518 205.51 132.185 206.033 130.465C206.675 128.465 207.164 126.419 207.495 124.345C207.611 123.619 207.636 122.881 207.57 122.148C207.473 121.477 207.242 120.832 206.89 120.251C206.287 119.244 205.57 118.308 204.755 117.463C204.075 116.729 203.47 116.171 203.055 115.79C202.816 115.618 202.593 115.424 202.389 115.212Z" fill="#455A64"/>
<path d="M210.759 121.224C210.652 120.677 210.602 120.121 210.61 119.564C210.562 118.24 210.37 116.924 210.039 115.641C209.694 114.368 209.04 113.199 208.135 112.241C207.455 111.52 206.836 111.248 206.87 111.187C207.022 111.212 207.168 111.267 207.298 111.35C207.661 111.533 207.999 111.761 208.305 112.03C209.301 112.979 210.018 114.183 210.379 115.512C210.721 116.823 210.884 118.175 210.861 119.53C210.891 120.097 210.857 120.665 210.759 121.224Z" fill="#455A64"/>
<path d="M203.456 151.524C202.809 151.833 202.099 151.987 201.382 151.973C200.674 152.076 199.951 152.009 199.274 151.776C200.665 151.651 202.06 151.567 203.456 151.524Z" fill="#455A64"/>
<path d="M201.178 156.339C200.689 155.852 200.293 155.281 200.009 154.652C199.616 154.086 199.324 153.455 199.145 152.789C199.631 153.281 200.027 153.854 200.315 154.482C200.702 155.05 200.994 155.677 201.178 156.339Z" fill="#455A64"/>
<path d="M173.23 112.982C173.465 113.131 173.68 113.309 173.869 113.512C174.42 114.031 174.919 114.603 175.359 115.219C176.854 117.255 177.77 119.657 178.01 122.171C178.249 124.686 177.803 127.218 176.719 129.499C176.397 130.184 176.013 130.838 175.569 131.451C175.419 131.685 175.241 131.899 175.039 132.09C174.978 132.049 175.719 131.124 176.487 129.37C177.493 127.117 177.901 124.643 177.671 122.187C177.441 119.731 176.581 117.375 175.175 115.348C174.08 113.805 173.176 113.03 173.23 112.982Z" fill="#455A64"/>
<path d="M143.875 180.751C145.527 184.3 172.38 198.431 172.38 198.431C172.38 198.431 178.691 193.637 186.776 183.75C194.861 173.862 199.587 148.696 199.587 148.696C199.587 148.696 195.099 129.186 191.944 120.979C188.789 112.771 185.545 109.113 185.545 109.113L169.096 113.125L163.941 147.648L163.642 158.345C163.642 158.345 162.33 158.678 162.33 159.256V160.521L143.875 180.751Z" fill="#263238"/>
<path d="M125.671 179.738C125.671 179.738 149.416 141.284 151.966 136.898C154.904 131.838 167.708 112.322 169.646 113.009C171.584 113.696 178.092 118.578 175.481 128.153C172.87 137.727 169.864 142.8 169.864 142.8L160.48 152.789L135.946 187.102L126.324 180.2L125.671 179.738Z" fill="#263238"/>
<path d="M198.506 151.994C198.483 152.095 198.444 152.191 198.39 152.279C198.309 152.47 198.179 152.735 198.003 153.082C197.52 154.062 196.977 155.011 196.377 155.924C195.509 157.313 194.38 158.521 193.052 159.48C191.353 160.576 189.375 161.159 187.354 161.16C183.742 161.217 180.139 160.799 176.637 159.916C175.277 159.582 174.23 159.236 173.502 158.991C173.135 158.868 172.822 158.76 172.666 158.678C172.565 158.649 172.469 158.605 172.38 158.549C172.775 158.623 173.164 158.728 173.543 158.862C174.284 159.072 175.352 159.372 176.698 159.671C180.186 160.479 183.76 160.86 187.34 160.806C189.297 160.807 191.214 160.253 192.869 159.208C194.171 158.289 195.292 157.137 196.173 155.808C196.955 154.686 197.499 153.707 197.887 153.041C198.067 152.677 198.274 152.327 198.506 151.994Z" fill="#455A64"/>
<path d="M199.322 149.6C199.196 149.52 199.08 149.427 198.975 149.321C198.73 149.097 198.424 148.811 198.036 148.464C197.227 147.71 196.064 146.608 194.718 145.166C191.062 141.46 188.556 136.774 187.503 131.675C186.755 128.758 186.089 125.963 185.463 123.434C184.844 121.197 184.356 118.927 184.001 116.634C183.784 115.06 184.049 113.457 184.763 112.037C184.968 111.661 185.222 111.313 185.518 111.003C185.591 110.921 185.671 110.843 185.756 110.772L185.851 110.704C185.477 111.133 185.153 111.603 184.885 112.105C184.239 113.511 184.019 115.076 184.253 116.606C184.638 118.879 185.147 121.128 185.776 123.345L187.85 131.58C188.895 136.623 191.339 141.271 194.902 144.99C196.221 146.452 197.356 147.574 198.132 148.356L199.022 149.26C199.132 149.364 199.233 149.478 199.322 149.6Z" fill="#455A64"/>
<path d="M185.824 184.736C185.714 184.87 185.596 184.997 185.47 185.116L184.409 186.164L180.452 189.965C178.765 191.576 176.773 193.474 174.556 195.575C174.006 196.148 173.407 196.674 172.768 197.146C172.401 197.39 171.971 197.522 171.53 197.526C171.095 197.504 170.668 197.398 170.272 197.214C168.742 196.534 167.158 195.854 165.567 195.085C160.108 192.488 154.856 189.476 149.859 186.075C147.941 184.77 146.459 183.648 145.405 182.866L144.228 181.948C144.089 181.843 143.957 181.73 143.834 181.608C143.987 181.687 144.133 181.78 144.269 181.886L145.486 182.757C146.54 183.505 148.063 184.593 149.995 185.871C155.021 189.199 160.275 192.171 165.716 194.766C167.307 195.534 168.885 196.228 170.408 196.894C170.763 197.06 171.146 197.159 171.537 197.186C171.912 197.179 172.277 197.066 172.591 196.86C173.211 196.397 173.795 195.888 174.339 195.337L180.282 189.788L184.314 186.062L185.423 185.062C185.543 184.938 185.678 184.829 185.824 184.736Z" fill="#455A64"/>
<path d="M197.744 150.219C197.71 150.219 197.921 149.947 198.383 150.049C198.521 150.087 198.644 150.169 198.733 150.281C198.822 150.393 198.873 150.531 198.88 150.674C198.88 150.859 198.81 151.036 198.683 151.17C198.557 151.304 198.384 151.385 198.2 151.395C198.028 151.423 197.852 151.397 197.696 151.32C197.54 151.243 197.412 151.12 197.329 150.967C197.262 150.841 197.237 150.696 197.256 150.555C197.276 150.413 197.339 150.281 197.438 150.178C197.503 150.112 197.585 150.065 197.675 150.041C197.764 150.017 197.859 150.017 197.948 150.042C198.07 150.083 198.111 150.144 198.098 150.164C198.084 150.185 197.819 150.103 197.622 150.341C197.578 150.412 197.554 150.493 197.554 150.576C197.554 150.659 197.578 150.74 197.622 150.81C197.68 150.894 197.76 150.961 197.854 151.003C197.947 151.045 198.05 151.061 198.152 151.048C198.247 151.041 198.337 151.002 198.407 150.936C198.476 150.87 198.521 150.783 198.533 150.688C198.53 150.604 198.505 150.522 198.459 150.452C198.414 150.381 198.35 150.324 198.274 150.287C198.002 150.151 197.758 150.28 197.744 150.219Z" fill="#455A64"/>
<path d="M172.339 170.496C172.158 170.436 171.988 170.346 171.836 170.231C171.516 170.048 171.081 169.748 170.544 169.361C169.165 168.339 167.875 167.202 166.688 165.961C165.5 164.726 164.417 163.393 163.452 161.976C163.091 161.432 162.772 160.976 162.629 160.657C162.52 160.499 162.438 160.324 162.384 160.14C162.84 160.68 163.264 161.245 163.656 161.833C164.67 163.194 165.767 164.49 166.94 165.716C168.121 166.927 169.377 168.062 170.7 169.116C171.271 169.546 171.818 170.007 172.339 170.496Z" fill="#455A64"/>
<path d="M175.998 168.64C175.795 168.574 175.603 168.481 175.427 168.361C175.073 168.164 174.57 167.858 173.958 167.47C172.365 166.444 170.826 165.337 169.347 164.152C167.867 162.971 166.45 161.711 165.104 160.378C164.587 159.861 164.186 159.44 163.914 159.134C163.642 158.828 163.499 158.658 163.52 158.637C164.134 159.125 164.722 159.645 165.281 160.194C166.349 161.174 167.845 162.493 169.572 163.88C171.299 165.267 172.911 166.43 174.094 167.28C174.757 167.691 175.393 168.146 175.998 168.64Z" fill="#455A64"/>
<path d="M171.129 139.488C170.676 140.199 170.179 140.881 169.64 141.528L165.92 146.288C164.465 148.138 163.132 149.804 162.139 150.987C161.638 151.657 161.071 152.274 160.446 152.83C160.554 152.632 160.684 152.447 160.834 152.279L161.942 150.831L165.641 146.071C167.103 144.221 168.443 142.562 169.442 141.386C169.939 140.794 170.354 140.325 170.646 140.026C170.781 139.825 170.944 139.644 171.129 139.488Z" fill="#455A64"/>
<path d="M170.639 112.758C170.639 112.758 179.479 115.124 177.602 125.508C175.726 135.891 163.88 150.11 163.88 150.11L162.819 149.899L158.324 155.761C158.324 155.761 162.003 157.121 164.886 155.727C167.77 154.333 175.086 143.045 178.629 134.076C182.838 123.4 181.492 118.68 180.132 116.205C177.092 110.684 174.046 111.717 174.046 111.717L170.639 112.758Z" fill="#455A64"/>
<path d="M200.838 114.777L198.703 117.368L199.587 119.714L201.117 120.244L202.266 117.511L200.838 114.777Z" fill="#FF8634"/>
<path d="M201.559 119.19C201.45 119.19 201.423 118.381 200.981 117.524C200.539 116.668 199.934 116.117 200.009 116.035C200.083 115.954 200.811 116.416 201.294 117.395C201.459 117.66 201.568 117.956 201.613 118.265C201.659 118.574 201.64 118.889 201.559 119.19Z" fill="#263238"/>
<path d="M199.859 119.68C199.859 119.68 200.328 122.278 199.859 123.318C198.111 127.242 194.759 123.665 191.699 120.346C188.639 117.028 184.437 108.412 179.459 106.855C174.481 105.298 168.946 105.06 165.023 108.691L163.812 113.159L168.287 113.009C168.287 113.009 174.536 107.569 179.921 112.329C185.307 117.089 191.645 128.064 195.84 128.33C200.036 128.595 201.532 126.555 201.831 124.018C202.007 122.416 201.926 120.795 201.593 119.218L199.859 119.68Z" fill="#FF8634"/>
<g opacity="0.3">
<path opacity="0.3" d="M190.693 119.129C191.915 121.951 194.038 124.288 196.731 125.773C197.244 126.096 197.838 126.266 198.445 126.262C198.771 126.221 199.085 126.11 199.365 125.938C199.645 125.765 199.885 125.535 200.07 125.263C200.425 124.711 200.657 124.09 200.75 123.44C200.89 122.643 200.958 121.836 200.954 121.026C200.989 120.683 200.928 120.337 200.777 120.027C200.678 119.887 200.53 119.79 200.362 119.754C200.194 119.719 200.02 119.748 199.873 119.836C200.047 120.774 200.072 121.733 199.947 122.679C199.869 123.159 199.681 123.614 199.398 124.009C199.115 124.404 198.745 124.728 198.315 124.957C198.315 124.957 197.03 125.44 194.97 123.631C193.445 122.228 192.016 120.724 190.693 119.129Z" fill="black"/>
</g>
<path d="M201.586 119.129C201.668 119.17 201.409 119.687 200.77 119.904C200.502 119.998 200.209 119.998 199.941 119.904C199.737 119.83 199.648 119.721 199.669 119.68C199.689 119.639 200.151 119.755 200.661 119.571C201.171 119.388 201.505 119.068 201.586 119.129Z" fill="#263238"/>
<path d="M200.961 115.709C200.892 115.355 200.858 114.995 200.859 114.634H201.001C200.301 115.781 199.453 116.83 198.479 117.756C198.161 118.112 197.774 118.401 197.343 118.606C197.207 118.645 197.065 118.657 196.924 118.639C196.784 118.622 196.649 118.576 196.527 118.504C196.304 118.368 196.094 118.21 195.901 118.034C195.126 117.388 194.31 116.674 193.474 115.994C190.074 113.064 187.354 110.364 186.15 109.113H186.211C185.87 109.169 185.524 109.192 185.178 109.181C185.507 109.073 185.847 109 186.191 108.963H186.225C187.503 110.133 190.305 112.764 193.705 115.688L196.119 117.762C196.5 118.096 196.867 118.442 197.248 118.279C197.636 118.094 197.986 117.838 198.281 117.524C199.251 116.627 200.12 115.626 200.872 114.539L201.015 114.342V114.58C201.033 114.957 201.015 115.335 200.961 115.709Z" fill="#263238"/>
</svg>
