<svg width="390" height="260" viewBox="0 0 390 260" fill="none" xmlns="http://www.w3.org/2000/svg">
<path d="M303.087 246.126L227.578 246.08C225.417 246.082 223.276 245.658 221.279 244.831C219.281 244.005 217.466 242.794 215.938 241.266C214.409 239.737 213.197 237.923 212.37 235.926C211.543 233.929 211.119 231.788 211.12 229.627L211.156 40.3468C211.156 38.1862 211.582 36.0469 212.409 34.051C213.237 32.0551 214.449 30.2418 215.978 28.7147C217.506 27.1877 219.321 25.9769 221.317 25.1515C223.314 24.3261 225.454 23.9023 227.614 23.9044L303.16 23.92C307.52 23.9255 311.7 25.6612 314.782 28.7459C317.864 31.8307 319.596 36.0124 319.597 40.3728L319.561 229.653C319.564 231.817 319.139 233.96 318.312 235.96C317.486 237.96 316.272 239.777 314.742 241.307C313.212 242.838 311.395 244.051 309.395 244.878C307.395 245.705 305.251 246.129 303.087 246.126Z" fill="#455A64"/>
<path d="M303.612 29.5568L288.922 29.4892C288.443 29.4966 287.97 29.5987 287.53 29.7895C287.09 29.9803 286.692 30.2562 286.36 30.6011C286.027 30.9461 285.765 31.3535 285.59 31.7998C285.415 32.2462 285.33 32.7227 285.34 33.202V35.8696C285.349 36.3489 285.264 36.8254 285.089 37.2718C284.914 37.7181 284.653 38.1254 284.32 38.4704C283.987 38.8154 283.589 39.0913 283.149 39.2821C282.709 39.4729 282.236 39.575 281.757 39.5824L253.12 39.4472C252.641 39.4357 252.169 39.3297 251.73 39.1351C251.292 38.9405 250.897 38.6613 250.566 38.3133C250.236 37.9654 249.978 37.5557 249.807 37.1078C249.636 36.6599 249.555 36.1825 249.569 35.7032V33.0408C249.583 32.5606 249.503 32.0823 249.331 31.6334C249.16 31.1845 248.902 30.774 248.571 30.4255C248.241 30.0769 247.844 29.7973 247.405 29.6027C246.966 29.4081 246.492 29.3024 246.012 29.2916H240.848L227.989 29.2292C224.923 29.2168 221.977 30.4226 219.799 32.5815C217.622 34.7404 216.391 37.6757 216.377 40.742L215.592 226.153C215.58 229.219 216.785 232.164 218.942 234.341C221.1 236.518 224.034 237.75 227.1 237.765L302.718 238.113C305.784 238.126 308.73 236.92 310.907 234.761C313.085 232.602 314.316 229.667 314.33 226.6L315.12 41.1684C315.127 39.6504 314.835 38.1458 314.26 36.7407C313.685 35.3357 312.84 34.0575 311.771 32.9793C310.703 31.901 309.432 31.0438 308.032 30.4566C306.632 29.8694 305.13 29.5636 303.612 29.5568Z" fill="#F5F5F5"/>
<path d="M271.523 203.055C271.435 205.291 271.352 207.392 271.284 209.139H282.147L280.8 202.467L271.523 203.055Z" fill="#F5F5F5"/>
<path d="M227.375 205.847L227.469 209.139H270.197C270.27 207.288 270.353 205.239 270.431 203.122L227.375 205.847Z" fill="#F5F5F5"/>
<path d="M281.362 202.431L282.698 209.139H302.723L302.484 201.094L281.362 202.431Z" fill="#F5F5F5"/>
<path d="M272.605 108.68L276.391 86.7256L266.474 85.9924V108.68H272.605Z" fill="#EBEBEB"/>
<path d="M226.481 193.658L215.717 197.876L215.686 205.499L226.803 204.797L226.481 193.658Z" fill="#F5F5F5"/>
<path d="M226.434 191.942L225.846 171.496H225.836V164.284L215.857 165.339L215.727 196.123L226.429 191.932L226.434 191.942Z" fill="#EBEBEB"/>
<path d="M225.836 148.184L215.935 146.879L215.862 163.706L225.836 162.651V148.184Z" fill="#F5F5F5"/>
<path d="M299.64 164.59L299.224 170.451L287.529 171.709L288.434 176.348L301.709 175.344L301.512 168.698L302.572 164.294L299.64 164.59Z" fill="#F5F5F5"/>
<path d="M278.564 177.091L287.888 176.389L285.86 165.979L277.716 166.8L278.564 177.091Z" fill="#F5F5F5"/>
<path d="M278.652 178.173L279.365 186.852L280.628 198.754L281.148 201.36L302.453 200.013L301.74 176.431L278.652 178.173Z" fill="#EBEBEB"/>
<path d="M241.987 137.197L242.809 138.601L226.377 148.2V170.929L243.719 169.702L277.16 166.317L275.938 151.414L244.01 147.254L244.223 145.642L275.777 149.76L273.697 124.54L242.445 127.546L242.341 126.469L273.608 123.464L272.532 110.302H242.471L216.07 115.107L215.94 145.241L225.94 146.557L241.987 137.197ZM228.062 168.745C228.062 168.745 228.186 150.025 228.062 149.302L241.467 142.173L243.204 167.788L228.062 168.745Z" fill="#F5F5F5"/>
<path d="M298.548 164.7L286.4 165.927L287.321 170.643L298.21 169.468L298.548 164.7Z" fill="#F5F5F5"/>
<path d="M271.674 199.04C271.638 200.023 271.601 201.001 271.565 201.963L280.602 201.391L280.14 199.061L271.674 199.04Z" fill="#F5F5F5"/>
<path d="M252.205 108.68L253.796 101.457H265.933V85.9508L227.984 83.1376V97.7028L216.128 100.381L216.076 113.454L242.325 108.68H252.205Z" fill="#EBEBEB"/>
<path d="M277.524 65.52L277.202 64.1888L291.694 58.4688L282.266 39.52C282.094 39.547 281.921 39.5609 281.746 39.5616L265.72 39.52L266.157 65.9984L277.524 65.52Z" fill="#F5F5F5"/>
<path d="M299.489 55.3748V29.5412L288.943 29.4892C288.464 29.4966 287.991 29.5987 287.551 29.7895C287.111 29.9803 286.713 30.2562 286.38 30.6012C286.047 30.9461 285.786 31.3535 285.611 31.7998C285.436 32.2462 285.351 32.7227 285.36 33.202V35.8696C285.361 36.4663 285.219 37.0545 284.948 37.5859C284.677 38.1174 284.284 38.5771 283.8 38.9272L293.233 57.8604L299.489 55.3748Z" fill="#EBEBEB"/>
<path d="M245.008 56.4876L243.786 29.2812H240.854L229.414 29.2292L224.51 53.56L245.008 56.4876ZM242.408 32.0476L242.798 54.1996L227.562 51.9688L230.88 32.0424L242.408 32.0476Z" fill="#F5F5F5"/>
<path d="M245.565 56.5656V56.7944C245.591 58.9212 245.638 62.738 245.669 66.8252L265.626 66.0088L265.2 39.52L253.12 39.4628C252.641 39.4513 252.169 39.3453 251.73 39.1507C251.292 38.9561 250.896 38.6769 250.566 38.329C250.236 37.981 249.978 37.5714 249.807 37.1234C249.636 36.6755 249.555 36.1981 249.569 35.7188V33.0564C249.583 32.5762 249.503 32.0979 249.331 31.649C249.16 31.2001 248.902 30.7896 248.571 30.4411C248.241 30.0925 247.844 29.8129 247.405 29.6183C246.966 29.4237 246.492 29.318 246.012 29.3072H244.327L245.549 56.5864L245.565 56.5656Z" fill="#F5F5F5"/>
<path d="M222.898 53.3104L227.76 29.224C224.74 29.2756 221.861 30.5081 219.739 32.6572C217.617 34.8063 216.422 37.7011 216.408 40.7212L216.32 52.728L216.372 52.3744L222.898 53.3104Z" fill="#F5F5F5"/>
<path d="M226.356 83.018L216.206 82.2692L216.138 98.7116L226.356 96.4028V83.018Z" fill="#F5F5F5"/>
<path d="M222.789 53.846L216.33 52.9152L216.221 79.5496L217.61 79.6536L222.789 53.846Z" fill="#F5F5F5"/>
<path d="M243.292 191.63L243.464 170.248L226.387 171.46L226.99 192.405L243.292 191.63Z" fill="#F5F5F5"/>
<path d="M246.433 186.68L270.618 198.266C270.909 190.694 271.164 183.617 271.138 183.186H271.658L271.918 182.666C272.261 182.837 272.261 182.837 272.079 187.996C271.981 190.876 271.835 194.709 271.689 198.541H280.056L278.819 186.919L277.16 166.858L245.58 170.04L246.433 186.68Z" fill="#F5F5F5"/>
<path d="M305.718 151.211L305.443 148.392L276.453 151.403L277.675 166.26L302.702 163.738L305.718 151.211Z" fill="#F5F5F5"/>
<path d="M265.933 103.085H255.102L253.869 108.68H265.933V103.085Z" fill="#F5F5F5"/>
<path d="M301.241 104.972L274.118 103.095L273 109.507L274.139 123.412L302.739 120.661L301.241 104.972ZM275.116 109.491L276.572 105.451L300.128 106.938L301.491 118.508L275.912 121.54L275.116 109.491Z" fill="#F5F5F5"/>
<path d="M304.054 134.04L302.864 121.737L274.243 124.493L275.319 137.582L304.054 134.04Z" fill="#F5F5F5"/>
<path d="M226.834 205.878L215.732 206.58L215.686 205.858L215.67 209.139H226.928L226.834 205.878Z" fill="#F5F5F5"/>
<path d="M314.922 49.27L315.084 49.6808L315.12 41.1684C315.127 39.6504 314.835 38.1458 314.26 36.7408C313.685 35.3357 312.84 34.0575 311.771 32.9793C310.702 31.901 309.432 31.0438 308.032 30.4566C306.632 29.8694 305.13 29.5636 303.612 29.5568H300.014V55.1772L314.922 49.27Z" fill="#EBEBEB"/>
<path d="M270.598 198.874L245.908 187.049L245.04 170.097L244 170.201L243.823 192.15L227.001 192.946V193.435L227.328 204.75L270.462 202.025C270.514 200.985 270.556 199.924 270.598 198.874ZM228.062 194.345L251.612 192.691L266.937 199.8L228.062 201.88V194.345Z" fill="#F5F5F5"/>
<path d="M307.902 77.7244L308.942 71.734C300.102 68.5724 299.473 59.3424 299.499 56.55L293.722 58.8328L302.422 76.2996L307.902 77.7244Z" fill="#F5F5F5"/>
<path d="M276.323 149.786L288.356 148.533L285.984 137.904L275.454 139.199L276.323 149.786Z" fill="#F5F5F5"/>
<path d="M302.286 88.1452H279.807L277.94 88.0048L275.402 102.726L302.084 104.572L301.465 98.1708L304.091 88.7172L302.286 88.1452Z" fill="#F5F5F5"/>
<path d="M300.732 84.1984L301.012 77.1732L292.172 59.436L278.476 64.8544L283.182 84.1984H300.732ZM291.647 61.594L299.744 76.9964L298.574 81.796L284.716 81.276L281.252 66.716L291.647 61.594Z" fill="#F5F5F5"/>
<path d="M304.231 168.979L304.647 182.78L314.387 182.229L314.413 182.775L304.663 183.321L305.157 199.841L314.366 199.259L314.434 200.34L305.188 200.923L305.438 209.139H314.408L314.605 163.077L305.427 164.003L304.231 168.979Z" fill="#F5F5F5"/>
<path d="M245.029 57.0336L224.401 54.08L219.242 79.7784L245.118 81.6972C245.222 77.7348 245.133 65.598 245.029 57.0336Z" fill="#EBEBEB"/>
<path d="M278.954 84.1984H282.074L277.654 66.0608L266.178 66.5288L266.453 83.2728L278.954 84.1984Z" fill="#F5F5F5"/>
<path d="M245.648 81.7284L265.928 83.2312L265.637 66.56L245.674 67.3764C245.716 73.008 245.731 79.04 245.648 81.7284Z" fill="#F5F5F5"/>
<path d="M304.21 135.658L286.525 137.836L288.902 148.476L305.287 146.77L304.21 135.658Z" fill="#F5F5F5"/>
<path d="M309.005 71.188L310.138 64.48L315.021 64.8596L315.084 50.3828L300.004 56.342C299.718 66.5184 306.114 70.1012 309.005 71.188Z" fill="#EBEBEB"/>
<path d="M303.207 97.1724L303.82 103.522L314.855 104.286L314.907 91.208L305.672 88.2908L303.207 97.1724Z" fill="#F5F5F5"/>
<path d="M308.459 151.403L305.562 163.446L314.6 162.536L314.657 149.9C311.88 149.172 309.457 148.574 308.152 148.34L308.459 151.403Z" fill="#F5F5F5"/>
<path d="M302.354 84.4012L314.922 88.374L314.948 81.224L302.604 78.0364L302.354 84.4012Z" fill="#F5F5F5"/>
<path d="M308.001 146.671C309.041 146.822 310.934 147.233 314.668 148.231L314.782 120.614L305.562 121.498L308.001 146.671Z" fill="#F5F5F5"/>
<path d="M305.453 120.401L314.787 119.501L314.844 105.914L303.982 105.165L305.453 120.401Z" fill="#F5F5F5"/>
<path d="M310.045 71.5312C311.818 72.0512 313.461 72.488 314.985 72.7948L315.016 65.936L311.043 65.624L310.045 71.5312Z" fill="#F5F5F5"/>
<path d="M308.958 78L314.959 79.56V73.3616C313.399 73.0496 311.73 72.6284 309.93 72.0824L308.958 78Z" fill="#F5F5F5"/>
<path d="M314.434 200.34L314.366 199.259L305.157 199.841L304.637 183.321L314.387 182.775V182.255L304.642 182.801L304.231 169L305.427 164.024L314.6 163.077V162.557L305.557 163.467L308.454 151.424L308.152 148.346C309.457 148.595 311.88 149.193 314.657 149.906V148.2C310.924 147.222 309.005 146.812 307.991 146.64L305.552 121.446L314.772 120.562V119.47L305.443 120.37L303.966 105.134L314.829 105.882V104.255L303.794 103.49L303.181 97.1412L305.646 88.2596L314.881 91.1768V88.3428L302.312 84.37L302.567 78.0052L314.907 81.1928V79.5184L308.906 77.9584L309.904 72.0356C311.704 72.5816 313.378 73.0028 314.933 73.3148V72.8C313.409 72.4932 311.766 72.0772 309.993 71.5364L310.991 65.6292L314.964 65.9412V64.8544L310.081 64.4748L308.948 71.1932C306.056 70.1064 299.66 66.5132 299.967 56.3368L315.047 50.3776V49.6808L314.886 49.27L300.04 55.1616V29.5412H299.468V55.3748L293.192 57.8604L283.78 38.9272C283.329 39.2419 282.811 39.445 282.266 39.52L291.72 58.4636L277.228 64.1836L277.55 65.5148L266.193 65.9776L265.72 39.52H265.2L265.637 66.04L245.679 66.8564C245.648 62.7692 245.601 58.9524 245.575 56.8256V56.5968L244.353 29.3176H243.807L245.029 56.524L224.51 53.56L229.393 29.2344H227.994C227.906 29.2344 227.822 29.2344 227.734 29.2344L222.898 53.3208L216.382 52.3848L216.33 52.7384V52.9256L222.789 53.8564L217.589 79.664L216.195 79.56V82.2744L226.346 83.0284V96.4132L216.128 98.722V100.36L227.978 97.682V83.122L265.938 85.9352V101.442H253.796L252.2 108.68H242.32L216.07 113.454V115.107L242.471 110.302H272.537L273.614 123.464L242.346 126.469L242.45 127.546L273.702 124.54L275.782 149.76L244.202 145.631L243.989 147.243L275.917 151.403L277.16 166.317L243.745 169.686L226.403 170.914V148.2L242.835 138.616L242.013 137.212L225.966 146.572L215.966 145.257V146.895L225.846 148.2V162.666L215.873 163.706V165.36L225.852 164.32V171.496L226.439 191.942L215.738 196.134V197.886L226.502 193.669L226.824 204.807L215.706 205.509V205.868L215.753 206.591L226.855 205.889L226.949 209.149H227.469L227.375 205.858L270.431 203.133C270.353 205.249 270.27 207.293 270.197 209.149H271.284C271.352 207.402 271.435 205.301 271.523 203.065L280.8 202.467L282.131 209.139H282.682L281.346 202.431L302.468 201.094L302.708 209.139H305.422L314.434 200.34ZM271.549 201.963C271.586 201.001 271.622 200.023 271.658 199.04H280.124L280.587 201.37L271.549 201.963ZM281.133 201.36L280.613 198.76L279.349 186.857L278.637 178.178L301.73 176.436L302.437 200.018L281.133 201.36ZM286.385 165.927L298.532 164.7L298.194 169.468L287.305 170.643L286.385 165.927ZM285.865 165.979L287.893 176.379L278.569 177.081L277.722 166.79L285.865 165.979ZM301.714 175.339L288.439 176.342L287.534 171.704L299.229 170.446L299.645 164.585L302.578 164.289L301.538 168.693L301.714 175.339ZM286 137.904L288.371 148.533L276.338 149.786L275.465 139.199L286 137.904ZM288.917 148.476L286.52 137.836L304.2 135.658L305.276 146.77L288.917 148.476ZM301.08 103.334L274.399 101.488L276.936 86.7672L278.803 86.9024H301.283L303.087 87.4692L300.461 96.928L301.08 103.334ZM299.473 56.5344C299.473 59.3268 300.061 68.5568 308.916 71.7184L307.876 77.7088L302.37 76.284L293.696 58.8328L299.473 56.5344ZM292.193 59.4204L301.033 77.1576L300.752 84.1828H283.187L278.481 64.8388L292.193 59.4204ZM277.68 66.04L282.1 84.1776H278.98L266.5 83.252L266.224 66.508L277.68 66.04ZM265.663 66.534L265.938 83.2104L245.658 81.7076C245.742 79.0036 245.726 72.9872 245.684 67.3504L265.663 66.534ZM224.427 54.054L245.055 57.0128C245.159 65.5772 245.248 77.714 245.144 81.6712L219.268 79.7524L224.427 54.054ZM276.427 86.7048L272.605 108.68H266.474V85.9924L276.427 86.7048ZM255.138 103.064H265.97V108.68H253.906L255.138 103.064ZM273 109.507L274.102 103.095L301.226 104.972L302.76 120.64L274.16 123.391L273 109.507ZM302.848 121.737L304.039 134.04L275.304 137.582L274.227 124.493L302.848 121.737ZM276.437 151.403L305.427 148.392L305.703 151.211L302.687 163.738L277.68 166.26L276.437 151.403ZM278.808 186.898L280.046 198.52H271.695C271.84 194.688 271.986 190.856 272.085 187.975C272.267 182.816 272.267 182.816 271.924 182.645L271.664 183.165H271.144C271.17 183.617 270.915 190.694 270.624 198.245L246.433 186.68L245.58 170.04L277.16 166.858L278.808 186.898ZM243.448 170.258L243.277 191.641L226.99 192.4L226.387 171.454L243.448 170.258ZM227.016 193.44V192.951L243.838 192.156L244.015 170.206L245.055 170.102L245.924 187.054L270.613 198.879C270.572 199.919 270.53 200.99 270.494 202.041L227.36 204.766L227.016 193.44Z" fill="white"/>
<path d="M251.612 192.691L228.062 194.345V201.9L266.937 199.8L251.612 192.691Z" fill="#E0E0E0"/>
<path d="M300.128 106.938L276.572 105.451L275.116 109.491L275.912 121.54L301.491 118.508L300.128 106.938Z" fill="#E0E0E0"/>
<path d="M243.251 55.6088L242.861 33.4568H231.353L228.015 53.378L243.251 55.6088Z" fill="#E0E0E0"/>
<path d="M298.574 81.796L299.738 76.9964L291.647 61.594L281.258 66.7056L284.716 81.2708L298.574 81.796Z" fill="#EBEBEB"/>
<path d="M228.062 149.302C228.186 150.004 228.062 168.745 228.062 168.745L243.204 167.788L241.467 142.173L228.062 149.302Z" fill="#E0E0E0"/>
<path d="M278.569 164.523L277.763 152.906L303.737 149.568V151.575L300.596 162.256L278.569 164.523Z" fill="#E0E0E0"/>
<path d="M302.78 194.116L302.453 186.54L279.625 187.647C279.027 187.68 278.432 187.554 277.898 187.283L245.513 170.929C245.144 170.741 244.832 170.46 244.606 170.113C244.381 169.766 244.251 169.366 244.228 168.953L239.824 83.4704C239.812 83.2676 239.844 83.0645 239.917 82.8751C239.991 82.6858 240.105 82.5145 240.25 82.3732C240.396 82.2329 240.569 82.1247 240.759 82.0557C240.949 81.9867 241.151 81.9585 241.353 81.9728L255.232 83.0128V67.8288H256.88V83.2C256.879 83.3962 256.838 83.5901 256.759 83.7698C256.68 83.9495 256.565 84.1111 256.422 84.2446C256.278 84.3781 256.108 84.4807 255.923 84.5461C255.738 84.6115 255.542 84.6383 255.346 84.6248L241.478 83.5848L245.877 168.865C245.882 168.992 245.921 169.115 245.99 169.222C246.058 169.329 246.154 169.415 246.267 169.473L278.652 185.827C278.934 185.97 279.247 186.037 279.562 186.02L302.583 184.902C302.772 184.893 302.961 184.921 303.139 184.985C303.318 185.049 303.482 185.148 303.622 185.275C303.762 185.403 303.875 185.557 303.956 185.728C304.036 185.9 304.082 186.085 304.091 186.274L304.424 194.038L302.78 194.116Z" fill="white"/>
<path d="M174.102 87.1576L170.28 80.3976C172.639 76.5647 173.478 71.9882 172.634 67.5677C171.79 63.1471 169.323 59.2022 165.718 56.5081C162.113 53.8141 157.63 52.5658 153.152 53.0087C148.673 53.4515 144.522 55.5534 141.514 58.9012C138.507 62.2491 136.86 66.6008 136.898 71.1011C136.936 75.6014 138.655 79.9248 141.719 83.2216C144.782 86.5185 148.968 88.5503 153.453 88.9178C157.939 89.2853 162.4 87.9619 165.959 85.2076L174.102 87.1576Z" fill="white"/>
<path d="M174.101 87.1572L165.937 85.306C165.92 85.3022 165.905 85.292 165.895 85.2775C165.886 85.2629 165.882 85.2452 165.885 85.228V85.1968L165.979 85.2904C163.469 87.2468 160.485 88.5028 157.331 88.9304C156.384 89.0634 155.427 89.1121 154.471 89.076C153.982 89.05 153.483 89.0396 152.979 88.998L151.455 88.764C146.913 87.8782 142.88 85.2908 140.182 81.5308C138.678 79.4528 137.637 77.0768 137.129 74.5628C136.611 71.905 136.684 69.1657 137.342 66.5392C138.023 63.7932 139.35 61.2493 141.211 59.1188C143.11 56.9312 145.507 55.2317 148.2 54.1632C150.768 53.1482 153.532 52.7234 156.286 52.9204C158.886 53.101 161.414 53.852 163.691 55.12C167.79 57.4033 170.854 61.1752 172.25 65.6552C172.809 67.5588 173.072 69.5372 173.03 71.5208C172.937 74.6876 172.008 77.7733 170.336 80.4648V80.3972C172.723 84.6924 173.878 86.762 174.101 87.1572L170.222 80.4596C170.217 80.449 170.214 80.4375 170.214 80.4258C170.214 80.4141 170.217 80.4025 170.222 80.392C171.853 77.7109 172.75 74.6478 172.822 71.5104C172.854 69.5485 172.586 67.5932 172.026 65.7124C170.638 61.2877 167.604 57.565 163.55 55.3124C161.297 54.0663 158.798 53.3313 156.229 53.1596C153.514 52.9669 150.792 53.3881 148.262 54.392C145.632 55.4557 143.293 57.1313 141.44 59.28C139.606 61.3796 138.3 63.8859 137.628 66.5912C136.975 69.1778 136.902 71.8771 137.415 74.4952C137.905 76.9822 138.923 79.3353 140.4 81.3956C143.058 85.1107 147.032 87.6731 151.512 88.5612L153.015 88.7952C153.535 88.8368 154.008 88.8524 154.492 88.8784C155.437 88.9196 156.384 88.8761 157.321 88.7484C160.448 88.3333 163.41 87.1031 165.911 85.1812C165.917 85.1746 165.924 85.1692 165.932 85.1656C165.94 85.162 165.949 85.1601 165.958 85.1601C165.967 85.1601 165.976 85.162 165.984 85.1656C165.992 85.1692 165.999 85.1746 166.005 85.1812C166.015 85.1926 166.021 85.2074 166.021 85.2228C166.021 85.2381 166.015 85.253 166.005 85.2644L165.968 85.1604L174.101 87.1572Z" fill="#263238"/>
<path d="M147.425 71.2972L149.542 69.1808L153.624 72.8052L161.632 65.0988L163.597 67.2152L153.322 76.8872L147.425 71.2972Z" fill="#263238"/>
<path d="M89.5337 246.386H73.8245V185.994H74.3445V245.866H89.5337L231.889 245.622L228.54 170.68L264.035 167.378L277.394 166.026L275.995 150.576L273.874 123.178L303.706 119.917L302.838 104.603L291.538 101.863L291.663 101.358L303.337 104.187L304.257 120.38L274.435 123.64L276.515 150.535L277.956 166.494L264.087 167.892L229.081 171.153L232.435 246.137L89.5337 246.386Z" fill="#FF8634"/>
<path d="M300.134 89.0396C300.136 87.7258 299.835 86.4293 299.254 85.2509C298.673 84.0724 297.828 83.0439 296.785 82.2454C295.742 81.4468 294.528 80.8998 293.239 80.6468C291.95 80.3939 290.62 80.4418 289.352 80.7869C288.085 81.132 286.914 81.765 285.931 82.6366C284.948 83.5082 284.179 84.5948 283.685 85.812C283.19 87.0292 282.983 88.3441 283.08 89.6543C283.177 90.9645 283.574 92.2347 284.242 93.366V93.3972C284.57 93.9536 284.976 94.3488 285.392 94.9312L290.347 101.514C290.493 101.701 290.68 101.853 290.893 101.957C291.106 102.061 291.34 102.115 291.577 102.115C291.814 102.115 292.048 102.061 292.261 101.957C292.474 101.853 292.661 101.701 292.807 101.514L297.684 95.0352C298.128 94.5101 298.542 93.9597 298.922 93.3868C299.709 92.0728 300.127 90.5712 300.134 89.0396Z" fill="#FF8634"/>
<path d="M291.6 94.2136C290.589 94.2167 289.599 93.9195 288.756 93.3598C287.914 92.8 287.256 92.0027 286.867 91.069C286.478 90.1352 286.374 89.107 286.57 88.1144C286.765 87.1218 287.251 86.2096 287.965 85.4931C288.679 84.7767 289.59 84.2883 290.582 84.0898C291.574 83.8913 292.602 83.9916 293.537 84.378C294.472 84.7645 295.272 85.4196 295.834 86.2605C296.396 87.1015 296.696 88.0904 296.696 89.102C296.698 90.4554 296.162 91.754 295.206 92.7125C294.251 93.6709 292.954 94.2109 291.6 94.2136Z" fill="white"/>
<path d="M291.6 94.2136C291.6 94.1772 292.053 94.2136 292.833 94.0004C293.508 93.8196 294.139 93.5004 294.684 93.063C295.23 92.6256 295.678 92.0795 296.001 91.4595C296.325 90.8395 296.515 90.1591 296.562 89.4614C296.608 88.7637 296.509 88.0641 296.27 87.4068C296.106 86.9544 295.877 86.5286 295.589 86.1432C295.3 85.743 294.949 85.3919 294.549 85.1032C293.699 84.4753 292.67 84.1365 291.613 84.1365C290.557 84.1365 289.528 84.4753 288.678 85.1032C287.883 85.6849 287.28 86.4907 286.946 87.4172C286.661 88.2007 286.575 89.0428 286.696 89.8679C286.816 90.6929 287.14 91.4751 287.638 92.144C288.318 93.0568 289.285 93.7143 290.384 94.0108C291.158 94.2136 291.616 94.1876 291.616 94.224C291.193 94.2572 290.768 94.2203 290.358 94.1148C289.395 93.8824 288.519 93.3779 287.835 92.6615C287.151 91.9451 286.687 91.047 286.499 90.0744C286.326 89.1565 286.4 88.209 286.712 87.3288C287.059 86.3539 287.69 85.5048 288.522 84.89C289.417 84.2272 290.502 83.8694 291.616 83.8694C292.73 83.8694 293.815 84.2272 294.71 84.89C295.134 85.2004 295.506 85.5759 295.812 86.0028C296.113 86.4069 296.352 86.8539 296.52 87.3288C296.834 88.2087 296.906 89.1571 296.728 90.0744C296.543 91.0474 296.081 91.9463 295.397 92.663C294.713 93.3798 293.837 93.8839 292.874 94.1148C292.458 94.2185 292.028 94.2519 291.6 94.2136Z" fill="#263238"/>
<path d="M293.244 89.6896C293.244 90.272 292.781 90.61 291.897 90.61H290.16V87.23H291.803C292.646 87.23 293.077 87.5836 293.077 88.1088C293.081 88.2624 293.041 88.4138 292.961 88.5454C292.882 88.6771 292.767 88.7835 292.63 88.8524C292.812 88.9026 292.971 89.0125 293.082 89.1644C293.194 89.3164 293.25 89.5014 293.244 89.6896ZM290.93 87.8228V88.6184H291.72C292.1 88.6184 292.308 88.4832 292.308 88.218C292.308 87.9528 292.1 87.8228 291.72 87.8228H290.93ZM292.458 89.6064C292.458 89.3204 292.24 89.1852 291.84 89.1852H290.93V90.0224H291.84C292.24 90.0224 292.458 89.8924 292.458 89.6064Z" fill="#263238"/>
<path d="M246.168 64.48C246.168 62.9698 245.82 61.48 245.151 60.1262C244.481 58.7725 243.509 57.5913 242.309 56.6744C241.109 55.7575 239.714 55.1296 238.232 54.8396C236.75 54.5496 235.221 54.6052 233.764 55.002C232.307 55.3989 230.961 56.1265 229.83 57.1281C228.7 58.1297 227.816 59.3784 227.247 60.7772C226.678 62.1759 226.439 63.6872 226.548 65.1933C226.658 66.6995 227.114 68.1601 227.88 69.4616V69.498C228.254 70.1324 228.727 70.59 229.206 71.2608L234.926 78.8372C235.09 79.0578 235.304 79.2369 235.55 79.3603C235.796 79.4836 236.067 79.5479 236.343 79.5479C236.618 79.5479 236.889 79.4836 237.135 79.3603C237.381 79.2369 237.595 79.0578 237.76 78.8372L243.36 71.3648C243.872 70.7597 244.35 70.126 244.79 69.4668V69.4408C245.68 67.9381 246.155 66.2263 246.168 64.48Z" fill="#FF8634"/>
<path d="M236.345 69.992C235.253 69.9961 234.184 69.6759 233.274 69.072C232.364 68.468 231.653 67.6075 231.233 66.5994C230.812 65.5913 230.7 64.4811 230.911 63.4093C231.122 62.3376 231.646 61.3526 232.418 60.5791C233.189 59.8057 234.172 59.2785 235.243 59.0645C236.315 58.8506 237.425 58.9593 238.434 59.3771C239.444 59.7949 240.306 60.5028 240.913 61.4112C241.519 62.3197 241.843 63.3877 241.842 64.48C241.842 65.9392 241.263 67.3388 240.233 68.3721C239.202 69.4053 237.804 69.9879 236.345 69.992Z" fill="white"/>
<path d="M236.345 69.992C236.793 69.9459 237.238 69.8712 237.676 69.7684C238.863 69.45 239.907 68.7411 240.64 67.756C241.146 67.0833 241.486 66.3014 241.634 65.4732C241.806 64.5257 241.723 63.5495 241.394 62.6444C241.22 62.156 240.973 61.6967 240.661 61.282C240.343 60.8436 239.957 60.4591 239.517 60.1432C238.599 59.4615 237.486 59.0934 236.343 59.0934C235.199 59.0934 234.086 59.4615 233.168 60.1432C232.729 60.4578 232.344 60.8425 232.029 61.282C231.716 61.6955 231.469 62.1551 231.296 62.6444C230.966 63.5491 230.881 64.5253 231.052 65.4732C231.237 66.491 231.708 67.4351 232.41 68.1955C233.111 68.9559 234.014 69.5014 235.014 69.7684C235.452 69.8721 235.897 69.9468 236.345 69.992C235.889 70.0276 235.431 69.9871 234.988 69.8724C233.949 69.6238 233.003 69.0804 232.265 68.3074C231.527 67.5343 231.028 66.5646 230.828 65.5148C230.637 64.5259 230.716 63.5037 231.057 62.556C231.233 62.0422 231.489 61.5595 231.816 61.126C232.146 60.6663 232.549 60.2625 233.007 59.93C233.969 59.2109 235.139 58.8224 236.34 58.8224C237.541 58.8224 238.711 59.2109 239.673 59.93C240.565 60.5858 241.243 61.4902 241.623 62.53C241.958 63.479 242.037 64.4996 241.852 65.4888C241.687 66.347 241.322 67.1541 240.786 67.8444C240.019 68.8488 238.927 69.5563 237.697 69.8464C237.258 69.9688 236.801 70.0179 236.345 69.992Z" fill="#263238"/>
<path d="M237.177 65.0572H235.487L235.165 65.8372H234.307L235.924 62.1972H236.756L238.378 65.8372H237.5L237.177 65.0572ZM236.912 64.4176L236.335 63.0188L235.758 64.4176H236.912Z" fill="#263238"/>
<path d="M273.229 109.767H241.592L241.202 83.8188L235.373 82.472V78.0364H235.893V82.0612L241.712 83.4028L242.102 109.247H272.797L274.18 101.878L291.59 101.353L291.606 101.873L274.612 102.383L273.229 109.767Z" fill="#FF8634"/>
<path d="M272.111 154.726C272.113 153.412 271.812 152.116 271.231 150.937C270.65 149.759 269.806 148.73 268.762 147.932C267.719 147.133 266.506 146.586 265.216 146.333C263.927 146.08 262.597 146.128 261.329 146.473C260.062 146.818 258.891 147.451 257.908 148.323C256.925 149.195 256.156 150.281 255.662 151.498C255.167 152.716 254.96 154.03 255.057 155.341C255.154 156.651 255.552 157.921 256.22 159.052V159.089C256.542 159.64 256.953 160.035 257.369 160.618L262.324 167.206C262.47 167.393 262.657 167.544 262.87 167.648C263.083 167.752 263.317 167.806 263.554 167.806C263.791 167.806 264.025 167.752 264.238 167.648C264.452 167.544 264.638 167.393 264.784 167.206L269.656 160.727C270.101 160.201 270.516 159.651 270.899 159.078V159.052C271.683 157.744 272.101 156.251 272.111 154.726Z" fill="#FF8634"/>
<path d="M263.578 159.9C266.392 159.9 268.674 157.611 268.674 154.788C268.674 151.965 266.392 149.677 263.578 149.677C260.763 149.677 258.482 151.965 258.482 154.788C258.482 157.611 260.763 159.9 263.578 159.9Z" fill="white"/>
<path d="M263.578 159.9C263.992 159.855 264.404 159.786 264.81 159.692C265.908 159.394 266.874 158.735 267.55 157.82C268.019 157.198 268.334 156.475 268.471 155.709C268.625 154.837 268.548 153.941 268.247 153.109C268.085 152.658 267.855 152.233 267.566 151.85C267.277 151.45 266.926 151.099 266.526 150.81C265.677 150.179 264.648 149.839 263.591 149.839C262.533 149.839 261.504 150.179 260.655 150.81C260.256 151.1 259.905 151.451 259.615 151.85C259.326 152.232 259.098 152.657 258.939 153.109C258.638 153.941 258.559 154.837 258.71 155.709C258.85 156.473 259.165 157.193 259.631 157.815C260.31 158.729 261.277 159.388 262.376 159.687C262.782 159.782 263.194 159.851 263.609 159.895C263.186 159.928 262.761 159.891 262.35 159.786C261.208 159.52 260.194 158.865 259.48 157.934C258.982 157.293 258.644 156.543 258.492 155.745C258.319 154.829 258.392 153.883 258.705 153.005C259.049 152.028 259.68 151.178 260.515 150.566C261.408 149.898 262.493 149.536 263.609 149.536C264.724 149.536 265.81 149.898 266.703 150.566C267.128 150.873 267.5 151.247 267.805 151.674C268.107 152.079 268.346 152.528 268.512 153.005C268.826 153.883 268.898 154.83 268.72 155.745C268.57 156.542 268.234 157.293 267.738 157.934C267.023 158.864 266.009 159.518 264.867 159.786C264.447 159.896 264.011 159.935 263.578 159.9Z" fill="#263238"/>
<path d="M261.919 154.612C261.939 154.248 262.066 153.898 262.283 153.606C262.501 153.314 262.801 153.092 263.144 152.97C263.487 152.847 263.859 152.828 264.213 152.916C264.566 153.004 264.886 153.194 265.132 153.462L264.612 153.925C264.509 153.8 264.38 153.7 264.233 153.632C264.087 153.563 263.927 153.529 263.765 153.53C263.492 153.549 263.236 153.671 263.049 153.871C262.862 154.071 262.758 154.335 262.758 154.609C262.758 154.883 262.862 155.147 263.049 155.347C263.236 155.547 263.492 155.669 263.765 155.688C263.927 155.689 264.088 155.654 264.234 155.585C264.381 155.516 264.51 155.414 264.612 155.288L265.132 155.75C264.963 155.951 264.749 156.109 264.509 156.214C264.268 156.319 264.006 156.366 263.744 156.354C263.508 156.366 263.272 156.331 263.05 156.249C262.828 156.167 262.626 156.04 262.455 155.877C262.284 155.714 262.148 155.518 262.056 155.3C261.964 155.082 261.917 154.848 261.919 154.612Z" fill="#263238"/>
<path d="M99.3928 148.58C99.3942 144.687 98.4979 140.847 96.7738 137.358C95.0497 133.868 92.5441 130.823 89.4518 128.46C86.3594 126.096 82.7637 124.477 78.944 123.729C75.1243 122.981 71.1836 123.124 67.4281 124.147C63.6726 125.169 60.2036 127.044 57.2906 129.626C54.3775 132.207 52.099 135.425 50.6321 139.031C49.1653 142.636 48.5495 146.531 48.8327 150.413C49.116 154.295 50.2906 158.059 52.2652 161.413L52.3328 161.507C53.3052 163.15 54.522 164.32 55.7492 166.046L70.4444 185.578C70.8695 186.141 71.4195 186.598 72.0511 186.912C72.6828 187.227 73.3788 187.391 74.0844 187.391C74.7901 187.391 75.4861 187.227 76.1177 186.912C76.7493 186.598 77.2993 186.141 77.7244 185.578L92.1752 166.369C93.491 164.809 94.7184 163.178 95.8516 161.481L95.9088 161.413C98.1927 157.522 99.3955 153.091 99.3928 148.58Z" fill="#FF8634"/>
<path d="M74.0844 163.925C82.4272 163.925 89.1904 157.138 89.1904 148.767C89.1904 140.395 82.4272 133.609 74.0844 133.609C65.7416 133.609 58.9784 140.395 58.9784 148.767C58.9784 157.138 65.7416 163.925 74.0844 163.925Z" fill="white"/>
<path d="M74.0845 163.925C74.1654 163.912 74.247 163.903 74.3289 163.899L75.0465 163.847L75.5665 163.816C75.7589 163.816 75.9669 163.753 76.1957 163.717C76.7228 163.648 77.2442 163.54 77.7557 163.394C79.1679 163.039 80.5179 162.471 81.7597 161.71C83.5836 160.605 85.154 159.129 86.3681 157.376C87.5823 155.623 88.4129 153.634 88.8057 151.538C88.9192 150.911 88.9904 150.277 89.0189 149.64C89.0189 149.313 89.0657 148.985 89.0605 148.658C89.0553 148.33 89.0241 147.997 89.0085 147.664C89.0085 147.498 89.0085 147.332 88.9721 147.144L88.8993 146.624C88.8421 146.292 88.8005 145.954 88.7329 145.616C88.5804 144.937 88.3858 144.268 88.1505 143.614C87.9078 142.944 87.6212 142.291 87.2924 141.658C87.1209 141.336 86.9181 141.034 86.7361 140.722C86.5485 140.406 86.34 140.102 86.1121 139.812C85.6682 139.214 85.1871 138.645 84.6717 138.107C84.1252 137.579 83.5451 137.088 82.9349 136.635C81.6846 135.698 80.2901 134.971 78.8061 134.482C75.736 133.449 72.4121 133.449 69.3421 134.482C67.858 134.971 66.4635 135.698 65.2133 136.635C63.9848 137.51 62.9109 138.584 62.0361 139.812C61.8063 140.1 61.5978 140.404 61.4121 140.722C61.2301 141.034 61.0273 141.336 60.8557 141.658C60.5269 142.291 60.2403 142.944 59.9977 143.614C59.7599 144.267 59.5653 144.936 59.4153 145.616C59.3425 145.954 59.3061 146.292 59.2489 146.624L59.1709 147.144C59.1709 147.311 59.1709 147.477 59.1397 147.664C59.1397 147.997 59.1033 148.33 59.0877 148.658C59.0721 148.985 59.0877 149.313 59.1241 149.64C59.1542 150.277 59.2272 150.911 59.3425 151.538C59.735 153.637 60.5666 155.629 61.7827 157.383C62.9987 159.138 64.5718 160.616 66.3989 161.72C67.6395 162.483 68.9899 163.051 70.4029 163.405C70.9141 163.551 71.4356 163.659 71.9629 163.727C72.1917 163.764 72.3997 163.805 72.5921 163.826L73.1121 163.857L73.8297 163.909C73.9115 163.913 73.9931 163.922 74.0741 163.935H73.8401H73.1173H72.5973C72.3997 163.935 72.1917 163.878 71.9629 163.847C71.4358 163.789 70.9142 163.69 70.4029 163.55C68.9733 163.21 67.6051 162.651 66.3469 161.892C64.4907 160.788 62.8903 159.303 61.6514 157.534C60.4125 155.765 59.5634 153.754 59.1605 151.632C59.0389 150.995 58.9624 150.35 58.9317 149.703C58.9317 149.375 58.8849 149.042 58.8901 148.71L58.9368 147.701C58.9368 147.529 58.9369 147.363 58.9681 147.181L59.0461 146.661C59.1033 146.323 59.1397 145.974 59.2125 145.621C59.3611 144.929 59.5574 144.248 59.8001 143.582C60.0429 142.899 60.333 142.234 60.6685 141.591C60.8401 141.263 61.0429 140.956 61.2301 140.634C61.4193 140.312 61.6313 140.005 61.8645 139.714C62.7565 138.464 63.8474 137.37 65.0937 136.474C66.3657 135.519 67.7848 134.778 69.2952 134.28C70.851 133.773 72.4744 133.505 74.1105 133.484C75.7479 133.507 77.3727 133.776 78.9308 134.28C80.4392 134.779 81.8564 135.52 83.1273 136.474C83.7496 136.933 84.3387 137.435 84.8901 137.977C85.4196 138.52 85.9097 139.1 86.3565 139.714C86.5897 140.004 86.8 140.311 86.9857 140.634C87.1781 140.956 87.3808 141.263 87.5525 141.591C87.8879 142.234 88.178 142.899 88.4209 143.582C88.6587 144.249 88.855 144.93 89.0085 145.621C89.0761 145.959 89.1177 146.307 89.1749 146.661L89.2477 147.181C89.2477 147.347 89.2477 147.519 89.2789 147.701C89.2789 148.039 89.3153 148.377 89.3309 148.71C89.3465 149.042 89.2997 149.375 89.2893 149.703C89.2585 150.35 89.182 150.995 89.0605 151.632C88.6575 153.754 87.8084 155.765 86.5695 157.534C85.3306 159.303 83.7302 160.788 81.8741 161.892C80.6158 162.651 79.2476 163.21 77.818 163.55C77.3067 163.69 76.7851 163.789 76.258 163.847C76.0292 163.878 75.816 163.914 75.6236 163.935H75.1036H74.3808L74.0845 163.925Z" fill="#263238"/>
<path d="M69.8048 143.224H74.36C77.6204 143.224 79.8616 145.194 79.8616 148.231C79.8616 151.268 77.6204 153.234 74.36 153.234H69.8256L69.8048 143.224ZM74.2248 151.33C76.206 151.33 77.5008 150.145 77.5008 148.21C77.5008 146.276 76.206 145.09 74.2248 145.09H72.1136V151.32L74.2248 151.33Z" fill="#263238"/>
<path d="M52.2548 217.136C52.9288 217.418 53.5388 217.834 54.0481 218.357C54.5575 218.881 54.9557 219.502 55.2188 220.184C55.741 221.55 55.9421 223.017 55.8064 224.474C55.6244 227.292 54.1736 230.194 52.572 232.513C50.1124 230.573 49.3948 227.011 49.1452 225.181C48.75 222.29 49.79 216.824 52.2652 217.136" fill="#455A64"/>
<path d="M55.536 236.995C55.337 236.204 55.3505 235.374 55.5752 234.59C55.7998 233.806 56.2275 233.094 56.8152 232.528C57.4122 231.972 58.1145 231.54 58.8806 231.259C59.6468 230.978 60.4615 230.852 61.2768 230.89C61.6531 230.868 62.0298 230.927 62.3809 231.064C62.732 231.202 63.049 231.414 63.31 231.686C63.5089 231.977 63.6259 232.317 63.6488 232.669C63.6716 233.021 63.5995 233.373 63.44 233.688C63.1161 234.325 62.6278 234.864 62.0256 235.248C60.0496 236.631 57.8656 237.604 55.536 237.021" fill="#455A64"/>
<path d="M52.936 245.726C52.9344 245.532 52.9519 245.339 52.988 245.149C53.0452 244.738 53.1128 244.213 53.196 243.589C53.3763 241.845 53.8363 240.142 54.5584 238.545C55.314 236.949 56.4805 235.583 57.9384 234.588C58.3807 234.293 58.8574 234.054 59.358 233.875C59.4941 233.824 59.6329 233.78 59.774 233.745C59.8676 233.719 59.9196 233.709 59.9196 233.719C58.769 234.152 57.7163 234.809 56.8233 235.654C55.9304 236.499 55.2151 237.514 54.7196 238.638C54.0109 240.219 53.5396 241.896 53.3208 243.615C53.2116 244.27 53.118 244.806 53.0452 245.175C53.0257 245.361 52.9891 245.546 52.936 245.726Z" fill="#263238"/>
<path d="M51.8284 221.369C51.8533 221.45 51.8673 221.534 51.87 221.619L51.948 222.336C52.0156 222.96 52.0936 223.865 52.1872 224.988C52.3692 227.224 52.5772 230.324 52.7072 233.745C52.8372 237.167 52.9308 240.276 52.9464 242.523C52.9464 243.646 52.9464 244.556 52.9464 245.18C52.9464 245.476 52.9464 245.7 52.9464 245.903C52.9552 245.988 52.9552 246.073 52.9464 246.158C52.9376 246.073 52.9376 245.988 52.9464 245.903C52.9464 245.721 52.9464 245.476 52.9204 245.18C52.9204 244.53 52.884 243.62 52.8528 242.523C52.8008 240.282 52.7072 237.177 52.5564 233.756C52.4056 230.334 52.2184 227.24 52.0728 224.999C52 223.896 51.9428 222.997 51.9012 222.342C51.9012 222.045 51.87 221.822 51.8596 221.624C51.8422 221.54 51.8318 221.455 51.8284 221.369Z" fill="#263238"/>
<path d="M51.5424 238.898C51.1736 237.216 50.4097 235.646 49.3138 234.318C48.2178 232.989 46.8214 231.941 45.24 231.26C44.434 230.922 43.394 230.74 42.7752 231.343C42.1564 231.946 42.3488 233.007 42.7076 233.808C43.4809 235.462 44.7267 236.85 46.2877 237.798C47.8488 238.745 49.6554 239.21 51.48 239.132" fill="#455A64"/>
<path d="M45.76 233.896C45.9392 233.945 46.1133 234.012 46.28 234.094C46.4793 234.172 46.6738 234.262 46.8624 234.364C47.0808 234.489 47.3408 234.603 47.6008 234.78C47.8966 234.957 48.183 235.15 48.4588 235.357C48.7604 235.576 49.0568 235.836 49.3688 236.111C50.0368 236.735 50.6316 237.433 51.142 238.191C51.6398 238.949 52.0481 239.762 52.3588 240.614C52.4911 240.987 52.6022 241.368 52.6916 241.753C52.7765 242.087 52.8408 242.426 52.884 242.767C52.9252 243.048 52.9513 243.331 52.962 243.615C52.9768 243.828 52.9768 244.041 52.962 244.254C52.9686 244.437 52.9564 244.62 52.9256 244.8C52.8788 244.8 52.9256 244.02 52.7228 242.788C52.6751 242.455 52.6074 242.125 52.52 241.8C52.4282 241.422 52.3136 241.051 52.1768 240.687C51.8629 239.843 51.4548 239.037 50.96 238.285C50.4596 237.547 49.8808 236.865 49.2336 236.252C48.9268 235.976 48.6408 235.732 48.3444 235.492C48.0794 235.282 47.8034 235.086 47.5176 234.905C46.462 234.229 45.76 233.938 45.76 233.896Z" fill="#263238"/>
<path d="M209.305 77.48L209.544 96.824C209.586 100.116 208.978 104.957 203.772 104.785C199.269 104.291 198.052 100.027 198.052 96.9592C198.052 95.5032 198.021 94.2916 198.011 94.1408C198.011 94.1408 193.081 93.7404 192.665 88.868C192.462 86.5176 192.442 81.6348 192.478 77.22C192.497 74.9333 193.375 72.7373 194.939 71.0686C196.503 69.3999 198.637 68.3807 200.918 68.2136L201.391 68.1824C206.466 68.12 209.373 72.3996 209.305 77.48Z" fill="#FFBE9D"/>
<path d="M197.995 94.1512C200.245 93.9792 202.4 93.1673 204.204 91.8112C204.204 91.8112 202.914 95.4824 198.021 95.3992L197.995 94.1512Z" fill="#EB996E"/>
<path d="M200.787 79.2272C200.881 79.326 201.443 78.8736 202.259 78.8476C203.075 78.8216 203.684 79.2272 203.772 79.1232C203.861 79.0192 203.71 78.8944 203.445 78.7072C203.086 78.4704 202.663 78.3505 202.233 78.364C201.807 78.377 201.397 78.5265 201.063 78.7904C200.819 78.9932 200.72 79.1804 200.787 79.2272Z" fill="#263238"/>
<path d="M201.126 81.1512C201.138 81.3231 201.216 81.4837 201.344 81.5991C201.472 81.7146 201.64 81.7758 201.812 81.77C201.896 81.77 201.98 81.7533 202.057 81.7207C202.135 81.6882 202.205 81.6405 202.264 81.5805C202.323 81.5205 202.37 81.4493 202.401 81.3712C202.432 81.293 202.448 81.2094 202.446 81.1252C202.436 80.9537 202.359 80.7931 202.231 80.6776C202.104 80.5621 201.937 80.5006 201.765 80.5064C201.681 80.5057 201.597 80.5219 201.518 80.5541C201.44 80.5864 201.369 80.6339 201.309 80.694C201.25 80.7541 201.203 80.8255 201.171 80.904C201.14 80.9825 201.124 81.0666 201.126 81.1512Z" fill="#263238"/>
<path d="M198.744 84.9004C198.34 84.8072 197.926 84.7635 197.512 84.7704C197.314 84.7704 197.132 84.7392 197.09 84.6092C197.061 84.414 197.092 84.2146 197.179 84.0372C197.324 83.5588 197.475 83.0596 197.636 82.5396C198.271 80.4076 198.713 78.6604 198.63 78.6344C198.546 78.6084 197.959 80.3192 197.324 82.446C197.174 82.966 197.028 83.486 196.888 83.954C196.787 84.1947 196.772 84.4629 196.846 84.7132C196.881 84.7764 196.928 84.8318 196.986 84.8756C197.043 84.9195 197.109 84.9509 197.179 84.968C197.288 84.98 197.398 84.98 197.506 84.968C197.92 84.9963 198.336 84.9736 198.744 84.9004Z" fill="#263238"/>
<path d="M201.131 76.1592C201.209 76.3412 201.864 76.2008 202.644 76.2424C203.424 76.284 204.069 76.4556 204.162 76.284C204.204 76.2008 204.079 76.0344 203.814 75.868C203.464 75.6698 203.072 75.5592 202.67 75.5456C202.269 75.5291 201.87 75.6075 201.505 75.7744C201.24 75.92 201.1 76.0708 201.131 76.1592Z" fill="#263238"/>
<path d="M193.383 77.6724C193.471 77.818 194.106 77.6724 194.88 77.6308C195.655 77.5892 196.29 77.7036 196.373 77.5528C196.456 77.402 196.279 77.3448 196.009 77.2252C195.643 77.0858 195.254 77.0222 194.863 77.0383C194.472 77.0543 194.089 77.1498 193.736 77.3188C193.471 77.48 193.346 77.5996 193.383 77.6724Z" fill="#263238"/>
<path d="M209.17 81.12C209.253 81.0784 212.446 79.8876 212.586 83.2C212.727 86.5124 209.342 85.9872 209.331 85.8936C209.321 85.8 209.17 81.12 209.17 81.12Z" fill="#FFBE9D"/>
<path d="M210.298 84.6196C210.298 84.6196 210.361 84.6612 210.46 84.7028C210.6 84.7574 210.756 84.7574 210.896 84.7028C211.106 84.5563 211.273 84.3569 211.381 84.125C211.489 83.893 211.533 83.6367 211.51 83.382C211.504 83.0955 211.436 82.8136 211.312 82.5552C211.275 82.4529 211.215 82.361 211.135 82.2868C211.055 82.2127 210.959 82.1585 210.855 82.1288C210.787 82.1134 210.716 82.1221 210.655 82.1535C210.593 82.1848 210.544 82.2368 210.517 82.3004C210.475 82.3992 210.517 82.4616 210.486 82.4668C210.454 82.472 210.408 82.4148 210.434 82.2796C210.448 82.1955 210.49 82.1187 210.553 82.0612C210.643 81.9897 210.756 81.9544 210.87 81.9624C211.011 81.9867 211.144 82.0475 211.254 82.1387C211.364 82.2299 211.449 82.3484 211.5 82.4824C211.656 82.7657 211.739 83.0842 211.739 83.408C211.768 83.7041 211.708 84.0021 211.569 84.2647C211.429 84.5274 211.215 84.7431 210.954 84.8848C210.867 84.9109 210.776 84.9184 210.686 84.9067C210.597 84.8951 210.511 84.8646 210.434 84.8172C210.309 84.7028 210.288 84.63 210.298 84.6196Z" fill="#EB996E"/>
<path d="M199.529 87.2144C199.493 87.126 200.148 86.9336 200.606 86.32C200.799 86.0515 200.955 85.7575 201.068 85.4464C201.167 85.202 201.24 85.0512 201.276 85.0616C201.313 85.072 201.302 85.2384 201.25 85.5036C201.178 85.8551 201.031 86.1868 200.819 86.476C200.601 86.7694 200.306 86.9963 199.966 87.1312C199.711 87.2352 199.54 87.2404 199.529 87.2144Z" fill="#263238"/>
<path d="M185.994 72.8572C186.054 72.6634 186.186 72.4998 186.363 72.3996C186.753 72.221 187.184 72.151 187.611 72.1968C188.903 72.1668 190.162 71.7818 191.251 71.084C191.761 70.3446 192.331 69.6488 192.956 69.004C194.428 67.4804 195.645 66.4456 196.903 65.9412C198.835 65.2367 200.922 65.0713 202.94 65.4628C204.63 65.91 206.154 67.2828 206.388 69.0196C207.34 68.2136 208.764 68.224 209.924 68.6868H209.95C211.24 69.1444 211.973 70.5068 212.352 71.8068C212.732 73.1068 212.872 74.5264 213.59 75.7016C213.736 75.9512 213.912 76.2216 213.782 76.5024C213.726 76.5983 213.641 76.6738 213.539 76.7178C213.437 76.7618 213.324 76.7719 213.216 76.7468C212.997 76.7008 212.792 76.6086 212.612 76.4764C212.758 76.8196 212.904 77.1628 213.044 77.5164C212.577 77.5917 212.098 77.5597 211.645 77.4228C211.408 78.5945 211.1 79.7509 210.725 80.886C210.245 80.8286 209.76 80.9488 209.362 81.224C208.91 81.6296 208.707 82.394 207.958 82.1028C207.579 81.952 207.23 81.1512 207.1 80.7664C206.253 78.1749 205.972 75.4314 206.279 72.722C205.743 72.151 205.102 71.6885 204.391 71.3596L204.448 71.4116C203.091 70.9384 201.552 70.4756 200.257 71.11C199.259 71.63 198.666 72.67 197.917 73.476C197.227 74.2416 196.388 74.8594 195.453 75.2919C194.517 75.7245 193.503 75.9629 192.473 75.9928C192.4 77.3656 192.514 79.3 192.442 80.6728L191.308 78.52C191.214 78.3588 191.136 78.1976 191.058 78.0364L191.032 77.9844C190.918 77.7179 190.789 77.4575 190.648 77.2044C190.488 77.3338 190.287 77.4016 190.082 77.3956C189.877 77.3896 189.68 77.3101 189.529 77.1716C189.377 77.0332 189.28 76.8449 189.255 76.6409C189.231 76.437 189.28 76.231 189.394 76.0604C189.509 75.8994 189.649 75.7587 189.81 75.6444C189.641 75.8056 189.433 75.9208 189.206 75.9791C188.98 76.0373 188.742 76.0367 188.516 75.9772C188.293 75.9124 188.098 75.7747 187.962 75.5862C187.826 75.3978 187.758 75.1693 187.767 74.9372C187.783 74.7813 187.84 74.6324 187.931 74.5049C188.022 74.3773 188.145 74.2755 188.287 74.2092C187.683 74.2569 187.079 74.1248 186.55 73.8296C186.212 73.6112 185.879 73.2888 185.994 72.8572Z" fill="#263238"/>
<path d="M204.88 69.5916C205.055 69.7265 205.219 69.8761 205.369 70.0388C205.755 70.5036 206.013 71.061 206.117 71.656C206.201 72.0632 206.243 72.4779 206.242 72.8936C206.242 73.346 206.211 73.8244 206.175 74.3288C206.131 74.8615 206.119 75.3963 206.138 75.9304C206.155 76.2134 206.191 76.4949 206.247 76.7728C206.292 77.0694 206.41 77.3501 206.591 77.5892C206.676 77.6834 206.783 77.7541 206.904 77.7942C207.024 77.8343 207.153 77.8425 207.277 77.818C207.517 77.7756 207.735 77.6527 207.896 77.4696C208.163 77.1076 208.326 76.6798 208.369 76.232H208.265C208.41 76.606 208.61 76.9565 208.858 77.272C209.094 77.5615 209.433 77.748 209.804 77.792C209.982 77.811 210.162 77.7804 210.324 77.7036C210.469 77.6288 210.587 77.5107 210.662 77.3656C210.737 77.2343 210.773 77.0848 210.766 76.934C210.762 76.7927 210.707 76.6578 210.61 76.5544L210.558 76.6012C210.846 76.9325 211.201 77.2 211.598 77.3864C211.704 77.4359 211.814 77.4776 211.926 77.5112C211.962 77.5285 212.001 77.539 212.04 77.5424L211.931 77.4956C211.858 77.4644 211.749 77.4228 211.619 77.3552C211.232 77.1598 210.887 76.8893 210.605 76.5596L210.553 76.6012C210.634 76.7038 210.681 76.8289 210.687 76.9594C210.694 77.0898 210.66 77.2191 210.589 77.3292C210.517 77.4564 210.408 77.5595 210.277 77.6256C210.136 77.6894 209.98 77.7146 209.825 77.6984C209.481 77.6535 209.166 77.4786 208.946 77.2096C208.709 76.9058 208.516 76.5696 208.374 76.2112L208.301 76.0552L208.27 76.2216C208.228 76.6492 208.074 77.0581 207.823 77.4072C207.679 77.5692 207.485 77.6789 207.272 77.7192C207.165 77.7398 207.055 77.7324 206.952 77.6978C206.849 77.6632 206.757 77.6025 206.684 77.5216C206.517 77.2968 206.408 77.0342 206.367 76.7572C206.313 76.4843 206.276 76.2081 206.258 75.9304C206.237 75.4102 206.248 74.8893 206.289 74.3704C206.32 73.8504 206.351 73.3824 206.346 72.9248C206.345 72.5032 206.298 72.0831 206.206 71.6716C206.092 71.0682 205.82 70.5062 205.415 70.044C205.265 69.8626 205.084 69.7095 204.88 69.5916Z" fill="#455A64"/>
<path d="M189.8 74.36L189.836 74.3912L189.961 74.4796C190.025 74.53 190.093 74.5753 190.164 74.6148C190.247 74.6616 190.346 74.7188 190.46 74.7708C191.113 75.064 191.827 75.1926 192.54 75.1452C193.606 75.0736 194.627 74.6963 195.484 74.0584C196.514 73.2699 197.372 72.279 198.006 71.1464C198.359 70.5588 198.65 69.9556 198.968 69.394C199.259 68.8521 199.625 68.3533 200.054 67.912C200.445 67.5159 200.927 67.2229 201.458 67.0592C201.7 66.9937 201.951 66.9657 202.202 66.976C202.432 66.9886 202.659 67.0324 202.878 67.106C203.544 67.3395 204.1 67.812 204.438 68.432C204.552 68.6631 204.635 68.9078 204.688 69.16C204.688 69.16 204.688 69.16 204.688 69.108L204.662 68.9624C204.625 68.7715 204.564 68.5862 204.48 68.4112C204.348 68.1382 204.172 67.8888 203.96 67.6728C203.663 67.3854 203.309 67.1654 202.92 67.028C202.694 66.9509 202.46 66.9037 202.223 66.8876C201.962 66.872 201.7 66.9001 201.448 66.9708C200.899 67.1339 200.4 67.4326 199.997 67.8392C199.557 68.2848 199.182 68.7908 198.884 69.342C198.562 69.9036 198.276 70.5068 197.922 71.0892C197.295 72.2079 196.45 73.1893 195.437 73.9752C194.598 74.6057 193.597 74.9829 192.551 75.062C191.841 75.1257 191.126 75.0113 190.471 74.7292C190.24 74.6194 190.016 74.4962 189.8 74.36Z" fill="#455A64"/>
<path d="M189.363 72.1916C189.417 72.2407 189.476 72.2826 189.54 72.3164C189.706 72.4171 189.88 72.5041 190.06 72.5764C190.326 72.689 190.601 72.7794 190.882 72.8468C191.223 72.9251 191.571 72.9721 191.922 72.9872C192.27 72.9951 192.618 72.9707 192.962 72.9144C193.247 72.8673 193.527 72.7942 193.799 72.696C193.978 72.6329 194.152 72.5564 194.319 72.4672C194.384 72.4394 194.446 72.4027 194.501 72.358C194.501 72.358 194.225 72.4776 193.762 72.6232C193.491 72.7039 193.215 72.7664 192.936 72.8104C192.592 72.8616 192.244 72.8824 191.896 72.8728C191.546 72.8593 191.198 72.8158 190.856 72.7428C190.58 72.6834 190.309 72.6034 190.044 72.5036C189.634 72.332 189.374 72.176 189.363 72.1916Z" fill="#455A64"/>
<path d="M193.346 79.56C193.445 79.6588 194.007 79.2064 194.823 79.1804C195.64 79.1544 196.248 79.56 196.331 79.456C196.414 79.352 196.274 79.2272 196.009 79.04C195.65 78.8032 195.227 78.6833 194.797 78.6968C194.372 78.7099 193.961 78.8593 193.627 79.1232C193.383 79.3052 193.3 79.4872 193.346 79.56Z" fill="#263238"/>
<path d="M193.866 81.1512C193.878 81.3231 193.957 81.4837 194.085 81.5991C194.213 81.7146 194.381 81.7758 194.553 81.77C194.637 81.77 194.72 81.7533 194.798 81.7207C194.876 81.6882 194.946 81.6405 195.005 81.5805C195.064 81.5205 195.111 81.4493 195.142 81.3712C195.173 81.293 195.189 81.2094 195.187 81.1252C195.176 80.9537 195.099 80.7931 194.972 80.6776C194.845 80.5621 194.678 80.5006 194.506 80.5064C194.421 80.5057 194.337 80.5219 194.259 80.5541C194.181 80.5864 194.11 80.6339 194.05 80.694C193.991 80.7541 193.944 80.8255 193.912 80.904C193.881 80.9825 193.865 81.0666 193.866 81.1512Z" fill="#263238"/>
<path d="M182 191.625C180.996 192.988 183.503 207.293 185.338 205.728L183.461 208.733L176.493 209.316L171.746 194.834L182 191.625Z" fill="#FFBE9D"/>
<path d="M189.956 144.851C189.956 144.851 164.32 159.546 162.989 166.234C162.341 168.481 162.388 170.872 163.124 173.092C164.33 177.039 174.106 205.28 174.106 205.28L184.356 201.88L182.588 190.96L178.578 174.84L177.372 173.191C178.217 173.168 179.044 172.944 179.785 172.536C180.882 171.876 197.465 161.751 197.465 161.751L201.625 148.86L189.956 144.851Z" fill="#263238"/>
<path d="M176.14 208.556L176.311 209.134C176.311 209.134 167.664 216.034 168.116 217.927L187.611 211.978L185.364 205.572C184.13 206.701 182.668 207.552 181.077 208.067C179.485 208.582 177.801 208.749 176.14 208.556Z" fill="#455A64"/>
<g opacity="0.6">
<path opacity="0.6" d="M187.611 211.978L187.091 210.418L168.584 216.705C168.584 216.705 167.835 217.35 168.116 217.927L187.611 211.978Z" fill="white"/>
</g>
<path d="M176.28 209.212C176.311 209.305 176.8 209.212 177.362 209.368C177.923 209.524 178.298 209.851 178.376 209.789C178.454 209.726 178.142 209.217 177.455 209.035C176.769 208.853 176.212 209.128 176.28 209.212Z" fill="#263238"/>
<path d="M174.475 210.683C174.475 210.782 174.943 210.818 175.385 211.12C175.827 211.422 176.056 211.822 176.15 211.786C176.243 211.749 176.15 211.198 175.578 210.829C175.006 210.46 174.449 210.6 174.475 210.683Z" fill="#263238"/>
<path d="M174.06 213.481C174.153 213.481 174.138 212.961 173.737 212.514C173.337 212.066 172.822 211.994 172.806 212.087C172.791 212.181 173.155 212.373 173.477 212.748C173.8 213.122 173.961 213.502 174.06 213.481Z" fill="#263238"/>
<path d="M171.6 169C171.963 169.067 172.314 169.19 172.64 169.364C173.466 169.74 174.243 170.215 174.954 170.778C175.665 171.341 176.306 171.987 176.862 172.702C177.107 172.99 177.31 173.31 177.466 173.654C176.653 172.688 175.761 171.792 174.798 170.976C173.791 170.227 172.721 169.566 171.6 169Z" fill="#455A64"/>
<path d="M173.243 166.234C173.58 166.483 173.881 166.776 174.138 167.107C174.801 167.871 175.383 168.703 175.874 169.588C176.365 170.472 176.761 171.407 177.055 172.375C177.2 172.768 177.29 173.179 177.32 173.597C177.15 173.217 177.006 172.826 176.888 172.427C176.213 170.549 175.238 168.793 174.002 167.227C173.727 166.913 173.474 166.581 173.243 166.234Z" fill="#455A64"/>
<g opacity="0.3">
<path opacity="0.3" d="M197.361 160.727C197.215 160.295 196.966 159.9 196.841 159.463C196.776 159.034 196.646 158.616 196.456 158.226C196.164 157.868 195.77 157.607 195.328 157.477C193.081 156.572 190.788 155.766 188.469 155.064L186.8 156.052C186.863 156.622 187.044 157.173 187.332 157.669C187.621 158.165 188.01 158.596 188.474 158.933C189.404 159.602 190.439 160.112 191.537 160.441C192.633 160.768 193.697 161.196 194.714 161.72C195.101 161.976 195.518 162.182 195.957 162.334C196.177 162.405 196.413 162.414 196.638 162.361C196.864 162.308 197.071 162.194 197.236 162.032C197.364 161.842 197.442 161.623 197.464 161.395C197.485 161.167 197.45 160.938 197.361 160.727Z" fill="black"/>
</g>
<path d="M202.436 169.286L205.951 157.513H202.868L199.841 168.574L202.436 169.286Z" fill="#E0E0E0"/>
<path d="M238.638 209.508C238.571 209.508 240.609 202.452 243.183 193.799C245.757 185.146 247.905 178.147 247.972 178.162C248.04 178.178 246.002 185.214 243.422 193.872C240.843 202.53 238.706 209.524 238.638 209.508Z" fill="#263238"/>
<path d="M238.638 209.508C238.571 209.508 239.424 202.228 240.547 193.268C241.67 184.309 242.627 177.05 242.71 177.06C242.793 177.07 241.92 184.34 240.796 193.3C239.673 202.259 238.706 209.513 238.638 209.508Z" fill="#263238"/>
<path d="M238.638 209.508C238.571 209.508 238.118 202.228 237.645 193.185C237.172 184.142 236.829 176.852 236.896 176.852C236.964 176.852 237.416 184.132 237.89 193.17C238.363 202.207 238.706 209.503 238.638 209.508Z" fill="#263238"/>
<path d="M238.638 209.508C238.571 209.508 236.907 202.389 234.926 193.58C232.944 184.772 231.39 177.616 231.457 177.601C231.525 177.585 233.189 184.714 235.17 193.528C237.151 202.342 238.706 209.492 238.638 209.508Z" fill="#263238"/>
<path d="M238.638 209.508C238.576 209.534 235.742 202.779 232.315 194.428C228.888 186.077 226.158 179.28 226.2 179.254C226.242 179.228 229.096 185.978 232.523 194.334C235.95 202.691 238.68 209.482 238.638 209.508Z" fill="#263238"/>
<path d="M238.638 209.508C238.581 209.544 234.66 203.362 229.882 195.697C225.103 188.032 221.281 181.792 221.338 181.756C221.395 181.719 225.316 187.902 230.095 195.567C234.874 203.232 238.68 209.472 238.638 209.508Z" fill="#263238"/>
<path d="M238.638 209.508C238.586 209.55 233.688 204.11 227.718 197.356C221.749 190.601 216.908 185.084 216.96 185.042C217.012 185 221.91 190.434 227.906 197.189C233.901 203.944 238.68 209.461 238.638 209.508Z" fill="#263238"/>
<path d="M238.638 209.508C238.597 209.56 232.856 205.015 225.815 199.358C218.774 193.7 213.106 189.067 213.153 189.015C213.2 188.963 218.92 193.502 225.976 199.16C233.033 204.818 238.68 209.451 238.638 209.508Z" fill="#263238"/>
<path d="M238.638 209.508C238.607 209.565 232.185 206.045 224.302 201.646C216.419 197.246 210.049 193.627 210.08 193.565C210.111 193.502 216.528 197.023 224.416 201.427C232.305 205.832 238.68 209.446 238.638 209.508Z" fill="#263238"/>
<path d="M238.638 209.508C238.638 209.57 231.696 207.173 223.189 204.152C214.682 201.131 207.797 198.63 207.818 198.567C207.839 198.505 214.76 200.897 223.272 203.918C231.785 206.939 238.68 209.44 238.638 209.508Z" fill="#263238"/>
<path d="M238.638 209.508C238.638 209.576 231.405 208.369 222.518 206.814C213.632 205.26 206.398 203.944 206.43 203.876C206.461 203.809 213.663 205.015 222.55 206.57C231.436 208.125 238.649 209.44 238.638 209.508Z" fill="#263238"/>
<path d="M238.638 209.508C238.638 209.576 231.317 209.596 222.29 209.55C213.262 209.503 205.936 209.414 205.936 209.347C205.936 209.279 213.257 209.258 222.29 209.3C231.322 209.342 238.638 209.435 238.638 209.508Z" fill="#263238"/>
<path d="M238.638 209.508C238.638 209.576 231.436 210.818 222.518 212.285C213.6 213.751 206.398 214.885 206.367 214.817C206.336 214.75 213.569 213.507 222.487 212.04C231.405 210.574 238.628 209.44 238.638 209.508Z" fill="#263238"/>
<path d="M238.638 209.508C238.638 209.57 231.753 212.004 223.215 214.942C214.677 217.88 207.735 220.204 207.714 220.142C207.693 220.08 214.593 217.641 223.137 214.703C231.681 211.765 238.617 209.44 238.638 209.508Z" fill="#263238"/>
<path d="M238.638 209.508C238.67 209.565 232.268 213.148 224.344 217.443C216.419 221.738 209.96 225.243 209.929 225.165C209.898 225.087 216.294 221.551 224.224 217.225C232.154 212.898 238.607 209.446 238.638 209.508Z" fill="#263238"/>
<path d="M238.638 209.508C238.68 209.56 232.965 214.136 225.872 219.721C218.78 225.306 212.992 229.798 212.95 229.746C212.909 229.694 218.624 225.118 225.716 219.528C232.809 213.938 238.597 209.451 238.638 209.508Z" fill="#263238"/>
<path d="M238.638 209.508C238.69 209.55 233.818 215.02 227.76 221.712C221.702 228.405 216.752 233.802 216.7 233.756C216.648 233.709 221.515 228.244 227.578 221.546C233.641 214.848 238.586 209.461 238.638 209.508Z" fill="#263238"/>
<path d="M238.638 209.508C238.696 209.544 234.811 215.748 229.954 223.361C225.098 230.974 221.114 237.12 221.062 237.084C221.01 237.047 224.89 230.844 229.746 223.226C234.603 215.608 238.581 209.466 238.638 209.508Z" fill="#263238"/>
<path d="M238.638 209.508C238.701 209.534 235.908 216.299 232.398 224.619C228.888 232.939 225.987 239.663 225.924 239.637C225.862 239.611 228.654 232.846 232.164 224.52C235.674 216.195 238.576 209.477 238.638 209.508Z" fill="#263238"/>
<path d="M238.638 209.508C238.706 209.508 237.078 216.663 234.998 225.451C232.918 234.239 231.197 241.353 231.13 241.337C231.062 241.322 232.69 234.182 234.77 225.394C236.85 216.606 238.571 209.492 238.638 209.508Z" fill="#263238"/>
<path d="M238.638 209.508C238.706 209.508 238.3 216.819 237.728 225.831C237.156 234.842 236.642 242.148 236.574 242.143C236.506 242.138 236.912 234.832 237.484 225.815C238.056 216.798 238.571 209.503 238.638 209.508Z" fill="#263238"/>
<path d="M238.638 209.508C238.706 209.508 239.528 216.788 240.474 225.753C241.42 234.718 242.133 242.024 242.06 242.029C241.987 242.034 241.171 234.749 240.224 225.779C239.278 216.809 238.571 209.513 238.638 209.508Z" fill="#263238"/>
<path d="M238.638 209.508C238.706 209.508 240.718 216.523 243.168 225.217C245.617 233.912 247.52 240.978 247.452 240.999C247.385 241.02 245.372 233.984 242.928 225.285C240.484 216.585 238.571 209.524 238.638 209.508Z" fill="#263238"/>
<path d="M238.638 209.508C238.701 209.477 241.878 216.076 245.731 224.24C249.584 232.404 252.658 239.049 252.595 239.08C252.533 239.112 249.361 232.513 245.502 224.344C241.644 216.174 238.576 209.56 238.638 209.508Z" fill="#263238"/>
<path d="M238.638 209.508C238.696 209.466 242.928 215.441 248.097 222.846C253.266 230.251 257.4 236.288 257.348 236.33C257.296 236.371 253.058 230.396 247.889 222.986C242.72 215.576 238.581 209.56 238.638 209.508Z" fill="#263238"/>
<path d="M238.638 209.508C238.685 209.456 243.838 214.64 250.193 221.073C256.547 227.505 261.633 232.773 261.57 232.82C261.508 232.866 256.37 227.687 250.016 221.25C243.662 214.812 238.592 209.56 238.638 209.508Z" fill="#263238"/>
<path d="M238.638 209.508C238.68 209.451 244.644 213.694 251.966 218.977C259.288 224.26 265.2 228.602 265.148 228.654C265.096 228.706 259.142 224.468 251.82 219.18C244.499 213.892 238.597 209.56 238.638 209.508Z" fill="#263238"/>
<path d="M238.638 209.508C238.669 209.446 245.263 212.628 253.365 216.616C261.466 220.605 268.008 223.896 267.977 223.954C267.946 224.011 261.357 220.834 253.25 216.84C245.143 212.846 238.607 209.56 238.638 209.508Z" fill="#263238"/>
<path d="M238.638 209.508C238.638 209.44 245.69 211.474 254.342 214.053C262.995 216.632 270 218.774 269.979 218.842C269.958 218.91 262.928 216.871 254.275 214.292C245.622 211.713 238.618 209.56 238.638 209.508Z" fill="#263238"/>
<path d="M238.638 209.508C238.638 209.435 245.918 210.267 254.883 211.364C263.848 212.462 271.107 213.398 271.102 213.444C271.097 213.491 263.822 212.685 254.852 211.588C245.882 210.491 238.628 209.56 238.638 209.508Z" fill="#263238"/>
<path d="M238.638 209.508C238.638 209.435 245.944 209.04 254.966 208.619C263.988 208.198 271.3 207.912 271.305 207.979C271.31 208.047 263.999 208.447 254.977 208.868C245.955 209.29 238.644 209.56 238.638 209.508Z" fill="#263238"/>
<path d="M238.638 209.508C238.638 209.44 245.768 207.823 254.587 205.899C263.406 203.975 270.577 202.472 270.587 202.54C270.598 202.608 263.463 204.22 254.639 206.144C245.814 208.068 238.68 209.56 238.638 209.508Z" fill="#263238"/>
<path d="M238.638 209.508C238.612 209.44 245.398 206.653 253.76 203.268C262.122 199.883 268.949 197.21 268.975 197.278C269.001 197.345 262.215 200.127 253.854 203.518C245.492 206.908 238.68 209.56 238.638 209.508Z" fill="#263238"/>
<path d="M238.638 209.508C238.602 209.446 244.811 205.566 252.507 200.84C260.203 196.113 266.469 192.332 266.505 192.39C266.542 192.447 260.333 196.326 252.637 201.053C244.941 205.78 238.68 209.56 238.638 209.508Z" fill="#263238"/>
<path d="M238.638 209.508C238.592 209.456 244.067 204.589 250.858 198.645C257.65 192.702 263.203 187.918 263.25 187.97C263.297 188.022 257.821 192.884 251.025 198.832C244.228 204.781 238.68 209.56 238.638 209.508Z" fill="#263238"/>
<path d="M238.638 209.508C238.586 209.461 243.168 203.752 248.872 196.752C254.576 189.753 259.246 184.111 259.272 184.158C259.298 184.205 254.743 189.909 249.038 196.908C243.334 203.908 238.68 209.56 238.638 209.508Z" fill="#263238"/>
<path d="M238.638 209.508C238.581 209.472 242.143 203.076 246.594 195.224C251.046 187.372 254.706 181.022 254.769 181.059C254.831 181.095 251.264 187.486 246.813 195.343C242.362 203.2 238.68 209.56 238.638 209.508Z" fill="#263238"/>
<path d="M194.789 218.636C196.794 213.734 194.445 208.136 189.543 206.131C184.641 204.127 179.043 206.476 177.038 211.377C175.034 216.279 177.383 221.878 182.285 223.882C187.186 225.886 192.785 223.538 194.789 218.636Z" fill="#263238"/>
<path d="M118.373 209.508C118.31 209.508 120.344 202.452 122.923 193.799C125.502 185.146 127.644 178.147 127.707 178.162C127.769 178.178 125.741 185.214 123.162 193.872C120.583 202.53 118.44 209.524 118.373 209.508Z" fill="#263238"/>
<path d="M118.373 209.508C118.305 209.508 119.163 202.228 120.286 193.268C121.41 184.309 122.366 177.05 122.444 177.06C122.522 177.07 121.654 184.34 120.531 193.3C119.408 202.259 118.44 209.513 118.373 209.508Z" fill="#263238"/>
<path d="M118.373 209.508C118.305 209.508 117.853 202.228 117.38 193.185C116.906 184.142 116.563 176.852 116.631 176.852C116.698 176.852 117.151 184.132 117.629 193.17C118.108 202.207 118.446 209.503 118.373 209.508Z" fill="#263238"/>
<path d="M118.373 209.508C118.305 209.508 116.646 202.389 114.665 193.58C112.684 184.772 111.129 177.616 111.197 177.601C111.264 177.585 112.923 184.714 114.904 193.528C116.886 202.342 118.44 209.492 118.373 209.508Z" fill="#263238"/>
<path d="M118.373 209.508C118.31 209.534 115.482 202.779 112.05 194.428C108.618 186.077 105.893 179.28 105.96 179.254C106.028 179.228 108.852 185.978 112.284 194.334C115.716 202.691 118.44 209.482 118.373 209.508Z" fill="#263238"/>
<path d="M118.373 209.508C118.316 209.544 114.395 203.362 109.616 195.697C104.837 188.032 101.015 181.792 101.072 181.756C101.13 181.719 105.05 187.902 109.829 195.567C114.608 203.232 118.435 209.472 118.373 209.508Z" fill="#263238"/>
<path d="M118.373 209.508C118.321 209.55 113.422 204.11 107.453 197.356C101.483 190.601 96.6419 185.084 96.6939 185.042C96.7459 185 101.644 190.434 107.64 197.189C113.636 203.944 118.425 209.461 118.373 209.508Z" fill="#263238"/>
<path d="M118.373 209.508C118.331 209.56 112.59 205.015 105.555 199.358C98.5192 193.7 92.846 189.067 92.8876 189.015C92.9292 188.963 98.6699 193.502 105.711 199.165C112.752 204.828 118.42 209.451 118.373 209.508Z" fill="#263238"/>
<path d="M118.373 209.508C118.342 209.565 111.92 206.045 104.036 201.646C96.1532 197.246 89.7884 193.627 89.8196 193.565C89.8508 193.502 96.2728 197.023 104.161 201.427C112.05 205.832 118.409 209.446 118.373 209.508Z" fill="#263238"/>
<path d="M118.373 209.508C118.373 209.57 111.431 207.173 102.924 204.152C94.4164 201.131 87.5316 198.63 87.5576 198.567C87.5836 198.505 94.4944 200.897 103.007 203.918C111.519 206.939 118.399 209.44 118.373 209.508Z" fill="#263238"/>
<path d="M118.373 209.508C118.373 209.576 111.14 208.369 102.253 206.814C93.366 205.26 86.1328 203.944 86.164 203.876C86.1952 203.809 93.3972 205.015 102.284 206.57C111.171 208.125 118.388 209.44 118.373 209.508Z" fill="#263238"/>
<path d="M118.373 209.508C118.373 209.576 111.051 209.596 102.024 209.55C92.9968 209.503 85.6752 209.414 85.6752 209.347C85.6752 209.279 92.9916 209.258 102.024 209.3C111.056 209.342 118.373 209.435 118.373 209.508Z" fill="#263238"/>
<path d="M118.373 209.508C118.373 209.576 111.171 210.818 102.253 212.285C93.3347 213.751 86.1327 214.885 86.0963 214.817C86.0599 214.75 93.2983 213.507 102.216 212.04C111.134 210.574 118.362 209.44 118.373 209.508Z" fill="#263238"/>
<path d="M118.373 209.508C118.399 209.57 111.493 212.004 102.955 214.942C94.4164 217.88 87.4744 220.204 87.4484 220.142C87.4224 220.08 94.3332 217.641 102.872 214.703C111.41 211.765 118.352 209.44 118.373 209.508Z" fill="#263238"/>
<path d="M118.373 209.508C118.409 209.565 112.008 213.148 104.078 217.443C96.148 221.738 89.6948 225.243 89.6636 225.165C89.6324 225.087 96.0284 221.551 103.958 217.225C111.888 212.898 118.342 209.446 118.373 209.508Z" fill="#263238"/>
<path d="M118.373 209.508C118.42 209.56 112.7 214.136 105.607 219.721C98.5141 225.306 92.7317 229.798 92.6849 229.746C92.6381 229.694 98.3581 225.118 105.456 219.528C112.554 213.938 118.331 209.451 118.373 209.508Z" fill="#263238"/>
<path d="M118.373 209.508C118.425 209.55 113.558 215.02 107.5 221.712C101.442 228.405 96.486 233.802 96.434 233.756C96.382 233.709 101.254 228.244 107.312 221.546C113.37 214.848 118.326 209.461 118.373 209.508Z" fill="#263238"/>
<path d="M118.373 209.508C118.435 209.544 114.546 215.748 109.694 223.361C104.842 230.974 100.854 237.12 100.802 237.084C100.75 237.047 104.629 230.844 109.481 223.226C114.332 215.608 118.316 209.466 118.373 209.508Z" fill="#263238"/>
<path d="M118.373 209.508C118.44 209.534 115.643 216.299 112.133 224.619C108.623 232.939 105.726 239.663 105.659 239.637C105.591 239.611 108.389 232.846 111.899 224.52C115.409 216.195 118.31 209.477 118.373 209.508Z" fill="#263238"/>
<path d="M118.373 209.508C118.44 209.508 116.813 216.663 114.733 225.451C112.653 234.239 110.932 241.353 110.864 241.337C110.796 241.322 112.424 234.182 114.504 225.394C116.584 216.606 118.305 209.492 118.373 209.508Z" fill="#263238"/>
<path d="M118.373 209.508C118.446 209.508 118.035 216.819 117.468 225.831C116.901 234.842 116.376 242.148 116.308 242.143C116.241 242.138 116.646 234.832 117.218 225.815C117.79 216.798 118.305 209.503 118.373 209.508Z" fill="#263238"/>
<path d="M118.373 209.508C118.446 209.508 119.267 216.788 120.208 225.753C121.15 234.718 121.867 242.024 121.8 242.029C121.732 242.034 120.91 234.749 119.964 225.779C119.018 216.809 118.305 209.513 118.373 209.508Z" fill="#263238"/>
<path d="M118.373 209.508C118.44 209.508 120.453 216.523 122.902 225.217C125.351 233.912 127.254 240.978 127.192 240.999C127.13 241.02 125.112 233.984 122.663 225.285C120.214 216.585 118.31 209.524 118.373 209.508Z" fill="#263238"/>
<path d="M118.373 209.508C118.435 209.477 121.612 216.076 125.466 224.24C129.319 232.404 132.397 239.049 132.335 239.08C132.272 239.112 129.095 232.513 125.242 224.344C121.389 216.174 118.31 209.56 118.373 209.508Z" fill="#263238"/>
<path d="M118.373 209.508C118.43 209.466 122.663 215.441 127.832 222.846C133 230.251 137.14 236.288 137.082 236.33C137.025 236.371 132.792 230.396 127.624 222.986C122.455 215.576 118.316 209.56 118.373 209.508Z" fill="#263238"/>
<path d="M118.373 209.508C118.425 209.456 123.599 214.64 129.927 221.073C136.256 227.505 141.367 232.773 141.305 232.82C141.242 232.866 136.105 227.687 129.75 221.25C123.396 214.812 118.326 209.56 118.373 209.508Z" fill="#263238"/>
<path d="M118.373 209.508C118.414 209.451 124.384 213.694 131.7 218.977C139.017 224.26 144.924 228.602 144.882 228.654C144.841 228.706 138.876 224.468 131.56 219.18C124.244 213.892 118.336 209.56 118.373 209.508Z" fill="#263238"/>
<path d="M118.373 209.508C118.404 209.446 124.998 212.628 133.099 216.616C141.201 220.605 147.742 223.896 147.711 223.954C147.68 224.011 141.092 220.834 132.99 216.84C124.888 212.846 118.342 209.56 118.373 209.508Z" fill="#263238"/>
<path d="M118.373 209.508C118.373 209.44 125.429 211.474 134.082 214.053C142.735 216.632 149.734 218.774 149.718 218.842C149.703 218.91 142.667 216.871 134.009 214.292C125.351 211.713 118.357 209.56 118.373 209.508Z" fill="#263238"/>
<path d="M118.373 209.508C118.373 209.435 125.653 210.267 134.618 211.364C143.582 212.462 150.847 213.398 150.836 213.444C150.826 213.491 143.556 212.685 134.592 211.588C125.627 210.491 118.368 209.56 118.373 209.508Z" fill="#263238"/>
<path d="M118.373 209.508C118.373 209.435 125.684 209.04 134.701 208.619C143.718 208.198 151.039 207.912 151.039 207.979C151.039 208.047 143.759 208.447 134.711 208.868C125.663 209.29 118.378 209.56 118.373 209.508Z" fill="#263238"/>
<path d="M118.373 209.508C118.373 209.44 125.502 207.823 134.321 205.899C143.14 203.975 150.311 202.472 150.327 202.54C150.342 202.608 143.203 204.22 134.378 206.144C125.554 208.068 118.388 209.56 118.373 209.508Z" fill="#263238"/>
<path d="M118.373 209.508C118.373 209.44 125.133 206.653 133.494 203.268C141.856 199.883 148.684 197.21 148.71 197.278C148.736 197.345 141.95 200.127 133.588 203.518C125.226 206.908 118.399 209.56 118.373 209.508Z" fill="#263238"/>
<path d="M118.373 209.508C118.336 209.446 124.545 205.566 132.241 200.84C139.937 196.113 146.203 192.332 146.24 192.39C146.276 192.447 140.067 196.326 132.371 201.053C124.675 205.78 118.409 209.56 118.373 209.508Z" fill="#263238"/>
<path d="M118.373 209.508C118.331 209.456 123.802 204.589 130.598 198.645C137.394 192.702 142.938 187.918 142.984 187.97C143.031 188.022 137.556 192.884 130.759 198.832C123.963 204.781 118.42 209.56 118.373 209.508Z" fill="#263238"/>
<path d="M118.373 209.508C118.321 209.461 122.902 203.752 128.606 196.752C134.311 189.753 138.98 184.111 139.038 184.158C139.095 184.205 134.508 189.909 128.799 196.908C123.089 203.908 118.43 209.56 118.373 209.508Z" fill="#263238"/>
<path d="M118.373 209.508C118.316 209.472 121.878 203.076 126.329 195.224C130.78 187.372 134.441 181.022 134.503 181.059C134.566 181.095 131.004 187.486 126.547 195.343C122.091 203.2 118.435 209.56 118.373 209.508Z" fill="#263238"/>
<path d="M81.2344 209.508C81.2344 216.853 83.4125 224.034 87.4933 230.141C91.5741 236.248 97.3744 241.008 104.161 243.819C110.947 246.63 118.414 247.366 125.618 245.933C132.822 244.5 139.44 240.963 144.634 235.769C149.827 230.575 153.365 223.957 154.798 216.753C156.231 209.549 155.495 202.082 152.684 195.296C149.873 188.51 145.113 182.709 139.006 178.629C132.898 174.548 125.718 172.37 118.373 172.37C108.523 172.371 99.078 176.284 92.1135 183.249C85.149 190.213 81.2358 199.659 81.2344 209.508ZM84.3544 209.508C84.3544 202.783 86.3486 196.209 90.0849 190.617C93.8212 185.025 99.1317 180.667 105.345 178.094C111.558 175.52 118.395 174.847 124.991 176.159C131.587 177.471 137.645 180.709 142.401 185.464C147.156 190.22 150.395 196.278 151.707 202.874C153.019 209.47 152.345 216.307 149.772 222.52C147.198 228.734 142.84 234.044 137.248 237.78C131.656 241.517 125.082 243.511 118.357 243.511C109.342 243.507 100.697 239.922 94.3236 233.546C87.9503 227.17 84.37 218.523 84.37 209.508H84.3544Z" fill="#263238"/>
<path d="M84.37 209.508C84.37 216.233 86.3642 222.807 90.1005 228.399C93.8368 233.991 99.1473 238.349 105.36 240.922C111.574 243.496 118.411 244.169 125.006 242.857C131.602 241.545 137.661 238.307 142.416 233.552C147.172 228.796 150.41 222.738 151.722 216.142C153.034 209.546 152.361 202.709 149.787 196.496C147.214 190.282 142.855 184.972 137.264 181.236C131.672 177.499 125.098 175.505 118.373 175.505C109.355 175.505 100.706 179.088 94.3292 185.464C87.9524 191.841 84.37 200.49 84.37 209.508ZM85.6752 209.508C85.6742 203.041 87.591 196.719 91.1832 191.341C94.7754 185.963 99.8817 181.771 105.856 179.296C111.831 176.82 118.406 176.172 124.749 177.433C131.092 178.694 136.918 181.808 141.492 186.38C146.065 190.953 149.18 196.779 150.442 203.122C151.704 209.465 151.057 216.039 148.582 222.014C146.107 227.989 141.916 233.096 136.539 236.69C131.162 240.283 124.84 242.2 118.373 242.2C109.702 242.2 101.386 238.756 95.2539 232.625C89.1221 226.494 85.6766 218.179 85.6752 209.508Z" fill="#E0E0E0"/>
<path d="M201.5 209.508C201.5 216.853 203.678 224.034 207.759 230.141C211.84 236.248 217.64 241.008 224.426 243.819C231.212 246.63 238.68 247.366 245.884 245.933C253.088 244.5 259.705 240.963 264.899 235.769C270.093 230.575 273.63 223.957 275.063 216.753C276.496 209.549 275.761 202.082 272.95 195.296C270.139 188.51 265.379 182.709 259.271 178.629C253.164 174.548 245.984 172.37 238.638 172.37C228.789 172.371 219.344 176.284 212.379 183.249C205.415 190.213 201.501 199.659 201.5 209.508ZM204.62 209.508C204.62 202.783 206.614 196.209 210.351 190.617C214.087 185.025 219.397 180.667 225.611 178.094C231.824 175.52 238.661 174.847 245.256 176.159C251.852 177.471 257.911 180.709 262.666 185.464C267.422 190.22 270.66 196.278 271.972 202.874C273.284 209.47 272.611 216.307 270.037 222.52C267.464 228.734 263.106 234.044 257.514 237.78C251.922 241.517 245.348 243.511 238.623 243.511C229.607 243.507 220.963 239.922 214.589 233.546C208.216 227.17 204.636 218.523 204.636 209.508H204.62Z" fill="#263238"/>
<path d="M204.635 209.508C204.635 216.233 206.63 222.807 210.366 228.399C214.102 233.991 219.413 238.349 225.626 240.922C231.839 243.496 238.676 244.169 245.272 242.857C251.868 241.545 257.927 238.307 262.682 233.552C267.437 228.796 270.676 222.738 271.988 216.142C273.3 209.546 272.626 202.709 270.053 196.496C267.479 190.282 263.121 184.972 257.529 181.236C251.937 177.499 245.363 175.505 238.638 175.505C229.62 175.505 220.971 179.088 214.595 185.464C208.218 191.841 204.635 200.49 204.635 209.508ZM205.941 209.508C205.94 203.041 207.856 196.719 211.449 191.341C215.041 185.963 220.147 181.771 226.122 179.296C232.096 176.82 238.671 176.172 245.014 177.433C251.357 178.694 257.184 181.808 261.757 186.38C266.33 190.953 269.445 196.779 270.707 203.122C271.969 209.465 271.322 216.039 268.847 222.014C266.373 227.989 262.182 233.096 256.805 236.69C251.427 240.283 245.105 242.2 238.638 242.2C234.343 242.203 230.089 241.36 226.12 239.718C222.151 238.076 218.544 235.669 215.506 232.633C212.468 229.597 210.057 225.992 208.412 222.024C206.768 218.056 205.921 213.803 205.92 209.508H205.941Z" fill="#E0E0E0"/>
<path d="M223.174 206.69H221.062V212.748H223.174V206.69Z" fill="#455A64"/>
<path d="M188.64 217.448L179.53 228.732L177.882 228.322L186.982 215.987L188.64 217.448Z" fill="#263238"/>
<path d="M173.74 230.599L183.147 230.611L183.15 227.959L173.743 227.947L173.74 230.599Z" fill="#263238"/>
<path d="M200.442 171.849L199.436 172.887L237.562 209.821L238.568 208.782L200.442 171.849Z" fill="#455A64"/>
<path d="M278.72 200.247C278.72 200.247 270.483 169.224 239.72 169.224C208.957 169.224 197.922 193.528 197.922 212.748L200.637 212.16C200.637 212.16 199.155 171.85 239.84 171.85C267.55 171.85 276.359 201.287 276.359 201.287L278.72 200.247Z" fill="#455A64"/>
<path d="M175.526 214.172C175.526 214.172 177.32 205.218 184.652 204.038C191.984 202.857 221.338 204.038 221.338 204.038C221.338 204.038 224.359 204.157 224.359 207.979L203.164 208.744L194.537 212.16C194.537 212.16 192.457 206.024 184.657 208C178.802 209.477 178.776 214.193 178.776 214.193L175.526 214.172Z" fill="#263238"/>
<path d="M192.878 194.912V191.443C185.952 191.443 181.183 189.738 178.401 188.323C176.767 187.539 175.276 186.484 173.992 185.203L173.961 185.167L145.361 154.076L142.807 156.421L171.376 187.496C171.907 188.048 178.266 194.912 192.878 194.912Z" fill="#455A64"/>
<path d="M199.829 167.497L185.903 216.253L189.238 217.206L203.164 168.45L199.829 167.497Z" fill="#455A64"/>
<path d="M186.909 218.572L238.883 211.224L238.394 207.792L188.235 214.885L141.825 164.117L139.266 166.457L186.909 218.572Z" fill="#455A64"/>
<path d="M151.466 136.339H161.382C161.98 136.339 162.469 137.379 162.469 138.689C162.469 140 161.98 141.034 161.382 141.034L151.466 140.317C149.375 137.878 151.466 136.339 151.466 136.339Z" fill="#263238"/>
<path d="M157.466 222.919C157.466 222.919 163.8 203.403 152.36 187.148C140.92 170.893 125.434 169.588 119.288 168.766L119.127 171.366C119.127 171.366 135.413 172.442 144.867 181.766C149.997 186.792 153.718 193.077 155.657 199.992C157.597 206.908 157.686 214.211 155.917 221.172L157.466 222.919Z" fill="#455A64"/>
<path d="M119.449 210.98C126.688 205.26 132.938 191.968 133.198 191.407L133.266 191.251L146.11 154.851L143.244 153.291L130.026 190.008C129.506 191.048 123.635 203.263 117.302 208.255L119.449 210.98Z" fill="#455A64"/>
<path d="M206.508 177.72L215.868 166.02H256.402C256.593 166.02 256.777 165.944 256.913 165.809C257.048 165.673 257.124 165.489 257.124 165.298C257.123 165.106 257.046 164.923 256.911 164.788C256.776 164.653 256.593 164.576 256.402 164.575H215.176L205.468 176.712L206.508 177.72Z" fill="#455A64"/>
<path d="M246.02 165.181L238.218 209.379L239.642 209.63L247.443 165.432L246.02 165.181Z" fill="#455A64"/>
<path d="M231.145 209.82C231.145 208.55 231.522 207.308 232.228 206.252C232.934 205.195 233.937 204.372 235.111 203.886C236.285 203.4 237.576 203.274 238.822 203.522C240.068 203.77 241.212 204.382 242.11 205.281C243.008 206.179 243.619 207.324 243.866 208.57C244.114 209.816 243.986 211.108 243.499 212.281C243.012 213.455 242.188 214.457 241.131 215.162C240.074 215.867 238.832 216.243 237.562 216.242C236.719 216.242 235.884 216.076 235.105 215.753C234.326 215.43 233.619 214.957 233.023 214.361C232.427 213.764 231.954 213.056 231.632 212.277C231.31 211.498 231.144 210.663 231.145 209.82Z" fill="#263238"/>
<path d="M111.956 209.82C111.956 208.55 112.333 207.308 113.039 206.252C113.745 205.195 114.748 204.372 115.922 203.886C117.095 203.4 118.387 203.274 119.633 203.522C120.879 203.77 122.023 204.382 122.921 205.281C123.819 206.179 124.43 207.324 124.677 208.57C124.925 209.816 124.797 211.108 124.31 212.281C123.823 213.455 122.999 214.457 121.942 215.162C120.885 215.867 119.643 216.243 118.373 216.242C116.671 216.241 115.038 215.563 113.835 214.359C112.632 213.155 111.956 211.522 111.956 209.82Z" fill="#263238"/>
<path d="M177.882 220.225C179.199 221.896 180.978 223.144 182.998 223.813C184.427 224.311 185.903 224.659 187.403 224.853C189.214 225.145 191.044 225.31 192.878 225.347C194.984 225.339 197.087 225.204 199.176 224.942C203.601 224.422 208.442 223.688 213.496 222.747C218.551 221.806 223.345 220.797 227.703 219.851L233.88 218.504C235.677 218.148 237.423 217.573 239.08 216.793C239.791 216.436 240.459 216 241.072 215.493C241.612 215.039 242.09 214.514 242.492 213.933C243.145 213.007 243.566 211.937 243.719 210.813C243.815 210.099 243.758 209.372 243.552 208.681C243.407 208.208 243.277 207.979 243.298 207.974C243.333 208.026 243.363 208.082 243.386 208.14C243.469 208.309 243.54 208.482 243.599 208.66C243.828 209.355 243.902 210.092 243.818 210.818C243.681 211.971 243.266 213.072 242.606 214.027C242.205 214.627 241.724 215.169 241.176 215.639C240.556 216.16 239.879 216.61 239.158 216.98C237.491 217.776 235.733 218.365 233.922 218.733L227.76 220.059C223.408 221.01 218.613 222.04 213.554 222.971C208.494 223.902 203.632 224.64 199.202 225.16C197.104 225.416 194.992 225.545 192.878 225.545C191.036 225.501 189.2 225.327 187.382 225.025C185.874 224.83 184.389 224.481 182.952 223.985C181.864 223.6 180.84 223.053 179.915 222.362C179.34 221.925 178.817 221.425 178.355 220.87C178.209 220.678 178.095 220.532 178.006 220.423C177.958 220.362 177.916 220.296 177.882 220.225Z" fill="#263238"/>
<path d="M212.602 154.913C212.212 156.099 210.522 161.096 207.984 161.278C205.447 161.46 188.089 158.761 185.484 158.096C183.825 157.674 182.884 154.913 186.815 154.913C192.483 154.913 213.465 152.261 212.602 154.913Z" fill="#FF8634"/>
<path d="M148.158 126.142C148.158 126.142 142.714 127.286 142.074 127.702C141.435 128.118 141.149 129.579 141.554 130.4C141.96 131.222 142.974 131.383 143.546 131.508C144.118 131.633 149.484 128.82 149.484 128.82C149.484 128.82 150.197 126.36 148.158 126.142Z" fill="#263238"/>
<path d="M155.48 143.374C154.554 143.265 152.027 143.161 151.263 142.631C150.95 142.387 150.691 142.08 150.504 141.729C150.317 141.379 150.205 140.994 150.176 140.598C150.117 139.912 150.157 139.222 150.296 138.549C151.013 138.632 151.481 138.7 151.481 138.7V136.349C149.224 136.152 146.953 136.152 144.695 136.349C143.866 135.67 143.095 134.922 142.392 134.113C141.872 133.552 141.326 132.829 141.58 132.116C141.743 131.791 141.963 131.499 142.23 131.253C142.365 131.132 142.469 130.982 142.537 130.815C142.605 130.647 142.633 130.466 142.62 130.286C142.553 129.938 141.965 129.516 141.705 129.766C141.177 130.224 140.71 130.748 140.317 131.326C139.923 131.896 139.77 132.599 139.89 133.281C140.136 134.009 140.586 134.652 141.185 135.132L142.808 136.692C141.768 136.984 140.941 137.431 140.681 138.096C139.672 140.696 142.511 145.07 145.532 146.609L143.582 153.546L145.969 154.658L148.47 146.338C148.501 146.246 148.493 146.145 148.451 146.058C148.408 145.971 148.333 145.903 148.242 145.87L146.318 145.158C146.318 145.158 141.726 141.118 142.303 139.261C142.594 138.341 144.846 138.19 147.046 138.268C146.853 138.977 146.756 139.707 146.754 140.442C146.863 141.578 147.403 142.629 148.262 143.38C148.785 143.836 149.398 144.176 150.062 144.378C151.978 144.874 153.966 145.036 155.938 144.856C156.119 144.841 156.289 144.758 156.412 144.624C156.536 144.489 156.604 144.313 156.604 144.131C156.604 143.949 156.536 143.773 156.412 143.638C156.289 143.504 156.119 143.421 155.938 143.406L155.48 143.374Z" fill="#E0E0E0"/>
<path d="M155.48 143.374C155.48 143.374 155.579 143.374 155.766 143.374C155.91 143.366 156.053 143.394 156.182 143.457C156.312 143.52 156.423 143.615 156.504 143.733C156.56 143.825 156.597 143.927 156.612 144.034C156.627 144.14 156.621 144.248 156.593 144.352C156.561 144.478 156.496 144.592 156.404 144.684C156.313 144.775 156.198 144.84 156.073 144.872C155.457 144.962 154.834 145 154.211 144.986C153.431 144.982 152.653 144.921 151.882 144.804C151.46 144.742 151.018 144.664 150.566 144.565C150.084 144.49 149.618 144.333 149.188 144.102C148.732 143.852 148.31 143.543 147.935 143.182C147.55 142.776 147.238 142.306 147.014 141.794C146.758 141.256 146.64 140.662 146.671 140.067C146.708 139.453 146.804 138.843 146.957 138.247L147.051 138.367C146.114 138.324 145.175 138.354 144.243 138.455C143.763 138.501 143.295 138.629 142.86 138.835C142.757 138.881 142.664 138.947 142.588 139.031C142.512 139.114 142.454 139.212 142.418 139.318C142.358 139.55 142.358 139.794 142.418 140.026C142.776 141.014 143.333 141.919 144.056 142.683C144.782 143.529 145.564 144.327 146.396 145.07H146.354L147.602 145.527L148.231 145.761C148.302 145.781 148.367 145.815 148.424 145.861C148.48 145.908 148.526 145.966 148.559 146.032C148.588 146.098 148.603 146.17 148.603 146.242C148.603 146.315 148.588 146.386 148.559 146.453C148.299 147.33 148.032 148.221 147.758 149.126C147.238 150.94 146.656 152.812 146.078 154.726L146.037 154.872L145.896 154.809L143.52 153.686L143.416 153.639L143.447 153.53L145.392 146.604L145.46 146.765C143.474 145.644 141.895 143.921 140.951 141.846C140.451 140.848 140.257 139.724 140.395 138.616C140.45 138.339 140.547 138.07 140.681 137.821C140.838 137.584 141.041 137.383 141.279 137.228C141.736 136.941 142.236 136.728 142.761 136.599L142.704 136.817L140.982 135.132C140.345 134.618 139.9 133.903 139.719 133.104C139.669 132.298 139.938 131.504 140.468 130.894C140.705 130.595 140.964 130.314 141.242 130.052C141.388 129.922 141.492 129.808 141.674 129.662C141.779 129.614 141.895 129.597 142.009 129.613C142.123 129.628 142.231 129.676 142.319 129.75C142.497 129.866 142.633 130.036 142.709 130.234C142.761 130.439 142.741 130.656 142.652 130.848C142.479 131.174 142.252 131.47 141.981 131.721C141.864 131.834 141.772 131.97 141.711 132.12C141.65 132.271 141.622 132.433 141.627 132.595C141.667 132.921 141.795 133.23 141.996 133.489C142.411 134.014 142.853 134.516 143.322 134.992C143.77 135.458 144.247 135.894 144.752 136.297H144.674C146.937 136.089 149.214 136.089 151.476 136.297H151.559V136.375C151.559 137.233 151.559 137.998 151.559 138.726V138.819H151.466L150.285 138.663L150.368 138.601C150.24 139.237 150.195 139.887 150.233 140.535C150.272 141.104 150.464 141.653 150.79 142.121C150.932 142.323 151.108 142.499 151.31 142.641C151.509 142.761 151.727 142.849 151.954 142.901C152.356 143.007 152.764 143.086 153.176 143.14C153.915 143.244 154.487 143.291 154.872 143.333L155.314 143.385C155.363 143.386 155.412 143.395 155.459 143.411C155.459 143.411 154.653 143.385 153.166 143.218C152.749 143.172 152.336 143.099 151.928 143C151.689 142.946 151.46 142.857 151.247 142.735C151.024 142.588 150.829 142.403 150.67 142.189C150.33 141.701 150.126 141.133 150.077 140.54C150.033 139.881 150.074 139.219 150.197 138.57V138.497H150.27L151.46 138.642L151.367 138.726C151.367 137.998 151.367 137.233 151.367 136.375L151.445 136.464C149.195 136.271 146.932 136.284 144.685 136.5H144.643H144.607C144.094 136.093 143.609 135.652 143.156 135.179C142.672 134.699 142.217 134.191 141.794 133.656C141.571 133.361 141.431 133.013 141.388 132.647C141.378 132.455 141.409 132.263 141.479 132.083C141.549 131.904 141.656 131.742 141.794 131.607C142.046 131.37 142.258 131.094 142.423 130.79C142.489 130.651 142.506 130.493 142.47 130.343C142.411 130.197 142.307 130.073 142.173 129.99C142.048 129.896 141.872 129.844 141.788 129.906C141.705 129.969 141.528 130.146 141.404 130.265C141.135 130.52 140.885 130.792 140.655 131.082C140.166 131.64 139.918 132.369 139.963 133.11C140.134 133.852 140.552 134.514 141.149 134.987L142.875 136.666L143.042 136.828L142.818 136.89C142.333 136.999 141.868 137.183 141.44 137.436C141.234 137.573 141.057 137.75 140.92 137.956C140.807 138.178 140.725 138.414 140.676 138.658C140.544 139.711 140.725 140.78 141.196 141.731C142.118 143.748 143.654 145.423 145.584 146.515L145.683 146.567L145.652 146.671C144.981 149.042 144.326 151.377 143.702 153.598L143.629 153.436L146.011 154.554L145.829 154.638L147.519 149.042C147.794 148.138 148.039 147.243 148.325 146.375C148.343 146.338 148.353 146.297 148.353 146.256C148.354 146.214 148.345 146.174 148.328 146.136C148.31 146.099 148.284 146.066 148.252 146.039C148.22 146.013 148.183 145.995 148.143 145.985L147.508 145.751L146.266 145.288C145.427 144.536 144.638 143.73 143.905 142.875C143.163 142.079 142.593 141.14 142.23 140.114C142.16 139.846 142.16 139.565 142.23 139.298C142.275 139.164 142.346 139.04 142.44 138.935C142.534 138.829 142.649 138.744 142.776 138.684C143.238 138.466 143.734 138.33 144.243 138.284C145.186 138.183 146.135 138.157 147.082 138.206H147.16V138.32C146.869 139.516 146.676 140.738 147.191 141.747C147.405 142.24 147.7 142.693 148.065 143.088C148.417 143.437 148.812 143.739 149.24 143.988C149.656 144.211 150.106 144.366 150.571 144.446C151.024 144.544 151.455 144.628 151.876 144.695C152.641 144.813 153.412 144.881 154.185 144.898C154.8 144.916 155.415 144.888 156.026 144.815C156.141 144.787 156.247 144.729 156.332 144.647C156.417 144.565 156.478 144.461 156.51 144.347C156.563 144.155 156.539 143.949 156.442 143.775C156.365 143.662 156.261 143.57 156.139 143.509C156.017 143.447 155.882 143.417 155.745 143.421L155.48 143.374Z" fill="#263238"/>
<path d="M208.296 225.831C208.296 225.831 207.288 239.06 207.308 239.699L204.708 241.909L198.162 240.448L197.964 225.831H208.296Z" fill="#FFBE9D"/>
<path d="M198.063 239.647V240.23C198.063 240.23 188.183 244.062 188.042 245.95L207.594 246.085L207.371 239.58C205.915 240.259 204.33 240.617 202.724 240.628C201.118 240.64 199.528 240.305 198.063 239.647Z" fill="#455A64"/>
<g opacity="0.6">
<path opacity="0.6" d="M207.584 246.064L207.532 244.504L188.812 244.951C188.812 244.951 187.938 245.32 188.032 245.934L207.584 246.064Z" fill="white"/>
</g>
<path d="M197.985 240.282C197.985 240.38 198.463 240.427 198.931 240.734C199.399 241.041 199.644 241.446 199.732 241.41C199.82 241.374 199.685 240.822 199.113 240.458C198.541 240.094 197.964 240.193 197.985 240.282Z" fill="#263238"/>
<path d="M195.926 241.119C195.926 241.207 196.316 241.374 196.638 241.779C196.96 242.185 197.049 242.616 197.158 242.611C197.267 242.606 197.314 242.065 196.908 241.571C196.503 241.077 195.931 241.025 195.926 241.119Z" fill="#263238"/>
<path d="M194.745 243.563C194.834 243.563 194.969 243.105 194.745 242.585C194.522 242.065 194.054 241.847 194.017 241.925C193.981 242.003 194.251 242.289 194.438 242.72C194.626 243.152 194.652 243.552 194.745 243.563Z" fill="#263238"/>
<path d="M191.974 153.135L194.111 160.384L195.255 171.501L196.409 203.086L197.486 204.235L197.772 238.035H207.818C207.818 238.035 211.739 210.699 211.338 203.84C211.105 199.22 211.113 194.591 211.364 189.972L216.445 167.534C216.445 167.534 218.982 157.362 219.045 151.902C219.103 149.088 218.967 146.274 218.639 143.478C218.639 143.478 201.656 147.217 197.756 146.12C195.272 145.41 192.872 144.43 190.601 143.198C190.601 143.198 189.072 142.033 188.495 143.759C188.276 144.394 188.744 145.714 188.744 145.714L191.974 153.135Z" fill="#263238"/>
<path d="M203.32 198.64C203.077 199 202.793 199.33 202.472 199.623C201.734 200.365 200.941 201.052 200.101 201.677C199.259 202.3 198.371 202.858 197.444 203.346C197.07 203.564 196.672 203.738 196.258 203.866C196.607 203.61 196.976 203.382 197.361 203.185C198.256 202.657 199.124 202.084 199.961 201.469C200.794 200.851 201.594 200.19 202.358 199.488C202.655 199.18 202.977 198.896 203.32 198.64Z" fill="#455A64"/>
<path d="M142.724 127.582C142.724 127.582 144.711 123.422 145.283 123.1C145.855 122.777 148.559 122.361 148.559 122.361C148.559 122.361 152.818 124.108 153.556 123.973C154.294 123.838 158.059 123.973 158.059 123.973L158.876 128.83H155.069C155.069 128.83 153.473 129.766 152.329 129.834C151.316 129.973 150.325 130.243 149.38 130.634C149.38 130.634 146.619 133.437 146.292 133.515C145.964 133.593 145.309 133.515 145.226 132.532C145.142 131.55 147.17 129.834 147.17 129.834C147.17 129.834 148.148 129.428 147.576 128.31C147.004 127.192 146.942 126.667 146.203 126.75C145.465 126.833 142.724 127.582 142.724 127.582Z" fill="#FFBE9D"/>
<path d="M224.333 105.191C223.813 102.591 220.75 98.1604 219.653 97.3544C218.556 96.5484 210.413 94.5568 210.413 94.5568L209.56 92.872L209.18 94.0368C209.134 94.2448 206.84 98.9872 200.283 98.5348C198.349 98.4048 198.052 97.1984 198.052 97.1984L197.772 98.9404C197.772 98.9404 190.46 102.06 189.28 102.653C187.72 103.449 175.76 121.228 175.76 121.228L156.811 123.703L156.338 131.503L176.415 132.278C177.744 132.369 179.078 132.191 180.336 131.754C181.594 131.317 182.751 130.63 183.737 129.735L190.497 122.58V123.152C190.497 126.272 189.457 141.06 189.457 141.06C187.824 146.432 193.996 147.332 198.692 149.521C201.312 150.61 204.033 151.441 206.814 152.001C214.994 153.67 219.69 148.881 219.69 148.881L220.142 146.214C220.142 146.214 224.869 107.791 224.333 105.191Z" fill="#FF8634"/>
<g opacity="0.3">
<path opacity="0.3" d="M192.447 131.492L194.579 134.17C194.579 134.17 214.682 142.49 220.787 141.034V138.102L195.608 130.177L192.447 130.52V131.492Z" fill="black"/>
</g>
<path d="M214.807 100.724C214.807 100.724 212.8 107.006 212.8 110.022C212.8 113.038 213.538 121.706 214.261 123.287C214.657 124.182 215.147 125.032 215.722 125.824L214.609 126.906L196.175 124.66L195.608 132.746C195.608 132.746 216.117 138.84 218.078 138.84C220.038 138.84 224.11 138.611 225.612 137.634C227.115 136.656 228.176 132.579 228.176 129.038C228.176 125.497 226.803 101.369 219.82 97.318C216.398 95.3004 214.807 100.724 214.807 100.724Z" fill="#FF8634"/>
<path d="M222.851 128.3C222.815 128.326 222.544 127.904 221.962 127.374C221.205 126.685 220.291 126.19 219.3 125.934C218.306 125.684 217.267 125.684 216.273 125.934C215.509 126.121 215.072 126.36 215.051 126.324C215.03 126.287 215.145 126.235 215.342 126.126C215.624 125.975 215.92 125.853 216.226 125.762C217.244 125.447 218.328 125.418 219.361 125.679C220.394 125.939 221.335 126.479 222.082 127.239C222.31 127.462 222.512 127.709 222.685 127.977C222.761 128.072 222.818 128.182 222.851 128.3Z" fill="#263238"/>
<path d="M220.168 123.141C218.364 123.568 216.767 124.613 215.654 126.095C215.737 125.829 215.875 125.585 216.06 125.377C216.464 124.843 216.956 124.382 217.516 124.015C218.077 123.65 218.696 123.383 219.346 123.224C219.611 123.137 219.891 123.109 220.168 123.141Z" fill="#263238"/>
<path d="M185.12 123.302L187.366 121.924H191.36L194.927 125.174L195.993 125.694L195.598 131.305L193.274 131.019C193.274 131.019 188.323 131.232 187.845 130.915C187.394 130.527 186.999 130.079 186.67 129.584C186.67 129.584 183.846 128.783 183.69 128.466C183.644 128.366 183.62 128.257 183.62 128.146C183.62 128.036 183.644 127.927 183.69 127.826L182.624 127.135C182.354 126.657 182.123 126.158 181.932 125.642L181.875 125.32C181.649 125.237 181.451 125.094 181.3 124.906C181.15 124.718 181.054 124.493 181.022 124.254C180.976 123.926 182.317 123.999 182.317 123.999L185.671 124.046L185.12 123.302Z" fill="#FFBE9D"/>
<path d="M185.723 124.145L183.404 120.988H178.589V121.399L181.017 124.212L185.723 124.145Z" fill="#455A64"/>
<path d="M191.173 151.07C190.601 150.274 190.149 149.398 189.831 148.47C189.238 146.968 188.687 145.787 188.744 145.751C189.313 146.548 189.764 147.424 190.081 148.351C190.679 149.859 191.23 151.039 191.173 151.07Z" fill="#455A64"/>
<path d="M194.147 160.805C194.065 160.63 194.002 160.447 193.96 160.259C193.856 159.9 193.716 159.385 193.56 158.74C193.242 157.451 192.852 155.662 192.52 153.665C192.187 151.668 191.963 149.848 191.838 148.528C191.776 147.867 191.734 147.332 191.719 146.968C191.692 146.776 191.692 146.582 191.719 146.39C191.774 146.575 191.809 146.765 191.823 146.957C191.88 147.384 191.948 147.898 192.031 148.517C192.202 149.828 192.452 151.637 192.785 153.629C193.118 155.62 193.482 157.414 193.752 158.709C193.877 159.312 193.981 159.822 194.069 160.243C194.117 160.427 194.143 160.615 194.147 160.805Z" fill="#455A64"/>
<path d="M215.056 154.586C214.913 154.685 214.758 154.766 214.593 154.825C214.408 154.917 214.215 154.993 214.016 155.054C213.762 155.152 213.501 155.233 213.236 155.298C212.547 155.477 211.841 155.587 211.13 155.626C210.261 155.666 209.389 155.613 208.53 155.47C207.672 155.311 206.833 155.06 206.029 154.721C205.373 154.439 204.747 154.091 204.162 153.681C203.936 153.529 203.719 153.364 203.512 153.187C203.349 153.062 203.196 152.925 203.055 152.776C202.81 152.537 202.686 152.402 202.701 152.386C202.717 152.37 203.268 152.875 204.261 153.525C204.849 153.899 205.468 154.221 206.112 154.487C206.906 154.803 207.728 155.041 208.567 155.199C209.41 155.341 210.265 155.398 211.12 155.371C211.82 155.345 212.516 155.256 213.2 155.106C214.354 154.851 215.036 154.534 215.056 154.586Z" fill="#455A64"/>
<path d="M218.613 97.3804C218.613 97.4272 218.093 97.4844 217.277 97.7912C216.228 98.1775 215.292 98.8176 214.552 99.6542C213.811 100.491 213.289 101.498 213.033 102.586C212.831 103.423 212.831 103.964 212.784 103.964C212.747 103.841 212.735 103.712 212.748 103.584C212.744 103.235 212.777 102.886 212.846 102.544C213.06 101.403 213.579 100.341 214.348 99.4711C215.118 98.6013 216.108 97.9561 217.214 97.604C217.545 97.498 217.884 97.4231 218.228 97.3804C218.473 97.3596 218.608 97.3596 218.613 97.3804Z" fill="#263238"/>
<path d="M189.483 105.664C189.483 105.69 189.483 105.732 189.509 105.789C189.535 105.846 189.545 106.054 189.566 106.262C189.608 106.673 189.665 107.266 189.722 108.004C189.842 109.481 189.977 111.514 190.112 113.766C190.247 116.017 190.356 118.056 190.419 119.532C190.419 120.229 190.466 120.817 190.481 121.285C190.508 121.499 190.508 121.715 190.481 121.93C190.432 121.72 190.403 121.505 190.393 121.29C190.351 120.822 190.304 120.25 190.247 119.548C190.133 118.071 189.998 116.033 189.862 113.781C189.727 111.53 189.613 109.491 189.545 108.014C189.545 107.323 189.493 106.735 189.478 106.267C189.478 106.09 189.478 105.934 189.478 105.794V105.654C189.514 105.654 189.478 105.654 189.478 105.654L189.483 105.664Z" fill="#263238"/>
<path d="M210.434 94.5568C210.426 94.7735 210.391 94.9885 210.33 95.1964C210.189 95.7717 209.981 96.3285 209.711 96.8552C209.31 97.6415 208.783 98.3565 208.151 98.9716C207.372 99.7234 206.465 100.329 205.473 100.76C204.571 101.154 203.597 101.357 202.613 101.357C201.629 101.357 200.655 101.154 199.753 100.76C199.211 100.517 198.711 100.191 198.271 99.7932C198.103 99.6535 197.956 99.4906 197.834 99.3096C198.434 99.8287 199.107 100.258 199.831 100.584C200.713 100.943 201.658 101.123 202.61 101.114C203.563 101.105 204.504 100.907 205.379 100.532C206.337 100.109 207.216 99.5271 207.979 98.8104C208.599 98.2178 209.125 97.5339 209.539 96.7824C209.9 96.0671 210.199 95.3226 210.434 94.5568Z" fill="#263238"/>
<path d="M212.68 108.009C212.702 108.096 212.716 108.185 212.722 108.274L212.81 109.049C212.883 109.746 212.982 110.739 213.112 112.003C213.361 114.603 213.715 118.243 214.152 122.699V122.647C214.588 123.344 215.056 124.098 215.545 124.873L215.587 124.94L215.54 125.008L214.5 126.396L214.458 126.454H214.391L199.087 124.602L195.967 124.218L196.118 124.093C195.92 126.916 195.728 129.636 195.546 132.179L195.452 132.049L211.572 136.458L216.216 137.753L217.448 138.107L217.766 138.2L217.87 138.242C217.87 138.242 217.833 138.242 217.76 138.242L217.438 138.169L216.19 137.852L211.51 136.63L195.348 132.314L195.25 132.288V132.184C195.426 129.636 195.614 126.922 195.811 124.093V123.952H195.952L199.072 124.332L214.37 126.209L214.261 126.256L215.301 124.868V125.003L213.918 122.772V122.746C213.528 118.29 213.205 114.618 212.982 112.044L212.737 109.086C212.737 108.758 212.696 108.498 212.685 108.311C212.672 108.211 212.67 108.11 212.68 108.009Z" fill="#263238"/>
</svg>
