<svg width="389" height="266" viewBox="0 0 389 266" fill="none" xmlns="http://www.w3.org/2000/svg">
<path d="M226.632 192.451C226.632 192.451 232.255 188.95 234.373 189.185L246.54 192.02C246.54 192.02 247.604 193.159 245.476 194.207C243.348 195.255 240.688 193.749 240.688 193.749L237.73 194.164L239.772 195.872L247.843 198.356C247.843 198.356 253.695 200.005 252.982 200.867C252.269 201.729 250.514 201.835 247.992 201.123L242.268 199.527C242.268 199.527 241.267 199.308 242.879 200.426C244.491 201.543 251.572 203.283 252.509 203.745C253.445 204.208 255.988 204.597 255.701 206.049C255.413 207.501 252.232 206.331 252.232 206.331L241.752 203.9C241.752 203.9 245.89 205.687 246.593 206.028C247.295 206.368 249.588 206.991 250.811 207.624C252.035 208.257 252.62 209.044 252.482 209.688C252.434 209.996 252.271 210.275 252.025 210.467C251.778 210.659 251.468 210.749 251.157 210.72L242.289 207.672C242.289 207.672 238.267 206.076 237.996 206.129C237.724 206.182 239.565 207.9 239.565 207.9L242.395 209.353C242.395 209.353 246.481 210.72 246.492 211.853C246.502 212.986 245.651 212.944 245.651 212.944L238.203 210.374L229.888 206.161L223.658 202.341C223.658 202.341 224.781 197.947 224.568 197.755C224.355 197.564 226.632 192.451 226.632 192.451Z" fill="#FFBE9D"/>
<path d="M229.569 200.708C229.569 200.622 230.351 200.415 231.574 199.973C232.798 199.532 234.522 198.745 235.415 197.005C235.807 196.299 235.949 195.482 235.82 194.685L235.766 194.419L236.059 194.382C237.352 194.212 238.554 193.93 239.368 193.824C240.182 193.717 240.703 193.68 240.703 193.749C240.293 193.916 239.867 194.042 239.432 194.127C238.607 194.324 237.522 194.659 236.075 194.888L236.314 194.584C236.489 195.493 236.341 196.434 235.894 197.244C235.428 198.126 234.729 198.862 233.872 199.372C233.194 199.785 232.462 200.102 231.697 200.314C230.404 200.697 229.585 200.771 229.569 200.708Z" fill="#EB996E"/>
<path d="M115.231 246.093L114.247 209.374L178.64 210.619L187.402 244.709L115.231 246.093Z" fill="#263238"/>
<path d="M147.279 106.767L142.438 111.353C142.438 111.353 124.35 115.848 121.158 119.014C117.966 122.179 116.37 170.948 116.556 174.342C116.742 177.736 116.556 207.022 116.556 207.022C116.556 207.022 115.492 218.194 116.556 218.833C117.62 219.471 137.921 219.737 148.045 219.95C158.169 220.163 179.635 220.753 180.901 219.7C182.167 218.647 177.757 196.781 177.757 196.781L176.002 186.7L176.534 169.07L180.258 144.816L183.008 119.7C183.008 119.7 175.629 115.274 172.043 114.428C168.458 113.582 147.279 106.767 147.279 106.767Z" fill="#455A64"/>
<path d="M200.665 177.183L190.828 135.878C190.05 132.597 188.916 129.411 187.445 126.377C185.918 123.243 184.029 119.828 182.992 119.705C176.89 119.003 173.714 137.634 173.714 137.634V161.249L179.47 186.828C179.904 188.757 180.835 190.539 182.172 191.996C183.509 193.453 185.204 194.534 187.088 195.132L226.132 207.56L230.659 188.179L200.665 177.183Z" fill="#455A64"/>
<path d="M130.92 115.322C130.92 115.322 116.082 117.418 111.289 128.739C111.289 128.739 96.4623 186.45 98.9414 194.052C101.421 201.655 120.588 230.984 120.588 230.984L137.394 222.115C137.394 222.115 120.972 188.03 120.972 184.269C120.972 180.508 130.92 115.322 130.92 115.322Z" fill="#455A64"/>
<path d="M137.394 222.115C137.356 222.057 137.324 221.994 137.299 221.929C137.235 221.796 137.155 221.61 137.048 221.397C136.83 220.892 136.516 220.179 136.112 219.269L132.718 211.411C129.877 204.756 125.956 195.584 121.626 185.455C121.424 184.987 121.227 184.524 121.046 184.093V184.061C121.102 183.39 121.207 182.723 121.36 182.066C121.498 181.417 121.642 180.774 121.796 180.146C122.094 178.88 122.413 177.64 122.727 176.422C123.36 173.991 123.977 171.634 124.557 169.415C125.738 164.963 126.786 160.962 127.637 157.6C128.489 154.237 129.138 151.514 129.59 149.62C129.803 148.689 129.973 147.965 130.09 147.454C130.148 147.215 130.196 147.034 130.228 146.891C130.239 146.826 130.259 146.764 130.287 146.704C130.28 146.769 130.269 146.833 130.255 146.896C130.228 147.039 130.191 147.226 130.143 147.465C130.037 147.997 129.888 148.71 129.691 149.646C129.276 151.535 128.659 154.264 127.824 157.626C126.988 160.989 125.967 165 124.802 169.458C124.227 171.692 123.615 174.033 122.988 176.464C122.679 177.683 122.36 178.922 122.062 180.188C121.728 181.452 121.481 182.737 121.323 184.035V183.982C121.509 184.412 121.706 184.881 121.902 185.343L132.925 211.337L136.192 219.184C136.57 220.11 136.868 220.828 137.08 221.312C137.173 221.546 137.247 221.732 137.304 221.871C137.373 222.046 137.394 222.115 137.394 222.115Z" fill="#263238"/>
<path d="M180.173 140.448C180.186 140.561 180.186 140.675 180.173 140.788C180.173 141.033 180.157 141.352 180.125 141.746C180.066 142.613 179.992 143.805 179.896 145.268C179.683 148.242 179.428 152.349 178.954 156.876C178.481 161.403 177.81 165.473 177.3 168.41C177.044 169.878 176.826 171.07 176.667 171.884C176.592 172.267 176.528 172.581 176.475 172.82C176.458 172.932 176.432 173.043 176.395 173.15C176.391 173.038 176.4 172.925 176.422 172.815C176.459 172.565 176.502 172.251 176.56 171.863C176.693 171.006 176.879 169.825 177.092 168.378C177.55 165.436 178.188 161.366 178.662 156.85C179.135 152.333 179.422 148.221 179.683 145.252C179.816 143.794 179.923 142.592 180.002 141.735C180.04 141.347 180.077 141.028 180.103 140.783C180.114 140.669 180.138 140.557 180.173 140.448Z" fill="#263238"/>
<path d="M122.802 229.824L124.467 232.888C124.467 232.888 132.718 229.744 136.644 224.445L135.58 223.382L122.802 229.824Z" fill="#FFBE9D"/>
<path d="M139.081 221.445C138.943 221.717 138.785 221.979 138.607 222.227C138.448 222.477 138.251 222.759 137.996 223.11C137.74 223.461 137.464 223.834 137.123 224.233C136.783 224.632 136.416 225.084 135.985 225.525C135.554 225.967 135.086 226.44 134.58 226.919C133.464 227.942 132.27 228.878 131.01 229.718C129.746 230.549 128.427 231.293 127.063 231.947C125.946 232.471 124.8 232.933 123.632 233.33C123.137 233.511 122.679 233.638 122.275 233.761C121.871 233.883 121.53 233.974 121.243 234.037C120.95 234.125 120.652 234.189 120.349 234.229C120.628 234.107 120.916 234.009 121.211 233.936C121.493 233.851 121.839 233.75 122.232 233.612C122.626 233.474 123.078 233.335 123.568 233.144C124.552 232.793 125.696 232.308 126.951 231.713C128.299 231.052 129.605 230.309 130.861 229.489C132.107 228.654 133.293 227.733 134.41 226.733C134.915 226.265 135.399 225.818 135.82 225.366C136.24 224.914 136.628 224.499 136.974 224.105C137.32 223.711 137.607 223.334 137.868 223.014C138.129 222.695 138.347 222.403 138.517 222.163C138.684 221.908 138.873 221.668 139.081 221.445Z" fill="#455A64"/>
<path d="M130.697 135.926C130.633 135.926 130.856 134.947 130.808 133.378C130.798 132.95 130.76 132.524 130.697 132.101C130.636 131.613 130.545 131.13 130.425 130.654C129.882 128.461 128.814 126.432 127.313 124.743C126.977 124.379 126.622 124.032 126.249 123.706C125.935 123.413 125.603 123.141 125.254 122.892C123.988 121.966 123.062 121.605 123.089 121.551C123.313 121.606 123.53 121.69 123.733 121.801C123.985 121.901 124.227 122.024 124.456 122.168C124.772 122.338 125.078 122.526 125.371 122.732C125.733 122.977 126.078 123.245 126.403 123.536C126.779 123.859 127.134 124.206 127.467 124.573C128.236 125.426 128.899 126.369 129.441 127.382C129.967 128.395 130.371 129.466 130.643 130.574C130.756 131.06 130.84 131.552 130.893 132.048C130.947 132.48 130.974 132.915 130.973 133.351C130.98 133.706 130.964 134.062 130.925 134.415C130.91 134.685 130.874 134.954 130.819 135.218C130.799 135.457 130.758 135.694 130.697 135.926Z" fill="#263238"/>
<path d="M187.328 66.3457C191.275 69.7452 189.067 75.0758 188.275 80.2203C187.482 85.3647 188.402 91.0146 188.61 96.2175C188.722 98.968 189.397 101.809 188.504 104.41C187.573 107.134 185.131 108.996 183.231 111.167C181.332 113.337 179.912 116.556 181.407 119.014C180.998 119.169 180.557 119.22 180.124 119.16C179.69 119.101 179.279 118.933 178.928 118.673C178.289 119.817 176.714 120.158 175.454 119.785C174.193 119.413 173.171 118.514 172.198 117.657C172.049 118.599 170.905 119.109 169.969 118.918C169.051 118.64 168.233 118.1 167.617 117.365C167.003 116.631 166.232 116.044 165.362 115.646C163.367 114.939 161.036 116.455 159.1 115.593C156.44 114.417 156.701 109.821 153.95 108.879C152.657 108.432 151.264 109.044 149.907 109.193C148.55 109.342 147.093 108.129 147.279 106.788C144.943 107.762 141.959 108.225 139.56 107.358C139.942 107.046 140.234 106.637 140.405 106.174C140.575 105.71 140.618 105.21 140.528 104.724C138.792 105.028 137.005 104.809 135.394 104.096C136.12 103.915 136.799 103.581 137.386 103.116C137.972 102.651 138.452 102.065 138.794 101.399C138.059 101.512 137.307 101.44 136.607 101.19C135.907 100.94 135.28 100.52 134.782 99.9681C137.745 100 139.81 96.9357 140.432 94.0416C141.055 91.1476 140.836 88.0513 142.028 85.3381C143.31 82.3855 146.055 80.3267 147.72 77.5709C150.045 73.7299 150.109 68.8302 152.508 65.037C154.104 62.5526 155.583 60.4352 157.967 58.7115C160.978 56.5303 162.702 55.4025 166.42 55.4504C169.538 55.4929 174.868 56.3601 177.528 57.988C182.253 60.8821 187.269 64.1113 189.365 69.2398" fill="#263238"/>
<path d="M152.365 89.1366C152.141 85.0295 151.945 80.8906 152.429 76.8048C152.913 72.7191 154.131 68.644 156.509 65.2817C156.871 64.7763 159.669 61.462 160.233 61.6801C160.648 61.8344 158.605 65.0796 158.722 65.5105C159.845 69.6122 159.254 74.0225 157.85 78.0497C156.432 81.9386 154.586 85.6572 152.344 89.1366" fill="#263238"/>
<path d="M162.196 130.931C156.062 129.159 144.518 117.152 146.156 110.981L156.014 73.8576C158.344 63.7974 166.122 56.7697 176.129 59.3765L177.039 59.6744C181.449 61.1051 185.159 64.1433 187.431 68.1849C189.703 72.2264 190.371 76.9751 189.302 81.4864C187.232 90.1953 184.838 99.7819 183.306 104.315C180.114 113.699 170.235 112.108 170.235 112.108C170.235 112.108 169.586 114.311 168.809 117.114C167.064 123.408 163.388 129.579 162.196 130.946V130.931Z" fill="#FFBE9D"/>
<path d="M170.24 112.119C170.24 112.119 164.186 110.523 159.143 104.511C159.143 104.511 159.797 112.555 169.474 114.752L170.24 112.119Z" fill="#EB996E"/>
<path d="M183.481 89.2058C183.371 89.5579 183.127 89.8528 182.802 90.0277C182.477 90.2027 182.097 90.2437 181.742 90.1421C181.566 90.1005 181.401 90.0242 181.255 89.9177C181.11 89.8112 180.987 89.6766 180.894 89.5219C180.802 89.3672 180.741 89.1955 180.716 89.017C180.69 88.8384 180.701 88.6566 180.747 88.4822C180.859 88.1307 181.102 87.8362 181.427 87.6606C181.751 87.485 182.131 87.442 182.487 87.5406C182.662 87.5834 182.827 87.6607 182.972 87.7679C183.117 87.8751 183.24 88.0101 183.332 88.1651C183.425 88.32 183.486 88.4918 183.511 88.6704C183.537 88.8491 183.527 89.0311 183.481 89.2058Z" fill="#263238"/>
<path d="M185.95 85.003C185.727 85.1253 184.95 84.04 183.503 83.5719C182.056 83.1037 180.758 83.4868 180.657 83.258C180.603 83.1569 180.88 82.8962 181.449 82.726C182.215 82.491 183.036 82.5021 183.795 82.7579C184.55 82.999 185.208 83.4742 185.673 84.1145C186.009 84.588 186.056 84.9498 185.95 85.003Z" fill="#263238"/>
<path d="M170.24 85.3754C170.129 85.7275 169.886 86.0224 169.561 86.1973C169.236 86.3723 168.855 86.4133 168.5 86.3117C168.325 86.2701 168.159 86.1938 168.014 86.0873C167.868 85.9808 167.746 85.8462 167.653 85.6915C167.56 85.5368 167.499 85.3651 167.474 85.1866C167.449 85.008 167.459 84.8262 167.505 84.6518C167.617 84.3003 167.861 84.0058 168.185 83.8303C168.51 83.6547 168.89 83.6116 169.245 83.7102C169.421 83.7524 169.586 83.8293 169.732 83.9363C169.877 84.0433 170 84.1784 170.093 84.3335C170.185 84.4886 170.246 84.6607 170.272 84.8396C170.297 85.0185 170.286 85.2006 170.24 85.3754Z" fill="#263238"/>
<path d="M171.645 80.7363C171.421 80.8587 170.644 79.7734 169.197 79.3052C167.75 78.8371 166.452 79.2201 166.351 78.9914C166.303 78.885 166.569 78.6243 167.144 78.4594C167.913 78.2291 168.734 78.2422 169.495 78.4966C170.25 78.7376 170.907 79.2128 171.373 79.8532C171.703 80.332 171.751 80.6831 171.645 80.7363Z" fill="#263238"/>
<path d="M173.23 93.5469C173.23 93.4618 174.203 93.6001 175.72 93.8874C176.103 93.9672 176.475 94.0097 176.619 93.7756C176.775 93.4042 176.814 92.9941 176.73 92.5999C176.672 91.5891 176.613 90.5358 176.55 89.4079C176.331 84.9072 176.3 81.2524 176.48 81.247C176.661 81.2417 176.986 84.8806 177.204 89.3813C177.254 90.4879 177.298 91.5519 177.337 92.5733C177.42 93.0944 177.321 93.6283 177.055 94.0842C176.959 94.1973 176.839 94.2871 176.704 94.347C176.568 94.4069 176.421 94.4353 176.273 94.43C176.049 94.4183 175.827 94.379 175.613 94.313C174.124 93.9193 173.209 93.632 173.23 93.5469Z" fill="#263238"/>
<path d="M173.273 75.2833C172.953 75.5866 171.677 74.7513 169.979 74.1502C168.282 73.549 166.787 73.3628 166.718 72.9266C166.718 72.7191 167.096 72.4797 167.782 72.3946C168.696 72.2967 169.62 72.4077 170.484 72.7192C171.349 73.0307 172.131 73.5346 172.772 74.1927C173.262 74.6981 173.432 75.1344 173.273 75.2833Z" fill="#263238"/>
<path d="M186.732 81.5077C186.328 81.7418 185.248 81.0342 183.827 80.582C182.407 80.1298 181.13 79.9915 180.96 79.5606C180.891 79.3584 181.178 79.0871 181.806 78.9328C182.652 78.7676 183.526 78.8337 184.338 79.1243C185.16 79.3797 185.896 79.8564 186.466 80.5022C186.828 80.997 186.886 81.396 186.732 81.5077Z" fill="#263238"/>
<path d="M154.519 81.0821C154.381 80.9598 148.667 77.0708 146.784 83.5772C144.901 90.0836 151.822 90.6368 151.886 90.4506C151.95 90.2644 154.519 81.0821 154.519 81.0821Z" fill="#FFBE9D"/>
<path d="M150.609 87.4076C150.609 87.381 150.476 87.4555 150.258 87.4874C149.955 87.5261 149.65 87.4439 149.407 87.2586C148.79 86.8118 148.529 85.5509 148.838 84.3699C148.981 83.8061 149.25 83.2822 149.625 82.8377C149.744 82.6517 149.906 82.4976 150.098 82.3891C150.29 82.2805 150.506 82.2208 150.726 82.2153C150.866 82.2182 151 82.2698 151.106 82.361C151.212 82.4523 151.283 82.5776 151.306 82.7153C151.344 82.9228 151.264 83.0452 151.306 83.0665C151.349 83.0878 151.477 82.9973 151.503 82.71C151.514 82.5392 151.465 82.3698 151.365 82.2312C151.224 82.0434 151.016 81.9175 150.785 81.8801C150.502 81.8579 150.218 81.9077 149.959 82.0249C149.701 82.1421 149.476 82.3229 149.306 82.5504C148.868 83.0334 148.554 83.6159 148.391 84.2475C148.05 85.5722 148.391 86.9926 149.231 87.5406C149.389 87.638 149.566 87.6999 149.749 87.722C149.933 87.7441 150.12 87.7257 150.295 87.6683C150.556 87.5619 150.631 87.4289 150.609 87.4076Z" fill="#EB996E"/>
<path d="M188.105 69.5005C189.328 69.2132 187.115 64.9093 184.849 63.0048C181.412 60.116 175.741 57.3549 171.836 57.3656C167.139 57.3656 162.915 58.536 159.6 61.8876C156.286 65.2392 154.19 69.6282 153.051 74.1874C152.7 75.5759 152.439 77.0549 152.854 78.4434C153.36 80.1405 154.855 81.5396 154.222 83.508C154.096 83.8613 154.042 84.236 154.062 84.6103C154.082 84.9847 154.176 85.3514 154.339 85.6892C155.179 87.2852 156.999 86.5138 157.983 85.503C160.111 83.3484 161.143 80.3426 162.09 77.4486C162.76 75.395 163.441 73.2883 163.415 71.1284C163.415 69.9527 163.175 68.7823 163.223 67.6012C163.213 67.0112 163.331 66.426 163.569 65.8859C163.807 65.3459 164.159 64.8638 164.601 64.4731C164.814 64.3257 165.041 64.1975 165.277 64.09C166.409 63.5492 167.664 63.3197 168.915 63.4254C170.165 63.5311 171.364 63.968 172.389 64.6912C175.699 67.0214 181.433 70.7188 183.418 69.9314C186.28 68.7982 187.174 67.8034 187.174 67.8034L188.105 69.5005Z" fill="#263238"/>
<path d="M168.985 93.2064C168.889 93.2064 168.74 93.5362 168.708 94.1374C168.678 94.9344 168.902 95.7202 169.346 96.3824C169.773 97.0206 170.314 97.5743 170.942 98.0157C171.41 98.3508 171.74 98.5051 171.804 98.4306C171.868 98.3562 171.655 98.0636 171.272 97.6433C170.787 97.1271 170.341 96.5759 169.937 95.9941C169.038 94.6588 169.208 93.2224 168.985 93.2064Z" fill="#263238"/>
<path d="M154.386 81.9759C154.386 82.1089 154.386 82.2419 154.386 82.3908C154.392 82.3908 154.386 82.2419 154.386 81.9759Z" fill="#FF8634"/>
<path d="M152.652 80.1352C152.652 80.1352 154.248 79.1988 154.386 81.9759C154.354 78.3902 154.998 52.5031 179.827 59.4084C179.827 59.4084 171.847 54.6204 164.931 56.7484C164.92 56.7325 151.854 58.6424 152.652 80.1352Z" fill="#455A64"/>
<path d="M168.894 107.406C168.947 107.507 169.644 107.209 170.288 106.554C170.932 105.9 171.23 105.208 171.129 105.155C171.028 105.102 170.597 105.655 169.99 106.256C169.384 106.858 168.83 107.304 168.894 107.406Z" fill="#263238"/>
<path d="M167.548 106.756C167.633 106.836 168.203 106.336 168.82 105.639C169.437 104.942 169.884 104.32 169.777 104.24C169.671 104.16 169.118 104.666 168.501 105.357C167.883 106.049 167.458 106.682 167.548 106.756Z" fill="#263238"/>
<path d="M166.729 105.905C166.841 105.942 167.149 105.331 167.426 104.538C167.702 103.745 167.83 103.075 167.718 103.038C167.607 103.001 167.298 103.612 167.027 104.405C166.755 105.198 166.617 105.868 166.729 105.905Z" fill="#263238"/>
<path d="M165.489 105.661C165.606 105.634 165.489 104.852 165.654 103.921C165.819 102.99 166.16 102.288 166.053 102.218C165.947 102.149 165.404 102.82 165.239 103.852C165.074 104.884 165.383 105.703 165.489 105.661Z" fill="#263238"/>
<path d="M163.744 104.623C163.867 104.623 163.819 103.841 163.931 102.926C164.042 102.011 164.266 101.282 164.154 101.234C164.042 101.186 163.622 101.889 163.51 102.873C163.399 103.857 163.638 104.644 163.744 104.623Z" fill="#263238"/>
<path d="M172.054 189.174C172.054 189.174 171.99 189.238 171.852 189.339L171.245 189.775C170.713 190.147 169.937 190.669 168.969 191.302C167.037 192.573 164.324 194.276 161.27 196.053C158.217 197.83 155.392 199.335 153.328 200.388C152.301 200.92 151.46 201.33 150.875 201.607L150.2 201.921C150.04 201.99 149.96 202.022 149.955 202.011C150.022 201.957 150.095 201.91 150.173 201.873L150.827 201.511L153.237 200.213C155.275 199.149 158.078 197.585 161.132 195.813C164.186 194.042 166.904 192.366 168.862 191.137L171.187 189.685L171.82 189.296C171.892 189.245 171.971 189.204 172.054 189.174Z" fill="#263238"/>
<path d="M200.644 177.119C197.98 178.651 195.711 180.787 194.021 183.354C194.176 182.926 194.393 182.522 194.664 182.157C195.274 181.24 195.988 180.398 196.792 179.646C197.594 178.896 198.477 178.239 199.426 177.688C199.802 177.441 200.213 177.249 200.644 177.119Z" fill="#263238"/>
<path d="M200.101 170.208C200.101 170.208 181.199 172.448 174.209 178.034C173.098 178.937 172.071 179.937 171.139 181.024C166.76 186.131 164.1 192.488 163.537 199.191L161.004 226.988L161.207 231.58C161.36 235.031 162.835 238.29 165.328 240.683C167.82 243.075 171.137 244.416 174.592 244.427L252.7 244.959C252.7 244.959 262.957 233.511 260.27 215.753C259.637 211.576 258.626 197.255 254.668 188.44C252.578 183.779 249.375 178.023 240.921 175.778L221.19 170.197L200.101 170.208Z" fill="#263238"/>
<path d="M182.385 192.818C182.31 192.617 182.257 192.408 182.226 192.196C182.141 191.797 182.008 191.217 181.832 190.504C181.365 188.65 180.753 186.836 180.002 185.077C179.24 183.326 178.34 181.637 177.31 180.029C176.911 179.406 176.581 178.917 176.342 178.576C176.213 178.41 176.099 178.232 176.001 178.044C176.163 178.187 176.308 178.347 176.432 178.523C176.693 178.842 177.05 179.321 177.47 179.928C178.558 181.519 179.492 183.212 180.257 184.982C181.017 186.747 181.609 188.58 182.024 190.456C182.178 191.18 182.279 191.77 182.332 192.18C182.376 192.389 182.394 192.604 182.385 192.818Z" fill="#455A64"/>
<path d="M185.668 224.504C185.588 224.504 184.753 218.439 183.801 210.933C182.848 203.426 182.135 197.335 182.205 197.329C182.274 197.324 183.114 203.394 184.072 210.901C185.03 218.407 185.742 224.504 185.668 224.504Z" fill="#455A64"/>
<path d="M182.21 195.207C181.745 195.073 181.299 194.884 180.88 194.643C178.801 193.589 176.885 192.24 175.193 190.637C174.822 190.326 174.493 189.968 174.214 189.573C174.603 189.855 174.972 190.162 175.32 190.493C175.996 191.068 176.943 191.839 178.05 192.621C179.156 193.403 180.178 194.031 180.97 194.467C181.401 194.683 181.815 194.93 182.21 195.207Z" fill="#455A64"/>
<path d="M232.824 200.351C232.798 200.034 232.798 199.716 232.824 199.399C232.829 199.027 232.854 198.656 232.899 198.287C232.947 197.856 232.979 197.361 233.085 196.824C233.173 196.233 233.292 195.647 233.441 195.068C233.574 194.435 233.787 193.781 233.973 193.089C234.973 190.097 236.535 187.324 238.575 184.918C239.059 184.386 239.506 183.854 239.974 183.412C240.393 182.986 240.834 182.581 241.294 182.199C241.698 181.827 242.102 181.545 242.448 181.279C242.739 181.049 243.043 180.836 243.358 180.641C243.617 180.458 243.889 180.294 244.172 180.151C243.937 180.362 243.686 180.554 243.422 180.726C243.172 180.901 242.89 181.119 242.544 181.401C242.198 181.683 241.815 181.971 241.421 182.343C241.028 182.715 240.576 183.109 240.139 183.572C239.703 184.035 239.246 184.545 238.772 185.083C236.778 187.483 235.235 190.225 234.218 193.175C234 193.855 233.777 194.499 233.638 195.122C233.5 195.744 233.351 196.324 233.25 196.856C233.149 197.388 233.09 197.877 233.026 198.308C232.963 198.739 232.925 199.101 232.904 199.41C232.899 199.725 232.872 200.039 232.824 200.351Z" fill="#455A64"/>
<path d="M225.036 232.277C224.96 231.956 224.941 231.625 224.977 231.298C225.013 230.833 225.159 230.383 225.402 229.986C225.645 229.588 225.979 229.254 226.376 229.01C228.634 226.63 231.353 224.734 234.367 223.44L234.287 223.552C234.394 222.552 234.505 221.514 234.585 220.445C234.888 216.551 234.941 212.642 234.745 208.741C234.676 207.246 234.569 206.033 234.511 205.198C234.479 204.804 234.452 204.485 234.431 204.235C234.418 204.122 234.418 204.007 234.431 203.894C234.466 204.003 234.487 204.116 234.495 204.229C234.532 204.474 234.575 204.793 234.628 205.187C234.718 206.022 234.857 207.23 234.952 208.73C235.205 212.641 235.179 216.565 234.873 220.471C234.793 221.535 234.681 222.599 234.569 223.589V223.669L234.495 223.701C231.503 224.973 228.791 226.822 226.515 229.143C226.08 229.399 225.722 229.766 225.477 230.207C225.294 230.536 225.177 230.897 225.132 231.271C224.999 231.952 225.073 232.271 225.036 232.277Z" fill="#455A64"/>
<path d="M247.327 230.026C247.279 230.053 246.875 229.287 245.986 228.223C244.829 226.84 243.412 225.697 241.815 224.86C240.939 224.405 240.015 224.048 239.059 223.796C238.276 223.6 237.473 223.494 236.665 223.483C235.282 223.483 234.426 223.642 234.42 223.589C234.611 223.517 234.809 223.469 235.011 223.445C235.558 223.35 236.111 223.297 236.665 223.286C237.491 223.269 238.315 223.358 239.118 223.552C240.099 223.792 241.047 224.149 241.943 224.616C243.573 225.466 245.004 226.654 246.14 228.1C246.482 228.535 246.79 228.996 247.061 229.478C247.171 229.65 247.26 229.834 247.327 230.026Z" fill="#455A64"/>
<path d="M246.944 222.754C246.944 222.802 246.295 222.504 245.215 222.222C244.585 222.065 243.945 221.954 243.299 221.892C242.506 221.819 241.708 221.797 240.911 221.828C239.463 221.902 238.027 222.122 236.623 222.482C235.559 222.764 234.894 223.014 234.878 222.956C235.013 222.865 235.159 222.793 235.314 222.743C235.724 222.571 236.143 222.422 236.57 222.296C237.977 221.871 239.432 221.621 240.9 221.551C241.71 221.522 242.521 221.55 243.326 221.636C243.983 221.714 244.632 221.846 245.268 222.03C245.511 222.1 245.751 222.181 245.986 222.275C246.169 222.336 246.347 222.411 246.518 222.498C246.672 222.562 246.815 222.648 246.944 222.754Z" fill="#455A64"/>
<path d="M232.138 138.692C230.579 132.074 227.797 125.313 222.307 121.291C217.423 117.71 210.294 116.348 204.251 116.795C201.277 117.019 197.957 118.503 195.409 120.056C191.919 122.184 190.541 126.318 188.945 130.085C185.753 137.634 186.514 147.683 188.945 150.407L220.54 165.803C225.951 162.76 231.808 158.664 233.069 152.594C233.915 148.455 233.106 142.805 232.138 138.692Z" fill="#FF8634"/>
<path d="M220.173 126.951L200.436 121.828C194.105 121.115 189.844 128.888 189.397 135.24C188.908 142.294 188.583 150.934 189.397 156.206C190.993 166.809 199.122 169.325 199.122 169.325C199.122 169.325 199.122 178.539 199.181 181.683L208.39 209.73L221.482 181.683L223.498 130.766C223.527 129.828 223.2 128.914 222.583 128.207C221.967 127.5 221.106 127.051 220.173 126.951Z" fill="#FFBE9D"/>
<path d="M192.924 143.778C192.92 144.132 193.054 144.474 193.297 144.731C193.54 144.989 193.874 145.141 194.228 145.156C194.4 145.171 194.573 145.151 194.738 145.097C194.902 145.044 195.054 144.958 195.185 144.845C195.316 144.732 195.423 144.594 195.5 144.439C195.576 144.284 195.622 144.116 195.632 143.943C195.64 143.589 195.508 143.246 195.265 142.987C195.023 142.729 194.688 142.575 194.334 142.56C194.161 142.546 193.987 142.566 193.822 142.619C193.657 142.673 193.504 142.759 193.373 142.873C193.242 142.986 193.134 143.125 193.057 143.28C192.98 143.436 192.935 143.605 192.924 143.778Z" fill="#263238"/>
<path d="M191.243 139.735C191.408 139.911 192.446 139.155 193.903 139.171C195.361 139.187 196.436 139.921 196.595 139.746C196.67 139.666 196.505 139.347 196.037 139.001C195.413 138.563 194.67 138.328 193.909 138.325C193.147 138.316 192.401 138.549 191.781 138.99C191.312 139.336 191.158 139.655 191.243 139.735Z" fill="#263238"/>
<path d="M206.192 143.778C206.186 144.132 206.319 144.474 206.561 144.731C206.804 144.988 207.137 145.141 207.49 145.156C207.663 145.171 207.837 145.151 208.001 145.097C208.166 145.044 208.318 144.958 208.45 144.845C208.581 144.733 208.688 144.595 208.766 144.44C208.843 144.285 208.889 144.116 208.9 143.943C208.906 143.589 208.774 143.247 208.532 142.988C208.289 142.73 207.956 142.577 207.602 142.56C207.429 142.545 207.255 142.564 207.089 142.618C206.924 142.671 206.771 142.757 206.64 142.871C206.508 142.985 206.401 143.123 206.324 143.279C206.247 143.435 206.202 143.605 206.192 143.778Z" fill="#263238"/>
<path d="M205.613 140.102C205.778 140.283 206.815 139.528 208.273 139.544C209.73 139.56 210.805 140.294 210.965 140.118C211.039 140.038 210.874 139.719 210.406 139.373C209.782 138.936 209.04 138.698 208.278 138.692C207.515 138.684 206.77 138.919 206.15 139.363C205.682 139.703 205.528 140.022 205.613 140.102Z" fill="#263238"/>
<path d="M200.229 150.912C200.229 150.827 199.33 150.662 197.861 150.466C197.484 150.423 197.133 150.349 197.074 150.093C197.041 149.707 197.131 149.32 197.329 148.987L198.452 146.151C200.011 142.118 201.144 138.793 200.984 138.735C200.825 138.676 199.42 141.895 197.861 145.933C197.484 146.928 197.127 147.875 196.797 148.784C196.556 149.232 196.482 149.751 196.59 150.247C196.645 150.377 196.729 150.491 196.835 150.584C196.941 150.676 197.066 150.743 197.202 150.779C197.407 150.841 197.62 150.873 197.835 150.875C199.303 150.982 200.223 150.992 200.229 150.912Z" fill="#263238"/>
<path d="M199.085 169.394L199.143 172.054C209.741 173.118 213.295 165.729 213.295 165.729C208.989 168.243 204.07 169.512 199.085 169.394Z" fill="#EB996E"/>
<path d="M205.043 153.674C204.832 153.35 204.543 153.083 204.203 152.897C203.864 152.712 203.483 152.613 203.096 152.61C202.552 152.566 202.005 152.67 201.514 152.909C201.023 153.149 200.605 153.516 200.303 153.971C200.089 154.394 200.042 154.882 200.17 155.339C200.271 155.573 200.17 155.461 200.373 155.621C200.975 156.247 201.722 156.717 202.548 156.988C202.994 157.102 203.463 157.08 203.896 156.925C204.328 156.769 204.704 156.487 204.974 156.115C205.211 155.755 205.342 155.335 205.355 154.904C205.367 154.473 205.259 154.047 205.043 153.674Z" fill="#EB996E"/>
<path d="M204.527 151.95C204.288 151.95 204.272 153.546 202.931 154.636C201.591 155.727 199.878 155.573 199.862 155.791C199.862 155.892 200.239 156.105 200.952 156.126C201.882 156.148 202.789 155.839 203.511 155.254C204.207 154.694 204.658 153.885 204.767 152.998C204.82 152.338 204.634 151.945 204.527 151.95Z" fill="#263238"/>
<path d="M204.953 135.421C205.097 135.82 206.549 135.639 208.273 135.857C209.996 136.075 211.369 136.554 211.598 136.197C211.704 136.027 211.465 135.665 210.906 135.266C210.164 134.789 209.322 134.487 208.445 134.384C207.568 134.28 206.68 134.379 205.847 134.67C205.214 134.921 204.894 135.229 204.953 135.421Z" fill="#FF8634"/>
<path d="M191.807 134.686C192.062 135.016 193.073 134.686 194.281 134.686C195.489 134.686 196.521 134.926 196.755 134.58C196.861 134.415 196.701 134.08 196.255 133.761C195.656 133.379 194.957 133.185 194.248 133.202C193.538 133.219 192.85 133.447 192.27 133.857C191.839 134.181 191.695 134.522 191.807 134.686Z" fill="#FF8634"/>
<path d="M220.631 143.64C220.775 143.576 226.526 141.746 226.483 147.662C226.441 153.578 220.503 152.301 220.493 152.131C220.482 151.96 220.631 143.64 220.631 143.64Z" fill="#FFBE9D"/>
<path d="M222.317 149.912C222.317 149.912 222.418 149.987 222.589 150.067C222.836 150.169 223.113 150.169 223.36 150.067C223.988 149.843 224.52 148.859 224.562 147.795C224.58 147.288 224.485 146.783 224.286 146.316C224.233 146.13 224.135 145.959 224 145.82C223.865 145.681 223.699 145.577 223.514 145.518C223.397 145.488 223.273 145.499 223.162 145.55C223.052 145.6 222.962 145.686 222.908 145.795C222.828 145.96 222.86 146.077 222.833 146.087C222.807 146.098 222.706 145.986 222.754 145.741C222.788 145.595 222.873 145.465 222.993 145.374C223.157 145.254 223.361 145.202 223.562 145.231C223.804 145.281 224.029 145.392 224.215 145.555C224.401 145.717 224.543 145.924 224.626 146.156C224.871 146.671 224.988 147.236 224.967 147.806C224.919 148.997 224.296 150.109 223.44 150.349C223.28 150.391 223.113 150.399 222.951 150.37C222.788 150.342 222.634 150.278 222.498 150.184C222.323 150.056 222.296 149.923 222.317 149.912Z" fill="#EB996E"/>
<path d="M224.27 151.886C224.296 151.854 224.525 152.131 224.488 152.663C224.484 152.823 224.445 152.981 224.373 153.124C224.301 153.267 224.199 153.393 224.073 153.493C223.904 153.596 223.713 153.657 223.516 153.671C223.319 153.685 223.121 153.651 222.94 153.572C222.751 153.512 222.58 153.406 222.442 153.263C222.305 153.12 222.205 152.944 222.152 152.753C222.088 152.441 222.145 152.115 222.312 151.843C222.605 151.386 222.977 151.343 222.977 151.375C222.977 151.407 222.695 151.535 222.498 151.945C222.384 152.173 222.355 152.436 222.418 152.684C222.467 152.828 222.55 152.958 222.659 153.063C222.768 153.169 222.901 153.247 223.046 153.29C223.183 153.353 223.333 153.383 223.483 153.378C223.633 153.374 223.781 153.335 223.913 153.264C224.013 153.189 224.097 153.094 224.16 152.987C224.223 152.879 224.264 152.76 224.28 152.636C224.304 152.386 224.3 152.135 224.27 151.886Z" fill="#263238"/>
<path d="M188.924 136.905C189.722 135.192 191.27 133.942 192.914 133.005C194.558 132.069 196.335 131.409 197.968 130.441C201.753 128.223 204.584 124.684 205.916 120.503C203.006 118.998 199.383 119.173 196.446 120.626C193.532 122.166 191.231 124.654 189.924 127.68C188.637 130.704 188.022 133.971 188.121 137.256" fill="#FF8634"/>
<path d="M221.987 125.371C217.614 121.216 209.353 118.923 203.655 120.87C204.501 125.845 208.257 131.436 211.56 135.234C214.864 139.033 216.88 145.805 224.131 143.518C224.626 143.363 225.195 143.816 225.648 143.55C226.007 143.282 226.255 142.892 226.345 142.454C227.255 139.481 227.33 136.314 226.562 133.301C225.793 130.288 224.211 127.545 221.987 125.371Z" fill="#FF8634"/>
<path d="M189.254 144.092C188.908 144.156 188.552 144.136 188.216 144.034C187.283 143.764 186.477 143.17 185.944 142.358C185.179 141.142 184.861 139.697 185.045 138.272C185.117 137.445 185.256 136.625 185.46 135.82C185.652 134.974 185.918 134.123 186.205 133.255C187.246 130.305 188.806 127.564 190.812 125.164C191.42 124.441 192.07 123.755 192.759 123.11L193.334 122.605C193.399 122.541 193.473 122.485 193.552 122.44C193.333 122.707 193.095 122.958 192.839 123.19C192.387 123.679 191.711 124.366 190.977 125.318C189.037 127.729 187.52 130.453 186.492 133.372C186.201 134.202 185.953 135.045 185.748 135.899C185.541 136.69 185.399 137.496 185.322 138.309C185.13 139.678 185.411 141.071 186.12 142.257C186.614 143.045 187.366 143.637 188.248 143.933C188.578 144.017 188.914 144.07 189.254 144.092Z" fill="#FF8634"/>
<path d="M239.4 126.036C239.4 123.259 238.618 120.386 236.74 118.354C234.117 115.534 229.526 114.901 226.1 116.694C222.674 118.487 220.631 122.44 220.86 126.27C221.013 128.201 221.635 130.065 222.671 131.701C223.708 133.338 225.127 134.696 226.807 135.66L229.249 135.383C231.697 136.676 234.904 135.761 236.788 133.739C238.671 131.718 239.4 128.803 239.4 126.036Z" fill="#FF8634"/>
<path d="M225.844 235.24C225.749 235.263 225.65 235.272 225.552 235.266C225.36 235.266 225.073 235.266 224.711 235.266C223.676 235.25 222.645 235.151 221.626 234.968C218.238 234.385 215.048 232.968 212.343 230.846C209.638 228.725 207.502 225.964 206.129 222.812C205.71 221.866 205.368 220.887 205.107 219.886C205.006 219.535 204.963 219.253 204.921 219.067C204.898 218.971 204.882 218.873 204.873 218.774C205.006 219.122 205.118 219.477 205.208 219.838C205.511 220.821 205.878 221.783 206.309 222.716C207.716 225.807 209.846 228.515 212.518 230.611C215.19 232.707 218.326 234.13 221.663 234.761C222.669 234.958 223.688 235.086 224.711 235.144C225.44 235.213 225.844 235.218 225.844 235.24Z" fill="#455A64"/>
<path d="M200.936 233.548C200.854 233.514 200.775 233.472 200.702 233.42L200.059 233.005L197.723 231.42C195.172 229.687 192.506 228.13 189.743 226.76C186.987 225.403 184.045 224.463 181.013 223.972C180.091 223.835 179.162 223.75 178.231 223.717C177.888 223.72 177.545 223.706 177.204 223.674C177.29 223.65 177.38 223.639 177.47 223.642C177.64 223.642 177.901 223.605 178.231 223.61C179.17 223.599 180.109 223.656 181.04 223.78C184.114 224.217 187.099 225.142 189.881 226.52C192.651 227.896 195.31 229.485 197.835 231.271C198.808 231.941 199.585 232.5 200.122 232.894L200.734 233.351C200.873 233.452 200.942 233.511 200.936 233.548Z" fill="#455A64"/>
<path d="M227.685 232.144L191.365 233.979L194.18 244.677L242.581 244.901L227.685 232.144Z" fill="#FFBE9D"/>
<path d="M193.052 233.894C193.052 233.894 181.316 228.042 179.864 227.983C178.752 227.946 172.304 229.047 169.336 229.553C168.778 229.629 168.274 229.924 167.933 230.371C167.592 230.819 167.442 231.384 167.516 231.941C167.593 232.34 167.802 232.7 168.109 232.966C168.416 233.231 168.803 233.386 169.208 233.404C168.78 233.617 168.429 233.959 168.206 234.382C167.982 234.805 167.897 235.287 167.963 235.761C168.197 237.448 170.283 237.49 170.283 237.49C170.192 237.585 170.109 237.687 170.032 237.793C169.824 238.085 169.696 238.427 169.664 238.785C169.631 239.142 169.694 239.502 169.846 239.827C169.998 240.152 170.234 240.43 170.53 240.634C170.825 240.838 171.17 240.959 171.527 240.985L172.474 241.055C172.474 241.055 171.315 241.762 171.506 242.911C171.879 245.114 176.911 244.784 176.911 244.784L194.18 244.661L193.052 233.894Z" fill="#FFBE9D"/>
<path d="M170.08 226.765C170.245 227.483 170.655 229.01 172.001 229.521L178.805 228.228C178.805 228.228 173.437 227.244 172.581 226.488C172.239 226.176 171.863 225.905 171.458 225.68C171.294 225.601 171.11 225.571 170.929 225.591C170.748 225.612 170.576 225.682 170.433 225.795C170.29 225.908 170.181 226.058 170.118 226.23C170.056 226.401 170.043 226.587 170.08 226.765Z" fill="#FFBE9D"/>
<path d="M175.56 228.638C175.56 228.755 174.198 229.1 172.464 229.335C170.729 229.569 169.335 229.712 169.314 229.585C169.293 229.457 170.671 229.122 172.405 228.888C174.139 228.654 175.56 228.51 175.56 228.638Z" fill="#EB996E"/>
<path d="M174.618 232.691C174.65 232.809 173.474 233.223 171.958 233.378C170.442 233.532 169.208 233.436 169.213 233.319C169.218 233.202 170.426 233.106 171.905 232.931C173.384 232.755 174.586 232.569 174.618 232.691Z" fill="#EB996E"/>
<path d="M178.023 231.67C178.135 231.718 178.06 232.112 177.714 232.42C177.369 232.729 176.97 232.755 176.932 232.644C176.895 232.532 177.145 232.33 177.417 232.085C177.688 231.84 177.911 231.617 178.023 231.67Z" fill="#EB996E"/>
<path d="M176.034 236.91C176.034 237.033 174.73 237.293 173.102 237.485C171.474 237.676 170.139 237.735 170.118 237.613C170.096 237.49 171.41 237.235 173.049 237.043C174.688 236.852 176.023 236.788 176.034 236.91Z" fill="#EB996E"/>
<path d="M179.662 234.484C179.715 234.484 179.843 234.585 179.917 234.846C180.005 235.2 179.955 235.574 179.776 235.892C179.597 236.209 179.303 236.446 178.954 236.554C178.688 236.628 178.518 236.58 178.512 236.522C178.507 236.463 179.071 236.235 179.385 235.671C179.699 235.107 179.55 234.532 179.662 234.484Z" fill="#EB996E"/>
<path d="M177.688 240.996C177.688 241.118 176.496 241.251 175.028 241.294C173.56 241.336 172.341 241.267 172.341 241.145C172.341 241.023 173.533 240.89 175.001 240.847C176.47 240.804 177.688 240.879 177.688 240.996Z" fill="#EB996E"/>
<path d="M181.205 238.262C181.258 238.262 181.364 238.379 181.396 238.65C181.427 238.993 181.348 239.338 181.173 239.634C180.763 240.315 180.236 240.618 180.162 240.549C180.087 240.48 180.444 239.985 180.779 239.416C181.114 238.847 181.093 238.299 181.205 238.262Z" fill="#EB996E"/>
<path d="M146.699 238.868C144.316 237.735 136.362 234.612 136.362 234.612L132.468 208.012L116.625 210.39C116.625 210.39 125.845 244.294 128.329 244.528C130.813 244.763 144.943 244.528 144.943 244.528L149.55 244.459C149.55 244.459 148.369 239.655 146.699 238.868Z" fill="#9B6E65"/>
<path d="M135.66 243.699C135.423 243.859 135.151 243.959 134.867 243.991C134.189 244.12 133.489 244.095 132.822 243.917C132.154 243.739 131.535 243.414 131.01 242.964C130.785 242.792 130.603 242.57 130.478 242.315C130.516 242.283 130.734 242.512 131.143 242.81C131.674 243.193 132.271 243.477 132.904 243.645C133.537 243.812 134.195 243.865 134.846 243.8C135.114 243.744 135.386 243.71 135.66 243.699Z" fill="#704C45"/>
<path d="M144.821 244.449C144.784 244.475 144.454 243.917 143.847 243.108C143.498 242.635 143.086 242.211 142.624 241.847C142.035 241.43 141.383 241.11 140.693 240.9C139.426 240.459 138.21 239.885 137.064 239.187C136.575 238.927 136.112 238.621 135.681 238.272C136.194 238.48 136.688 238.729 137.16 239.017C138.322 239.658 139.536 240.201 140.788 240.64C141.505 240.859 142.18 241.199 142.783 241.645C143.258 242.03 143.671 242.486 144.007 242.996C144.237 243.339 144.449 243.694 144.64 244.06C144.72 244.18 144.781 244.311 144.821 244.449Z" fill="#704C45"/>
<path d="M98.4943 120.179L92.6423 124.211C92.6423 124.211 85.3539 123.775 80.0658 125.573C77.1345 126.573 73.5808 127.781 69.7291 131.681C66.2114 135.24 63.6764 139.65 62.3715 144.481L55.2906 203.463L44.5442 245.082H116.082V192.414L122.929 168.256C122.929 168.256 121.152 165.468 121.205 164.356C121.259 163.244 125.254 137.501 125.254 137.501L117.098 127.744L98.4943 120.179Z" fill="#FF8634"/>
<path d="M124.296 136.277C124.296 136.277 128.345 138.166 129.334 145.236C130.324 152.306 137.495 206.874 137.495 206.874C137.495 206.874 129.574 208.704 122.344 209.534L113.241 211.082L113.013 174.597L124.296 136.277Z" fill="#FF8634"/>
<g opacity="0.2">
<path opacity="0.2" d="M69.8887 243.422C82.0502 228.845 83.9601 207.703 96.2759 193.254L88.7374 197.51C90.0727 184.95 91.3549 171.889 87.1414 159.978C84.9069 188.418 78.9877 216.448 69.5322 243.363" fill="black"/>
</g>
<path d="M89.376 137.416C89.0993 159.912 88.0672 182.382 86.2797 204.825C86.0595 206.572 85.6748 208.295 85.1306 209.97C84.8648 210.82 84.3033 211.546 83.5479 212.017C82.7925 212.489 81.8931 212.674 81.0129 212.539L66.3351 210.326C63.7815 209.895 62.8132 209.555 62.0471 207.906C61.5334 206.766 61.293 205.521 61.3449 204.272C61.9088 184.189 60.1532 173.549 61.3449 154.562" fill="#FF8634"/>
<path d="M61.3872 154.562C61.3872 154.562 61.3872 154.695 61.3872 154.95C61.3872 155.206 61.3606 155.599 61.3394 156.099C61.2862 157.11 61.217 158.595 61.1585 160.51C61.1 162.425 61.0521 164.766 61.0414 167.495C61.0308 170.224 61.084 173.315 61.1798 176.741C61.3713 183.593 61.7118 191.759 61.5788 200.83C61.5788 201.963 61.5309 203.107 61.5043 204.272C61.4615 205.43 61.6683 206.584 62.1108 207.656C62.2989 208.208 62.6305 208.701 63.0717 209.083C63.513 209.466 64.0479 209.724 64.6218 209.831C65.807 210.106 67.0056 210.319 68.2128 210.47L75.6608 211.587L79.4646 212.162C80.0977 212.252 80.7521 212.369 81.3745 212.433C82.0039 212.474 82.6331 212.349 83.1992 212.071C83.7648 211.788 84.247 211.363 84.5984 210.837C84.9217 210.291 85.1552 209.696 85.29 209.076C85.6487 207.854 85.9259 206.61 86.1199 205.352C86.354 202.836 86.5243 200.319 86.7104 197.861C87.0722 192.94 87.3808 188.195 87.6521 183.668C88.1841 174.624 88.5512 166.463 88.7959 159.611C89.0406 152.758 89.1789 147.215 89.264 143.379C89.3066 141.469 89.3385 139.985 89.3598 138.969C89.3598 138.469 89.3704 138.086 89.3917 137.82C89.3917 137.559 89.3917 137.426 89.3917 137.426C89.3917 137.426 89.3917 137.559 89.3917 137.82V138.969C89.3917 139.985 89.3651 141.469 89.3438 143.385C89.296 147.215 89.1896 152.764 88.9661 159.616C88.7427 166.468 88.3969 174.629 87.9021 183.684C87.6361 188.211 87.3329 192.962 86.9764 197.883C86.7956 200.346 86.6253 202.841 86.3859 205.389C86.1887 206.665 85.9097 207.927 85.5507 209.166C85.4071 209.813 85.1611 210.433 84.8218 211.002C84.4471 211.57 83.9273 212.027 83.3163 212.327C82.7078 212.628 82.0308 212.764 81.3532 212.72C80.6829 212.651 80.0604 212.534 79.4167 212.444L75.6129 211.869L68.1649 210.746C66.9484 210.594 65.7408 210.378 64.5473 210.097C63.9373 209.96 63.3674 209.683 62.8822 209.289C62.4327 208.864 62.0837 208.344 61.8607 207.767C61.4056 206.666 61.1916 205.479 61.233 204.288C61.2613 203.128 61.2879 201.983 61.3128 200.851C61.4777 191.807 61.1372 183.63 60.9776 176.773C60.8925 173.347 60.8606 170.245 60.8765 167.521C60.8925 164.798 60.9563 162.452 61.0414 160.536C61.1266 158.621 61.201 157.132 61.2702 156.126L61.35 154.977C61.3713 154.695 61.3872 154.562 61.3872 154.562Z" fill="#263238"/>
<path d="M116.082 212.396C116.077 212.339 116.077 212.282 116.082 212.225C116.082 212.098 116.082 211.933 116.082 211.731C116.082 211.273 116.12 210.629 116.146 209.815C116.178 208.15 116.386 205.751 116.731 202.798C116.95 201.325 117.13 199.702 117.476 198.01C117.636 197.149 117.779 196.255 117.976 195.35C118.173 194.446 118.37 193.499 118.578 192.541C119.439 188.7 120.541 184.524 121.567 180.109C123.695 171.293 124.456 163.085 124.291 157.132L124.148 153.131C124.084 151.95 123.967 150.939 123.903 150.114C123.839 149.29 123.786 148.662 123.749 148.205C123.749 147.997 123.722 147.837 123.717 147.71C123.711 147.582 123.717 147.54 123.717 147.54C123.734 147.593 123.745 147.648 123.749 147.704L123.812 148.199C123.86 148.651 123.929 149.29 124.02 150.104C124.11 150.918 124.227 151.939 124.307 153.12C124.387 154.301 124.424 155.647 124.493 157.132C124.711 163.074 123.988 171.341 121.833 180.172C120.807 184.593 119.705 188.77 118.822 192.595C118.609 193.552 118.407 194.489 118.205 195.398C118.003 196.308 117.865 197.196 117.673 198.058C117.322 199.771 117.141 201.389 116.902 202.846C116.529 205.794 116.295 208.166 116.231 209.847C116.178 210.661 116.141 211.3 116.109 211.757C116.109 211.965 116.082 212.124 116.072 212.252C116.079 212.3 116.083 212.348 116.082 212.396Z" fill="#263238"/>
<path d="M115.577 176.565C115.516 176.654 115.446 176.736 115.369 176.81L114.736 177.47C114.204 178.044 113.369 178.848 112.342 179.827C110.294 181.784 107.363 184.397 103.958 187.072C100.553 189.748 97.3239 191.978 94.9139 193.504C93.7169 194.27 92.7433 194.877 92.0571 195.276L91.2644 195.728C91.1776 195.789 91.0827 195.837 90.9824 195.872C91.0609 195.801 91.1465 195.739 91.2378 195.686L91.9985 195.18C92.6689 194.755 93.6265 194.116 94.8075 193.345C97.1643 191.775 100.367 189.525 103.766 186.854C107.166 184.184 110.108 181.604 112.188 179.683C113.252 178.725 114.066 177.943 114.64 177.395L115.305 176.773C115.386 176.691 115.477 176.621 115.577 176.565Z" fill="#263238"/>
<g opacity="0.2">
<path opacity="0.2" d="M124.105 165.154C122.36 181.353 116.593 199.053 116.082 209.273C118.37 201.99 121.264 195.031 123.392 187.7C125.52 180.369 126.478 172.411 124.105 165.154Z" fill="black"/>
</g>
<path d="M134.649 70.9422C135.251 70.733 135.797 70.3882 136.244 69.9345C136.691 69.4807 137.028 68.9302 137.229 68.3255C137.429 67.7207 137.488 67.0779 137.401 66.4468C137.313 65.8157 137.082 65.2132 136.724 64.6859C136.192 63.8666 135.335 63.2601 134.835 62.4036C134.485 61.6616 134.203 60.8886 133.995 60.0947C133.515 58.863 132.751 57.762 131.766 56.881C130.781 56 129.601 55.3641 128.324 55.0248C125.743 54.372 123.012 54.6921 120.652 55.9238C119.716 56.3973 118.801 56.9878 117.758 57.0836C116.715 57.1794 115.769 56.7644 114.774 56.5516C113.586 56.3391 112.363 56.4412 111.227 56.8475C110.091 57.2539 109.081 57.9505 108.297 58.8681C107.513 59.7857 106.983 60.8923 106.76 62.0781C106.536 63.2639 106.627 64.4876 107.022 65.6275C105.635 65.8489 104.371 66.5557 103.456 67.6221C102.54 68.6884 102.034 70.045 102.025 71.4502C102.017 72.8554 102.508 74.2179 103.41 75.295C104.313 76.372 105.568 77.0937 106.953 77.3315C108.634 77.6347 110.353 77.1985 112.018 76.7995C118.772 75.246 125.682 74.4748 132.612 74.5013" fill="#263238"/>
<path d="M99.718 107.405C97.1596 103.135 96.1842 98.1018 96.9622 93.1851C97.7549 88.3227 99.734 82.4441 103.485 79.2467C101.851 76.5867 103.219 74.23 105.251 71.8466C107.283 69.4632 110.31 68.1226 113.337 67.3352C117.864 66.1276 122.593 65.8775 127.222 66.6011C130.984 67.1916 135.83 68.8142 135.798 71.6019C135.761 74.5119 133.67 75.4004 133.67 75.4004C136.091 76.7733 138.177 78.6667 139.778 80.9438C143.544 86.3383 144.459 91.2167 142.831 96.1218C141.203 101.027 139.336 104.735 135.681 107.326" fill="#FF8634"/>
<path d="M131.537 112.646C132.174 112.221 132.904 111.956 133.665 111.874L133.527 111.837C133.664 111.835 133.801 111.844 133.936 111.864C134.191 111.853 134.445 111.895 134.683 111.986C134.921 112.078 135.138 112.217 135.319 112.396C136.047 112.869 136.571 113.598 136.788 114.439C136.938 115.176 136.882 115.941 136.627 116.65C136.372 117.358 135.927 117.983 135.341 118.455C134.892 118.906 134.317 119.21 133.692 119.327C133.067 119.444 132.421 119.369 131.839 119.111C131.258 118.854 130.768 118.426 130.435 117.884C130.102 117.342 129.941 116.712 129.973 116.077C129.923 115.42 130.04 114.76 130.314 114.16C130.587 113.56 131.008 113.039 131.537 112.646Z" fill="#455A64"/>
<path d="M98.2231 124.089L104.139 85.0615C104.314 84.1179 104.837 83.2744 105.605 82.6981C106.372 82.1217 107.328 81.8545 108.283 81.9493L129.276 81.0289C135.798 81.6727 138.416 90.4081 137.495 96.8932C136.474 104.102 134.942 112.853 133 117.998C129.1 128.318 120.636 127.989 120.636 127.989C120.636 127.989 119.04 135.378 118.205 139.251L113.848 154.562L98.2231 124.089Z" fill="#9B6E65"/>
<path d="M133.346 105.336C133.276 105.692 133.07 106.007 132.772 106.215C132.475 106.422 132.108 106.506 131.75 106.448C131.573 106.425 131.402 106.367 131.248 106.278C131.094 106.188 130.959 106.069 130.852 105.927C130.744 105.785 130.666 105.622 130.622 105.45C130.578 105.277 130.569 105.097 130.595 104.921C130.665 104.565 130.871 104.25 131.168 104.042C131.466 103.835 131.833 103.751 132.191 103.809C132.368 103.832 132.538 103.89 132.693 103.979C132.847 104.069 132.981 104.188 133.089 104.33C133.196 104.472 133.274 104.635 133.319 104.807C133.363 104.98 133.372 105.16 133.346 105.336Z" fill="#263238"/>
<path d="M134.644 101.032C134.436 101.176 133.58 100.197 132.085 99.8936C130.59 99.5904 129.382 100.106 129.26 99.8936C129.196 99.7979 129.436 99.5106 129.978 99.2659C130.707 98.9559 131.513 98.8779 132.287 99.0424C133.053 99.2018 133.749 99.5983 134.277 100.176C134.66 100.617 134.745 100.968 134.644 101.032Z" fill="#263238"/>
<path d="M119.487 102.798C119.417 103.154 119.212 103.469 118.914 103.675C118.616 103.882 118.249 103.964 117.891 103.905C117.714 103.883 117.543 103.825 117.389 103.736C117.234 103.647 117.099 103.528 116.992 103.385C116.884 103.243 116.806 103.08 116.762 102.907C116.718 102.734 116.71 102.554 116.737 102.378C116.807 102.022 117.012 101.708 117.31 101.501C117.608 101.294 117.975 101.212 118.333 101.272C118.51 101.294 118.68 101.352 118.834 101.442C118.988 101.531 119.123 101.65 119.231 101.793C119.338 101.935 119.416 102.097 119.46 102.27C119.504 102.442 119.513 102.622 119.487 102.798Z" fill="#263238"/>
<path d="M120.109 98.3136C119.902 98.4573 119.019 97.4784 117.551 97.1751C116.082 96.8719 114.843 97.3879 114.72 97.1751C114.656 97.0794 114.896 96.7921 115.438 96.5474C116.167 96.2371 116.974 96.1609 117.747 96.3292C118.516 96.4826 119.215 96.8779 119.742 97.4571C120.12 97.888 120.232 98.2498 120.109 98.3136Z" fill="#263238"/>
<path d="M123.195 110.342C123.195 110.257 124.153 110.289 125.68 110.406C126.063 110.449 126.435 110.443 126.552 110.204C126.669 109.822 126.669 109.415 126.552 109.033C126.387 108.049 126.212 107.022 126.02 105.942C125.318 101.543 124.892 97.9625 125.068 97.9306C125.243 97.8986 125.962 101.447 126.664 105.847C126.823 106.911 126.983 107.975 127.132 108.948C127.274 109.451 127.234 109.988 127.02 110.464C126.939 110.585 126.831 110.686 126.704 110.759C126.578 110.832 126.437 110.875 126.291 110.885C126.071 110.9 125.849 110.885 125.632 110.842C124.11 110.613 123.185 110.427 123.195 110.342Z" fill="#263238"/>
<path d="M120.61 127.989C115.567 127.026 110.89 124.681 107.102 121.216C107.102 121.216 109.06 129.276 119.945 130.478L120.61 127.989Z" fill="#704C45"/>
<path d="M122.253 113.8C122.02 113.246 121.656 112.758 121.193 112.375C120.73 111.992 120.181 111.727 119.593 111.603C119.207 111.528 118.809 111.548 118.432 111.662C118.056 111.776 117.713 111.981 117.434 112.257C117.145 112.575 116.95 112.966 116.869 113.387C116.789 113.809 116.826 114.244 116.976 114.646C117.167 115.067 117.48 115.422 117.874 115.663C118.269 115.904 118.727 116.02 119.189 115.997C120.065 115.903 120.905 115.596 121.636 115.104C121.861 114.998 122.059 114.844 122.216 114.651C122.298 114.544 122.349 114.417 122.366 114.284C122.383 114.15 122.364 114.015 122.312 113.891" fill="#704C45"/>
<path d="M118.636 110.47C118.875 110.502 118.551 112.103 119.7 113.518C120.849 114.933 122.573 115.114 122.535 115.338C122.535 115.444 122.094 115.572 121.37 115.444C120.431 115.262 119.585 114.755 118.982 114.013C118.403 113.3 118.125 112.39 118.205 111.475C118.285 110.794 118.54 110.438 118.636 110.47Z" fill="#263238"/>
<path d="M121.525 94.4406C121.296 94.813 119.865 94.3183 118.093 94.1693C116.322 94.0204 114.827 94.2012 114.673 93.7969C114.609 93.6054 114.928 93.2649 115.572 93.0042C116.418 92.6779 117.329 92.5558 118.232 92.6478C119.139 92.7225 120.015 93.0144 120.785 93.499C121.376 93.882 121.626 94.2651 121.525 94.4406Z" fill="#263238"/>
<path d="M134.984 96.6591C134.654 96.941 133.713 96.3824 132.495 96.1271C131.276 95.8717 130.196 95.8877 130.031 95.4887C129.962 95.2972 130.196 94.9939 130.712 94.7705C131.397 94.5168 132.142 94.4724 132.853 94.6429C133.563 94.8134 134.207 95.1911 134.702 95.7281C135.064 96.143 135.128 96.5154 134.984 96.6591Z" fill="#263238"/>
<path d="M130.047 84.3752C130.047 84.3752 120.078 82.0876 110.092 91.7593C103.511 98.1433 100.463 107.257 100.463 107.257L100.399 88.6365L105.033 81.1513L112.784 78.736L126.057 80.8055L130.484 84.3167" fill="#FF8634"/>
<path d="M110.252 81.1087C127.004 80.6778 138.613 88.6791 138.277 101.671L143.278 94.1427L137.118 82.3908L128.558 78.087L109.693 76.9591L110.252 81.1087Z" fill="#FF8634"/>
<path d="M98.2761 105.575C98.9558 105.121 99.7349 104.836 100.548 104.745L100.399 104.703C100.546 104.701 100.694 104.71 100.84 104.73C101.112 104.713 101.384 104.751 101.64 104.842C101.896 104.934 102.131 105.077 102.33 105.262C103.12 105.772 103.689 106.56 103.926 107.469C104.084 108.263 104.023 109.085 103.748 109.846C103.473 110.608 102.996 111.279 102.367 111.789C101.884 112.275 101.265 112.602 100.591 112.729C99.9179 112.855 99.2221 112.773 98.5959 112.495C97.9697 112.218 97.4426 111.756 97.0844 111.172C96.7262 110.588 96.5536 109.909 96.5897 109.225C96.5435 108.524 96.6736 107.823 96.9682 107.185C97.2628 106.548 97.7125 105.994 98.2761 105.575Z" fill="#455A64"/>
<path d="M133.692 75.4003C133.276 75.3699 132.865 75.3004 132.463 75.1929C131.681 75.0173 130.542 74.8205 129.132 74.613C125.451 74.1119 121.715 74.1675 118.051 74.7779C114.395 75.4525 110.816 76.4934 107.368 77.8848L104.224 79.1403C103.849 79.3184 103.457 79.4591 103.054 79.5606C103.401 79.3319 103.77 79.1377 104.155 78.9807C104.873 78.6296 105.932 78.1455 107.251 77.5922C110.692 76.1072 114.29 75.015 117.976 74.3363C121.684 73.7137 125.468 73.7012 129.18 74.2991C130.299 74.4816 131.407 74.7231 132.5 75.0226C132.908 75.1118 133.307 75.2383 133.692 75.4003Z" fill="#263238"/>
<path d="M106.442 79.8585H106.554L106.879 79.7947L107.411 79.6883L108.134 79.5712C109.673 79.353 111.231 79.3137 112.779 79.4542C115.072 79.6671 117.331 80.162 119.503 80.9278C120.737 81.3428 121.998 81.8642 123.296 82.4334C124.594 83.0026 125.919 83.6357 127.228 84.3699C132.548 87.2161 136.128 91.7115 137.389 95.4195C137.9 96.8865 138.19 98.4212 138.251 99.9734C138.283 100.505 138.277 100.947 138.251 101.24V101.569C138.246 101.607 138.246 101.644 138.251 101.681C138.257 101.644 138.257 101.606 138.251 101.569C138.251 101.479 138.251 101.373 138.251 101.24C138.251 100.952 138.293 100.521 138.283 99.9681C138.256 98.4008 137.989 96.8469 137.49 95.361C136.261 91.5891 132.633 87.0192 127.281 84.1464C125.961 83.4123 124.621 82.7792 123.328 82.2046C122.035 81.6301 120.753 81.1406 119.508 80.7044C117.335 79.9482 115.076 79.4657 112.784 79.268C111.224 79.145 109.656 79.2129 108.113 79.4702L107.389 79.6085L106.857 79.7415L106.538 79.8266C106.474 79.8426 106.442 79.8532 106.442 79.8585Z" fill="#263238"/>
<path d="M127.286 84.3379C127.171 84.3111 127.053 84.2916 126.935 84.2794C126.598 84.2335 126.259 84.2069 125.919 84.1996C124.665 84.1725 123.413 84.3121 122.195 84.6146C118.196 85.6872 114.513 87.7072 111.459 90.5038C109.788 92.0355 108.252 93.7086 106.868 95.5046C105.705 96.9434 104.629 98.4498 103.644 100.016C102.974 101.069 102.382 102.17 101.873 103.309C101.702 103.713 101.575 104.033 101.5 104.251C101.454 104.36 101.42 104.474 101.399 104.591C101.456 104.489 101.506 104.382 101.548 104.272C101.637 104.052 101.775 103.744 101.963 103.346C102.507 102.231 103.12 101.151 103.798 100.112C104.801 98.5684 105.886 97.0802 107.049 95.6536C108.436 93.8768 109.968 92.2183 111.63 90.6953C114.656 87.9263 118.289 85.904 122.238 84.7901C123.437 84.4774 124.669 84.3113 125.908 84.2954C126.345 84.2954 126.69 84.2954 126.919 84.3326C127.041 84.3466 127.164 84.3484 127.286 84.3379Z" fill="#263238"/>
<path d="M36.825 243.23C36.825 243.23 40.0808 242.166 42.145 241.56C43.2994 241.225 48.0768 239.113 50.9815 238.565C53.4074 238.107 60.1266 234.676 61.1693 233.974C62.212 233.271 66.3297 210.326 66.3297 210.326L81.8641 212.667C81.8641 212.667 73.5808 234.798 73.0595 236.91C72.5381 239.022 70.5697 244.486 70.5697 244.486H36.825V243.23Z" fill="#9B6E65"/>
<path d="M64.0261 243.975C64.0261 243.927 64.5581 243.885 65.287 243.566C66.2687 243.166 67.0994 242.467 67.661 241.569C68.2227 240.67 68.4865 239.617 68.4151 238.559C68.3673 237.745 68.181 237.261 68.2289 237.245C68.2768 237.229 68.3087 237.352 68.3885 237.575C68.5008 237.888 68.5758 238.213 68.612 238.543C68.7397 239.651 68.4877 240.77 67.8972 241.716C67.3068 242.662 66.4128 243.38 65.3614 243.752C65.0487 243.864 64.7236 243.939 64.3932 243.975C64.2724 244.002 64.147 244.002 64.0261 243.975Z" fill="#704C45"/>
<path d="M61.9885 242.842C61.8881 242.897 61.7831 242.944 61.6746 242.98C61.3627 243.09 61.0424 243.173 60.717 243.23C59.5083 243.357 58.2912 243.383 57.0781 243.31C56.2525 243.288 55.4281 243.387 54.6309 243.603C53.7744 243.858 52.9285 244.326 51.9709 244.667C49.8084 245.349 47.4662 245.17 45.4326 244.167L45.1028 244.007L45.4539 243.911L45.7678 243.821C46.8743 243.503 47.9282 243.024 48.8959 242.4C49.7868 241.794 50.6282 241.118 51.4123 240.379C52.8099 239.154 54.456 238.247 56.2375 237.719C57.4219 237.355 58.6285 237.067 59.8498 236.857L60.85 236.692C60.9636 236.668 61.0795 236.655 61.1958 236.655C61.0869 236.7 60.9724 236.731 60.8553 236.745L59.8711 236.963C58.663 237.211 57.4695 237.526 56.2961 237.905C54.5547 238.449 52.9483 239.356 51.5825 240.565C50.7941 241.319 49.9454 242.008 49.0449 242.624C48.057 243.262 46.9818 243.753 45.8529 244.082L45.5337 244.172V243.917C47.5085 244.885 49.7783 245.064 51.8805 244.417C52.8327 244.114 53.6893 243.645 54.5724 243.39C55.3952 243.177 56.2448 243.086 57.0941 243.119C58.2983 243.207 59.5074 243.207 60.7117 243.119C61.5416 243.007 61.9778 242.81 61.9885 242.842Z" fill="#704C45"/>
<path d="M291.345 203.884L282.317 224.775L273.943 251.684L355.078 252.067L353.695 201.101L313.816 197.037L291.345 203.884Z" fill="#263238"/>
<path d="M247.971 207.092C247.971 207.092 241.438 209.576 236.325 211.082C231.213 212.587 222.089 218.221 222.089 218.221C222.089 218.221 212.8 226.589 213.135 227.696C213.47 228.803 214.572 229.335 215.982 228.201C217.391 227.068 224.355 222.956 224.355 222.956C224.355 222.956 224.802 225.286 226.308 225.552C227.068 225.74 227.866 225.703 228.606 225.446C228.606 225.446 229.223 227.632 230.308 228.345C230.944 228.766 231.65 229.067 232.394 229.233C232.414 229.628 232.566 230.005 232.827 230.303C233.088 230.6 233.441 230.801 233.83 230.872C234.765 231.137 235.737 231.252 236.708 231.213C236.708 231.213 241.555 228.276 242.326 226.861C243.098 225.446 244.039 223.536 244.039 223.536L246.04 222.536L252.184 221.472L247.971 207.092Z" fill="#C78976"/>
<path d="M241.23 218.147C241.061 218.417 240.859 218.665 240.629 218.886C239.999 219.508 239.269 220.021 238.469 220.402C237.257 220.994 235.946 221.354 234.602 221.466C233.789 221.551 232.968 221.517 232.165 221.365C231.278 221.205 230.435 220.859 229.691 220.349L229.851 220.131C230.453 220.577 231.025 221.062 231.564 221.583C231.85 221.859 232.108 222.162 232.335 222.488C232.568 222.831 232.727 223.219 232.803 223.626C232.895 224.111 232.883 224.609 232.768 225.088C232.654 225.568 232.439 226.018 232.138 226.409L232.075 226.488L231.979 226.451C231.057 226.066 230.183 225.577 229.372 224.993C228.585 224.461 227.861 223.887 227.18 223.35C226.499 222.812 225.871 222.286 225.27 221.807C225.003 221.551 224.8 221.237 224.676 220.888C224.553 220.54 224.512 220.168 224.557 219.801C224.607 219.492 224.7 219.191 224.834 218.907C224.946 218.636 225.058 218.375 225.175 218.157C225.403 217.705 225.627 217.327 225.818 217.024C226.01 216.721 226.175 216.492 226.292 216.359C226.346 216.28 226.408 216.207 226.478 216.141C226.439 216.228 226.391 216.31 226.334 216.386C226.233 216.54 226.084 216.774 225.903 217.077C225.684 217.448 225.483 217.83 225.302 218.221C225.19 218.45 225.084 218.7 224.983 218.966C224.86 219.238 224.778 219.526 224.738 219.822C224.701 220.159 224.743 220.5 224.86 220.817C224.977 221.135 225.167 221.421 225.414 221.652C225.988 222.121 226.659 222.626 227.329 223.158C227.999 223.69 228.734 224.249 229.516 224.781C230.315 225.347 231.175 225.821 232.08 226.196L231.92 226.244C232.196 225.883 232.393 225.468 232.499 225.027C232.604 224.585 232.616 224.126 232.532 223.679C232.461 223.309 232.316 222.956 232.107 222.642C231.89 222.332 231.644 222.044 231.372 221.78C230.846 221.265 230.284 220.787 229.691 220.349L229.851 220.131C230.559 220.624 231.364 220.96 232.213 221.115C232.994 221.271 233.793 221.312 234.586 221.238C235.906 221.133 237.196 220.791 238.395 220.227C239.19 219.866 239.922 219.381 240.565 218.79C240.996 218.407 241.204 218.12 241.23 218.147Z" fill="#925B4C"/>
<path d="M232.484 224.993C232.74 224.864 233.007 224.757 233.282 224.674C233.915 224.436 234.502 224.091 235.016 223.653C235.276 223.412 235.46 223.102 235.548 222.759C235.607 222.485 235.567 222.198 235.434 221.951C235.302 221.703 235.086 221.511 234.825 221.408C234.825 221.408 234.915 221.376 235.07 221.408C235.292 221.476 235.481 221.624 235.602 221.823C235.791 222.109 235.865 222.457 235.809 222.796C235.727 223.207 235.514 223.58 235.203 223.86C234.665 224.332 234.029 224.677 233.341 224.871C233.068 224.976 232.775 225.018 232.484 224.993Z" fill="#925B4C"/>
<path d="M233.851 228.701C234.227 228.422 234.62 228.166 235.027 227.935C235.394 227.701 235.82 227.403 236.277 227.074C236.776 226.718 237.239 226.315 237.66 225.871C237.861 225.646 238.005 225.376 238.081 225.084C238.137 224.816 238.101 224.537 237.98 224.291C237.874 224.077 237.724 223.888 237.541 223.735C237.358 223.582 237.145 223.469 236.916 223.403C236.595 223.306 236.261 223.264 235.926 223.28C235.801 223.297 235.674 223.297 235.548 223.28C235.664 223.22 235.791 223.183 235.921 223.174C236.274 223.115 236.636 223.127 236.985 223.211C237.249 223.276 237.496 223.395 237.711 223.562C237.925 223.729 238.102 223.939 238.23 224.179C238.377 224.478 238.423 224.815 238.363 225.142C238.28 225.479 238.118 225.791 237.889 226.052C237.454 226.513 236.969 226.923 236.442 227.276C235.969 227.611 235.527 227.887 235.149 228.106C234.747 228.364 234.31 228.565 233.851 228.701Z" fill="#925B4C"/>
<path d="M240.299 228.276C240.395 228.043 240.471 227.803 240.528 227.558C240.588 227.27 240.566 226.972 240.464 226.696C240.362 226.421 240.184 226.18 239.952 226C239.719 225.821 239.441 225.711 239.148 225.682C238.856 225.654 238.562 225.708 238.299 225.839C237.873 226.026 237.698 226.281 237.661 226.249C237.623 226.217 237.762 225.919 238.193 225.664C238.486 225.489 238.825 225.407 239.166 225.427C239.507 225.447 239.834 225.569 240.105 225.777C240.376 225.985 240.578 226.269 240.686 226.593C240.794 226.917 240.802 227.266 240.709 227.595C240.592 228.095 240.315 228.297 240.299 228.276Z" fill="#925B4C"/>
<path d="M280.55 235.288L278.843 237.804H266.112L249.896 244.337H291.776C292.132 243.895 293.223 242.209 293.223 242.209L280.55 235.288Z" fill="#C78976"/>
<path d="M338.581 157.797C329.436 143.002 309.784 124.924 308.119 124.089C306.453 123.254 279.587 121.567 279.587 121.567L258.371 136.623L251.328 147.151C250.365 150.146 248.668 154.759 249.444 157.791L250.099 162.984L272.23 177.268L283.237 183.694L289.366 192.387L288.876 206.948L297.548 205.299C297.548 205.299 310.901 206.618 323.701 206.932C336.501 207.246 354.105 203.181 354.105 203.181C354.105 203.181 348.779 174.304 338.581 157.797Z" fill="#455A64"/>
<path d="M287.53 147.045L295.042 188.722L279.465 234.692L295.042 243.204C295.042 243.204 306.172 223.616 311.183 211.768C316.194 199.92 318.019 193.302 318.019 193.302C318.019 193.302 318.019 148.258 316.423 143.065C314.827 137.873 309.539 127.579 303.974 128.138C298.41 128.696 285.253 134.404 287.53 147.045Z" fill="#455A64"/>
<path d="M250.099 163.005L263.521 195.872C262.793 197.071 262.254 198.376 261.925 199.739L245.183 208.012L250.099 223.839C250.099 223.839 270.985 216.923 273.943 215.327C276.901 213.731 285.434 207.656 286.913 202.724C288.392 197.792 280.194 180.321 280.194 180.321L250.099 163.005Z" fill="#455A64"/>
<path d="M283.237 183.716C283.137 183.677 283.04 183.629 282.95 183.572L282.157 183.13C281.471 182.737 280.481 182.162 279.268 181.428C278.055 180.694 276.608 179.832 275.087 178.768C274.315 178.236 273.491 177.661 272.719 177.018L270.293 175.012L261.824 167.915L259.281 165.739L258.595 165.138C258.512 165.073 258.437 164.998 258.371 164.915C258.466 164.962 258.554 165.023 258.632 165.096L259.345 165.628C259.989 166.16 260.872 166.867 261.952 167.756C264.154 169.58 267.155 172.054 270.464 174.789L272.884 176.805C273.672 177.438 274.48 178.018 275.225 178.55C276.757 179.614 278.172 180.524 279.369 181.279L282.205 183.051L282.971 183.54C283.067 183.587 283.156 183.646 283.237 183.716Z" fill="#263238"/>
<path d="M284.79 123.493C285.195 123.965 285.54 124.485 285.817 125.041C286.582 126.561 286.989 128.235 287.009 129.936C287.023 131.109 286.882 132.279 286.588 133.415C286.23 134.724 285.693 135.977 284.992 137.139C283.36 139.762 281.147 141.976 278.523 143.608C275.95 145.334 272.957 146.33 269.862 146.492C267.321 146.594 264.817 145.845 262.75 144.364C261.356 143.379 260.253 142.038 259.558 140.48C259.447 140.238 259.353 139.99 259.276 139.735C259.209 139.552 259.159 139.363 259.127 139.171C259.095 139.033 259.073 138.916 259.052 138.82C259.045 138.78 259.045 138.738 259.052 138.698C259.224 139.289 259.43 139.87 259.669 140.437C260.385 141.952 261.486 143.253 262.861 144.209C264.9 145.645 267.356 146.365 269.846 146.257C272.888 146.084 275.828 145.097 278.358 143.401C280.942 141.783 283.124 139.6 284.742 137.017C285.436 135.885 285.973 134.664 286.338 133.388C286.633 132.274 286.781 131.126 286.78 129.973C286.782 128.294 286.407 126.636 285.684 125.121C285.575 124.882 285.453 124.649 285.317 124.424C285.205 124.227 285.104 124.057 285.014 123.929L284.817 123.631C284.806 123.536 284.785 123.498 284.79 123.493Z" fill="#263238"/>
<path d="M279.013 142.704C278.939 142.73 278.55 141.868 277.896 140.921C277.241 139.975 276.576 139.299 276.635 139.24C277.807 140.083 278.648 141.308 279.013 142.704Z" fill="#263238"/>
<path d="M284.088 137.969C283.534 137.483 282.937 137.047 282.306 136.665C281.633 136.365 280.935 136.123 280.22 135.942C280.988 135.899 281.753 136.065 282.434 136.422C283.115 136.778 283.687 137.313 284.088 137.969Z" fill="#263238"/>
<path d="M286.849 132.319C286.823 132.394 286.041 132.154 285.056 132.021C284.072 131.888 283.253 131.893 283.248 131.814C283.847 131.636 284.482 131.612 285.094 131.744C285.717 131.789 286.32 131.986 286.849 132.319Z" fill="#263238"/>
<path d="M286.37 125.744C285.851 125.934 285.317 126.083 284.774 126.19C284.254 126.383 283.721 126.54 283.178 126.659C283.617 126.289 284.142 126.036 284.705 125.924C285.237 125.729 285.809 125.667 286.37 125.744Z" fill="#263238"/>
<path d="M270.437 145.89C270.117 145.383 269.971 144.785 270.022 144.188C269.98 143.589 270.131 142.992 270.453 142.486C270.533 142.512 270.299 143.252 270.299 144.188C270.299 145.124 270.511 145.864 270.437 145.89Z" fill="#263238"/>
<path d="M261.856 144.209C262.036 143.794 262.296 143.418 262.622 143.103C263.101 142.539 263.542 142.124 263.596 142.177C263.649 142.23 263.314 142.709 262.835 143.284C262.356 143.858 261.914 144.257 261.856 144.209Z" fill="#263238"/>
<path d="M316.396 143.06C316.396 143.06 316.396 143.135 316.46 143.284C316.523 143.504 316.573 143.728 316.609 143.954C316.726 144.55 316.833 145.449 316.95 146.614C317.173 148.955 317.375 152.397 317.54 156.791C317.87 165.574 318.072 178.151 318.136 193.297V193.329C317.014 197.143 315.598 201.048 314.034 205.081C312.47 209.113 310.773 213.268 308.762 217.434C304.772 225.781 300.133 234.42 295.17 243.262L295.1 243.385L294.983 243.316L293.542 242.533L279.401 234.814L279.3 234.761L279.337 234.649L294.946 188.684V188.738C292.675 176.023 290.813 165.601 289.52 158.355C288.876 154.738 288.381 151.913 288.041 149.987C287.876 149.029 287.748 148.295 287.663 147.795C287.578 147.295 287.541 147.045 287.541 147.045C287.541 147.045 287.599 147.3 287.695 147.79C287.791 148.279 287.924 149.019 288.105 149.976C288.456 151.902 288.977 154.722 289.642 158.334C290.956 165.574 292.834 175.991 295.164 188.7V188.727V188.754C290.754 201.782 285.434 217.524 279.609 234.74L279.545 234.575L293.664 242.289L295.106 243.076L294.92 243.129C299.878 234.287 304.496 225.653 308.512 217.322C310.518 213.162 312.236 209.007 313.79 204.99C315.343 200.974 316.779 197.058 317.902 193.286V193.318C317.902 178.172 317.695 165.601 317.407 156.818C317.258 152.423 317.077 148.981 316.875 146.646C316.769 145.475 316.673 144.582 316.567 143.986C316.536 143.759 316.493 143.533 316.439 143.31C316.42 143.228 316.406 143.144 316.396 143.06Z" fill="#263238"/>
<path d="M306.262 131.734C305.445 131.325 304.603 130.97 303.74 130.67C301.645 129.972 299.402 129.838 297.239 130.282C295.075 130.725 293.066 131.731 291.414 133.197C290.741 133.815 290.106 134.474 289.515 135.171C289.622 134.947 289.758 134.737 289.919 134.548C290.327 134.008 290.782 133.506 291.281 133.048C292.932 131.513 294.974 130.462 297.183 130.009C299.392 129.557 301.682 129.721 303.804 130.484C304.443 130.708 305.059 130.991 305.645 131.33C305.867 131.438 306.074 131.574 306.262 131.734Z" fill="#263238"/>
<g opacity="0.3">
<path opacity="0.3" d="M312.587 208.475C312.673 208.251 312.752 208.028 312.837 207.81L312.699 207.906L312.587 208.475Z" fill="black"/>
<path opacity="0.3" d="M320.993 179.167C320.323 172.336 319.44 165.505 317.663 158.876C316.157 170.384 319.11 182.189 317.131 193.627C316.29 198.505 314.572 203.203 312.827 207.81C317.179 204.964 319.801 199.984 320.839 194.882C321.876 189.78 321.509 184.402 320.993 179.167Z" fill="black"/>
</g>
<g opacity="0.3">
<path opacity="0.3" d="M281.428 182.636L262.952 168.692C263.159 173.89 267.112 178.156 271.224 181.348C275.337 184.54 280.923 188.211 284.817 191.658C283.556 188.786 282.721 185.508 281.428 182.636Z" fill="black"/>
</g>
<path d="M351.679 216.806C351.393 216.883 351.101 216.935 350.806 216.96C350.463 217.018 350.117 217.054 349.769 217.067C349.311 217.106 348.851 217.121 348.391 217.109C347.835 217.115 347.279 217.089 346.726 217.029C346.125 216.992 345.492 216.875 344.821 216.774C343.38 216.489 341.97 216.069 340.608 215.519C339.256 214.944 337.962 214.241 336.746 213.417C336.214 213.018 335.682 212.656 335.219 212.252C334.786 211.902 334.374 211.527 333.984 211.13C333.607 210.784 333.314 210.422 333.043 210.124C332.807 209.87 332.588 209.599 332.388 209.315C332.191 209.09 332.013 208.848 331.856 208.592C332.073 208.791 332.271 209.01 332.447 209.246C332.662 209.517 332.893 209.774 333.139 210.018C333.415 210.305 333.718 210.656 334.096 210.986C334.493 211.371 334.911 211.735 335.346 212.077C335.793 212.465 336.325 212.821 336.868 213.21C338.079 214.008 339.359 214.695 340.693 215.263C342.037 215.808 343.427 216.228 344.848 216.519C345.508 216.63 346.13 216.758 346.726 216.801C347.273 216.868 347.824 216.908 348.375 216.918C348.907 216.95 349.338 216.918 349.742 216.918C350.087 216.918 350.432 216.898 350.774 216.859C351.074 216.819 351.376 216.801 351.679 216.806Z" fill="#455A64"/>
<path d="M309.028 243.656C308.954 243.656 310.092 238.368 311.577 231.878C313.061 225.387 314.316 220.142 314.391 220.174C314.465 220.205 313.327 225.467 311.843 231.957C310.358 238.448 309.092 243.693 309.028 243.656Z" fill="#455A64"/>
<path d="M283.631 129.675C283.706 128.65 283.523 127.622 283.099 126.685L266.952 91.3391C263.191 81.1939 254.147 74.9216 244.108 78.9648L243.199 79.3957C238.796 81.4712 235.338 85.1296 233.513 89.6415C231.688 94.1535 231.63 99.1875 233.351 103.74C236.66 112.518 240.432 122.168 242.629 126.68C247.178 136.016 257.259 133.064 257.259 133.064L259.143 136.66C259.143 136.66 261.111 143.433 269.527 142.486C276.002 141.751 280.79 135.468 282.662 132.601C283.23 131.724 283.563 130.717 283.631 129.675Z" fill="#C78976"/>
<path d="M257.18 133.048C261.543 130.992 265.223 127.725 267.782 123.637C267.782 123.637 268.08 131.76 258.308 135.341L257.18 133.048Z" fill="#925B4C"/>
<path d="M239.4 110.8C239.561 111.152 239.853 111.427 240.214 111.566C240.575 111.705 240.976 111.698 241.331 111.544C241.509 111.477 241.67 111.376 241.808 111.245C241.945 111.115 242.055 110.958 242.13 110.785C242.206 110.611 242.247 110.424 242.249 110.235C242.252 110.046 242.217 109.858 242.145 109.682C241.984 109.331 241.692 109.057 241.331 108.918C240.97 108.779 240.57 108.786 240.214 108.938C240.037 109.004 239.874 109.105 239.737 109.236C239.599 109.366 239.489 109.523 239.413 109.696C239.337 109.87 239.297 110.057 239.295 110.247C239.293 110.436 239.328 110.624 239.4 110.8Z" fill="#263238"/>
<path d="M237.538 107.363C237.788 107.464 238.448 106.23 239.895 105.554C241.342 104.878 242.736 105.097 242.81 104.847C242.853 104.73 242.534 104.495 241.911 104.378C241.083 104.239 240.232 104.36 239.475 104.724C238.724 105.079 238.104 105.662 237.703 106.389C237.421 106.932 237.421 107.326 237.538 107.363Z" fill="#263238"/>
<path d="M252.631 104.655C252.792 105.007 253.084 105.282 253.445 105.422C253.806 105.561 254.207 105.553 254.562 105.4C254.74 105.333 254.902 105.232 255.04 105.102C255.177 104.971 255.287 104.815 255.363 104.641C255.439 104.467 255.48 104.28 255.482 104.091C255.484 103.901 255.448 103.713 255.376 103.538C255.216 103.186 254.924 102.911 254.563 102.771C254.202 102.632 253.8 102.64 253.445 102.793C253.268 102.86 253.106 102.962 252.969 103.092C252.832 103.223 252.722 103.379 252.646 103.553C252.57 103.726 252.53 103.913 252.527 104.102C252.525 104.292 252.56 104.48 252.631 104.655Z" fill="#263238"/>
<path d="M251.854 100.936C252.099 101.032 252.764 99.7979 254.206 99.1223C255.647 98.4466 257.052 98.6701 257.126 98.4147C257.164 98.303 256.85 98.0636 256.227 97.9465C255.398 97.8092 254.547 97.9319 253.791 98.2977C253.038 98.6477 252.417 99.2293 252.019 99.9575C251.737 100.511 251.732 100.894 251.854 100.936Z" fill="#263238"/>
<path d="M251.668 114.114C251.636 114.029 250.668 114.295 249.125 114.795C248.737 114.933 248.354 115.024 248.173 114.795C247.962 114.429 247.867 114.008 247.902 113.587C247.827 112.523 247.753 111.427 247.667 110.268C247.295 105.554 246.838 101.756 246.651 101.756C246.465 101.756 246.609 105.602 246.981 110.31C247.08 111.47 247.178 112.577 247.274 113.63C247.252 114.184 247.425 114.728 247.763 115.167C247.878 115.272 248.016 115.349 248.165 115.392C248.315 115.435 248.472 115.444 248.625 115.417C248.855 115.378 249.078 115.308 249.29 115.21C250.79 114.619 251.7 114.199 251.668 114.114Z" fill="#263238"/>
<path d="M256.387 113.103C256.148 113.204 256.882 114.768 256.068 116.513C255.254 118.258 253.504 118.875 253.594 119.099C253.594 119.211 254.126 119.227 254.823 118.913C255.755 118.499 256.509 117.767 256.951 116.848C257.369 115.968 257.43 114.959 257.121 114.034C256.85 113.353 256.488 113.045 256.387 113.103Z" fill="#263238"/>
<path d="M248.811 95.4568C249.136 95.7813 250.492 94.9248 252.28 94.3183C254.067 93.7118 255.658 93.5416 255.717 93.0787C255.717 92.8659 255.323 92.6106 254.594 92.4882C253.637 92.3703 252.666 92.4719 251.755 92.7853C250.843 93.0988 250.015 93.6157 249.333 94.297C248.827 94.845 248.662 95.2972 248.811 95.4568Z" fill="#263238"/>
<path d="M236.097 102.937C236.506 103.144 237.341 102.336 238.528 101.756C239.714 101.176 240.842 100.931 240.911 100.479C240.911 100.266 240.619 100.011 240.033 99.9096C239.261 99.8087 238.477 99.95 237.788 100.314C237.088 100.661 236.515 101.219 236.15 101.91C235.889 102.426 235.91 102.83 236.097 102.937Z" fill="#263238"/>
<path d="M232.218 98.9893C232.218 98.9893 231.92 91.9403 234.107 89.2271C236.767 85.9446 240.012 89.0143 242.853 86.5671C245.694 84.1199 248.221 80.9651 252.759 81.9174C257.722 82.9548 256.924 85.7052 259.143 89.7697C268.038 106.23 273.379 109.549 270.495 101.176C270.182 100.261 272.272 98.4253 270.894 94.5737C269.102 89.5782 266.548 83.6889 263.883 80.8055C261.632 78.3689 259.095 77.1666 255.126 76.3686C248.891 75.1131 242.523 78.0285 238.426 80.4916C234.33 82.9548 228.35 91.8126 232.218 98.9893Z" fill="#263238"/>
<path d="M269.756 101.197C269.605 100.846 269.526 100.469 269.525 100.087C269.524 99.7048 269.6 99.3267 269.75 98.9751C269.899 98.6235 270.118 98.3059 270.393 98.0413C270.669 97.7767 270.995 97.5707 271.352 97.4358C273.182 96.7761 275.608 96.8506 277.204 100.527C280.029 107.044 272.9 108.539 272.81 108.358C272.719 108.177 270.916 103.932 269.756 101.197Z" fill="#C78976"/>
<path d="M273.156 105.288C273.156 105.256 273.299 105.32 273.533 105.325C273.853 105.319 274.158 105.194 274.39 104.974C274.964 104.442 275.071 103.075 274.592 101.889C274.368 101.322 274.019 100.812 273.571 100.399C273.422 100.222 273.232 100.084 273.018 99.9974C272.804 99.9102 272.572 99.8765 272.342 99.899C272.197 99.9213 272.064 99.9936 271.967 100.103C271.87 100.213 271.814 100.354 271.81 100.5C271.81 100.724 271.9 100.835 271.868 100.862C271.836 100.888 271.682 100.809 271.618 100.521C271.582 100.34 271.61 100.152 271.698 99.9894C271.812 99.7803 272.003 99.6238 272.23 99.5532C272.521 99.4888 272.824 99.5005 273.109 99.5872C273.394 99.6739 273.652 99.8325 273.858 100.048C274.378 100.493 274.783 101.057 275.039 101.692C275.571 103.022 275.427 104.543 274.603 105.224C274.45 105.351 274.271 105.441 274.078 105.49C273.886 105.539 273.685 105.544 273.491 105.506C273.235 105.442 273.134 105.336 273.156 105.288Z" fill="#925B4C"/>
<path d="M263.755 88.8121C263.191 89.775 262.59 90.7805 261.627 91.3551C260.664 91.9296 259.244 91.8871 258.605 90.9773C258.318 90.5677 258.185 89.9985 257.728 89.791C257.196 89.5409 256.594 89.9772 256.084 90.2911C255.18 90.8069 254.126 90.9959 253.099 90.8264C252.072 90.6569 251.135 90.1391 250.444 89.3601C250.301 90.2964 249.178 90.7911 248.237 90.6688C247.295 90.5464 246.476 89.9984 245.609 89.6048C244.741 89.2111 243.672 89.0196 242.879 89.5409C242.438 89.8335 242.129 90.3283 241.629 90.5092C240.751 90.8337 239.874 90.041 239.352 89.2643C238.831 88.4876 238.288 87.5566 237.341 87.4395C236.394 87.3225 235.745 87.9715 235.011 88.461C234.277 88.9504 233.202 89.2324 232.644 88.5674C232.516 88.3795 232.426 88.1678 232.382 87.9448C232.337 87.7218 232.337 87.4921 232.383 87.2693C232.538 86.246 233.033 85.3049 233.789 84.5981C234.545 83.8914 235.517 83.4605 236.549 83.375C236.359 82.1564 236.535 80.909 237.055 79.7907C237.575 78.6724 238.416 77.7336 239.47 77.0933C240.524 76.4529 241.744 76.1398 242.976 76.1936C244.208 76.2473 245.396 76.6656 246.391 77.3954C246.781 76.4582 247.392 75.6288 248.17 74.9773C248.949 74.3258 249.873 73.8712 250.864 73.6521C251.855 73.433 252.885 73.4557 253.866 73.7183C254.846 73.9809 255.749 74.4757 256.499 75.161C257.187 74.5821 258.031 74.2188 258.924 74.1162C259.818 74.0137 260.722 74.1766 261.524 74.5845C262.325 74.9925 262.989 75.6274 263.432 76.4101C263.876 77.1929 264.078 78.0887 264.016 78.986C265.484 79.0978 267.011 79.7787 267.665 81.114C268.32 82.4494 267.665 84.3646 266.197 84.6199C266.714 85.017 267.058 85.5975 267.158 86.2412C267.258 86.885 267.107 87.5427 266.736 88.0781C266.365 88.6135 265.802 88.9855 265.164 89.1172C264.525 89.2489 263.861 89.1301 263.308 88.7855" fill="#263238"/>
<path d="M236.969 85.503C236.969 85.503 236.969 85.5456 237.028 85.6201C237.087 85.7332 237.154 85.8417 237.23 85.9446C237.524 86.3414 237.884 86.685 238.294 86.9607C238.929 87.4026 239.657 87.6921 240.422 87.8066C241.443 87.9753 242.492 87.8033 243.406 87.3172L243.231 87.2267C243.313 87.9026 243.659 88.5185 244.194 88.9398C244.754 89.3814 245.376 89.7398 246.04 90.0038C246.379 90.1744 246.736 90.3081 247.104 90.4028C247.505 90.466 247.916 90.4295 248.301 90.2964C248.71 90.1757 249.083 89.9557 249.386 89.6558C249.69 89.356 249.915 88.9857 250.04 88.578L249.769 88.6206C250.172 89.2458 250.702 89.7795 251.324 90.1873C251.946 90.5951 252.647 90.8678 253.381 90.988C254.205 91.1542 255.06 91.0478 255.818 90.6847C256.514 90.3132 257.144 89.8277 257.68 89.2483H257.472C258.173 89.8672 259.018 90.3006 259.93 90.5092C260.357 90.6284 260.805 90.6501 261.242 90.5728C261.678 90.4954 262.092 90.321 262.452 90.0623C263.059 89.5997 263.517 88.9688 263.769 88.248C264.02 87.5273 264.054 86.7485 263.867 86.0084L263.755 86.1468C264.602 86.1868 265.436 85.9331 266.117 85.4286C266.626 85.0597 267.041 84.5769 267.33 84.0188C267.511 83.6661 267.628 83.2843 267.676 82.8909C267.695 82.7568 267.695 82.6207 267.676 82.4866C267.618 83.0023 267.463 83.5023 267.219 83.9602C266.923 84.4903 266.51 84.9453 266.011 85.2902C265.357 85.7524 264.565 85.9776 263.766 85.9286H263.612L263.654 86.0776C263.814 86.773 263.769 87.4999 263.524 88.1702C263.28 88.8406 262.846 89.4257 262.276 89.8548C261.945 90.0868 261.567 90.2417 261.168 90.308C260.769 90.3743 260.361 90.3503 259.973 90.2378C259.113 90.0337 258.318 89.6187 257.658 89.0302L257.552 88.9344L257.451 89.0355C256.938 89.5902 256.336 90.0542 255.669 90.4081C254.969 90.742 254.179 90.8391 253.418 90.6847C252.726 90.5708 252.064 90.3138 251.476 89.93C250.888 89.5462 250.386 89.0441 250.003 88.4556L249.822 88.1737L249.732 88.5035C249.62 88.8593 249.424 89.1826 249.16 89.4458C248.896 89.7089 248.572 89.9041 248.215 90.0144C247.875 90.1354 247.509 90.1701 247.151 90.1155C246.805 90.029 246.47 89.9041 246.151 89.7431C245.509 89.4973 244.905 89.1604 244.358 88.7429C243.87 88.3659 243.549 87.8118 243.465 87.2001V87.0246L243.31 87.1097C242.447 87.5926 241.449 87.7795 240.47 87.6417C239.722 87.5459 239.006 87.2841 238.373 86.8756C237.825 86.5083 237.349 86.043 236.969 85.503Z" fill="#455A64"/>
<path d="M246.024 109.305C245.929 108.738 245.798 108.178 245.63 107.629C245.12 106.144 244.125 104.873 242.805 104.022C241.903 103.44 240.877 103.075 239.81 102.958C238.585 102.828 237.348 103.024 236.224 103.527C235.615 103.792 235.051 104.151 234.554 104.591C234.025 105.035 233.57 105.562 233.208 106.15C232.426 107.387 232.061 108.842 232.165 110.302C232.269 111.761 232.838 113.15 233.788 114.263C234.233 114.793 234.759 115.249 235.346 115.614C235.899 115.979 236.506 116.254 237.145 116.428C238.074 116.697 239.049 116.768 240.007 116.636C240.965 116.504 241.885 116.173 242.707 115.663C243.53 115.154 244.236 114.478 244.781 113.679C245.325 112.879 245.696 111.975 245.869 111.023C245.957 110.456 246.008 109.884 246.024 109.31C246.045 109.458 246.057 109.607 246.061 109.757C246.076 109.934 246.076 110.112 246.061 110.289C246.055 110.537 246.028 110.785 245.981 111.028C245.758 112.365 245.154 113.609 244.243 114.611C243.332 115.614 242.151 116.334 240.842 116.684C239.611 117.021 238.312 117.021 237.081 116.684C236.417 116.504 235.785 116.222 235.208 115.848C234.605 115.469 234.067 114.997 233.612 114.449C232.619 113.295 232.024 111.852 231.915 110.333C231.806 108.815 232.188 107.301 233.006 106.017C233.385 105.413 233.859 104.874 234.41 104.421C234.929 103.97 235.514 103.601 236.144 103.325C237.313 102.809 238.599 102.616 239.868 102.766C240.968 102.896 242.021 103.282 242.943 103.894C244.284 104.774 245.279 106.09 245.763 107.618C245.843 107.854 245.903 108.096 245.944 108.342C245.988 108.516 246.017 108.694 246.029 108.874C246.036 109.017 246.034 109.161 246.024 109.305Z" fill="#263238"/>
<path d="M262.553 101.442C262.463 100.875 262.333 100.315 262.165 99.766C261.654 98.2807 260.659 97.0102 259.34 96.159C258.373 95.5307 257.263 95.1556 256.113 95.0682C254.963 94.9808 253.81 95.1839 252.759 95.6589C251.516 96.2148 250.466 97.1277 249.742 98.2817C248.958 99.5189 248.591 100.975 248.695 102.436C248.799 103.898 249.37 105.287 250.322 106.4C251.203 107.438 252.371 108.193 253.679 108.571C254.865 108.907 256.119 108.924 257.313 108.618C258.591 108.285 259.748 107.596 260.649 106.631C261.551 105.665 262.159 104.463 262.404 103.165C262.495 102.599 262.545 102.026 262.553 101.452C262.582 101.6 262.594 101.749 262.59 101.899C262.608 102.076 262.608 102.254 262.59 102.431C262.582 102.679 262.555 102.927 262.51 103.171C262.255 104.758 261.458 106.207 260.255 107.272C259.366 108.067 258.291 108.624 257.129 108.892C255.967 109.16 254.757 109.13 253.61 108.805C252.249 108.419 251.033 107.64 250.115 106.565C249.123 105.411 248.529 103.969 248.42 102.452C248.31 100.934 248.692 99.4219 249.508 98.138C250.262 96.9418 251.354 95.9972 252.647 95.4248C253.816 94.9067 255.102 94.7119 256.371 94.8609C257.719 95.0201 258.992 95.5636 260.039 96.4268C261.086 97.2899 261.863 98.4362 262.276 99.7287C262.355 99.9648 262.416 100.207 262.457 100.452C262.499 100.627 262.526 100.805 262.537 100.984C262.556 101.136 262.561 101.289 262.553 101.442Z" fill="#263238"/>
<path d="M248.705 103.963C247.951 103.953 247.206 104.119 246.528 104.448C245.85 104.777 245.258 105.259 244.8 105.857C244.8 105.857 244.859 105.591 245.114 105.246C245.459 104.802 245.901 104.443 246.406 104.198C246.912 103.952 247.467 103.827 248.029 103.83C248.444 103.841 248.716 103.932 248.705 103.963Z" fill="#263238"/>
<path d="M269.421 99.2446C268.217 99.4127 267.003 99.4892 265.787 99.4733C264.575 99.5536 263.358 99.5376 262.148 99.4255C264.564 99.1808 266.996 99.1204 269.421 99.2446Z" fill="#263238"/>
<path d="M213.587 241.108H245.742C246.165 241.108 246.571 241.276 246.87 241.575C247.169 241.874 247.338 242.28 247.338 242.704C247.338 243.127 247.169 243.533 246.87 243.832C246.571 244.132 246.165 244.3 245.742 244.3H213.587C213.164 244.3 212.758 244.132 212.459 243.832C212.16 243.533 211.991 243.127 211.991 242.704C211.991 242.28 212.16 241.874 212.459 241.575C212.758 241.276 213.164 241.108 213.587 241.108Z" fill="#E0E0E0"/>
<path d="M218.716 244.316H157.898L151.891 203.224C151.816 202.725 151.85 202.217 151.989 201.732C152.129 201.248 152.371 200.799 152.7 200.417C153.029 200.034 153.436 199.728 153.894 199.517C154.352 199.307 154.85 199.197 155.355 199.197L208.757 199.628C210.486 199.628 212.14 200.463 212.401 202.176L218.716 244.316Z" fill="#E0E0E0"/>
<path d="M216.072 243.959C215.997 243.959 214.3 234.059 212.279 221.828C210.257 209.597 208.677 199.66 208.757 199.644C208.837 199.628 210.528 209.544 212.55 221.78C214.572 234.016 216.146 243.943 216.072 243.959Z" fill="#263238"/>
<path d="M373.331 244.316H15.0237V253.126H373.331V244.316Z" fill="#455A64"/>
<path d="M90.9294 244.449L90.8177 244.544C90.7326 244.603 90.6155 244.693 90.4399 244.805C89.8764 245.15 89.2724 245.423 88.6418 245.619C87.515 245.964 86.3535 246.184 85.1785 246.273C83.5733 246.4 81.9626 246.439 80.3532 246.39C78.5551 246.359 76.6292 246.204 74.5385 246.013C72.4477 245.821 70.2825 245.608 67.9204 245.571C63.2228 245.475 58.1209 246.167 53.0244 247.167C47.9278 248.167 43.1345 249.364 38.5646 250.077C36.2824 250.434 34.0692 250.689 31.9732 250.811C30.0242 250.926 28.0701 250.926 26.1212 250.811C23.3933 250.683 20.6933 250.204 18.088 249.386C17.2284 249.109 16.3966 248.753 15.6035 248.322C15.6642 248.334 15.7232 248.354 15.7791 248.38L16.2526 248.582C16.6728 248.758 17.3166 249.008 18.1731 249.279C20.7669 250.059 23.4473 250.515 26.1531 250.636C28.0738 250.747 29.9994 250.746 31.92 250.631C33.9948 250.503 36.176 250.242 38.4423 249.88C42.9749 249.162 47.731 247.992 52.8648 246.96C57.9986 245.928 63.1537 245.236 67.9204 245.364C70.3037 245.412 72.5222 245.64 74.5863 245.832C76.6505 246.023 78.5817 246.194 80.3532 246.236C81.9495 246.296 83.5478 246.269 85.1412 246.156C86.2978 246.078 87.4427 245.876 88.5567 245.555C89.394 245.295 90.1922 244.923 90.9294 244.449Z" fill="#263238"/>
<path d="M51.737 244.582C51.3927 244.779 51.0375 244.957 50.673 245.114C49.6051 245.568 48.5128 245.962 47.4012 246.295C45.6549 246.812 43.8781 247.221 42.0812 247.518C39.77 247.886 37.4359 248.09 35.096 248.13C30.8867 248.236 26.6835 247.749 22.61 246.683C21.5235 246.424 20.4985 245.954 19.5935 245.3C19.4039 245.149 19.2388 244.969 19.1041 244.768C19.0296 244.635 18.9977 244.566 19.0083 244.566C19.2164 244.811 19.4422 245.04 19.684 245.252C20.6043 245.858 21.626 246.294 22.7004 246.539C26.7349 247.534 30.8833 247.99 35.0375 247.896C37.3427 247.856 39.6426 247.66 41.9216 247.311C43.7154 247.025 45.4916 246.638 47.2416 246.151C48.6886 245.731 49.8058 245.332 50.5559 245.045C50.9394 244.865 51.3339 244.711 51.737 244.582Z" fill="#263238"/>
<path d="M135.809 250.162C135.809 250.162 136.006 250.2 136.341 250.279C136.676 250.359 137.256 250.45 137.996 250.524C140.099 250.745 142.226 250.565 144.263 249.992V250.104C141.79 249.084 139.157 248.507 136.485 248.401C133.049 248.186 129.607 248.69 126.377 249.88C125.999 250.035 125.632 250.221 125.595 250.45C125.557 250.678 125.855 250.891 126.265 251.019C126.718 251.155 127.183 251.248 127.653 251.296L129.18 251.487C131.234 251.742 133.351 252.019 135.564 252.179C137.812 252.379 140.069 252.466 142.326 252.439C143.481 252.439 144.646 252.36 145.8 252.253C146.38 252.195 146.96 252.136 147.529 252.051C148.093 251.98 148.652 251.877 149.205 251.742C149.976 251.584 150.711 251.286 151.375 250.865C151.907 250.476 152.094 249.96 151.79 249.508C151.337 248.997 150.746 248.628 150.088 248.444C149.31 248.176 148.515 247.958 147.71 247.79C144.434 247.102 141.102 246.714 137.756 246.63C132.054 246.43 126.349 246.918 120.764 248.082C117.264 248.81 113.839 249.863 110.534 251.226C109.443 251.7 108.603 252.078 108.065 252.354L107.432 252.652L107.209 252.753C107.268 252.707 107.332 252.667 107.4 252.636L108.007 252.317C108.539 252.024 109.353 251.636 110.433 251.147C113.722 249.737 117.141 248.654 120.642 247.912C126.273 246.699 132.031 246.183 137.788 246.375C141.186 246.452 144.57 246.842 147.896 247.54C148.729 247.709 149.55 247.933 150.354 248.21C151.083 248.414 151.737 248.828 152.232 249.402C152.599 249.934 152.381 250.556 151.753 250.998C151.038 251.458 150.245 251.783 149.412 251.955C148.837 252.094 148.255 252.201 147.667 252.274C147.087 252.36 146.497 252.423 145.906 252.482C144.725 252.588 143.544 252.657 142.374 252.668C140.09 252.696 137.807 252.608 135.532 252.402C133.325 252.216 131.197 251.961 129.148 251.7L127.622 251.498C127.113 251.448 126.61 251.348 126.121 251.2C125.896 251.132 125.683 251.026 125.494 250.886C125.414 250.837 125.351 250.766 125.31 250.682C125.27 250.599 125.254 250.505 125.265 250.412C125.339 250.061 125.797 249.848 126.212 249.689C129.526 248.475 133.058 247.969 136.58 248.205C139.298 248.321 141.972 248.924 144.475 249.987L144.619 250.051L144.459 250.099C142.375 250.678 140.198 250.848 138.049 250.599C137.289 250.53 136.539 250.384 135.809 250.162Z" fill="#263238"/>
<path d="M181.944 244.677C182.094 244.795 182.215 244.946 182.295 245.119C182.527 245.519 182.612 245.988 182.534 246.444C182.417 247.577 181.178 249.066 179.045 250.285C178.01 250.909 176.918 251.431 175.783 251.843C174.76 252.211 173.708 252.498 172.639 252.7C171.698 252.881 170.905 252.971 170.362 253.025C170.076 253.059 169.788 253.072 169.5 253.062C169.5 253.019 170.703 252.923 172.533 252.53C173.562 252.304 174.573 252.005 175.56 251.636C176.658 251.221 177.716 250.706 178.72 250.099C180.811 248.907 182.029 247.492 182.221 246.406C182.314 245.815 182.217 245.21 181.944 244.677Z" fill="#263238"/>
<path d="M246.263 252.663C246.22 252.663 245.757 252.29 244.614 251.764C242.843 250.969 240.947 250.489 239.012 250.343C237.594 250.227 236.169 250.251 234.756 250.412C233.098 250.629 231.426 250.716 229.755 250.673C228.026 250.521 226.338 250.056 224.775 249.301C223.18 248.548 221.501 247.988 219.774 247.63C216.106 246.951 212.346 246.918 208.666 247.534C205.846 247.995 203.087 248.781 200.447 249.875C198.809 250.546 197.21 251.309 195.659 252.163L194.441 252.838C194.302 252.925 194.156 252.999 194.004 253.062C194.118 252.961 194.243 252.874 194.377 252.801C194.632 252.636 195.021 252.397 195.537 252.094C197.051 251.205 198.622 250.416 200.239 249.731C202.903 248.6 205.69 247.788 208.544 247.311C212.309 246.673 216.157 246.701 219.913 247.396C221.68 247.76 223.399 248.333 225.031 249.104C226.523 249.836 228.137 250.29 229.792 250.444C231.427 250.49 233.063 250.412 234.686 250.21C236.141 250.053 237.607 250.039 239.065 250.168C241.026 250.33 242.942 250.845 244.72 251.689C245.279 251.936 245.799 252.264 246.263 252.663Z" fill="#263238"/>
<path d="M303.708 244.401C303.586 244.513 303.454 244.614 303.314 244.704C303.038 244.89 302.671 245.188 302.091 245.523C300.424 246.539 298.675 247.413 296.861 248.135C293.928 249.326 290.901 250.271 287.812 250.96C285.998 251.375 284.045 251.748 281.96 252.024C279.791 252.319 277.605 252.477 275.416 252.498C271.234 252.488 267.066 252.001 262.994 251.045C259.904 250.343 256.878 249.38 253.95 248.167C252.148 247.423 250.41 246.534 248.753 245.507C248.178 245.172 247.806 244.88 247.529 244.688C247.389 244.601 247.257 244.501 247.135 244.39C247.296 244.467 247.451 244.556 247.598 244.656C247.896 244.837 248.29 245.119 248.88 245.444C250.567 246.424 252.324 247.28 254.136 248.002C257.051 249.184 260.058 250.124 263.127 250.811C267.15 251.743 271.266 252.217 275.395 252.227C277.554 252.206 279.709 252.051 281.848 251.764C283.907 251.508 285.844 251.147 287.647 250.742C290.73 250.063 293.754 249.14 296.691 247.981C298.515 247.27 300.283 246.422 301.979 245.444C302.575 245.124 302.958 244.837 303.261 244.661C303.404 244.565 303.554 244.478 303.708 244.401Z" fill="#263238"/>
<path d="M295.499 244.316C295.499 244.316 295.404 244.374 295.196 244.454C294.989 244.534 294.664 244.667 294.265 244.81C293.451 245.108 292.238 245.513 290.679 245.949C288.813 246.48 286.92 246.914 285.008 247.247C282.567 247.701 280.091 247.939 277.608 247.96C273.166 247.925 268.749 247.297 264.473 246.093C263.268 245.76 262.08 245.368 260.914 244.917C260.51 244.768 260.217 244.635 260.01 244.544C259.906 244.51 259.807 244.462 259.717 244.401C259.717 244.401 260.185 244.555 261.01 244.837C261.834 245.119 263.047 245.518 264.611 245.938C268.852 247.071 273.219 247.666 277.608 247.71C280.049 247.689 282.484 247.461 284.886 247.029C287.078 246.662 288.977 246.21 290.541 245.795C292.105 245.38 293.339 245.002 294.18 244.731C295.021 244.459 295.483 244.3 295.499 244.316Z" fill="#263238"/>
<path d="M358.164 245.22H357.451L355.429 245.177L353.977 245.14H352.237C350.987 245.14 349.577 245.14 347.981 245.14L345.523 245.183L342.863 245.284C341.023 245.337 339.097 245.475 337.054 245.587C333.005 245.874 328.616 246.284 324.153 246.843C319.689 247.401 315.641 248.104 312.066 248.784C310.326 249.152 308.618 249.476 307.15 249.848L304.985 250.354L303.07 250.859C301.825 251.173 300.798 251.492 299.878 251.764L298.59 252.147L297.574 252.487L296.143 252.955C295.97 253.02 295.792 253.071 295.611 253.11C295.745 253.031 295.888 252.969 296.037 252.923L297.367 252.423L298.34 252.062L299.59 251.668C300.49 251.381 301.5 251.051 302.735 250.726L304.634 250.194L306.794 249.662C308.257 249.29 309.986 248.955 311.709 248.598C315.3 247.901 319.397 247.21 323.887 246.625C328.377 246.039 332.83 245.651 336.926 245.374C338.996 245.268 340.943 245.135 342.778 245.092L345.438 245.002L347.923 244.975C349.519 244.943 350.934 244.975 352.179 244.975H353.929L355.387 245.034L357.403 245.124C357.658 245.139 357.913 245.171 358.164 245.22Z" fill="#263238"/>
<path d="M252.7 252.487C252.082 251.991 251.421 251.549 250.726 251.168C248.453 250.041 246.017 249.277 243.507 248.902C241.826 248.604 239.927 248.37 237.873 248.199C235.82 248.029 233.617 247.875 231.282 247.667C228.946 247.46 226.568 247.082 224.132 246.662C221.695 246.242 219.184 245.784 216.524 245.603C211.529 245.309 206.518 245.698 201.628 246.758C199.436 247.21 197.436 247.752 195.579 248.284C193.723 248.816 192.031 249.348 190.488 249.838C187.402 250.817 184.95 251.652 183.253 252.232L181.311 252.902L180.779 253.072L180.598 253.126C180.646 253.095 180.698 253.07 180.752 253.051L181.237 252.86L183.141 252.152C184.806 251.546 187.243 250.684 190.312 249.684C191.845 249.183 193.542 248.646 195.393 248.088C197.244 247.529 199.255 246.986 201.469 246.529C206.41 245.442 211.478 245.043 216.529 245.342C219.113 245.568 221.684 245.923 224.233 246.406C226.669 246.832 229.021 247.204 231.335 247.423C233.649 247.641 235.846 247.806 237.911 247.997C239.975 248.189 241.885 248.423 243.582 248.731C246.117 249.122 248.571 249.924 250.849 251.104C251.543 251.452 252.169 251.92 252.7 252.487Z" fill="#263238"/>
<path d="M171.996 244.449C172.025 244.638 172.007 244.832 171.943 245.013C171.799 245.545 171.561 246.048 171.24 246.497C170.416 247.699 168.719 249.327 165.734 250.46C163.073 251.38 160.345 252.091 157.573 252.588C156.477 252.79 155.589 252.939 154.966 253.03C154.643 253.09 154.316 253.127 153.988 253.142C154.291 253.053 154.601 252.984 154.913 252.934L157.467 252.402C160.186 251.865 162.867 251.145 165.489 250.247C167.631 249.509 169.524 248.186 170.953 246.428C171.386 245.817 171.736 245.151 171.996 244.449Z" fill="#263238"/>
<path d="M88.812 253.126C89.0905 252.948 89.3822 252.791 89.6845 252.657C90.2644 252.36 91.1315 251.961 92.2381 251.482C95.2227 250.219 98.2718 249.115 101.373 248.173C105.097 247.018 108.576 246.098 111.103 245.449C112.364 245.124 113.39 244.864 114.103 244.693C114.474 244.588 114.85 244.507 115.231 244.449C114.885 244.584 114.529 244.694 114.167 244.779L111.225 245.608C108.735 246.3 105.288 247.242 101.575 248.385C97.8613 249.529 94.6587 250.705 92.4137 251.62C91.2911 252.078 90.3921 252.461 89.7856 252.732C89.4714 252.888 89.146 253.019 88.812 253.126Z" fill="#263238"/>
<path d="M105.692 244.81C105.692 244.837 104.868 244.747 103.384 244.81C101.358 244.923 99.352 245.266 97.4039 245.832C94.7596 246.651 92.1676 247.63 89.642 248.763C88.1127 249.409 86.552 249.977 84.9657 250.466C83.1312 251.002 81.2609 251.407 79.3691 251.679C75.5745 252.175 71.7526 252.432 67.9257 252.45C64.3826 252.508 61.2013 252.45 58.536 252.53C55.8706 252.61 53.748 252.732 52.253 252.876C51.5189 252.95 50.9496 253.014 50.5666 253.067C50.3713 253.1 50.174 253.12 49.9761 253.126C49.9761 253.126 50.1676 253.083 50.5453 253.019C50.923 252.955 51.487 252.87 52.2211 252.78C53.6841 252.604 55.844 252.429 58.52 252.354C61.196 252.28 64.372 252.29 67.9098 252.221C71.7083 252.194 75.5015 251.932 79.268 251.439C81.1281 251.169 82.9678 250.773 84.7742 250.253C86.4553 249.747 87.9662 249.157 89.4132 248.577C91.9694 247.443 94.5958 246.475 97.2762 245.678C99.2635 245.119 101.31 244.797 103.373 244.72C104.123 244.72 104.708 244.72 105.102 244.752C105.3 244.757 105.497 244.777 105.692 244.81Z" fill="#263238"/>
</svg>
