<svg width="390" height="625" viewBox="0 0 390 625" fill="none" xmlns="http://www.w3.org/2000/svg">
<path d="M477.645 351.828C475.589 355.874 473.035 359.982 470.004 364.119C432.678 414.837 349.216 466.021 261.039 496.809C168.497 529.11 51.8272 557.103 -22.8432 550.021C-76.1213 544.983 -114.186 530.264 -131.975 503.103C-149.764 475.941 -157.548 440.539 -93.6626 390.667C-75.8518 376.755 -33.8365 353.906 -8.647 346.81C31.5558 335.497 62.8389 343.409 88.7071 351.532C114.575 359.656 145.768 367.626 185.965 356.399C216.868 347.771 243.701 330.255 272.519 316.565C321.557 293.283 379.92 280.743 422.215 284.403C436.398 285.649 448.686 288.604 458.548 293.14C483.956 304.741 490.473 326.52 477.547 351.863L477.645 351.828Z" fill="url(#paint0_linear_115_713)"/>
<path d="M500.329 110.55C500.453 116.336 500.062 122.339 499.161 128.513C487.925 204.247 425.908 293.439 346.579 357.673C263.315 425.073 150.795 493.646 63.9579 505.334C2.00825 513.694 -48.8454 505.342 -84.638 475.312C-120.431 445.282 -150.037 401.848 -108.907 319.802C-97.4449 296.917 -64.4947 255.776 -40.825 239.615C-3.04107 213.837 36.2718 215.312 69.7167 218.566C103.162 221.82 142.409 223.394 180.238 197.729C209.322 178.003 228.631 147.962 252.407 122.295C292.872 78.639 350.027 46.2189 399.005 39.1466C415.44 36.7985 430.792 37.1802 444.395 40.2753C479.394 48.1375 499.52 74.3755 500.241 110.624L500.329 110.55Z" fill="url(#paint1_linear_115_713)" fill-opacity="0.09"/>
<defs>
<linearGradient id="paint0_linear_115_713" x1="155.5" y1="297" x2="248.5" y2="498" gradientUnits="userSpaceOnUse">
<stop stop-color="#FF7315" stop-opacity="0.38"/>
<stop offset="1" stop-color="#FFE0C9" stop-opacity="0"/>
</linearGradient>
<linearGradient id="paint1_linear_115_713" x1="84.3193" y1="133.986" x2="302.874" y2="394.449" gradientUnits="userSpaceOnUse">
<stop stop-color="#FF7315"/>
<stop offset="1" stop-color="#FF7315" stop-opacity="0"/>
</linearGradient>
</defs>
</svg>
