<svg width="390" height="734" viewBox="0 0 390 734" fill="none" xmlns="http://www.w3.org/2000/svg">
<path d="M517.478 51.0317C522.13 57.3878 526.338 64.2691 530.069 71.6216C575.625 161.913 571.073 295.152 526.433 410.221C479.565 530.974 398.704 669.164 304.2 730.024C236.796 773.466 169.621 792.233 103.538 778.623C37.4543 765.013 -31.6835 733.108 -46.4867 619.324C-50.6283 587.592 -43.3456 523.738 -27.6872 492.742C-2.67641 443.283 45.3752 423.243 87.8117 408.415C130.248 393.587 178.3 373.694 203.452 324.336C222.794 286.394 222.444 242.389 230.829 200.778C245.119 129.988 288.07 62.4732 341 27.6132C358.78 15.9436 377.393 7.90267 396.032 3.83864C443.91 -6.72928 488.35 11.3084 517.431 51.1615L517.478 51.0317Z" fill="url(#paint0_linear_38_1327)"/>
<defs>
<linearGradient id="paint0_linear_38_1327" x1="68.2453" y1="286.813" x2="522.726" y2="385.983" gradientUnits="userSpaceOnUse">
<stop stop-color="#FF7315" stop-opacity="0.38"/>
<stop offset="1" stop-color="#FFE0C9" stop-opacity="0"/>
</linearGradient>
</defs>
</svg>
