<svg width="390" height="159" viewBox="0 0 390 159" fill="none" xmlns="http://www.w3.org/2000/svg">
<path d="M445.894 68.6076C443.838 72.6543 441.285 76.7621 438.253 80.899C400.928 131.617 317.466 182.801 229.289 213.589C136.746 245.89 20.0766 273.883 -54.5938 266.801C-107.872 261.763 -145.936 247.044 -163.725 219.883C-181.514 192.721 -189.298 157.319 -125.413 107.447C-107.602 93.5347 -65.5871 70.6862 -40.3975 63.5903C-0.194761 52.2766 31.0883 60.1894 56.9565 68.3125C82.8247 76.4356 114.018 84.4065 154.215 73.1792C185.117 64.5514 211.95 47.0352 240.769 33.345C289.806 10.0635 348.17 -2.47735 390.465 1.18315C404.648 2.42879 416.936 5.38379 426.797 9.92013C452.206 21.521 458.723 43.3001 445.796 68.6434L445.894 68.6076Z" fill="url(#paint0_linear_36_806)"/>
<defs>
<linearGradient id="paint0_linear_36_806" x1="123.749" y1="13.78" x2="216.749" y2="214.78" gradientUnits="userSpaceOnUse">
<stop stop-color="#FF7315" stop-opacity="0.38"/>
<stop offset="1" stop-color="#FFE0C9" stop-opacity="0"/>
</linearGradient>
</defs>
</svg>
