<svg width="390" height="829" viewBox="0 0 390 829" fill="none" xmlns="http://www.w3.org/2000/svg">
<path d="M497.686 40.2663C504.202 46.5017 510.321 53.4164 515.995 60.9564C585.39 153.601 606.815 304.531 579.394 442.945C550.592 588.201 486.918 759.824 392.434 847.078C325.053 909.348 253.01 943.788 175.745 941.555C98.4797 939.323 14.1212 917.095 -25.2623 791.904C-36.2605 756.994 -40.7738 683.651 -29.2881 645.646C-10.9317 585 39.2829 552.915 84.2017 527.811C129.121 502.706 179.364 470.787 197.9 410.226C212.158 363.671 202.99 314.189 204.154 265.673C206.164 183.132 241.16 98.5995 293.923 48.8603C311.655 32.1976 331.051 19.4558 351.269 11.1868C403.175 -10.1983 456.906 1.30806 497.659 40.4219L497.686 40.2663Z" fill="url(#paint0_linear_347_1703)"/>
<defs>
<linearGradient id="paint0_linear_347_1703" x1="37.8861" y1="394.761" x2="570.392" y2="416.082" gradientUnits="userSpaceOnUse">
<stop stop-color="#FF7315" stop-opacity="0.38"/>
<stop offset="1" stop-color="#FFE0C9" stop-opacity="0"/>
</linearGradient>
</defs>
</svg>
